<svg width="26" height="26" viewBox="0 0 26 26" fill="none" xmlns="http://www.w3.org/2000/svg">
<mask id="mask0_405_333" style="mask-type:alpha" maskUnits="userSpaceOnUse" x="0" y="0" width="26" height="26">
<rect width="26" height="26" fill="#D9D9D9"/>
</mask>
<g mask="url(#mask0_405_333)">
<path opacity="0.4" d="M18.029 19.3056L7.38786 19.3429C6.89298 19.3459 6.40236 19.2514 5.94405 19.0646C5.48574 18.8779 5.06874 18.6026 4.7169 18.2546C4.36505 17.9066 4.08527 17.4926 3.89354 17.0364C3.70181 16.5801 3.60191 16.0905 3.59953 15.5957L3.57578 8.81067L21.7672 8.74698L21.791 15.532C21.7921 16.0269 21.6956 16.5171 21.5071 16.9747C21.3185 17.4323 21.0417 17.8482 20.6923 18.1987C20.3429 18.5491 19.9278 18.8273 19.4708 19.0173C19.0138 19.2072 18.5239 19.3052 18.029 19.3056Z" fill="white"/>
<path d="M21.7681 8.74633L3.56931 8.80269L3.56462 7.46336C3.56353 6.96847 3.66 6.47822 3.84853 6.02064C4.03706 5.56307 4.31394 5.14714 4.66334 4.79666C5.01274 4.44618 5.4278 4.16801 5.88479 3.97807C6.34178 3.78813 6.83173 3.69013 7.32662 3.68969L17.9707 3.65537C18.4656 3.65234 18.9562 3.7469 19.4145 3.93364C19.8728 4.12038 20.2898 4.39563 20.6416 4.74366C20.9935 5.09169 21.2733 5.50566 21.465 5.9619C21.6567 6.41815 21.7566 6.90771 21.759 7.4026L21.7681 8.74633Z" fill="white"/>
<path d="M9.48467 16.541L7.49774 16.5479C7.40014 16.5483 7.30342 16.5294 7.21311 16.4923C7.1228 16.4553 7.04068 16.4008 6.97142 16.3321C6.83154 16.1932 6.75257 16.0044 6.75188 15.8073C6.75119 15.6101 6.82884 15.4208 6.96774 15.2809C7.10664 15.1411 7.29541 15.0621 7.49254 15.0614L9.47947 15.0544C9.67659 15.0538 9.86592 15.1314 10.0058 15.2703C10.1457 15.4092 10.2246 15.598 10.2253 15.7951C10.226 15.9922 10.1484 16.1816 10.0095 16.3214C9.87057 16.4613 9.68179 16.5403 9.48467 16.541Z" fill="white"/>
<path d="M15.9325 16.5187L11.9734 16.5325C11.7763 16.5332 11.587 16.4556 11.4471 16.3167C11.3072 16.1778 11.2282 15.989 11.2275 15.7919C11.2269 15.5948 11.3045 15.4054 11.4434 15.2655C11.5823 15.1257 11.7711 15.0467 11.9682 15.046L15.9273 15.0322C16.025 15.0315 16.1219 15.0502 16.2123 15.0871C16.3028 15.1241 16.385 15.1785 16.4543 15.2473C16.5237 15.3162 16.5787 15.398 16.6162 15.4882C16.6538 15.5784 16.6732 15.6751 16.6732 15.7728C16.6694 15.9685 16.5904 16.1553 16.4524 16.2942C16.3145 16.4331 16.1283 16.5135 15.9325 16.5187Z" fill="white"/>
<circle cx="20.6441" cy="17.3899" r="4.14212" fill="#8B8E7F"/>
<path d="M20.6836 15.7329V19.4608" stroke="white" stroke-width="0.5" stroke-linecap="round"/>
<path d="M22.7162 17.4275H18.9883" stroke="white" stroke-width="0.5" stroke-linecap="round"/>
</g>
</svg>
