<svg width="114" height="43" viewBox="0 0 114 43" fill="none" xmlns="http://www.w3.org/2000/svg">
<path d="M0 27.8437L2.97517 11.3631C2.99079 11.3006 3.02983 11.2694 3.09231 11.2694H6.57115C6.63362 11.2694 6.67266 11.3006 6.68828 11.3631L9.54632 27.8437C9.55413 27.9218 9.52289 27.9608 9.45261 27.9608H6.7937C6.71561 27.9608 6.67266 27.9218 6.66485 27.8437L6.40716 26.0867H3.13916L2.88147 27.8437C2.87366 27.9218 2.83461 27.9608 2.76433 27.9608H0.0937062C0.0312354 27.9608 0 27.9218 0 27.8437ZM4.69702 16.7864L3.6194 23.5215H5.92692L4.943 16.7864L4.80244 15.8961L4.69702 16.7864Z" fill="white"/>
<path d="M16.0392 27.9608H13.3217C13.2437 27.9608 13.2046 27.9218 13.2046 27.8437L13.228 11.3631C13.228 11.3006 13.2593 11.2694 13.3217 11.2694H16.0158C16.0783 11.2694 16.1095 11.3006 16.1095 11.3631L16.1329 27.8437C16.1329 27.9218 16.1017 27.9608 16.0392 27.9608Z" fill="white"/>
<path d="M33.2067 28.1951C32.3399 28.1951 31.5473 27.9764 30.8289 27.5391C30.1183 27.1019 29.5521 26.5162 29.1305 25.7822C28.7166 25.0403 28.5096 24.2165 28.5096 23.3107L28.5331 15.8259C28.5331 14.9357 28.7361 14.1313 29.1422 13.4129C29.5482 12.6867 30.1066 12.105 30.8172 11.6677C31.5356 11.2226 32.3321 11 33.2067 11C34.0969 11 34.8895 11.2147 35.5845 11.6442C36.2873 12.0737 36.8456 12.6555 37.2595 13.3895C37.6811 14.1157 37.892 14.9279 37.892 15.8259V16.9269C37.892 16.9894 37.8607 17.0206 37.7983 17.0206H35.1042C35.0418 17.0206 35.0105 16.9894 35.0105 16.9269V15.8259C35.0105 15.2949 34.8387 14.8381 34.4951 14.4554C34.1515 14.0728 33.7221 13.8815 33.2067 13.8815C32.6366 13.8815 32.1993 14.0767 31.8948 14.4671C31.5902 14.8576 31.438 15.3105 31.438 15.8259V23.3107C31.438 23.8963 31.6098 24.3766 31.9534 24.7514C32.2969 25.1184 32.7147 25.3019 33.2067 25.3019C33.7221 25.3019 34.1515 25.0989 34.4951 24.6928C34.8387 24.279 35.0105 23.8182 35.0105 23.3107V22.1979C35.0105 22.1354 35.0418 22.1042 35.1042 22.1042H37.8217C37.8842 22.1042 37.9154 22.1354 37.9154 22.1979V23.3107C37.9154 24.2087 37.7046 25.0286 37.2829 25.7704C36.8534 26.5045 36.2873 27.094 35.5845 27.5391C34.8817 27.9764 34.0891 28.1951 33.2067 28.1951Z" fill="white"/>
<path d="M44.6309 27.9608H41.9134C41.8509 27.9608 41.8197 27.9218 41.8197 27.8437L41.8431 11.3631C41.8431 11.3006 41.8821 11.2694 41.9602 11.2694H44.6309C44.709 11.2694 44.748 11.3006 44.748 11.3631L44.7246 17.8874H48.3205V11.3631C48.3205 11.3006 48.3518 11.2694 48.4143 11.2694H51.0849C51.163 11.2694 51.202 11.3006 51.202 11.3631L51.2489 27.8437C51.2489 27.9218 51.2098 27.9608 51.1317 27.9608H48.4377C48.3596 27.9608 48.3205 27.9218 48.3205 27.8437V20.7923H44.7246V27.8437C44.7246 27.9218 44.6933 27.9608 44.6309 27.9608Z" fill="white"/>
<path d="M54.5558 27.8437L57.5309 11.3631C57.5465 11.3006 57.5856 11.2694 57.6481 11.2694H61.1269C61.1894 11.2694 61.2284 11.3006 61.244 11.3631L64.1021 27.8437C64.1099 27.9218 64.0787 27.9608 64.0084 27.9608H61.3495C61.2714 27.9608 61.2284 27.9218 61.2206 27.8437L60.9629 26.0867H57.6949L57.4372 27.8437C57.4294 27.9218 57.3904 27.9608 57.3201 27.9608H54.6495C54.587 27.9608 54.5558 27.9218 54.5558 27.8437ZM59.2528 16.7864L58.1752 23.5215H60.4827L59.4988 16.7864L59.3582 15.8961L59.2528 16.7864Z" fill="white"/>
<path d="M71.4266 27.9608H68.7209C68.6506 27.9608 68.6154 27.9218 68.6154 27.8437V14.1626H65.4997C65.4216 14.1626 65.3826 14.1235 65.3826 14.0455L65.406 11.3631C65.406 11.3006 65.4372 11.2694 65.4997 11.2694H74.6126C74.6985 11.2694 74.7415 11.3006 74.7415 11.3631V14.0455C74.7415 14.1235 74.7102 14.1626 74.6478 14.1626H71.4969L71.5203 27.8437C71.5203 27.9218 71.4891 27.9608 71.4266 27.9608Z" fill="white"/>
<path d="M82.4643 27.9608H78.1655C78.103 27.9608 78.0718 27.9218 78.0718 27.8437L78.1187 11.3631C78.1187 11.3006 78.1499 11.2694 78.2124 11.2694H82.8274C83.7254 11.2694 84.5414 11.4881 85.2755 11.9253C85.9939 12.3626 86.56 12.9444 86.9739 13.6706C87.3878 14.389 87.5947 15.1699 87.5947 16.0133C87.5947 16.7005 87.4385 17.3408 87.1262 17.9343C86.8138 18.5277 86.4429 19.008 86.0134 19.375C86.4741 19.8357 86.8333 20.3706 87.091 20.9797C87.3487 21.5888 87.4776 22.2291 87.4776 22.9007C87.4776 23.8299 87.255 24.6772 86.8099 25.4425C86.357 26.2077 85.7518 26.8207 84.9943 27.2815C84.2369 27.7344 83.3935 27.9608 82.4643 27.9608ZM82.8274 14.1157H81.0001V17.8874H82.8274C83.3818 17.8874 83.8308 17.6922 84.1744 17.3017C84.518 16.9035 84.6898 16.474 84.6898 16.0133C84.6898 15.5057 84.5063 15.0645 84.1393 14.6897C83.7723 14.307 83.335 14.1157 82.8274 14.1157ZM82.4643 20.7923H81.0001L80.9767 25.0325H82.4643C83.0421 25.0325 83.538 24.8217 83.9519 24.4C84.3657 23.9783 84.5727 23.4785 84.5727 22.9007C84.5727 22.3228 84.3657 21.827 83.9519 21.4131C83.538 20.9992 83.0421 20.7923 82.4643 20.7923Z" fill="white"/>
<path d="M95.7977 28.1951C94.9466 28.1951 94.1618 27.9764 93.4434 27.5391C92.7328 27.1019 92.1588 26.5201 91.7215 25.7939C91.292 25.0598 91.0773 24.2555 91.0773 23.3809L91.1007 15.779C91.1007 14.8888 91.3155 14.0884 91.7449 13.3778C92.1666 12.6594 92.7367 12.0854 93.4551 11.6559C94.1735 11.2186 94.9544 11 95.7977 11C96.6723 11 97.4571 11.2147 98.1521 11.6442C98.8549 12.0737 99.4171 12.6516 99.8388 13.3778C100.268 14.0962 100.483 14.8966 100.483 15.779L100.506 23.3809C100.506 24.2555 100.296 25.0559 99.874 25.7822C99.4445 26.5162 98.8744 27.1019 98.1638 27.5391C97.4532 27.9764 96.6645 28.1951 95.7977 28.1951ZM95.7977 25.3019C96.2819 25.3019 96.7036 25.1067 97.0628 24.7162C97.422 24.318 97.6016 23.8729 97.6016 23.3809L97.5782 15.779C97.5782 15.248 97.4103 14.799 97.0745 14.432C96.7387 14.065 96.3131 13.8815 95.7977 13.8815C95.3058 13.8815 94.8841 14.0611 94.5327 14.4203C94.1813 14.7795 94.0056 15.2324 94.0056 15.779V23.3809C94.0056 23.9041 94.1813 24.357 94.5327 24.7397C94.8841 25.1145 95.3058 25.3019 95.7977 25.3019Z" fill="white"/>
<path d="M109.108 27.9608H106.402C106.332 27.9608 106.297 27.9218 106.297 27.8437V14.1626H103.181C103.103 14.1626 103.064 14.1235 103.064 14.0455L103.087 11.3631C103.087 11.3006 103.118 11.2694 103.181 11.2694H112.294C112.38 11.2694 112.423 11.3006 112.423 11.3631V14.0455C112.423 14.1235 112.391 14.1626 112.329 14.1626H109.178L109.201 27.8437C109.201 27.9218 109.17 27.9608 109.108 27.9608Z" fill="white"/>
<path d="M1.14062 28.8828L0.648579 28.794L0.640625 28.838V28.8828H1.14062ZM4.11719 12.3945L3.63212 12.2733L3.62809 12.2894L3.62514 12.3057L4.11719 12.3945ZM7.83203 12.3945L8.32468 12.3091L8.32155 12.291L8.3171 12.2733L7.83203 12.3945ZM10.6914 28.8828L11.1889 28.8331L11.1871 28.8151L11.1841 28.7974L10.6914 28.8828ZM7.80859 28.8828L8.30611 28.8331L8.30497 28.8216L8.3033 28.8103L7.80859 28.8828ZM7.55078 27.125L8.04549 27.0524L7.9828 26.625H7.55078V27.125ZM4.28125 27.125V26.625H3.84923L3.78654 27.0524L4.28125 27.125ZM4.02344 28.8828L3.52873 28.8103L3.52706 28.8216L3.52592 28.8331L4.02344 28.8828ZM5.83984 17.8203L6.33356 17.8993L6.33518 17.8892L6.33637 17.8791L5.83984 17.8203ZM4.76172 24.5586L4.268 24.4796L4.17536 25.0586H4.76172V24.5586ZM7.07031 24.5586V25.0586H7.64866L7.56506 24.4863L7.07031 24.5586ZM6.08594 17.8203L6.58072 17.748L6.57982 17.7423L6.08594 17.8203ZM5.94531 16.9297L6.43919 16.8517L5.44878 16.8709L5.94531 16.9297ZM1.63267 28.9716L4.60923 12.4834L3.62514 12.3057L0.648579 28.794L1.63267 28.9716ZM4.60226 12.5158C4.59121 12.56 4.55836 12.6444 4.47055 12.7147C4.38117 12.7862 4.28768 12.8008 4.23438 12.8008V11.8008C4.11857 11.8008 3.97429 11.831 3.84586 11.9338C3.71899 12.0353 3.65879 12.1666 3.63212 12.2733L4.60226 12.5158ZM4.23438 12.8008H7.71484V11.8008H4.23438V12.8008ZM7.71484 12.8008C7.66153 12.8008 7.56804 12.7862 7.47867 12.7147C7.39086 12.6444 7.358 12.56 7.34696 12.5158L8.3171 12.2733C8.29043 12.1666 8.23023 12.0353 8.10336 11.9338C7.97492 11.831 7.83065 11.8008 7.71484 11.8008V12.8008ZM7.33938 12.48L10.1988 28.9682L11.1841 28.7974L8.32468 12.3091L7.33938 12.48ZM10.1939 28.9326C10.192 28.9132 10.1814 28.7859 10.2834 28.6584C10.3968 28.5166 10.5457 28.5 10.5977 28.5V29.5C10.7199 29.5 10.9196 29.4639 11.0643 29.2831C11.1975 29.1164 11.1987 28.9306 11.1889 28.8331L10.1939 28.9326ZM10.5977 28.5H7.9375V29.5H10.5977V28.5ZM7.9375 28.5C7.97921 28.5 8.08462 28.5113 8.18302 28.6007C8.28105 28.6899 8.3021 28.793 8.30611 28.8331L7.31108 28.9326C7.3229 29.0508 7.36934 29.2125 7.51034 29.3407C7.65171 29.4692 7.81767 29.5 7.9375 29.5V28.5ZM8.3033 28.8103L8.04549 27.0524L7.05607 27.1976L7.31389 28.9554L8.3033 28.8103ZM7.55078 26.625H4.28125V27.625H7.55078V26.625ZM3.78654 27.0524L3.52873 28.8103L4.51814 28.9554L4.77596 27.1976L3.78654 27.0524ZM3.52592 28.8331C3.52875 28.8047 3.54431 28.7076 3.63473 28.6171C3.73278 28.5191 3.84678 28.5 3.90625 28.5V29.5C4.03603 29.5 4.20472 29.4614 4.34183 29.3243C4.47131 29.1948 4.51031 29.039 4.52096 28.9326L3.52592 28.8331ZM3.90625 28.5H1.23438V29.5H3.90625V28.5ZM1.23438 28.5C1.31348 28.5 1.45201 28.5302 1.5545 28.6584C1.63994 28.7652 1.64062 28.8685 1.64062 28.8828H0.640625C0.640625 28.9753 0.656936 29.1372 0.773628 29.2831C0.907364 29.4502 1.09277 29.5 1.23438 29.5V28.5ZM5.34612 17.7413L4.268 24.4796L5.25544 24.6376L6.33356 17.8993L5.34612 17.7413ZM4.76172 25.0586H7.07031V24.0586H4.76172V25.0586ZM7.56506 24.4863L6.58069 17.748L5.59119 17.8926L6.57556 24.6309L7.56506 24.4863ZM6.57982 17.7423L6.43919 16.8517L5.45143 17.0077L5.59206 17.8983L6.57982 17.7423ZM5.44878 16.8709L5.34331 17.7615L6.33637 17.8791L6.44184 16.9885L5.44878 16.8709ZM14.3514 28.8828L13.8514 28.8821V28.8828H14.3514ZM14.3748 12.3945L14.8748 12.3952V12.3945H14.3748ZM17.2577 12.3945L16.7577 12.3945L16.7577 12.3952L17.2577 12.3945ZM17.2811 28.8828L17.7811 28.8828L17.7811 28.8821L17.2811 28.8828ZM17.1873 28.5H14.4686V29.5H17.1873V28.5ZM14.4686 28.5C14.5066 28.5 14.6269 28.5098 14.7343 28.6171C14.8416 28.7245 14.8514 28.8448 14.8514 28.8828H13.8514C13.8514 28.9989 13.8808 29.1779 14.0271 29.3243C14.1735 29.4706 14.3525 29.5 14.4686 29.5V28.5ZM14.8514 28.8835L14.8748 12.3952L13.8748 12.3938L13.8514 28.8821L14.8514 28.8835ZM14.8748 12.3945C14.8748 12.4404 14.863 12.5666 14.7518 12.6778C14.6406 12.789 14.5144 12.8008 14.4686 12.8008V11.8008C14.3603 11.8008 14.1872 11.8282 14.0447 11.9707C13.9023 12.1131 13.8748 12.2862 13.8748 12.3945H14.8748ZM14.4686 12.8008H17.1639V11.8008H14.4686V12.8008ZM17.1639 12.8008C17.1181 12.8008 16.9919 12.789 16.8807 12.6778C16.7695 12.5666 16.7577 12.4404 16.7577 12.3945H17.7577C17.7577 12.2862 17.7302 12.1131 17.5878 11.9707C17.4453 11.8282 17.2722 11.8008 17.1639 11.8008V12.8008ZM16.7577 12.3952L16.7811 28.8835L17.7811 28.8821L17.7577 12.3938L16.7577 12.3952ZM16.7811 28.8828C16.7811 28.8685 16.7818 28.7652 16.8672 28.6584C16.9697 28.5302 17.1082 28.5 17.1873 28.5V29.5C17.3289 29.5 17.5144 29.4502 17.6481 29.2831C17.7648 29.1372 17.7811 28.9753 17.7811 28.8828H16.7811ZM31.9839 28.5781L31.7219 29.004L31.7239 29.0052L31.9839 28.5781ZM30.2847 26.8203L29.848 27.0639L29.8511 27.0694L30.2847 26.8203ZM29.6636 24.3477L29.1636 24.3461V24.3477H29.6636ZM29.687 16.8594L30.187 16.8609V16.8594H29.687ZM30.2964 14.4453L30.7317 14.6913L30.7328 14.6893L30.2964 14.4453ZM31.9722 12.6992L32.2342 13.125L32.2355 13.1243L31.9722 12.6992ZM36.7417 12.6758L36.4789 13.1011L36.481 13.1024L36.7417 12.6758ZM38.4175 14.4219L37.9819 14.6675L37.9851 14.6729L38.4175 14.4219ZM33.1089 25.7891L32.7403 26.1269L32.7439 26.1308L33.1089 25.7891ZM35.6519 25.7305L36.0336 26.0535L36.0366 26.0498L35.6519 25.7305ZM38.4409 26.8086L38.8725 27.0611L38.8756 27.0557L38.4409 26.8086ZM36.7417 28.5781L37.0059 29.0027L37.0092 29.0005L36.7417 28.5781ZM34.3628 28.7344C33.5844 28.7344 32.8818 28.5393 32.2439 28.151L31.7239 29.0052C32.5235 29.4919 33.4069 29.7344 34.3628 29.7344V28.7344ZM32.246 28.1523C31.6071 27.7592 31.0992 27.2344 30.7182 26.5713L29.8511 27.0694C30.3139 27.875 30.9388 28.5221 31.7219 29.004L32.246 28.1523ZM30.7213 26.5767C30.3516 25.9139 30.1636 25.1745 30.1636 24.3477H29.1636C29.1636 25.3333 29.3897 26.2423 29.848 27.0639L30.7213 26.5767ZM30.1636 24.3492L30.187 16.8609L29.187 16.8578L29.1636 24.3461L30.1636 24.3492ZM30.187 16.8594C30.187 16.048 30.3712 15.3292 30.7317 14.6913L29.8611 14.1993C29.4091 14.999 29.187 15.8895 29.187 16.8594H30.187ZM30.7328 14.6893C31.0973 14.0375 31.5958 13.518 32.2342 13.125L31.7101 12.2734C30.9267 12.7555 30.308 13.4 29.86 14.2013L30.7328 14.6893ZM32.2355 13.1243C32.8723 12.7297 33.5774 12.5312 34.3628 12.5312V11.5312C33.3982 11.5312 32.5095 11.7781 31.7089 12.2742L32.2355 13.1243ZM34.3628 12.5312C35.1692 12.5312 35.8696 12.7246 36.4789 13.1011L37.0046 12.2504C36.2232 11.7676 35.3377 11.5312 34.3628 11.5312V12.5312ZM36.481 13.1024C37.1096 13.4866 37.6088 14.0056 37.982 14.6674L38.853 14.1763C38.3981 13.3694 37.7801 12.7244 37.0024 12.2491L36.481 13.1024ZM37.9851 14.6729C38.3596 15.3179 38.5503 16.0428 38.5503 16.8594H39.5503C39.5503 15.8791 39.3191 14.9789 38.8499 14.1708L37.9851 14.6729ZM38.5503 16.8594V17.9609H39.5503V16.8594H38.5503ZM38.5503 17.9609C38.5503 17.9151 38.5621 17.7889 38.6733 17.6777C38.7845 17.5665 38.9107 17.5547 38.9566 17.5547V18.5547C39.0649 18.5547 39.238 18.5273 39.3804 18.3848C39.5229 18.2423 39.5503 18.0693 39.5503 17.9609H38.5503ZM38.9566 17.5547H36.2612V18.5547H38.9566V17.5547ZM36.2612 17.5547C36.3071 17.5547 36.4333 17.5665 36.5445 17.6777C36.6557 17.7889 36.6675 17.9151 36.6675 17.9609H35.6675C35.6675 18.0693 35.6949 18.2423 35.8374 18.3848C35.9798 18.5273 36.1529 18.5547 36.2612 18.5547V17.5547ZM36.6675 17.9609V16.8594H35.6675V17.9609H36.6675ZM36.6675 16.8594C36.6675 16.2092 36.4529 15.632 36.0239 15.1542L35.2799 15.8223C35.5383 16.1102 35.6675 16.447 35.6675 16.8594H36.6675ZM36.0239 15.1542C35.5851 14.6655 35.02 14.4141 34.3628 14.4141V15.4141C34.7369 15.4141 35.0312 15.5454 35.2799 15.8223L36.0239 15.1542ZM34.3628 14.4141C33.6648 14.4141 33.0706 14.661 32.6561 15.1925L33.4446 15.8075C33.6394 15.5577 33.9202 15.4141 34.3628 15.4141V14.4141ZM32.6561 15.1925C32.2799 15.6748 32.0933 16.2372 32.0933 16.8594H33.0933C33.0933 16.4503 33.2114 16.1065 33.4446 15.8075L32.6561 15.1925ZM32.0933 16.8594V24.3477H33.0933V16.8594H32.0933ZM32.0933 24.3477C32.0933 25.0384 32.2993 25.6458 32.7403 26.1269L33.4775 25.4512C33.2311 25.1824 33.0933 24.8288 33.0933 24.3477H32.0933ZM32.7439 26.1308C33.1798 26.5964 33.7289 26.8398 34.3628 26.8398V25.8398C34.0124 25.8398 33.7255 25.7161 33.4739 25.4474L32.7439 26.1308ZM34.3628 26.8398C35.0309 26.8398 35.5983 26.5678 36.0336 26.0534L35.2702 25.4075C35.0179 25.7056 34.726 25.8398 34.3628 25.8398V26.8398ZM36.0366 26.0498C36.45 25.5518 36.6675 24.9794 36.6675 24.3477H35.6675C35.6675 24.7315 35.5412 25.081 35.2672 25.4111L36.0366 26.0498ZM36.6675 24.3477V23.2344H35.6675V24.3477H36.6675ZM36.6675 23.2344C36.6675 23.2802 36.6557 23.4064 36.5445 23.5176C36.4333 23.6288 36.3071 23.6406 36.2612 23.6406V22.6406C36.1529 22.6406 35.9798 22.668 35.8374 22.8105C35.6949 22.953 35.6675 23.1261 35.6675 23.2344H36.6675ZM36.2612 23.6406H38.98V22.6406H36.2612V23.6406ZM38.98 23.6406C38.9342 23.6406 38.808 23.6288 38.6968 23.5176C38.5855 23.4064 38.5737 23.2802 38.5737 23.2344H39.5737C39.5737 23.1261 39.5463 22.953 39.4039 22.8105C39.2614 22.668 39.0883 22.6406 38.98 22.6406V23.6406ZM38.5737 23.2344V24.3477H39.5737V23.2344H38.5737ZM38.5737 24.3477C38.5737 25.1642 38.383 25.8986 38.0063 26.5615L38.8756 27.0557C39.3426 26.2342 39.5737 25.328 39.5737 24.3477H38.5737ZM38.0094 26.5561C37.6191 27.2231 37.1083 27.7541 36.4742 28.1557L37.0092 29.0005C37.7814 28.5115 38.4034 27.8628 38.8725 27.0611L38.0094 26.5561ZM36.4776 28.1536C35.859 28.5385 35.1587 28.7344 34.3628 28.7344V29.7344C35.3326 29.7344 36.2182 29.4928 37.0059 29.0027L36.4776 28.1536ZM42.9798 28.8828L42.4798 28.8821V28.8828H42.9798ZM43.0033 12.3945L43.5033 12.3952V12.3945H43.0033ZM45.9095 12.3945L46.4095 12.3963V12.3945H45.9095ZM45.8861 18.9219L45.3861 18.9201L45.3843 19.4219H45.8861V18.9219ZM49.4837 18.9219V19.4219H49.9837V18.9219H49.4837ZM52.3666 12.3945L51.8666 12.3945L51.8666 12.396L52.3666 12.3945ZM52.4134 28.8828L52.9134 28.8828L52.9134 28.8814L52.4134 28.8828ZM49.4837 21.8281H49.9837V21.3281H49.4837V21.8281ZM45.8861 21.8281V21.3281H45.3861V21.8281H45.8861ZM45.7923 28.5H43.0736V29.5H45.7923V28.5ZM43.0736 28.5C43.1527 28.5 43.2912 28.5302 43.3937 28.6584C43.4792 28.7652 43.4798 28.8685 43.4798 28.8828H42.4798C42.4798 28.9753 42.4962 29.1372 42.6128 29.2831C42.7466 29.4502 42.932 29.5 43.0736 29.5V28.5ZM43.4798 28.8835L43.5033 12.3952L42.5033 12.3938L42.4798 28.8821L43.4798 28.8835ZM43.5033 12.3945C43.5033 12.4736 43.473 12.6122 43.3449 12.7147C43.2381 12.8001 43.1348 12.8008 43.1205 12.8008V11.8008C43.028 11.8008 42.8661 11.8171 42.7202 11.9338C42.5531 12.0675 42.5033 12.2529 42.5033 12.3945H43.5033ZM43.1205 12.8008H45.7923V11.8008H43.1205V12.8008ZM45.7923 12.8008C45.778 12.8008 45.6747 12.8001 45.5679 12.7147C45.4398 12.6122 45.4095 12.4736 45.4095 12.3945H46.4095C46.4095 12.2529 46.3598 12.0675 46.1926 11.9338C46.0467 11.8171 45.8848 11.8008 45.7923 11.8008V12.8008ZM45.4095 12.3927L45.3861 18.9201L46.3861 18.9237L46.4095 12.3963L45.4095 12.3927ZM45.8861 19.4219H49.4837V18.4219H45.8861V19.4219ZM49.9837 18.9219V12.3945H48.9837V18.9219H49.9837ZM49.9837 12.3945C49.9837 12.4404 49.972 12.5666 49.8607 12.6778C49.7495 12.789 49.6233 12.8008 49.5775 12.8008V11.8008C49.4692 11.8008 49.2961 11.8282 49.1536 11.9707C49.0112 12.1131 48.9837 12.2862 48.9837 12.3945H49.9837ZM49.5775 12.8008H52.2494V11.8008H49.5775V12.8008ZM52.2494 12.8008C52.235 12.8008 52.1317 12.8001 52.0249 12.7147C51.8968 12.6122 51.8666 12.4736 51.8666 12.3945H52.8666C52.8666 12.2529 52.8168 12.0675 52.6496 11.9338C52.5037 11.8171 52.3419 11.8008 52.2494 11.8008V12.8008ZM51.8666 12.396L51.9134 28.8842L52.9134 28.8814L52.8666 12.3931L51.8666 12.396ZM51.9134 28.8828C51.9134 28.8448 51.9233 28.7245 52.0306 28.6171C52.1379 28.5098 52.2582 28.5 52.2962 28.5V29.5C52.4124 29.5 52.5913 29.4706 52.7377 29.3243C52.8841 29.1779 52.9134 28.9989 52.9134 28.8828H51.9134ZM52.2962 28.5H49.6009V29.5H52.2962V28.5ZM49.6009 28.5C49.6389 28.5 49.7593 28.5098 49.8666 28.6171C49.9739 28.7245 49.9837 28.8448 49.9837 28.8828H48.9837C48.9837 28.9989 49.0131 29.1779 49.1595 29.3243C49.3059 29.4706 49.4848 29.5 49.6009 29.5V28.5ZM49.9837 28.8828V21.8281H48.9837V28.8828H49.9837ZM49.4837 21.3281H45.8861V22.3281H49.4837V21.3281ZM45.3861 21.8281V28.8828H46.3861V21.8281H45.3861ZM45.3861 28.8828C45.3861 28.8685 45.3868 28.7652 45.4722 28.6584C45.5747 28.5302 45.7132 28.5 45.7923 28.5V29.5C45.9339 29.5 46.1194 29.4502 46.2531 29.2831C46.3698 29.1372 46.3861 28.9753 46.3861 28.8828H45.3861ZM55.7219 28.8828L55.2298 28.794L55.2219 28.838V28.8828H55.7219ZM58.6984 12.3945L58.2134 12.2733L58.2093 12.2894L58.2064 12.3057L58.6984 12.3945ZM62.4133 12.3945L62.9059 12.3091L62.9028 12.291L62.8984 12.2733L62.4133 12.3945ZM65.2727 28.8828L65.7702 28.8331L65.7684 28.8151L65.7653 28.7974L65.2727 28.8828ZM62.3898 28.8828L62.8874 28.8331L62.8862 28.8216L62.8846 28.8103L62.3898 28.8828ZM62.132 27.125L62.6267 27.0524L62.564 26.625H62.132V27.125ZM58.8625 27.125V26.625H58.4305L58.3678 27.0524L58.8625 27.125ZM58.6047 28.8828L58.11 28.8103L58.1083 28.8216L58.1072 28.8331L58.6047 28.8828ZM60.4211 17.8203L60.9148 17.8993L60.9164 17.8892L60.9176 17.8791L60.4211 17.8203ZM59.343 24.5586L58.8492 24.4796L58.7566 25.0586H59.343V24.5586ZM61.6516 24.5586V25.0586H62.2299L62.1463 24.4863L61.6516 24.5586ZM60.6672 17.8203L61.162 17.748L61.1611 17.7423L60.6672 17.8203ZM60.5266 16.9297L61.0204 16.8517L60.03 16.8709L60.5266 16.9297ZM56.2139 28.9716L59.1905 12.4834L58.2064 12.3057L55.2298 28.794L56.2139 28.9716ZM59.1835 12.5158C59.1725 12.56 59.1396 12.6444 59.0518 12.7147C58.9624 12.7862 58.8689 12.8008 58.8156 12.8008V11.8008C58.6998 11.8008 58.5555 11.831 58.4271 11.9338C58.3002 12.0353 58.24 12.1666 58.2134 12.2733L59.1835 12.5158ZM58.8156 12.8008H62.2961V11.8008H58.8156V12.8008ZM62.2961 12.8008C62.2428 12.8008 62.1493 12.7862 62.0599 12.7147C61.9721 12.6444 61.9393 12.56 61.9282 12.5158L62.8984 12.2733C62.8717 12.1666 62.8115 12.0353 62.6846 11.9338C62.5562 11.831 62.4119 11.8008 62.2961 11.8008V12.8008ZM61.9206 12.48L64.78 28.9682L65.7653 28.7974L62.9059 12.3091L61.9206 12.48ZM64.7751 28.9326C64.7732 28.9132 64.7626 28.7859 64.8646 28.6584C64.9781 28.5166 65.1269 28.5 65.1789 28.5V29.5C65.3012 29.5 65.5008 29.4639 65.6455 29.2831C65.7788 29.1164 65.7799 28.9306 65.7702 28.8331L64.7751 28.9326ZM65.1789 28.5H62.5187V29.5H65.1789V28.5ZM62.5187 28.5C62.5605 28.5 62.6659 28.5113 62.7643 28.6007C62.8623 28.6899 62.8834 28.793 62.8874 28.8331L61.8923 28.9326C61.9041 29.0508 61.9506 29.2125 62.0916 29.3407C62.233 29.4692 62.3989 29.5 62.5187 29.5V28.5ZM62.8846 28.8103L62.6267 27.0524L61.6373 27.1976L61.8951 28.9554L62.8846 28.8103ZM62.132 26.625H58.8625V27.625H62.132V26.625ZM58.3678 27.0524L58.11 28.8103L59.0994 28.9554L59.3572 27.1976L58.3678 27.0524ZM58.1072 28.8331C58.11 28.8047 58.1256 28.7076 58.216 28.6171C58.314 28.5191 58.428 28.5 58.4875 28.5V29.5C58.6173 29.5 58.786 29.4614 58.9231 29.3243C59.0526 29.1948 59.0916 29.039 59.1022 28.9326L58.1072 28.8331ZM58.4875 28.5H55.8156V29.5H58.4875V28.5ZM55.8156 28.5C55.8947 28.5 56.0333 28.5302 56.1357 28.6584C56.2212 28.7652 56.2219 28.8685 56.2219 28.8828H55.2219C55.2219 28.9753 55.2382 29.1372 55.3549 29.2831C55.4886 29.4502 55.674 29.5 55.8156 29.5V28.5ZM59.9274 17.7413L58.8492 24.4796L59.8367 24.6376L60.9148 17.8993L59.9274 17.7413ZM59.343 25.0586H61.6516V24.0586H59.343V25.0586ZM62.1463 24.4863L61.1619 17.748L60.1724 17.8926L61.1568 24.6309L62.1463 24.4863ZM61.1611 17.7423L61.0204 16.8517L60.0327 17.0077L60.1733 17.8983L61.1611 17.7423ZM60.03 16.8709L59.9246 17.7615L60.9176 17.8791L61.0231 16.9885L60.03 16.8709ZM69.7881 15.1953H70.2881V14.6953H69.7881V15.1953ZM66.5537 15.0781L66.0537 15.0738V15.0781H66.5537ZM66.5772 12.3945L67.0772 12.3989V12.3945H66.5772ZM72.6709 15.1953V14.6953H72.1701L72.1709 15.1962L72.6709 15.1953ZM72.6944 28.8828H73.1944L73.1944 28.882L72.6944 28.8828ZM72.6006 28.5H69.8936V29.5H72.6006V28.5ZM69.8936 28.5C69.9499 28.5 70.0798 28.5181 70.1861 28.6362C70.2835 28.7444 70.2881 28.857 70.2881 28.8828H69.2881C69.2881 28.9867 69.3104 29.158 69.4428 29.3052C69.5843 29.4624 69.767 29.5 69.8936 29.5V28.5ZM70.2881 28.8828V15.1953H69.2881V28.8828H70.2881ZM69.7881 14.6953H66.6709V15.6953H69.7881V14.6953ZM66.6709 14.6953C66.7089 14.6953 66.8293 14.7052 66.9366 14.8125C67.0439 14.9198 67.0537 15.0401 67.0537 15.0781H66.0537C66.0537 15.1943 66.0831 15.3732 66.2295 15.5196C66.3759 15.6659 66.5548 15.6953 66.6709 15.6953V14.6953ZM67.0537 15.0825L67.0772 12.3989L66.0772 12.3902L66.0538 15.0738L67.0537 15.0825ZM67.0772 12.3945C67.0772 12.4404 67.0654 12.5666 66.9542 12.6778C66.843 12.789 66.7168 12.8008 66.6709 12.8008V11.8008C66.5626 11.8008 66.3895 11.8282 66.2471 11.9707C66.1046 12.1131 66.0772 12.2862 66.0772 12.3945H67.0772ZM66.6709 12.8008H75.7881V11.8008H66.6709V12.8008ZM75.7881 12.8008C75.7854 12.8008 75.693 12.8029 75.5907 12.7286C75.5342 12.6875 75.486 12.6306 75.4544 12.5618C75.4242 12.4958 75.417 12.4359 75.417 12.3945H76.417C76.417 12.2354 76.3537 12.047 76.1789 11.9199C76.0337 11.8142 75.8768 11.8008 75.7881 11.8008V12.8008ZM75.417 12.3945V15.0781H76.417V12.3945H75.417ZM75.417 15.0781C75.417 15.0638 75.4177 14.9605 75.5032 14.8537C75.6056 14.7256 75.7442 14.6953 75.8233 14.6953V15.6953C75.9649 15.6953 76.1503 15.6455 76.284 15.4784C76.4007 15.3325 76.417 15.1706 76.417 15.0781H75.417ZM75.8233 14.6953H72.6709V15.6953H75.8233V14.6953ZM72.1709 15.1962L72.1944 28.8837L73.1944 28.882L73.1709 15.1945L72.1709 15.1962ZM72.1944 28.8828C72.1944 28.8685 72.1951 28.7652 72.2805 28.6584C72.383 28.5302 72.5215 28.5 72.6006 28.5V29.5C72.7422 29.5 72.9276 29.4502 73.0614 29.2831C73.1781 29.1372 73.1944 28.9753 73.1944 28.8828H72.1944ZM79.2489 28.8828L78.7489 28.8814V28.8828H79.2489ZM79.2958 12.3945L79.7958 12.396V12.3945H79.2958ZM86.4559 12.957L86.7159 12.5299L86.7118 12.5275L86.4559 12.957ZM88.1552 14.7031L87.7207 14.9507L87.7219 14.9527L88.1552 14.7031ZM87.1942 20.4102L86.8694 20.03L86.4583 20.3813L86.8407 20.7637L87.1942 20.4102ZM87.9911 26.4805L88.4214 26.7351L88.4233 26.7319L87.9911 26.4805ZM86.1747 28.3203L86.4313 28.7495L86.4345 28.7475L86.1747 28.3203ZM82.1786 15.1484V14.6484H81.6786V15.1484H82.1786ZM82.1786 18.9219H81.6786V19.4219H82.1786V18.9219ZM85.3544 18.3359L85.7298 18.6663L85.733 18.6626L85.3544 18.3359ZM85.3192 15.7227L84.9584 16.0688L84.962 16.0725L85.3192 15.7227ZM82.1786 21.8281V21.3281H81.6814L81.6786 21.8254L82.1786 21.8281ZM82.1552 26.0703L81.6552 26.0676L81.6524 26.5703H82.1552V26.0703ZM83.6434 28.5H79.3427V29.5H83.6434V28.5ZM79.3427 28.5C79.4218 28.5 79.5603 28.5302 79.6628 28.6584C79.7482 28.7652 79.7489 28.8685 79.7489 28.8828H78.7489C78.7489 28.9753 78.7652 29.1372 78.8819 29.2831C79.0156 29.4502 79.2011 29.5 79.3427 29.5V28.5ZM79.7489 28.8842L79.7958 12.396L78.7958 12.3931L78.7489 28.8814L79.7489 28.8842ZM79.7958 12.3945C79.7958 12.4404 79.784 12.5666 79.6728 12.6778C79.5616 12.789 79.4354 12.8008 79.3895 12.8008V11.8008C79.2812 11.8008 79.1081 11.8282 78.9657 11.9707C78.8232 12.1131 78.7958 12.2862 78.7958 12.3945H79.7958ZM79.3895 12.8008H84.0067V11.8008H79.3895V12.8008ZM84.0067 12.8008C84.8199 12.8008 85.5471 12.9976 86.2 13.3866L86.7118 12.5275C85.8961 12.0415 84.9905 11.8008 84.0067 11.8008V12.8008ZM86.196 13.3841C86.8428 13.7778 87.3489 14.2983 87.7208 14.9507L88.5896 14.4556C88.1333 13.6549 87.5066 13.0112 86.7159 12.5299L86.196 13.3841ZM87.7219 14.9527C88.0915 15.5942 88.2763 16.2892 88.2763 17.0469H89.2763C89.2763 16.1171 89.047 15.2496 88.5884 14.4535L87.7219 14.9527ZM88.2763 17.0469C88.2763 17.6553 88.1388 18.2157 87.865 18.7359L88.75 19.2016C89.1012 18.5343 89.2763 17.8134 89.2763 17.0469H88.2763ZM87.865 18.7359C87.5767 19.2838 87.2428 19.711 86.8694 20.03L87.519 20.7903C88.005 20.375 88.4134 19.8412 88.75 19.2016L87.865 18.7359ZM86.8407 20.7637C87.2554 21.1784 87.5788 21.6595 87.8119 22.2104L88.7328 21.8208C88.4503 21.153 88.0549 20.5638 87.5478 20.0566L86.8407 20.7637ZM87.8119 22.2104C88.0432 22.7572 88.1591 23.3315 88.1591 23.9375H89.1591C89.1591 23.1998 89.0171 22.4928 88.7328 21.8208L87.8119 22.2104ZM88.1591 23.9375C88.1591 24.7834 87.9576 25.5436 87.5589 26.2291L88.4233 26.7319C88.9153 25.886 89.1591 24.9509 89.1591 23.9375H88.1591ZM87.5608 26.2258C87.1493 26.921 86.6023 27.475 85.9149 27.8931L86.4345 28.7475C87.2627 28.2438 87.9266 27.5712 88.4214 26.7351L87.5608 26.2258ZM85.9181 27.8912C85.242 28.2954 84.4878 28.5 83.6434 28.5V29.5C84.6585 29.5 85.5917 29.2514 86.4313 28.7494L85.9181 27.8912ZM84.0067 14.6484H82.1786V15.6484H84.0067V14.6484ZM81.6786 15.1484V18.9219H82.6786V15.1484H81.6786ZM82.1786 19.4219H84.0067V18.4219H82.1786V19.4219ZM84.0067 19.4219C84.6944 19.4219 85.2842 19.1726 85.7297 18.6663L84.979 18.0056C84.7371 18.2806 84.4285 18.4219 84.0067 18.4219V19.4219ZM85.733 18.6626C86.1432 18.187 86.37 17.6446 86.37 17.0469H85.37C85.37 17.371 85.253 17.688 84.9758 18.0093L85.733 18.6626ZM86.37 17.0469C86.37 16.4035 86.1317 15.8378 85.6765 15.3728L84.962 16.0725C85.2411 16.3575 85.37 16.6747 85.37 17.0469H86.37ZM85.6801 15.3765C85.2233 14.9003 84.6574 14.6484 84.0067 14.6484V15.6484C84.3716 15.6484 84.6808 15.7793 84.9584 16.0688L85.6801 15.3765ZM83.6434 21.3281H82.1786V22.3281H83.6434V21.3281ZM81.6786 21.8254L81.6552 26.0676L82.6552 26.0731L82.6786 21.8309L81.6786 21.8254ZM82.1552 26.5703H83.6434V25.5703H82.1552V26.5703ZM83.6434 26.5703C84.3591 26.5703 84.9829 26.303 85.4886 25.7877L84.7749 25.0873C84.4525 25.4158 84.084 25.5703 83.6434 25.5703V26.5703ZM85.4886 25.7877C85.9921 25.2747 86.2528 24.6499 86.2528 23.9375H85.2528C85.2528 24.3814 85.0995 24.7565 84.7749 25.0873L85.4886 25.7877ZM86.2528 23.9375C86.2528 23.2249 85.9917 22.6021 85.4853 22.0957L84.7782 22.8028C85.0998 23.1244 85.2528 23.4939 85.2528 23.9375H86.2528ZM85.4853 22.0957C84.9788 21.5892 84.3561 21.3281 83.6434 21.3281V22.3281C84.0871 22.3281 84.4565 22.4811 84.7782 22.8028L85.4853 22.0957ZM94.6277 28.5781L94.3656 29.004L94.3677 29.0052L94.6277 28.5781ZM92.905 26.832L92.4734 27.0846L92.4767 27.09L92.905 26.832ZM92.2605 24.418L91.7605 24.4164V24.418H92.2605ZM92.2839 16.8125L92.7839 16.814V16.8125H92.2839ZM92.9284 14.4102L93.3564 14.6688L93.3596 14.6633L92.9284 14.4102ZM94.6394 12.6875L94.8959 13.1167L94.8993 13.1146L94.6394 12.6875ZM99.3386 12.6758L99.0757 13.1011L99.0779 13.1024L99.3386 12.6758ZM101.026 14.4102L100.594 14.6612L100.597 14.6667L101.026 14.4102ZM101.671 16.8125H101.171L101.171 16.814L101.671 16.8125ZM101.694 24.418L102.194 24.418L102.194 24.4164L101.694 24.418ZM101.061 26.8203L101.493 27.0728L101.494 27.0714L101.061 26.8203ZM98.2487 25.7539L98.6167 26.0925L98.62 26.0888L98.2487 25.7539ZM98.7878 24.418L99.2878 24.418L99.2878 24.4164L98.7878 24.418ZM98.7644 16.8125H98.2644L98.2644 16.814L98.7644 16.8125ZM95.7175 25.7773L95.3492 26.1156L95.3527 26.1193L95.7175 25.7773ZM96.9831 28.7344C96.2221 28.7344 95.5271 28.5402 94.8876 28.151L94.3677 29.0052C95.1658 29.491 96.041 29.7344 96.9831 29.7344V28.7344ZM94.8897 28.1523C94.2479 27.7574 93.7303 27.2334 93.3333 26.5741L92.4767 27.09C92.9547 27.8838 93.5855 28.5239 94.3656 29.004L94.8897 28.1523ZM93.3366 26.5795C92.953 25.924 92.7605 25.2069 92.7605 24.418H91.7605C91.7605 25.3791 91.9976 26.2713 92.4734 27.0845L93.3366 26.5795ZM92.7605 24.4195L92.7839 16.814L91.7839 16.811L91.7605 24.4164L92.7605 24.4195ZM92.7839 16.8125C92.7839 16.0062 92.9772 15.2961 93.3564 14.6688L92.5005 14.1515C92.0203 14.9461 91.7839 15.8375 91.7839 16.8125H92.7839ZM93.3596 14.6633C93.7388 14.0173 94.2489 13.5035 94.8959 13.1167L94.3828 12.2583C93.5923 12.7309 92.9618 13.3655 92.4972 14.1571L93.3596 14.6633ZM94.8993 13.1146C95.5395 12.7249 96.2308 12.5312 96.9831 12.5312V11.5312C96.0479 11.5312 95.1767 11.7751 94.3794 12.2604L94.8993 13.1146ZM96.9831 12.5312C97.7721 12.5312 98.465 12.7237 99.0757 13.1011L99.6014 12.2504C98.8215 11.7685 97.9442 11.5312 96.9831 11.5312V12.5312ZM99.0779 13.1024C99.7086 13.4879 100.213 14.0051 100.594 14.6612L101.458 14.1591C100.996 13.3621 100.375 12.723 99.5993 12.2491L99.0779 13.1024ZM100.597 14.6667C100.978 15.3036 101.171 16.0149 101.171 16.8125H102.171C102.171 15.8444 101.934 14.9542 101.455 14.1536L100.597 14.6667ZM101.171 16.814L101.194 24.4195L102.194 24.4164L102.171 16.811L101.171 16.814ZM101.194 24.418C101.194 25.2086 101.005 25.9222 100.629 26.5692L101.494 27.0714C101.962 26.2653 102.194 25.3773 102.194 24.418H101.194ZM100.63 26.5678C100.241 27.2328 99.7279 27.7586 99.0883 28.1523L99.6124 29.004C100.395 28.5226 101.023 27.8766 101.493 27.0728L100.63 26.5678ZM99.0883 28.1523C98.4593 28.5394 97.7616 28.7344 96.9831 28.7344V29.7344C97.9391 29.7344 98.8195 29.4919 99.6124 29.004L99.0883 28.1523ZM96.9831 26.8398C97.6216 26.8398 98.1728 26.575 98.6167 26.0924L97.8808 25.4154C97.606 25.7141 97.3134 25.8398 96.9831 25.8398V26.8398ZM98.62 26.0888C99.0542 25.6075 99.2878 25.0454 99.2878 24.418H98.2878C98.2878 24.7749 98.1621 25.1035 97.8775 25.419L98.62 26.0888ZM99.2878 24.4164L99.2644 16.811L98.2644 16.814L98.2878 24.4195L99.2878 24.4164ZM99.2644 16.8125C99.2644 16.1655 99.0557 15.5933 98.6294 15.1273L97.8916 15.8024C98.1372 16.0708 98.2644 16.397 98.2644 16.8125H99.2644ZM98.6294 15.1273C98.1949 14.6525 97.6333 14.4141 96.9831 14.4141V15.4141C97.3642 15.4141 97.6541 15.5428 97.8916 15.8024L98.6294 15.1273ZM96.9831 14.4141C96.3532 14.4141 95.8034 14.6503 95.3601 15.1035L96.0749 15.8028C96.3347 15.5372 96.6287 15.4141 96.9831 15.4141V14.4141ZM95.3601 15.1035C94.9087 15.5649 94.6902 16.1475 94.6902 16.8125H95.6902C95.6902 16.3837 95.8232 16.0601 96.0749 15.8028L95.3601 15.1035ZM94.6902 16.8125V24.418H95.6902V16.8125H94.6902ZM94.6902 24.418C94.6902 25.0657 94.9123 25.6398 95.3492 26.1155L96.0858 25.4391C95.8196 25.1493 95.6902 24.8171 95.6902 24.418H94.6902ZM95.3527 26.1193C95.7941 26.5901 96.346 26.8398 96.9831 26.8398V25.8398C96.6359 25.8398 96.344 25.7146 96.0823 25.4354L95.3527 26.1193ZM107.487 15.1953H107.987V14.6953H107.487V15.1953ZM104.253 15.0781L103.753 15.0738V15.0781H104.253ZM104.276 12.3945L104.776 12.3989V12.3945H104.276ZM110.37 15.1953V14.6953H109.869L109.87 15.1962L110.37 15.1953ZM110.393 28.8828H110.893L110.893 28.882L110.393 28.8828ZM110.299 28.5H107.592V29.5H110.299V28.5ZM107.592 28.5C107.649 28.5 107.779 28.5181 107.885 28.6362C107.982 28.7444 107.987 28.857 107.987 28.8828H106.987C106.987 28.9867 107.009 29.158 107.142 29.3052C107.283 29.4624 107.466 29.5 107.592 29.5V28.5ZM107.987 28.8828V15.1953H106.987V28.8828H107.987ZM107.487 14.6953H104.37V15.6953H107.487V14.6953ZM104.37 14.6953C104.408 14.6953 104.528 14.7052 104.635 14.8125C104.743 14.9198 104.753 15.0401 104.753 15.0781H103.753C103.753 15.1943 103.782 15.3732 103.928 15.5196C104.075 15.6659 104.254 15.6953 104.37 15.6953V14.6953ZM104.752 15.0825L104.776 12.3989L103.776 12.3902L103.753 15.0738L104.752 15.0825ZM104.776 12.3945C104.776 12.4404 104.764 12.5666 104.653 12.6778C104.542 12.789 104.416 12.8008 104.37 12.8008V11.8008C104.261 11.8008 104.088 11.8282 103.946 11.9707C103.803 12.1131 103.776 12.2862 103.776 12.3945H104.776ZM104.37 12.8008H113.487V11.8008H104.37V12.8008ZM113.487 12.8008C113.484 12.8008 113.392 12.8029 113.289 12.7286C113.233 12.6875 113.185 12.6306 113.153 12.5618C113.123 12.4958 113.116 12.4359 113.116 12.3945H114.116C114.116 12.2354 114.052 12.047 113.878 11.9199C113.732 11.8142 113.576 11.8008 113.487 11.8008V12.8008ZM113.116 12.3945V15.0781H114.116V12.3945H113.116ZM113.116 15.0781C113.116 15.0638 113.116 14.9605 113.202 14.8537C113.304 14.7256 113.443 14.6953 113.522 14.6953V15.6953C113.664 15.6953 113.849 15.6455 113.983 15.4784C114.099 15.3325 114.116 15.1706 114.116 15.0781H113.116ZM113.522 14.6953H110.37V15.6953H113.522V14.6953ZM109.87 15.1962L109.893 28.8837L110.893 28.882L110.87 15.1945L109.87 15.1962ZM109.893 28.8828C109.893 28.8685 109.894 28.7652 109.979 28.6584C110.082 28.5302 110.22 28.5 110.299 28.5V29.5C110.441 29.5 110.626 29.4502 110.76 29.2831C110.877 29.1372 110.893 28.9753 110.893 28.8828H109.893Z" fill="white"/>
</svg>
