<svg width="494" height="675" viewBox="0 0 494 675" fill="none" xmlns="http://www.w3.org/2000/svg">
<path d="M492.84 242.844V632.628H8.15234V242.844C8.15234 109.001 116.653 0.5 250.496 0.5C384.339 0.5 492.84 109.001 492.84 242.844Z" stroke="url(#paint0_linear_451_421)"/>
<path d="M448.035 242.124V675.993H51.5171V242.124C51.5171 132.628 140.281 43.865 249.776 43.865C359.271 43.865 448.035 132.628 448.035 242.124Z" stroke="url(#paint1_linear_451_421)"/>
<path d="M403.219 241.398V719.358H94.8823V241.398C94.8823 156.253 163.906 87.23 249.051 87.23C334.196 87.23 403.219 156.254 403.219 241.398Z" stroke="url(#paint2_linear_451_421)"/>
<path d="M358.403 240.673V762.723H138.247V240.673C138.247 179.878 187.531 130.595 248.325 130.595C309.119 130.595 358.403 179.878 358.403 240.673Z" stroke="url(#paint3_linear_451_421)"/>
<circle cx="249.774" cy="375.804" r="157.059" stroke="url(#paint4_linear_451_421)"/>
<path d="M211.229 350.978H294.255C299.674 350.978 304.066 346.585 304.066 341.167V339.739C304.066 334.32 299.674 329.928 294.255 329.928H211.229C205.81 329.928 201.418 334.32 201.418 339.739V341.167C201.418 346.585 205.81 350.978 211.229 350.978Z" fill="url(#paint5_linear_451_421)"/>
<path d="M249.177 195.323H256.345V159.082H249.177V195.323Z" fill="#F0F0F0"/>
<path d="M362.386 303.194C373.704 300.504 380.698 289.149 378.008 277.831C375.318 266.513 363.963 259.519 352.645 262.209C341.327 264.899 334.333 276.254 337.023 287.572C339.713 298.89 351.068 305.884 362.386 303.194Z" fill="#F0F0F0"/>
<mask id="mask0_451_421" style="mask-type:alpha" maskUnits="userSpaceOnUse" x="336" y="261" width="43" height="43">
<path d="M362.386 303.194C373.704 300.504 380.698 289.149 378.008 277.831C375.318 266.513 363.962 259.519 352.644 262.209C341.326 264.899 334.332 276.254 337.022 287.572C339.712 298.89 351.068 305.884 362.386 303.194Z" fill="#F0F0F0"/>
</mask>
<g mask="url(#mask0_451_421)">
<path d="M365.41 284.583C369.107 269.684 353.586 277.546 353.643 261.547L336.946 299.05L369.051 334.699C404.944 320.182 369.717 326.249 374.982 307.797C380.246 289.344 362.34 296.959 365.41 284.583Z" fill="#CFCFCF"/>
</g>
<path d="M149.536 301.839C160.881 299.266 167.991 287.983 165.418 276.638C162.845 265.293 151.562 258.182 140.217 260.755C128.872 263.329 121.761 274.612 124.334 285.957C126.908 297.302 138.191 304.412 149.536 301.839Z" fill="#E8E8E8"/>
<mask id="mask1_451_421" style="mask-type:alpha" maskUnits="userSpaceOnUse" x="123" y="260" width="43" height="43">
<path d="M149.537 301.839C160.882 299.266 167.992 287.983 165.419 276.638C162.846 265.293 151.563 258.182 140.218 260.755C128.873 263.329 121.762 274.612 124.335 285.957C126.909 297.302 138.192 304.412 149.537 301.839Z" fill="#F0F0F0"/>
</mask>
<g mask="url(#mask1_451_421)">
<path d="M135.825 283.355C134.218 268.089 148.506 278.016 150.656 262.162L162.022 301.608L125.308 332.491C91.7597 313.163 125.813 324.03 123.144 305.027C120.474 286.025 137.159 296.036 135.825 283.355Z" fill="#CFCFCF"/>
</g>
<path d="M248.72 187.461C248.72 187.461 163.077 186.433 149.515 260.61C135.953 334.786 208.382 336.175 229.218 337.576C238.669 338.217 258.878 338.284 276.712 337.963C316.196 337.282 344.081 329.634 353.585 293.006C354.693 288.735 355.44 284.343 355.721 279.885C358.23 239.746 331.053 185.472 248.734 187.447L248.72 187.461Z" fill="url(#paint6_linear_451_421)"/>
<path d="M311.883 301.826L311.884 301.826C325.781 301.6 336.88 290.249 336.666 276.433L336.666 276.431C336.438 262.616 324.984 251.618 311.087 251.83L311.087 251.83L185.704 253.779L185.703 253.779C171.806 254.004 160.707 265.356 160.921 279.172L160.921 279.173C161.149 292.989 172.603 303.987 186.499 303.775L186.5 303.775L311.883 301.826Z" fill="#030303" stroke="url(#paint7_linear_451_421)" stroke-width="2.77033"/>
<path d="M212.109 276.561C211.308 280.672 207.317 283.342 203.219 282.541C199.107 281.74 196.438 277.749 197.239 273.651C198.039 269.54 202.031 266.87 206.129 267.671C210.24 268.472 212.91 272.463 212.109 276.561Z" fill="#C7F431"/>
<path d="M299.033 275.173C298.232 279.284 294.241 281.954 290.143 281.153C286.032 280.352 283.362 276.361 284.163 272.263C284.964 268.152 288.955 265.482 293.053 266.283C297.164 267.084 299.834 271.075 299.033 275.173Z" fill="#C7F431"/>
<path d="M261.123 166.694C265.736 162.08 265.736 154.6 261.123 149.987C256.509 145.374 249.03 145.374 244.416 149.987C239.803 154.6 239.803 162.08 244.416 166.694C249.03 171.307 256.509 171.307 261.123 166.694Z" fill="#C7F431"/>
<path d="M233.894 273.064C234.455 273.13 234.175 275.773 235.83 279.297C236.631 281.046 237.965 282.955 239.848 284.583C241.73 286.212 244.226 287.453 246.962 287.747C249.712 287.961 252.395 287.186 254.544 285.932C256.707 284.677 258.362 283.035 259.456 281.46C261.726 278.296 261.926 275.64 262.486 275.68C262.7 275.68 262.94 276.347 262.94 277.602C262.94 278.857 262.58 280.686 261.565 282.715C260.551 284.744 258.789 286.933 256.239 288.628C253.73 290.337 250.313 291.498 246.642 291.191C242.984 290.817 239.834 289.068 237.672 286.933C235.483 284.797 234.134 282.327 233.507 280.152C232.866 277.963 232.84 276.094 233.08 274.866C233.307 273.638 233.654 273.01 233.867 273.05L233.894 273.064Z" fill="#C7F431"/>
<path d="M347.929 307.649C347.809 307.582 349.344 305.247 350.812 301.042C352.334 296.864 353.655 290.804 354.283 284.036C354.964 277.255 354.857 271.075 354.683 266.616C354.576 264.387 354.47 262.585 354.376 261.33C354.283 260.089 354.256 259.395 354.309 259.382C354.363 259.382 354.47 260.062 354.643 261.304C354.83 262.545 355.004 264.347 355.177 266.59C355.471 271.061 355.658 277.282 354.977 284.103C354.336 290.924 352.921 297.024 351.279 301.215C350.479 303.311 349.651 304.953 349.01 306.034C348.356 307.102 347.969 307.689 347.929 307.663V307.649Z" fill="#777777"/>
<path d="M149.573 258.18C149.573 258.18 149.466 258.874 149.145 260.089C148.985 260.69 148.785 261.437 148.611 262.305C148.425 263.172 148.171 264.147 148.011 265.255C147.597 267.444 147.263 270.087 147.076 273.037C146.93 275.987 146.93 279.23 147.21 282.621C147.53 286.011 148.091 289.202 148.758 292.085C149.466 294.942 150.253 297.491 151.054 299.573C151.415 300.628 151.828 301.549 152.162 302.377C152.482 303.204 152.803 303.898 153.083 304.459C153.604 305.593 153.871 306.234 153.831 306.261C153.791 306.288 153.444 305.687 152.843 304.579C152.536 304.032 152.175 303.351 151.815 302.537C151.441 301.722 150.987 300.815 150.6 299.76C149.733 297.678 148.892 295.128 148.144 292.245C147.437 289.349 146.836 286.118 146.516 282.688C146.222 279.257 146.249 275.973 146.436 272.997C146.663 270.02 147.05 267.364 147.53 265.161C147.73 264.053 148.011 263.079 148.238 262.211C148.451 261.344 148.678 260.61 148.892 260.009C149.292 258.821 149.532 258.167 149.573 258.18Z" fill="#777777"/>
<path opacity="0.5" d="M237.737 193.014C237.737 193.014 237.63 193.04 237.43 193.067C237.189 193.094 236.882 193.12 236.522 193.147C235.721 193.227 234.546 193.254 233.038 193.441C230.021 193.708 225.67 194.308 220.397 195.536C215.125 196.751 208.958 198.727 202.47 201.73C195.983 204.72 189.215 208.831 182.835 214.064C176.494 219.337 171.168 225.21 167.004 231.003C162.826 236.81 159.716 242.483 157.513 247.421C155.311 252.36 153.896 256.525 153.055 259.435C152.588 260.877 152.347 262.025 152.107 262.799C152 263.146 151.92 263.439 151.853 263.666C151.787 263.867 151.76 263.96 151.747 263.96C151.747 263.96 151.747 263.853 151.787 263.653C151.84 263.413 151.893 263.119 151.974 262.759C152.16 261.985 152.374 260.823 152.788 259.355C153.549 256.418 154.897 252.214 157.059 247.221C159.208 242.229 162.292 236.489 166.483 230.629C170.661 224.769 176.001 218.843 182.394 213.517C188.828 208.244 195.663 204.133 202.203 201.143C208.757 198.153 214.978 196.204 220.29 195.043C225.603 193.868 229.981 193.347 233.011 193.16C234.52 193.027 235.708 193.04 236.509 193C236.869 193 237.176 193 237.416 193C237.617 193 237.723 193 237.723 193.014H237.737Z" fill="#BDBDBD"/>
<path d="M153.936 295.769C153.856 295.796 153.335 294.808 152.721 293.099C152.094 291.404 151.413 288.975 150.986 286.252C150.559 283.515 150.478 281.006 150.545 279.19C150.612 277.375 150.799 276.281 150.892 276.281C151.106 276.281 150.812 280.752 151.666 286.145C152.494 291.538 154.149 295.689 153.936 295.769Z" fill="#C8C8C8"/>
<path d="M131.486 288.868C131.486 288.868 131.179 288.654 130.765 288.147C130.338 287.64 129.79 286.866 129.256 285.811C128.162 283.742 127.227 280.459 127.695 276.841C128.175 273.224 129.95 270.3 131.539 268.579C132.34 267.711 133.061 267.097 133.608 266.723C134.142 266.349 134.462 266.176 134.489 266.216C134.569 266.309 133.368 267.137 131.913 268.899C130.458 270.647 128.843 273.477 128.389 276.921C127.935 280.365 128.762 283.529 129.697 285.584C130.631 287.667 131.592 288.775 131.486 288.855V288.868Z" fill="#8F8F8F"/>
<path d="M253.543 150.112C253.516 150.245 252.328 149.805 250.406 150.032C248.537 150.232 245.841 151.313 244.239 153.769C242.677 156.252 242.811 159.149 243.411 160.937C243.999 162.779 244.893 163.687 244.786 163.767C244.759 163.794 244.506 163.607 244.145 163.18C243.772 162.753 243.318 162.059 242.944 161.111C242.183 159.269 241.93 156.132 243.652 153.409C245.414 150.713 248.364 149.645 250.366 149.565C251.38 149.511 252.208 149.631 252.742 149.792C253.289 149.952 253.556 150.099 253.543 150.125V150.112Z" fill="#5B7409"/>
<path d="M369.873 272.677C369.726 272.837 367.644 270.848 364.507 269.353C361.384 267.818 358.54 267.417 358.58 267.204C358.58 267.03 361.557 267.137 364.814 268.725C368.071 270.287 370.007 272.57 369.873 272.677Z" fill="#8F8F8F"/>
<path d="M290.143 248.863C290.143 249.05 273.752 249.21 253.542 249.21C233.333 249.21 216.941 249.05 216.941 248.863C216.941 248.676 233.333 248.516 253.542 248.516C273.752 248.516 290.143 248.676 290.143 248.863Z" fill="#CFCFCF"/>
<path d="M227.687 332.33C227.687 332.33 227.474 332.384 227.073 332.437C226.579 332.477 225.992 332.531 225.284 332.597C224.51 332.664 223.562 332.731 222.455 332.744C221.347 332.771 220.092 332.838 218.704 332.784C215.914 332.784 212.603 332.584 208.933 332.197C205.275 331.77 201.271 331.116 197.119 330.155C192.981 329.167 189.11 327.952 185.64 326.711C182.183 325.429 179.139 324.108 176.643 322.88C175.375 322.292 174.28 321.678 173.306 321.158C172.318 320.651 171.504 320.17 170.836 319.77C170.236 319.396 169.729 319.089 169.301 318.835C168.954 318.622 168.781 318.488 168.794 318.475C168.808 318.461 169.008 318.542 169.368 318.715C169.809 318.942 170.329 319.209 170.957 319.529C171.637 319.903 172.478 320.344 173.479 320.811C174.467 321.291 175.575 321.879 176.857 322.426C179.366 323.601 182.423 324.855 185.867 326.097C189.324 327.311 193.182 328.486 197.293 329.474C201.404 330.435 205.382 331.089 209.013 331.556C212.644 331.983 215.941 332.224 218.717 332.29C220.105 332.37 221.36 332.33 222.455 332.344C223.562 332.357 224.51 332.344 225.284 332.317C225.992 332.317 226.579 332.304 227.073 332.29C227.487 332.29 227.7 332.304 227.7 332.33H227.687Z" fill="#C8C8C8"/>
<path d="M188.604 242.118C189.83 241.292 190.899 240.235 192.049 239.296C194.818 237.035 198.106 235.457 201.559 234.73C202.647 234.499 203.859 234.287 204.533 233.383C204.851 232.96 205.003 232.424 205.07 231.893C205.317 229.799 204.186 227.72 202.595 226.398C201.003 225.075 199.018 224.387 197.041 223.851C193.203 222.809 189.174 222.249 185.255 222.898C181.336 223.551 177.516 225.518 175.132 228.801C174.11 230.202 173.364 231.844 173.136 233.579C172.647 237.345 174.832 241.228 178.115 242.929C181.398 244.625 185.531 244.197 188.604 242.128V242.118Z" fill="url(#paint8_linear_451_421)"/>
<path d="M152.418 383.528C129.212 370.287 105.487 357.846 79.3981 352.104C75.7341 351.293 71.9683 350.618 68.2703 351.192C64.5723 351.766 60.9083 353.793 59.2798 357.137C57.0407 361.765 59.212 367.271 62.0618 371.56C68.3382 380.985 77.7358 387.875 87.2012 394.124C113.121 411.25 141.008 425.2 168.794 439.083C165.266 419.391 157.812 402.815 152.486 383.528" fill="url(#paint9_linear_451_421)"/>
<mask id="mask2_451_421" style="mask-type:alpha" maskUnits="userSpaceOnUse" x="92" y="218" width="316" height="316">
<circle cx="249.772" cy="375.804" r="157.559" fill="#171717"/>
</mask>
<g mask="url(#mask2_451_421)">
<path d="M152.229 383.655C152.229 383.655 154.031 558.692 252.262 562.122C350.492 565.553 354.617 384.909 354.617 383.655C354.617 383.655 343.017 357.545 253.423 358.573C163.829 359.601 152.229 383.655 152.229 383.655Z" fill="url(#paint10_linear_451_421)"/>
<path d="M246.399 485.409C265.269 486.787 281.731 472.837 283.556 454.096H283.579L283.642 453.24C285.04 434.071 270.643 417.396 251.473 415.998C232.303 414.599 215.629 428.997 214.23 448.167C212.832 467.336 227.23 484.01 246.399 485.409Z" fill="#030303" stroke="url(#paint11_linear_451_421)" stroke-width="1.84689"/>
<path d="M261.644 456.99C261.55 456.937 261.47 455.469 261.417 452.919C261.35 450.37 261.31 446.725 261.297 442.28L261.564 442.774C257.866 440.612 253.568 438.102 248.869 435.366H249.577C245.599 437.622 241.274 440.038 236.762 442.574C236.415 443.148 237.23 441.787 237.15 441.933V441.96V441.987V442.054V442.174V442.414V442.894L237.123 443.856L237.096 445.764C237.069 447.032 237.056 448.274 237.029 449.502C236.976 451.958 236.936 454.334 236.896 456.63L236.549 456.016C241.194 458.846 245.425 461.435 249.096 463.678H248.536C252.447 461.569 255.677 459.887 257.946 458.726C260.229 457.564 261.537 456.937 261.644 456.99C261.737 457.044 260.603 457.791 258.44 459.113C256.278 460.434 253.087 462.33 249.083 464.639L248.803 464.799L248.522 464.639C244.811 462.477 240.527 459.967 235.828 457.231L235.481 457.03V456.617C235.508 454.321 235.534 451.945 235.561 449.489C235.574 448.261 235.588 447.019 235.601 445.751L235.628 443.842V442.881L235.654 442.401V442.16V442.04V441.973V441.947V441.92C235.574 442.054 236.389 440.692 236.042 441.266C240.567 438.757 244.905 436.354 248.896 434.138L249.256 433.938L249.604 434.151C254.249 436.981 258.494 439.584 262.151 441.813L262.431 441.987V442.307C262.284 446.926 262.124 450.637 261.991 453.173C261.857 455.709 261.737 457.057 261.644 457.004V456.99Z" fill="#C7F431"/>
<path d="M151.856 383.884C151.856 383.884 163.456 359.817 253.05 358.803C342.644 357.775 354.244 383.884 354.244 383.884C354.244 383.884 263.876 428.454 151.87 383.884H151.856Z" fill="url(#paint12_linear_451_421)"/>
<path d="M172.244 484.372C172.244 484.372 172.244 484.372 172.244 484.372L172.291 484.355L172.244 484.373C172.244 484.372 172.244 484.372 172.244 484.372ZM172.244 484.372C172.474 484.994 172.701 485.609 172.926 486.215C173.235 487.052 173.538 487.872 173.833 488.67L173.833 488.672C174.335 489.891 174.816 491.068 175.276 492.192L175.435 492.582C175.435 492.582 175.435 492.582 175.435 492.582C176.423 495.093 177.452 497.297 178.359 499.232L178.359 499.233C178.63 499.806 178.887 500.36 179.132 500.89C179.297 501.248 179.458 501.595 179.614 501.929L179.615 501.93C180.029 502.745 180.416 503.492 180.763 504.16L180.763 504.16C181.096 504.786 181.393 505.352 181.658 505.854C181.934 506.38 182.174 506.835 182.378 507.217L182.378 507.217C182.507 507.454 182.621 507.655 182.72 507.829C182.755 507.891 182.788 507.95 182.819 508.006L182.82 508.007C182.874 508.095 182.918 508.16 182.949 508.202C182.965 508.224 182.977 508.239 182.985 508.25L182.986 508.252V508.369L183.072 508.283C183.088 508.267 183.089 508.247 183.089 508.24C183.089 508.23 183.087 508.22 183.085 508.212C183.081 508.195 183.074 508.173 183.065 508.149C183.046 508.099 183.016 508.028 182.976 507.936L182.976 507.935L182.976 507.935L182.974 507.932C182.868 507.72 182.749 507.454 182.602 507.12L182.601 507.118C182.227 506.357 181.72 505.316 181.093 504.008L181.092 504.008C180.948 503.714 180.799 503.407 180.644 503.088C180.44 502.669 180.225 502.228 179.998 501.766C179.625 500.926 179.224 500.018 178.797 499.044L178.797 499.044L178.776 498.997C177.914 497.06 176.935 494.86 175.982 492.372L175.981 492.371C175.686 491.647 175.39 490.901 175.086 490.135C174.869 489.587 174.648 489.029 174.42 488.461C174.072 487.491 173.71 486.487 173.339 485.46C173.185 485.032 173.029 484.6 172.872 484.164L172.872 484.163C172.127 482.204 171.46 480.117 170.766 477.95C170.416 476.854 170.059 475.739 169.682 474.608C167.641 467.815 165.612 460.288 163.81 452.294C162.062 444.287 160.687 436.612 159.593 429.592C158.578 422.571 157.751 416.232 157.257 410.881L157.257 410.88C156.998 408.523 156.822 406.353 156.665 404.416C156.644 404.16 156.623 403.908 156.603 403.66L156.603 403.659C156.416 401.537 156.27 399.696 156.189 398.202L156.189 398.201C156.096 396.746 156.016 395.598 155.949 394.743C155.949 394.743 155.949 394.743 155.949 394.743L155.899 394.747M172.244 484.372L155.777 393.594C155.789 393.592 155.797 393.585 155.801 393.58C155.806 393.575 155.808 393.57 155.808 393.569L155.808 393.569C155.808 393.568 155.808 393.567 155.808 393.567C155.808 393.567 155.808 393.569 155.808 393.573C155.806 393.583 155.805 393.6 155.804 393.626C155.803 393.655 155.803 393.693 155.803 393.739C155.808 393.772 155.814 393.81 155.819 393.853C155.846 394.093 155.873 394.387 155.899 394.747M155.899 394.747C155.966 395.601 156.046 396.749 156.14 398.204M155.899 394.747L156.14 398.204M156.14 398.204C156.22 399.699 156.366 401.541 156.553 403.664C156.574 403.912 156.594 404.164 156.615 404.42C156.772 406.357 156.948 408.527 157.207 410.885L156.14 398.204Z" fill="#D7D7D7" stroke="#D7D7D7" stroke-width="0.1"/>
<path d="M230.355 550.322C230.355 550.322 229.794 550.295 228.793 550.135C227.792 549.988 226.364 549.641 224.615 549.121C222.866 548.614 220.838 547.839 218.662 546.838C216.499 545.797 214.19 544.502 211.907 542.914C209.638 541.299 207.636 539.563 205.927 537.881C204.246 536.173 202.831 534.518 201.763 533.049C200.681 531.594 199.881 530.353 199.4 529.459C198.906 528.578 198.653 528.07 198.693 528.057C198.799 527.99 199.921 529.926 202.15 532.756C203.258 534.171 204.686 535.759 206.381 537.428C208.09 539.069 210.079 540.765 212.308 542.34C214.55 543.902 216.82 545.196 218.942 546.264C221.078 547.292 223.067 548.093 224.762 548.667C228.166 549.815 230.382 550.202 230.355 550.335V550.322Z" fill="#D7D7D7"/>
<path d="M249.4 488.573C249.4 488.573 249.08 488.626 248.466 488.666C247.852 488.666 246.944 488.813 245.769 488.746C243.42 488.746 240.016 488.359 235.985 487.158C233.969 486.57 231.834 485.689 229.604 484.595C227.429 483.42 225.133 482.072 222.97 480.31C218.605 476.866 214.547 472.047 211.931 466.147C209.408 460.207 208.648 453.947 209.115 448.407C209.302 445.631 209.889 443.028 210.516 440.639C211.237 438.276 212.051 436.113 212.999 434.231C214.868 430.467 216.923 427.717 218.525 425.995C219.273 425.088 219.994 424.514 220.421 424.073C220.875 423.646 221.115 423.433 221.128 423.459C221.182 423.513 220.234 424.407 218.726 426.169C217.204 427.931 215.228 430.694 213.44 434.445C212.532 436.314 211.758 438.463 211.077 440.799C210.476 443.161 209.929 445.724 209.755 448.461C209.328 453.92 210.089 460.047 212.572 465.88C215.135 471.66 219.099 476.412 223.371 479.816C225.493 481.565 227.736 482.913 229.871 484.087C232.047 485.182 234.143 486.076 236.132 486.69C240.096 487.945 243.46 488.386 245.783 488.479C248.105 488.573 249.4 488.506 249.4 488.573Z" fill="#D7D7D7"/>
<path d="M330.441 394.397H330.561L330.476 394.311C330.461 394.296 330.442 394.294 330.436 394.294C330.426 394.293 330.416 394.293 330.407 394.294C330.389 394.296 330.365 394.301 330.336 394.308C330.277 394.322 330.193 394.345 330.079 394.379L330.079 394.379C329.96 394.415 329.83 394.453 329.686 394.495L329.635 394.511C329.472 394.559 329.292 394.612 329.091 394.672L329.09 394.673C328.23 394.951 327.059 395.325 325.587 395.795L325.34 395.874L325.339 395.874C323.724 396.408 321.723 397.048 319.388 397.702C318.686 397.899 317.958 398.112 317.202 398.334C315.441 398.85 313.53 399.409 311.448 399.904L311.447 399.905C310.506 400.15 309.538 400.396 308.544 400.649C307.972 400.794 307.391 400.941 306.802 401.092C305.812 401.346 304.789 401.564 303.742 401.787C303.08 401.928 302.409 402.071 301.73 402.227L301.73 402.227C298.911 402.894 295.909 403.44 292.766 404.011C292.012 404.148 291.25 404.287 290.48 404.429C282.513 405.737 273.691 406.844 264.39 407.445C255.088 407.992 246.2 407.965 238.126 407.645C237.338 407.598 236.558 407.554 235.787 407.51C232.608 407.329 229.566 407.156 226.689 406.844L226.689 406.844C225.945 406.767 225.211 406.701 224.489 406.635C223.473 406.544 222.479 406.454 221.511 406.337C220.644 406.231 219.795 406.122 218.962 406.015C218.214 405.919 217.48 405.825 216.759 405.737L216.758 405.736C214.526 405.492 212.475 405.154 210.591 404.843C209.907 404.731 209.245 404.622 208.604 404.522L208.604 404.522C206.203 404.175 204.161 403.775 202.48 403.441L202.479 403.441C200.857 403.125 199.573 402.886 198.641 402.713L198.608 402.707L198.608 402.707L198.607 402.707C198.406 402.674 198.222 402.642 198.056 402.612C197.882 402.581 197.728 402.553 197.592 402.533C197.479 402.513 197.391 402.5 197.331 402.493C197.302 402.489 197.277 402.487 197.26 402.487C197.251 402.487 197.241 402.488 197.232 402.49C197.228 402.491 197.219 402.493 197.211 402.499C197.201 402.505 197.187 402.519 197.187 402.542C197.187 402.56 197.196 402.572 197.2 402.577C197.204 402.582 197.209 402.586 197.213 402.589C197.22 402.594 197.228 402.599 197.236 402.602C197.252 402.61 197.275 402.619 197.303 402.628C197.36 402.647 197.445 402.671 197.559 402.698M330.441 394.397L197.559 402.698M330.441 394.397H330.441L330.432 394.402C330.418 394.41 330.397 394.421 330.369 394.435C330.315 394.462 330.233 394.5 330.124 394.54L330.124 394.54C329.871 394.634 329.55 394.754 329.163 394.901L329.163 394.901C328.542 395.123 327.754 395.404 326.803 395.742C326.384 395.891 325.933 396.051 325.452 396.222L330.441 394.397ZM197.559 402.698C197.559 402.698 197.559 402.698 197.559 402.698L197.571 402.649L197.56 402.698C197.559 402.698 197.559 402.698 197.559 402.698ZM202.406 403.793C204.075 404.167 206.118 404.594 208.522 404.994M202.406 403.793L311.592 400.482C311.592 400.482 311.592 400.482 311.592 400.482C310.594 400.743 309.566 401.015 308.508 401.296C307.995 401.432 307.474 401.57 306.947 401.71C305.952 401.973 304.92 402.201 303.866 402.434C303.209 402.579 302.544 402.726 301.873 402.885M202.406 403.793L202.416 403.744M202.406 403.793C202.406 403.793 202.406 403.793 202.406 403.793L202.416 403.744M208.522 404.994C209.072 405.089 209.638 405.19 210.222 405.294C212.183 405.644 214.332 406.028 216.679 406.316M208.522 404.994C208.522 404.994 208.522 404.994 208.522 404.995L208.53 404.945M208.522 404.994C208.522 404.994 208.522 404.994 208.522 404.994L208.53 404.945M216.679 406.316C217.716 406.462 218.784 406.607 219.882 406.757C220.396 406.827 220.917 406.898 221.444 406.97C222.566 407.124 223.724 407.235 224.91 407.349C225.476 407.403 226.048 407.457 226.625 407.518M216.679 406.316C216.679 406.316 216.68 406.316 216.68 406.316L216.686 406.267M216.679 406.316C216.679 406.316 216.679 406.316 216.679 406.316L216.686 406.267M226.625 407.518C229.66 407.869 232.888 408.066 236.266 408.273C236.87 408.31 237.48 408.347 238.093 408.386L238.094 408.386C246.185 408.746 255.103 408.786 264.436 408.239L264.436 408.239C273.769 407.625 282.62 406.503 290.604 405.155L290.605 405.155C291.233 405.036 291.857 404.92 292.475 404.805C295.773 404.192 298.927 403.604 301.873 402.885M226.625 407.518C226.625 407.518 226.625 407.518 226.625 407.518L226.63 407.468L226.625 407.518C226.625 407.518 226.625 407.518 226.625 407.518ZM301.873 402.885C301.873 402.885 301.874 402.885 301.874 402.885L301.862 402.836L301.873 402.885C301.873 402.885 301.873 402.885 301.873 402.885ZM216.686 406.267C214.34 405.979 212.193 405.595 210.231 405.245C209.648 405.141 209.081 405.04 208.53 404.945M216.686 406.267L202.416 403.744M208.53 404.945C206.127 404.545 204.085 404.118 202.416 403.744" fill="#D7D7D7" stroke="#D7D7D7" stroke-width="0.1"/>
<path d="M151.814 383.508C151.814 383.508 151.987 383.548 152.335 383.654C152.695 383.775 153.189 383.948 153.816 384.162C155.151 384.629 157.06 385.31 159.503 386.164C160.744 386.604 162.106 387.098 163.614 387.632C165.122 388.14 166.791 388.607 168.566 389.167C172.13 390.222 176.148 391.597 180.713 392.665C182.982 393.252 185.358 393.853 187.828 394.493C190.311 395.121 192.927 395.588 195.623 396.162C200.989 397.39 206.823 398.231 212.936 399.219C225.203 400.887 238.792 402.022 253.075 402.089C267.371 402.035 280.959 400.887 293.226 399.219C299.34 398.231 305.16 397.39 310.539 396.162C313.236 395.575 315.852 395.121 318.335 394.493C320.804 393.853 323.18 393.252 325.449 392.665C330.014 391.597 334.019 390.222 337.596 389.167C339.372 388.62 341.04 388.14 342.549 387.632C344.044 387.098 345.418 386.604 346.66 386.164C349.103 385.296 351.011 384.629 352.346 384.162C352.974 383.948 353.468 383.775 353.828 383.654C354.162 383.548 354.335 383.494 354.349 383.508C354.362 383.521 354.188 383.588 353.855 383.721C353.494 383.868 353.014 384.055 352.386 384.295C351.065 384.789 349.156 385.51 346.74 386.431C345.512 386.885 344.137 387.405 342.655 387.953C341.147 388.473 339.492 388.967 337.716 389.541C334.152 390.636 330.148 392.037 325.583 393.145C323.314 393.746 320.938 394.373 318.455 395.014C315.972 395.655 313.356 396.135 310.659 396.723C305.28 397.977 299.447 398.845 293.32 399.846C281.026 401.555 267.411 402.716 253.075 402.769C238.752 402.703 225.123 401.541 212.843 399.833C206.716 398.818 200.883 397.964 195.503 396.696C192.807 396.095 190.19 395.615 187.708 394.987C185.238 394.333 182.849 393.706 180.58 393.118C176.015 392.011 172.01 390.609 168.446 389.514C166.671 388.94 165.015 388.447 163.507 387.926C162.012 387.365 160.651 386.858 159.423 386.404C156.993 385.483 155.098 384.776 153.776 384.269C153.162 384.028 152.668 383.841 152.308 383.695C151.974 383.561 151.814 383.494 151.814 383.481V383.508Z" fill="#D7D7D7"/>
<path d="M165.287 404.098C176.567 418.173 189.025 459.311 188.263 476.161C170.172 458.599 163.801 420.013 165.287 404.098Z" fill="url(#paint13_linear_451_421)"/>
</g>
<path d="M327.147 434.33C334.713 459.866 343.873 485.268 358.733 507.392C360.802 510.5 363.075 513.574 366.129 515.736C369.182 517.864 373.253 518.945 376.782 517.627C381.599 515.837 383.872 510.331 384.788 505.298C386.79 494.151 384.788 482.734 382.278 471.689C375.425 441.491 364.975 412.205 354.56 383.021C343.432 399.673 336.681 416.698 327.147 434.296" fill="url(#paint14_linear_451_421)"/>
<path fill-rule="evenodd" clip-rule="evenodd" d="M459.153 394.91C453.636 395.809 448.824 399.47 445.716 404.08C442.608 408.69 441.046 414.183 440.292 419.687C438.859 430.334 442.152 442.286 446.435 452.143C457.141 446.713 462.499 433.94 464.814 427.289C468.467 416.785 468.659 395.59 459.153 394.91ZM431.925 466.704C434.803 461.2 433.976 454.169 430.466 449.028C426.957 443.887 421.07 440.627 414.918 439.571C412.063 439.081 408.843 439.141 406.667 441.03C404.639 442.784 404.059 445.82 404.689 448.419C405.319 451.037 406.975 453.272 408.845 455.213C415.252 461.852 422.682 467.12 431.925 466.704ZM474.925 452.955C462.038 455.567 450.683 464.775 445.515 476.811L445.501 477.716C459.006 481.262 474.453 475.688 482.528 464.366C484.472 461.643 485.99 457.878 484.131 455.112C482.273 452.327 478.207 452.294 474.925 452.955Z" fill="url(#paint15_linear_451_421)"/>
<path d="M435.163 501.284C435.163 501.284 435.294 500.504 435.388 499.08C435.487 497.514 435.624 495.488 435.776 493.06C436.027 488.02 436.521 480.817 434.44 473.195C432.42 465.596 428.465 459.392 424.712 455.871C422.858 454.071 421.143 452.86 419.895 452.149C419.282 451.764 418.764 451.543 418.427 451.37C418.089 451.196 417.91 451.129 417.889 451.148C417.782 451.305 420.747 452.624 424.293 456.258C427.882 459.813 431.659 465.929 433.663 473.407C435.689 480.866 435.299 487.993 435.21 493.058C435.114 495.609 435.077 497.66 435.064 499.088C435.05 500.515 435.102 501.302 435.142 501.303L435.163 501.284Z" fill="#313C41"/>
<path d="M457.587 411.045C457.587 411.045 457.454 411.341 457.249 411.937C457.042 412.613 456.766 413.488 456.422 414.561C455.709 416.848 454.734 420.17 453.546 424.289C451.172 432.528 448.071 443.937 444.922 456.633C441.773 469.328 439.193 480.878 437.44 489.26C436.554 493.451 435.88 496.845 435.447 499.203C435.243 500.322 435.088 501.221 434.96 501.92C434.856 502.54 434.823 502.881 434.843 502.881C434.863 502.882 434.956 502.564 435.12 501.966C435.288 501.269 435.503 500.392 435.748 499.274C436.305 496.841 437.058 493.49 437.982 489.381C439.875 481.024 442.535 469.517 445.684 456.822C448.832 444.147 451.853 432.715 454.067 424.45C455.15 420.387 456.045 417.061 456.702 414.652C456.986 413.557 457.221 412.68 457.389 411.983C457.534 411.364 457.607 411.045 457.587 411.045Z" fill="#313C41"/>
<path d="M471.017 462.424C471.017 462.424 470.266 462.496 468.96 462.769C468.308 462.905 467.493 463.055 466.571 463.363C465.649 463.65 464.588 463.891 463.477 464.373C462.347 464.813 461.097 465.249 459.838 465.905C458.541 466.48 457.218 467.235 455.832 468.027C453.118 469.695 450.267 471.801 447.64 474.397C445.032 477.015 442.902 479.831 441.242 482.545C440.442 483.922 439.684 485.242 439.129 486.548C438.494 487.812 438.062 489.063 437.656 490.194C437.209 491.304 436.986 492.382 436.709 493.297C436.432 494.211 436.3 495.031 436.174 495.69C435.942 497.009 435.833 497.749 435.894 497.752C436.075 497.779 436.489 494.837 438.154 490.394C438.601 489.284 439.051 488.074 439.705 486.832C440.278 485.566 441.036 484.267 441.835 482.929C443.513 480.276 445.62 477.52 448.165 474.96C450.749 472.422 453.519 470.334 456.193 468.644C457.539 467.83 458.822 467.074 460.099 466.478C461.338 465.821 462.55 465.344 463.66 464.882C468.117 463.139 471.051 462.606 471.016 462.444L471.017 462.424Z" fill="#313C41"/>
<g filter="url(#filter0_bi_451_421)">
<path d="M183.23 154.828C183.23 143.782 174.276 134.828 163.23 134.828H20.0001C8.95437 134.828 7.62939e-05 143.782 7.62939e-05 154.828V176.828C7.62939e-05 187.874 8.95438 196.828 20.0001 196.828H179.23C181.44 196.828 183.23 195.037 183.23 192.828V154.828Z" fill="#1EBFB7" fill-opacity="0.81"/>
<path d="M163.23 135.578H20.0001C9.36859 135.578 0.750076 144.197 0.750076 154.828V176.828C0.750076 187.46 9.36859 196.078 20.0001 196.078H179.23C181.025 196.078 182.48 194.623 182.48 192.828V154.828C182.48 144.197 173.862 135.578 163.23 135.578Z" stroke="url(#paint16_linear_451_421)" stroke-width="1.5"/>
</g>
<path d="M24.8411 152.556V162.328H22.8811V158.17H18.6951V162.328H16.7351V152.556H18.6951V156.574H22.8811V152.556H24.8411Z" fill="white"/>
<path d="M27.7643 153.648C27.419 153.648 27.1296 153.541 26.8963 153.326C26.6723 153.102 26.5603 152.827 26.5603 152.5C26.5603 152.173 26.6723 151.903 26.8963 151.688C27.1296 151.464 27.419 151.352 27.7643 151.352C28.1096 151.352 28.3943 151.464 28.6183 151.688C28.8516 151.903 28.9683 152.173 28.9683 152.5C28.9683 152.827 28.8516 153.102 28.6183 153.326C28.3943 153.541 28.1096 153.648 27.7643 153.648ZM28.7303 154.572V162.328H26.7703V154.572H28.7303Z" fill="white"/>
<path d="M32.8088 160.27L31.1708 164.204H29.9108L30.8208 160.27H32.8088Z" fill="white"/>
<path d="M41.9254 154.46C42.5134 154.46 43.0361 154.591 43.4934 154.852C43.9507 155.104 44.3054 155.482 44.5574 155.986C44.8187 156.481 44.9494 157.078 44.9494 157.778V162.328H42.9894V158.044C42.9894 157.428 42.8354 156.957 42.5274 156.63C42.2194 156.294 41.7994 156.126 41.2674 156.126C40.7261 156.126 40.2967 156.294 39.9794 156.63C39.6714 156.957 39.5174 157.428 39.5174 158.044V162.328H37.5574V151.968H39.5174V155.538C39.7694 155.202 40.1054 154.941 40.5254 154.754C40.9454 154.558 41.4121 154.46 41.9254 154.46Z" fill="white"/>
<path d="M50.2573 162.454C49.5106 162.454 48.8386 162.291 48.2413 161.964C47.6439 161.628 47.1726 161.157 46.8273 160.55C46.4913 159.943 46.3233 159.243 46.3233 158.45C46.3233 157.657 46.4959 156.957 46.8413 156.35C47.1959 155.743 47.6766 155.277 48.2833 154.95C48.8899 154.614 49.5666 154.446 50.3133 154.446C51.0599 154.446 51.7366 154.614 52.3433 154.95C52.9499 155.277 53.4259 155.743 53.7713 156.35C54.1259 156.957 54.3033 157.657 54.3033 158.45C54.3033 159.243 54.1213 159.943 53.7573 160.55C53.4026 161.157 52.9173 161.628 52.3013 161.964C51.6946 162.291 51.0133 162.454 50.2573 162.454ZM50.2573 160.746C50.6119 160.746 50.9433 160.662 51.2513 160.494C51.5686 160.317 51.8206 160.055 52.0073 159.71C52.1939 159.365 52.2873 158.945 52.2873 158.45C52.2873 157.713 52.0913 157.148 51.6993 156.756C51.3166 156.355 50.8453 156.154 50.2853 156.154C49.7253 156.154 49.2539 156.355 48.8713 156.756C48.4979 157.148 48.3113 157.713 48.3113 158.45C48.3113 159.187 48.4933 159.757 48.8573 160.158C49.2306 160.55 49.6973 160.746 50.2573 160.746Z" fill="white"/>
<path d="M66.493 154.572L64.225 162.328H62.111L60.697 156.91L59.283 162.328H57.155L54.873 154.572H56.861L58.233 160.48L59.717 154.572H61.789L63.245 160.466L64.617 154.572H66.493Z" fill="white"/>
<path d="M70.3854 158.45C70.3854 157.647 70.5488 156.947 70.8754 156.35C71.2021 155.743 71.6548 155.277 72.2334 154.95C72.8121 154.614 73.4748 154.446 74.2214 154.446C75.1828 154.446 75.9761 154.689 76.6014 155.174C77.2361 155.65 77.6608 156.322 77.8754 157.19H75.7614C75.6494 156.854 75.4581 156.593 75.1874 156.406C74.9261 156.21 74.5994 156.112 74.2074 156.112C73.6474 156.112 73.2041 156.317 72.8774 156.728C72.5508 157.129 72.3874 157.703 72.3874 158.45C72.3874 159.187 72.5508 159.761 72.8774 160.172C73.2041 160.573 73.6474 160.774 74.2074 160.774C75.0008 160.774 75.5188 160.419 75.7614 159.71H77.8754C77.6608 160.55 77.2361 161.217 76.6014 161.712C75.9668 162.207 75.1734 162.454 74.2214 162.454C73.4748 162.454 72.8121 162.291 72.2334 161.964C71.6548 161.628 71.2021 161.161 70.8754 160.564C70.5488 159.957 70.3854 159.253 70.3854 158.45Z" fill="white"/>
<path d="M78.8073 158.422C78.8073 157.638 78.9613 156.943 79.2693 156.336C79.5866 155.729 80.0113 155.263 80.5433 154.936C81.0846 154.609 81.6866 154.446 82.3493 154.446C82.928 154.446 83.432 154.563 83.8613 154.796C84.3 155.029 84.65 155.323 84.9113 155.678V154.572H86.8853V162.328H84.9113V161.194C84.6593 161.558 84.3093 161.861 83.8613 162.104C83.4226 162.337 82.914 162.454 82.3353 162.454C81.682 162.454 81.0846 162.286 80.5433 161.95C80.0113 161.614 79.5866 161.143 79.2693 160.536C78.9613 159.92 78.8073 159.215 78.8073 158.422ZM84.9113 158.45C84.9113 157.974 84.818 157.568 84.6313 157.232C84.4447 156.887 84.1926 156.625 83.8753 156.448C83.558 156.261 83.2173 156.168 82.8533 156.168C82.4893 156.168 82.1533 156.257 81.8453 156.434C81.5373 156.611 81.2853 156.873 81.0893 157.218C80.9027 157.554 80.8093 157.955 80.8093 158.422C80.8093 158.889 80.9027 159.299 81.0893 159.654C81.2853 159.999 81.5373 160.265 81.8453 160.452C82.1626 160.639 82.4987 160.732 82.8533 160.732C83.2173 160.732 83.558 160.643 83.8753 160.466C84.1926 160.279 84.4447 160.018 84.6313 159.682C84.818 159.337 84.9113 158.926 84.9113 158.45Z" fill="white"/>
<path d="M93.0976 154.46C94.0216 154.46 94.7683 154.754 95.3376 155.342C95.9069 155.921 96.1916 156.733 96.1916 157.778V162.328H94.2316V158.044C94.2316 157.428 94.0776 156.957 93.7696 156.63C93.4616 156.294 93.0416 156.126 92.5096 156.126C91.9683 156.126 91.5389 156.294 91.2216 156.63C90.9136 156.957 90.7596 157.428 90.7596 158.044V162.328H88.7996V154.572H90.7596V155.538C91.0209 155.202 91.3523 154.941 91.7536 154.754C92.1643 154.558 92.6123 154.46 93.0976 154.46Z" fill="white"/>
<path d="M102.385 153.648C102.04 153.648 101.751 153.541 101.517 153.326C101.293 153.102 101.181 152.827 101.181 152.5C101.181 152.173 101.293 151.903 101.517 151.688C101.751 151.464 102.04 151.352 102.385 151.352C102.731 151.352 103.015 151.464 103.239 151.688C103.473 151.903 103.589 152.173 103.589 152.5C103.589 152.827 103.473 153.102 103.239 153.326C103.015 153.541 102.731 153.648 102.385 153.648ZM103.351 154.572V162.328H101.391V154.572H103.351Z" fill="white"/>
<path d="M112.992 154.46C113.58 154.46 114.102 154.591 114.56 154.852C115.017 155.104 115.372 155.482 115.624 155.986C115.885 156.481 116.016 157.078 116.016 157.778V162.328H114.056V158.044C114.056 157.428 113.902 156.957 113.594 156.63C113.286 156.294 112.866 156.126 112.334 156.126C111.792 156.126 111.363 156.294 111.046 156.63C110.738 156.957 110.584 157.428 110.584 158.044V162.328H108.624V151.968H110.584V155.538C110.836 155.202 111.172 154.941 111.592 154.754C112.012 154.558 112.478 154.46 112.992 154.46Z" fill="white"/>
<path d="M125.09 158.282C125.09 158.562 125.071 158.814 125.034 159.038H119.364C119.41 159.598 119.606 160.037 119.952 160.354C120.297 160.671 120.722 160.83 121.226 160.83C121.954 160.83 122.472 160.517 122.78 159.892H124.894C124.67 160.639 124.24 161.255 123.606 161.74C122.971 162.216 122.192 162.454 121.268 162.454C120.521 162.454 119.849 162.291 119.252 161.964C118.664 161.628 118.202 161.157 117.866 160.55C117.539 159.943 117.376 159.243 117.376 158.45C117.376 157.647 117.539 156.943 117.866 156.336C118.192 155.729 118.65 155.263 119.238 154.936C119.826 154.609 120.502 154.446 121.268 154.446C122.005 154.446 122.663 154.605 123.242 154.922C123.83 155.239 124.282 155.692 124.6 156.28C124.926 156.859 125.09 157.526 125.09 158.282ZM123.06 157.722C123.05 157.218 122.868 156.817 122.514 156.518C122.159 156.21 121.725 156.056 121.212 156.056C120.726 156.056 120.316 156.205 119.98 156.504C119.653 156.793 119.452 157.199 119.378 157.722H123.06Z" fill="white"/>
<path d="M128.48 151.968V162.328H126.52V151.968H128.48Z" fill="white"/>
<path d="M132.377 155.692C132.629 155.337 132.974 155.043 133.413 154.81C133.861 154.567 134.369 154.446 134.939 154.446C135.601 154.446 136.199 154.609 136.731 154.936C137.272 155.263 137.697 155.729 138.005 156.336C138.322 156.933 138.481 157.629 138.481 158.422C138.481 159.215 138.322 159.92 138.005 160.536C137.697 161.143 137.272 161.614 136.731 161.95C136.199 162.286 135.601 162.454 134.939 162.454C134.369 162.454 133.865 162.337 133.427 162.104C132.997 161.871 132.647 161.577 132.377 161.222V166.024H130.417V154.572H132.377V155.692ZM136.479 158.422C136.479 157.955 136.381 157.554 136.185 157.218C135.998 156.873 135.746 156.611 135.429 156.434C135.121 156.257 134.785 156.168 134.421 156.168C134.066 156.168 133.73 156.261 133.413 156.448C133.105 156.625 132.853 156.887 132.657 157.232C132.47 157.577 132.377 157.983 132.377 158.45C132.377 158.917 132.47 159.323 132.657 159.668C132.853 160.013 133.105 160.279 133.413 160.466C133.73 160.643 134.066 160.732 134.421 160.732C134.785 160.732 135.121 160.639 135.429 160.452C135.746 160.265 135.998 159.999 136.185 159.654C136.381 159.309 136.479 158.898 136.479 158.422Z" fill="white"/>
<path d="M150.661 154.572L145.859 165.996H143.773L145.453 162.132L142.345 154.572H144.543L146.545 159.99L148.575 154.572H150.661Z" fill="white"/>
<path d="M155.162 162.454C154.415 162.454 153.743 162.291 153.146 161.964C152.548 161.628 152.077 161.157 151.732 160.55C151.396 159.943 151.228 159.243 151.228 158.45C151.228 157.657 151.4 156.957 151.746 156.35C152.1 155.743 152.581 155.277 153.188 154.95C153.794 154.614 154.471 154.446 155.218 154.446C155.964 154.446 156.641 154.614 157.248 154.95C157.854 155.277 158.33 155.743 158.676 156.35C159.03 156.957 159.208 157.657 159.208 158.45C159.208 159.243 159.026 159.943 158.662 160.55C158.307 161.157 157.822 161.628 157.206 161.964C156.599 162.291 155.918 162.454 155.162 162.454ZM155.162 160.746C155.516 160.746 155.848 160.662 156.156 160.494C156.473 160.317 156.725 160.055 156.912 159.71C157.098 159.365 157.192 158.945 157.192 158.45C157.192 157.713 156.996 157.148 156.604 156.756C156.221 156.355 155.75 156.154 155.19 156.154C154.63 156.154 154.158 156.355 153.776 156.756C153.402 157.148 153.216 157.713 153.216 158.45C153.216 159.187 153.398 159.757 153.762 160.158C154.135 160.55 154.602 160.746 155.162 160.746Z" fill="white"/>
<path d="M167.967 154.572V162.328H165.993V161.348C165.741 161.684 165.41 161.95 164.999 162.146C164.598 162.333 164.159 162.426 163.683 162.426C163.077 162.426 162.54 162.3 162.073 162.048C161.607 161.787 161.238 161.409 160.967 160.914C160.706 160.41 160.575 159.813 160.575 159.122V154.572H162.535V158.842C162.535 159.458 162.689 159.934 162.997 160.27C163.305 160.597 163.725 160.76 164.257 160.76C164.799 160.76 165.223 160.597 165.531 160.27C165.839 159.934 165.993 159.458 165.993 158.842V154.572H167.967Z" fill="white"/>
<path d="M19.0171 180.182V183.934C19.0171 184.195 19.0778 184.387 19.1991 184.508C19.3298 184.62 19.5445 184.676 19.8431 184.676H20.7531V186.328H19.5211C17.8691 186.328 17.0431 185.525 17.0431 183.92V180.182H16.1191V178.572H17.0431V176.654H19.0171V178.572H20.7531V180.182H19.0171Z" fill="white"/>
<path d="M25.6069 186.454C24.8602 186.454 24.1882 186.291 23.5909 185.964C22.9935 185.628 22.5222 185.157 22.1769 184.55C21.8409 183.943 21.6729 183.243 21.6729 182.45C21.6729 181.657 21.8455 180.957 22.1909 180.35C22.5455 179.743 23.0262 179.277 23.6329 178.95C24.2395 178.614 24.9162 178.446 25.6629 178.446C26.4095 178.446 27.0862 178.614 27.6929 178.95C28.2995 179.277 28.7755 179.743 29.1209 180.35C29.4755 180.957 29.6529 181.657 29.6529 182.45C29.6529 183.243 29.4709 183.943 29.1069 184.55C28.7522 185.157 28.2669 185.628 27.6509 185.964C27.0442 186.291 26.3629 186.454 25.6069 186.454ZM25.6069 184.746C25.9615 184.746 26.2929 184.662 26.6009 184.494C26.9182 184.317 27.1702 184.055 27.3569 183.71C27.5435 183.365 27.6369 182.945 27.6369 182.45C27.6369 181.713 27.4409 181.148 27.0489 180.756C26.6662 180.355 26.1949 180.154 25.6349 180.154C25.0749 180.154 24.6035 180.355 24.2209 180.756C23.8475 181.148 23.6609 181.713 23.6609 182.45C23.6609 183.187 23.8429 183.757 24.2069 184.158C24.5802 184.55 25.0469 184.746 25.6069 184.746Z" fill="white"/>
<path d="M30.5866 182.422C30.5866 181.638 30.7406 180.943 31.0486 180.336C31.3659 179.729 31.7953 179.263 32.3366 178.936C32.8779 178.609 33.4799 178.446 34.1426 178.446C34.6466 178.446 35.1273 178.558 35.5846 178.782C36.0419 178.997 36.4059 179.286 36.6766 179.65V175.968H38.6646V186.328H36.6766V185.18C36.4339 185.563 36.0933 185.871 35.6546 186.104C35.2159 186.337 34.7073 186.454 34.1286 186.454C33.4753 186.454 32.8779 186.286 32.3366 185.95C31.7953 185.614 31.3659 185.143 31.0486 184.536C30.7406 183.92 30.5866 183.215 30.5866 182.422ZM36.6906 182.45C36.6906 181.974 36.5973 181.568 36.4106 181.232C36.2239 180.887 35.9719 180.625 35.6546 180.448C35.3373 180.261 34.9966 180.168 34.6326 180.168C34.2686 180.168 33.9326 180.257 33.6246 180.434C33.3166 180.611 33.0646 180.873 32.8686 181.218C32.6819 181.554 32.5886 181.955 32.5886 182.422C32.5886 182.889 32.6819 183.299 32.8686 183.654C33.0646 183.999 33.3166 184.265 33.6246 184.452C33.9419 184.639 34.2779 184.732 34.6326 184.732C34.9966 184.732 35.3373 184.643 35.6546 184.466C35.9719 184.279 36.2239 184.018 36.4106 183.682C36.5973 183.337 36.6906 182.926 36.6906 182.45Z" fill="white"/>
<path d="M40.0749 182.422C40.0749 181.638 40.2289 180.943 40.5369 180.336C40.8542 179.729 41.2789 179.263 41.8109 178.936C42.3522 178.609 42.9542 178.446 43.6169 178.446C44.1956 178.446 44.6996 178.563 45.1289 178.796C45.5676 179.029 45.9176 179.323 46.1789 179.678V178.572H48.1529V186.328H46.1789V185.194C45.9269 185.558 45.5769 185.861 45.1289 186.104C44.6902 186.337 44.1816 186.454 43.6029 186.454C42.9496 186.454 42.3522 186.286 41.8109 185.95C41.2789 185.614 40.8542 185.143 40.5369 184.536C40.2289 183.92 40.0749 183.215 40.0749 182.422ZM46.1789 182.45C46.1789 181.974 46.0856 181.568 45.8989 181.232C45.7122 180.887 45.4602 180.625 45.1429 180.448C44.8256 180.261 44.4849 180.168 44.1209 180.168C43.7569 180.168 43.4209 180.257 43.1129 180.434C42.8049 180.611 42.5529 180.873 42.3569 181.218C42.1702 181.554 42.0769 181.955 42.0769 182.422C42.0769 182.889 42.1702 183.299 42.3569 183.654C42.5529 183.999 42.8049 184.265 43.1129 184.452C43.4302 184.639 43.7662 184.732 44.1209 184.732C44.4849 184.732 44.8256 184.643 45.1429 184.466C45.4602 184.279 45.7122 184.018 45.8989 183.682C46.0856 183.337 46.1789 182.926 46.1789 182.45Z" fill="white"/>
<path d="M57.4872 178.572L52.6852 189.996H50.5992L52.2792 186.132L49.1712 178.572H51.3692L53.3712 183.99L55.4012 178.572H57.4872Z" fill="white"/>
<path d="M61.0777 176.388L60.8537 183.15H59.2017L58.9637 176.388H61.0777ZM60.0697 186.426C59.7151 186.426 59.4211 186.319 59.1877 186.104C58.9637 185.88 58.8517 185.605 58.8517 185.278C58.8517 184.951 58.9637 184.681 59.1877 184.466C59.4211 184.242 59.7151 184.13 60.0697 184.13C60.4151 184.13 60.6997 184.242 60.9237 184.466C61.1477 184.681 61.2597 184.951 61.2597 185.278C61.2597 185.605 61.1477 185.88 60.9237 186.104C60.6997 186.319 60.4151 186.426 60.0697 186.426Z" fill="white"/>
<defs>
<filter id="filter0_bi_451_421" x="-9" y="125.828" width="201.23" height="80" filterUnits="userSpaceOnUse" color-interpolation-filters="sRGB">
<feFlood flood-opacity="0" result="BackgroundImageFix"/>
<feGaussianBlur in="BackgroundImageFix" stdDeviation="4.5"/>
<feComposite in2="SourceAlpha" operator="in" result="effect1_backgroundBlur_451_421"/>
<feBlend mode="normal" in="SourceGraphic" in2="effect1_backgroundBlur_451_421" result="shape"/>
<feColorMatrix in="SourceAlpha" type="matrix" values="0 0 0 0 0 0 0 0 0 0 0 0 0 0 0 0 0 0 127 0" result="hardAlpha"/>
<feOffset dx="4" dy="4"/>
<feGaussianBlur stdDeviation="4"/>
<feComposite in2="hardAlpha" operator="arithmetic" k2="-1" k3="1"/>
<feColorMatrix type="matrix" values="0 0 0 0 0 0 0 0 0 0 0 0 0 0 0 0 0 0 0.15 0"/>
<feBlend mode="normal" in2="shape" result="effect2_innerShadow_451_421"/>
</filter>
<linearGradient id="paint0_linear_451_421" x1="250.496" y1="0" x2="250.496" y2="393.481" gradientUnits="userSpaceOnUse">
<stop stop-color="#2C3900" stop-opacity="0.12"/>
<stop offset="0.864583" stop-color="#C7F431" stop-opacity="0.01"/>
<stop offset="1" stop-color="#C7F431" stop-opacity="0"/>
</linearGradient>
<linearGradient id="paint1_linear_451_421" x1="249.776" y1="43.365" x2="249.776" y2="521.486" gradientUnits="userSpaceOnUse">
<stop stop-color="#495E05" stop-opacity="0.12"/>
<stop offset="0.864583" stop-color="#C7F431" stop-opacity="0.01"/>
<stop offset="1" stop-color="#C7F431" stop-opacity="0"/>
</linearGradient>
<linearGradient id="paint2_linear_451_421" x1="249.051" y1="86.73" x2="249.051" y2="466.534" gradientUnits="userSpaceOnUse">
<stop stop-color="#425600" stop-opacity="0.12"/>
<stop offset="0.864583" stop-color="#C7F431" stop-opacity="0.01"/>
<stop offset="1" stop-color="#C7F431" stop-opacity="0"/>
</linearGradient>
<linearGradient id="paint3_linear_451_421" x1="248.325" y1="130.095" x2="248.325" y2="446.659" gradientUnits="userSpaceOnUse">
<stop stop-color="#5C5C5C" stop-opacity="0.12"/>
<stop offset="0.864583" stop-color="#495E05" stop-opacity="0.01"/>
<stop offset="1" stop-color="#3E5100" stop-opacity="0"/>
</linearGradient>
<linearGradient id="paint4_linear_451_421" x1="249.774" y1="533.364" x2="249.774" y2="315.717" gradientUnits="userSpaceOnUse">
<stop stop-color="#D8DCCA" stop-opacity="0.12"/>
<stop offset="0.850547" stop-color="#C7F431" stop-opacity="0.04"/>
<stop offset="1" stop-color="#C7F431" stop-opacity="0"/>
</linearGradient>
<linearGradient id="paint5_linear_451_421" x1="252.742" y1="350.978" x2="252.742" y2="340.086" gradientUnits="userSpaceOnUse">
<stop stop-color="#D6D6D6"/>
<stop offset="1" stop-color="#EFEFEF"/>
</linearGradient>
<linearGradient id="paint6_linear_451_421" x1="176.679" y1="211.941" x2="347.538" y2="324.068" gradientUnits="userSpaceOnUse">
<stop stop-color="#F0F0F0"/>
<stop offset="0.304048" stop-color="#EDEDED"/>
<stop offset="1" stop-color="#D3D3D3"/>
</linearGradient>
<linearGradient id="paint7_linear_451_421" x1="334.713" y1="293.367" x2="162.519" y2="255.991" gradientUnits="userSpaceOnUse">
<stop stop-color="#F4F4F4"/>
<stop offset="1" stop-color="#CCCCCC"/>
</linearGradient>
<linearGradient id="paint8_linear_451_421" x1="201.767" y1="220.618" x2="179.742" y2="239.973" gradientUnits="userSpaceOnUse">
<stop stop-color="#E4E4E4"/>
<stop offset="0.489583" stop-color="#E4E4E4" stop-opacity="0.65625"/>
<stop offset="1" stop-color="#E4E4E4" stop-opacity="0"/>
</linearGradient>
<linearGradient id="paint9_linear_451_421" x1="153.543" y1="402.134" x2="75.9458" y2="339.353" gradientUnits="userSpaceOnUse">
<stop stop-color="#F2F2F2"/>
<stop offset="1" stop-color="#D4D4D4"/>
</linearGradient>
<linearGradient id="paint10_linear_451_421" x1="151.708" y1="386.805" x2="338.585" y2="547.652" gradientUnits="userSpaceOnUse">
<stop stop-color="#F2F2F2"/>
<stop offset="1" stop-color="#D4D4D4"/>
</linearGradient>
<linearGradient id="paint11_linear_451_421" x1="280.001" y1="471.567" x2="218.599" y2="436.861" gradientUnits="userSpaceOnUse">
<stop stop-color="white"/>
<stop offset="1" stop-color="#CCCCCC"/>
</linearGradient>
<linearGradient id="paint12_linear_451_421" x1="155.34" y1="378.358" x2="348.891" y2="386.367" gradientUnits="userSpaceOnUse">
<stop stop-color="#E8E8E8"/>
<stop offset="1" stop-color="#BFBFBF"/>
</linearGradient>
<linearGradient id="paint13_linear_451_421" x1="167.379" y1="407.605" x2="181.111" y2="456.03" gradientUnits="userSpaceOnUse">
<stop stop-color="#E8E8E8"/>
<stop offset="0.520833" stop-color="#DDDDDD" stop-opacity="0.244792"/>
<stop offset="1" stop-color="#D9D9D9" stop-opacity="0"/>
</linearGradient>
<linearGradient id="paint14_linear_451_421" x1="379.76" y1="463.649" x2="325.975" y2="455.517" gradientUnits="userSpaceOnUse">
<stop stop-color="#F2F2F2"/>
<stop offset="0.630208" stop-color="#E0E0E0"/>
<stop offset="1" stop-color="#DFDFDF"/>
</linearGradient>
<linearGradient id="paint15_linear_451_421" x1="464.786" y1="395.123" x2="426.278" y2="483.307" gradientUnits="userSpaceOnUse">
<stop stop-color="#DEFFFE"/>
<stop offset="1" stop-color="#EAFFCC"/>
</linearGradient>
<linearGradient id="paint16_linear_451_421" x1="-21.236" y1="128.977" x2="142.381" y2="211.488" gradientUnits="userSpaceOnUse">
<stop stop-color="white"/>
<stop offset="1" stop-color="white" stop-opacity="0"/>
</linearGradient>
</defs>
</svg>
