<svg width="494" height="689" viewBox="0 0 494 689" fill="none" xmlns="http://www.w3.org/2000/svg">
<path d="M8.5 242.844C8.5 109.001 117.001 0.5 250.844 0.5C384.686 0.5 493.188 109.001 493.188 242.844V632.628H8.5V242.844Z" stroke="url(#paint0_linear_451_313)"/>
<path d="M51.8652 242.124C51.8652 132.628 140.629 43.8649 250.124 43.8649C359.619 43.8649 448.383 132.628 448.383 242.124V675.993H51.8652V242.124Z" stroke="url(#paint1_linear_451_313)"/>
<path d="M95.2295 241.398C95.2295 156.253 164.253 87.2299 249.398 87.2299C334.543 87.2299 403.566 156.253 403.566 241.398V719.358H95.2295V241.398Z" stroke="url(#paint2_linear_451_313)"/>
<path d="M138.595 240.673C138.595 179.878 187.878 130.595 248.673 130.595C309.467 130.595 358.75 179.878 358.75 240.673V762.723H138.595V240.673Z" stroke="url(#paint3_linear_451_313)"/>
<circle cx="250.122" cy="375.805" r="157.059" stroke="url(#paint4_linear_451_313)"/>
<path d="M211.576 350.978H294.603C300.022 350.978 304.414 346.586 304.414 341.167V339.739C304.414 334.32 300.022 329.928 294.603 329.928H211.576C206.158 329.928 201.765 334.32 201.765 339.739V341.167C201.765 346.586 206.158 350.978 211.576 350.978Z" fill="url(#paint5_linear_451_313)"/>
<path d="M249.524 195.323H256.692V159.082H249.524V195.323Z" fill="#F0F0F0"/>
<path d="M362.733 303.194C374.051 300.504 381.045 289.149 378.355 277.831C375.665 266.513 364.31 259.519 352.992 262.209C341.674 264.899 334.68 276.255 337.37 287.572C340.06 298.89 351.415 305.885 362.733 303.194Z" fill="#F0F0F0"/>
<mask id="mask0_451_313" style="mask-type:alpha" maskUnits="userSpaceOnUse" x="336" y="261" width="43" height="43">
<path d="M362.733 303.194C374.051 300.504 381.045 289.149 378.355 277.831C375.665 266.513 364.31 259.519 352.992 262.209C341.674 264.899 334.68 276.255 337.37 287.572C340.06 298.89 351.415 305.885 362.733 303.194Z" fill="#F0F0F0"/>
</mask>
<g mask="url(#mask0_451_313)">
<path d="M365.758 284.583C369.454 269.684 353.934 277.547 353.99 261.547L337.294 299.05L369.399 334.699C405.292 320.182 370.065 326.25 375.329 307.797C380.594 289.344 362.687 296.959 365.758 284.583Z" fill="#CFCFCF"/>
</g>
<path d="M149.883 301.839C161.228 299.266 168.339 287.983 165.766 276.638C163.192 265.293 151.909 258.182 140.564 260.755C129.219 263.329 122.109 274.612 124.682 285.957C127.255 297.302 138.538 304.413 149.883 301.839Z" fill="#E8E8E8"/>
<mask id="mask1_451_313" style="mask-type:alpha" maskUnits="userSpaceOnUse" x="124" y="260" width="43" height="43">
<path d="M149.884 301.839C161.229 299.266 168.34 287.983 165.767 276.638C163.193 265.293 151.91 258.182 140.565 260.755C129.22 263.329 122.11 274.612 124.683 285.957C127.256 297.302 138.539 304.413 149.884 301.839Z" fill="#F0F0F0"/>
</mask>
<g mask="url(#mask1_451_313)">
<path d="M136.173 283.355C134.566 268.089 148.854 278.016 151.004 262.162L162.37 301.608L125.656 332.491C92.1078 313.163 126.161 324.03 123.492 305.027C120.822 286.025 137.508 296.036 136.173 283.355Z" fill="#CFCFCF"/>
</g>
<path d="M249.069 187.461C249.069 187.461 163.425 186.433 149.864 260.61C136.302 334.787 208.73 336.175 229.567 337.576C239.017 338.217 259.227 338.284 277.06 337.963C316.544 337.283 344.429 329.634 353.933 293.006C355.041 288.735 355.789 284.343 356.069 279.885C358.578 239.746 331.401 185.472 249.082 187.447L249.069 187.461Z" fill="url(#paint6_linear_451_313)"/>
<path d="M312.231 301.826L312.232 301.826C326.129 301.6 337.228 290.249 337.014 276.433L337.014 276.431C336.786 262.616 325.332 251.618 311.435 251.83L311.435 251.83L186.051 253.779L186.05 253.779C172.154 254.004 161.054 265.356 161.268 279.172L161.268 279.173C161.496 292.989 172.95 303.987 186.847 303.775L186.848 303.775L312.231 301.826Z" fill="#030303" stroke="url(#paint7_linear_451_313)" stroke-width="2.77033"/>
<path d="M212.456 276.561C211.655 280.672 207.664 283.342 203.566 282.541C199.455 281.74 196.785 277.749 197.586 273.651C198.387 269.54 202.378 266.87 206.476 267.671C210.588 268.472 213.257 272.463 212.456 276.561Z" fill="#C7F431"/>
<path d="M299.381 275.173C298.58 279.284 294.589 281.954 290.491 281.153C286.38 280.352 283.71 276.361 284.511 272.263C285.312 268.152 289.303 265.482 293.401 266.283C297.512 267.084 300.182 271.075 299.381 275.173Z" fill="#C7F431"/>
<path d="M261.47 166.694C266.083 162.08 266.083 154.601 261.47 149.987C256.857 145.374 249.377 145.374 244.763 149.987C240.15 154.601 240.15 162.08 244.763 166.694C249.377 171.307 256.857 171.307 261.47 166.694Z" fill="#C7F431"/>
<path d="M234.242 273.064C234.802 273.13 234.522 275.773 236.177 279.297C236.978 281.046 238.313 282.955 240.195 284.583C242.077 286.212 244.573 287.453 247.31 287.747C250.06 287.961 252.743 287.186 254.892 285.932C257.054 284.677 258.709 283.035 259.804 281.46C262.073 278.296 262.273 275.64 262.834 275.68C263.048 275.68 263.288 276.347 263.288 277.602C263.288 278.857 262.927 280.686 261.913 282.715C260.899 284.744 259.137 286.933 256.587 288.628C254.078 290.337 250.66 291.498 246.99 291.191C243.332 290.817 240.182 289.068 238.019 286.933C235.83 284.797 234.482 282.327 233.855 280.152C233.214 277.963 233.187 276.094 233.428 274.866C233.655 273.638 234.002 273.01 234.215 273.05L234.242 273.064Z" fill="#C7F431"/>
<path d="M348.277 307.649C348.157 307.583 349.692 305.247 351.16 301.042C352.682 296.864 354.004 290.804 354.631 284.036C355.312 277.255 355.205 271.075 355.031 266.617C354.925 264.387 354.818 262.585 354.724 261.331C354.631 260.089 354.604 259.395 354.658 259.382C354.711 259.382 354.818 260.062 354.991 261.304C355.178 262.545 355.352 264.347 355.525 266.59C355.819 271.062 356.006 277.282 355.325 284.103C354.684 290.924 353.269 297.024 351.628 301.215C350.827 303.311 349.999 304.953 349.358 306.034C348.704 307.102 348.317 307.689 348.277 307.663V307.649Z" fill="#777777"/>
<path d="M149.92 258.18C149.92 258.18 149.813 258.874 149.493 260.089C149.333 260.69 149.133 261.437 148.959 262.305C148.772 263.173 148.519 264.147 148.358 265.255C147.945 267.444 147.611 270.087 147.424 273.037C147.277 275.987 147.277 279.231 147.558 282.621C147.878 286.012 148.438 289.202 149.106 292.085C149.813 294.942 150.601 297.491 151.402 299.574C151.762 300.628 152.176 301.549 152.51 302.377C152.83 303.204 153.15 303.898 153.431 304.459C153.951 305.594 154.218 306.234 154.178 306.261C154.138 306.288 153.791 305.687 153.191 304.579C152.883 304.032 152.523 303.351 152.163 302.537C151.789 301.723 151.335 300.815 150.948 299.761C150.08 297.678 149.239 295.129 148.492 292.245C147.784 289.349 147.184 286.118 146.863 282.688C146.57 279.257 146.596 275.974 146.783 272.997C147.01 270.02 147.397 267.364 147.878 265.162C148.078 264.054 148.358 263.079 148.585 262.212C148.799 261.344 149.026 260.61 149.239 260.009C149.64 258.821 149.88 258.167 149.92 258.18Z" fill="#777777"/>
<path opacity="0.5" d="M238.085 193.014C238.085 193.014 237.978 193.04 237.778 193.067C237.538 193.094 237.231 193.12 236.87 193.147C236.069 193.227 234.895 193.254 233.386 193.441C230.369 193.708 226.018 194.309 220.745 195.537C215.473 196.751 209.306 198.727 202.818 201.73C196.331 204.72 189.564 208.832 183.183 214.064C176.843 219.337 171.517 225.21 167.352 231.003C163.174 236.81 160.064 242.483 157.861 247.422C155.659 252.36 154.244 256.525 153.403 259.435C152.936 260.877 152.695 262.025 152.455 262.799C152.348 263.146 152.268 263.44 152.202 263.667C152.135 263.867 152.108 263.96 152.095 263.96C152.095 263.96 152.095 263.853 152.135 263.653C152.188 263.413 152.242 263.119 152.322 262.759C152.509 261.985 152.722 260.823 153.136 259.355C153.897 256.418 155.245 252.214 157.407 247.221C159.556 242.229 162.64 236.489 166.831 230.629C171.009 224.769 176.349 218.843 182.743 213.517C189.176 208.244 196.011 204.133 202.551 201.143C209.106 198.153 215.326 196.204 220.639 195.043C225.951 193.868 230.329 193.347 233.359 193.161C234.868 193.027 236.056 193.04 236.857 193C237.217 193 237.524 193 237.764 193C237.965 193 238.071 193 238.071 193.014H238.085Z" fill="#BDBDBD"/>
<path d="M154.283 295.769C154.203 295.796 153.683 294.808 153.069 293.1C152.441 291.404 151.761 288.975 151.333 286.252C150.906 283.516 150.826 281.006 150.893 279.191C150.96 277.375 151.147 276.281 151.24 276.281C151.454 276.281 151.16 280.752 152.014 286.145C152.842 291.538 154.497 295.689 154.283 295.769Z" fill="#C8C8C8"/>
<path d="M131.833 288.868C131.833 288.868 131.526 288.655 131.112 288.147C130.685 287.64 130.138 286.866 129.604 285.811C128.509 283.742 127.575 280.459 128.042 276.841C128.523 273.224 130.298 270.301 131.887 268.579C132.687 267.711 133.408 267.097 133.956 266.723C134.489 266.35 134.81 266.176 134.837 266.216C134.917 266.31 133.715 267.137 132.26 268.899C130.805 270.648 129.19 273.478 128.736 276.921C128.283 280.365 129.11 283.529 130.044 285.585C130.979 287.667 131.94 288.775 131.833 288.855V288.868Z" fill="#8F8F8F"/>
<path d="M253.89 150.112C253.863 150.246 252.675 149.805 250.753 150.032C248.884 150.232 246.188 151.313 244.586 153.77C243.024 156.252 243.158 159.149 243.758 160.938C244.346 162.78 245.24 163.687 245.133 163.767C245.107 163.794 244.853 163.607 244.493 163.18C244.119 162.753 243.665 162.059 243.291 161.111C242.53 159.269 242.277 156.132 243.999 153.409C245.761 150.713 248.711 149.645 250.713 149.565C251.727 149.511 252.555 149.632 253.089 149.792C253.636 149.952 253.903 150.099 253.89 150.125V150.112Z" fill="#5B7409"/>
<path d="M370.221 272.677C370.074 272.837 367.992 270.848 364.855 269.353C361.731 267.818 358.888 267.417 358.928 267.204C358.928 267.03 361.905 267.137 365.162 268.726C368.419 270.287 370.354 272.57 370.221 272.677Z" fill="#8F8F8F"/>
<path d="M290.491 248.863C290.491 249.05 274.1 249.21 253.89 249.21C233.681 249.21 217.289 249.05 217.289 248.863C217.289 248.676 233.681 248.516 253.89 248.516C274.1 248.516 290.491 248.676 290.491 248.863Z" fill="#CFCFCF"/>
<path d="M228.035 332.331C228.035 332.331 227.822 332.384 227.421 332.437C226.927 332.477 226.34 332.531 225.633 332.597C224.858 332.664 223.911 332.731 222.803 332.744C221.695 332.771 220.44 332.838 219.052 332.784C216.262 332.784 212.952 332.584 209.281 332.197C205.623 331.77 201.619 331.116 197.468 330.155C193.33 329.167 189.459 327.952 185.988 326.711C182.531 325.429 179.487 324.108 176.991 322.88C175.723 322.293 174.628 321.679 173.654 321.158C172.666 320.651 171.852 320.17 171.185 319.77C170.584 319.396 170.077 319.089 169.65 318.835C169.302 318.622 169.129 318.488 169.142 318.475C169.156 318.462 169.356 318.542 169.716 318.715C170.157 318.942 170.677 319.209 171.305 319.529C171.986 319.903 172.826 320.344 173.828 320.811C174.815 321.291 175.923 321.879 177.205 322.426C179.714 323.601 182.771 324.855 186.215 326.097C189.672 327.312 193.53 328.486 197.641 329.474C201.752 330.435 205.73 331.089 209.361 331.556C212.992 331.983 216.289 332.224 219.065 332.29C220.453 332.371 221.708 332.331 222.803 332.344C223.911 332.357 224.858 332.344 225.633 332.317C226.34 332.317 226.927 332.304 227.421 332.29C227.835 332.29 228.049 332.304 228.049 332.331H228.035Z" fill="#C8C8C8"/>
<path d="M188.952 242.118C190.178 241.292 191.247 240.235 192.397 239.296C195.166 237.035 198.454 235.457 201.907 234.73C202.995 234.499 204.207 234.287 204.881 233.383C205.2 232.96 205.352 232.424 205.418 231.893C205.665 229.799 204.535 227.72 202.943 226.398C201.352 225.075 199.366 224.387 197.39 223.851C193.551 222.809 189.523 222.249 185.603 222.898C181.684 223.551 177.864 225.518 175.48 228.801C174.458 230.202 173.712 231.844 173.484 233.579C172.995 237.345 175.18 241.228 178.463 242.929C181.746 244.625 185.879 244.197 188.952 242.128V242.118Z" fill="url(#paint8_linear_451_313)"/>
<path d="M152.766 383.528C129.56 370.287 105.835 357.846 79.7458 352.104C76.0818 351.293 72.3159 350.618 68.618 351.192C64.92 351.766 61.256 353.793 59.6275 357.137C57.3884 361.765 59.5596 367.271 62.4095 371.56C68.6858 380.985 78.0834 387.875 87.5489 394.124C113.469 411.25 141.356 425.2 169.142 439.083C165.613 419.391 158.16 402.815 152.834 383.528" fill="url(#paint9_linear_451_313)"/>
<mask id="mask2_451_313" style="mask-type:alpha" maskUnits="userSpaceOnUse" x="92" y="218" width="316" height="316">
<circle cx="250.119" cy="375.805" r="157.559" fill="#171717"/>
</mask>
<g mask="url(#mask2_451_313)">
<path d="M152.576 383.655C152.576 383.655 154.378 558.692 252.609 562.122C350.839 565.553 354.964 384.91 354.964 383.655C354.964 383.655 343.364 357.545 253.77 358.573C164.176 359.601 152.576 383.655 152.576 383.655Z" fill="url(#paint10_linear_451_313)"/>
<path d="M246.747 485.409C265.617 486.787 282.078 472.837 283.903 454.096H283.926L283.989 453.24C285.388 434.071 270.99 417.397 251.82 415.998C232.651 414.599 215.976 428.997 214.578 448.167C213.179 467.336 227.577 484.011 246.747 485.409Z" fill="#030303" stroke="url(#paint11_linear_451_313)" stroke-width="1.84689"/>
<path d="M261.991 456.991C261.897 456.937 261.817 455.469 261.764 452.919C261.697 450.37 261.657 446.726 261.644 442.281L261.911 442.775C258.213 440.612 253.915 438.103 249.217 435.366H249.924C245.946 437.622 241.621 440.038 237.11 442.574C236.763 443.148 237.577 441.787 237.497 441.934V441.96V441.987V442.054V442.174V442.414V442.895L237.47 443.856L237.443 445.765C237.417 447.033 237.403 448.274 237.377 449.502C237.323 451.958 237.283 454.334 237.243 456.63L236.896 456.016C241.541 458.846 245.773 461.436 249.443 463.678H248.883C252.794 461.569 256.024 459.887 258.293 458.726C260.576 457.565 261.884 456.937 261.991 456.991C262.084 457.044 260.95 457.791 258.787 459.113C256.625 460.434 253.435 462.33 249.43 464.639L249.15 464.799L248.869 464.639C245.159 462.477 240.874 459.967 236.175 457.231L235.828 457.031V456.617C235.855 454.321 235.882 451.945 235.908 449.489C235.922 448.261 235.935 447.019 235.948 445.751L235.975 443.842V442.881L236.002 442.401V442.161V442.04V441.974V441.947V441.92C235.922 442.054 236.736 440.692 236.389 441.266C240.914 438.757 245.252 436.354 249.243 434.138L249.604 433.938L249.951 434.152C254.596 436.981 258.841 439.584 262.498 441.814L262.778 441.987V442.307C262.632 446.926 262.471 450.637 262.338 453.173C262.204 455.709 262.084 457.057 261.991 457.004V456.991Z" fill="#C7F431"/>
<path d="M152.203 383.885C152.203 383.885 163.803 359.817 253.397 358.803C342.991 357.775 354.591 383.885 354.591 383.885C354.591 383.885 264.223 428.455 152.216 383.885H152.203Z" fill="url(#paint12_linear_451_313)"/>
<path d="M156.113 393.546L156.161 393.534L156.161 393.534L156.161 393.534L156.162 393.534L156.162 393.534L156.162 393.535L156.163 393.54L156.166 393.555C156.169 393.569 156.174 393.589 156.179 393.615C156.189 393.668 156.202 393.745 156.216 393.846L156.216 393.848L156.216 393.848C156.243 394.089 156.27 394.383 156.296 394.744M156.113 393.546L156.296 394.744C156.296 394.744 156.296 394.744 156.296 394.744M156.113 393.546L156.161 393.534L156.152 393.496H156.113C156.093 393.496 156.08 393.506 156.073 393.514C156.067 393.521 156.064 393.529 156.062 393.533C156.059 393.542 156.057 393.551 156.056 393.559C156.053 393.575 156.052 393.597 156.051 393.623C156.05 393.675 156.05 393.753 156.05 393.852V393.853V393.854V393.856V393.857V393.859V393.86V393.861V393.863V393.864V393.866V393.867V393.869V393.87V393.871V393.873V393.874V393.876V393.877V393.879V393.88V393.881V393.883V393.884V393.886V393.887V393.889V393.89V393.891V393.893V393.894V393.896V393.897V393.899V393.9V393.902V393.903V393.905V393.906V393.907V393.909V393.91V393.912V393.913V393.915V393.916V393.918V393.919V393.921V393.922V393.923V393.925V393.926V393.928V393.929V393.931V393.932V393.934V393.935V393.937V393.938V393.94V393.941V393.943V393.944V393.946V393.947V393.949V393.95V393.952V393.953V393.955V393.956V393.958V393.959V393.961V393.962V393.964V393.965V393.967V393.968V393.97V393.971V393.973V393.974V393.976V393.977V393.979V393.98V393.982V393.983V393.985V393.986V393.988V393.989V393.991V393.992V393.994V393.995V393.997V393.998V394V394.002V394.003V394.005V394.006V394.008V394.009V394.011V394.012V394.014V394.015V394.017V394.019V394.02V394.022V394.023V394.025V394.026V394.028V394.029V394.031V394.032V394.034V394.036V394.037V394.039V394.04V394.042V394.043V394.045V394.047V394.048V394.05V394.051V394.053V394.054V394.056V394.058V394.059V394.061V394.062V394.064V394.066V394.067V394.069V394.07V394.072V394.073V394.075V394.077V394.078V394.08V394.081V394.083V394.085V394.086V394.088V394.09V394.091V394.093V394.094V394.096V394.098V394.099V394.101V394.102V394.104V394.106V394.107V394.109V394.111V394.112V394.114V394.115V394.117V394.119V394.12V394.122V394.124V394.125V394.127V394.128V394.13V394.132V394.133V394.135V394.137V394.138V394.14V394.142V394.143V394.145V394.147V394.148V394.15V394.152V394.153V394.155V394.157V394.158V394.16V394.161V394.163V394.165V394.166V394.168V394.17V394.172V394.173V394.175V394.177V394.178V394.18V394.182V394.183V394.185V394.187V394.188V394.19V394.192V394.193V394.195V394.197V394.198V394.2V394.202V394.204V394.205V394.207V394.209V394.21V394.212V394.214V394.215V394.217V394.219V394.221V394.222V394.224V394.226V394.227V394.229V394.231V394.233V394.234V394.236V394.238V394.24V394.241V394.243V394.245V394.246V394.248V394.25V394.252V394.253V394.255V394.257V394.259V394.26V394.262V394.264V394.266V394.267V394.269V394.271V394.273V394.274V394.276V394.278V394.28V394.281V394.283V394.285V394.287V394.288V394.29V394.292V394.294V394.296V394.297V394.299V394.301V394.303V394.304V394.306V394.308V394.31V394.312V394.313V394.315V394.317V394.319V394.32V394.322V394.324V394.326V394.328V394.329V394.331V394.333V394.335V394.337V394.338V394.34V394.342V394.344V394.346V394.348V394.349V394.351V394.353V394.355V394.357V394.358V394.36V394.362V394.364V394.366V394.368V394.369V394.371V394.373V394.375V394.377V394.379V394.38V394.382V394.384V394.386V394.388V394.39V394.391V394.393V394.395V394.397V394.399V394.401V394.403V394.404V394.406V394.408V394.41V394.412V394.414V394.416V394.417V394.419V394.421V394.423V394.425V394.427V394.429V394.431V394.432V394.434V394.436V394.438V394.44V394.442V394.444V394.446V394.447V394.449V394.451V394.453V394.455V394.457V394.459V394.461V394.463V394.465V394.466V394.468V394.47V394.472V394.474V394.476V394.478V394.48V394.482V394.484V394.486V394.487V394.489V394.491V394.493V394.495V394.497V394.499V394.501V394.503V394.505V394.507V394.509V394.511V394.513V394.514V394.516V394.518V394.52V394.522V394.524V394.526V394.528V394.53V394.532V394.534V394.536V394.538V394.54V394.542V394.544V394.546V394.548V394.55V394.552V394.554V394.556V394.557V394.559V394.561V394.563V394.565V394.567V394.569V394.571V394.573V394.575V394.577V394.579V394.581V394.583V394.585V394.587V394.589V394.591V394.593V394.595V394.597V394.599V394.601V394.603V394.605V394.607V394.609V394.611V394.613V394.615V394.617V394.619V394.621V394.623V394.625V394.627V394.629V394.631V394.634V394.636V394.638V394.64V394.642V394.644V394.646V394.648V394.65V394.652V394.654V394.656V394.658V394.66V394.662V394.664V394.666V394.668V394.67V394.672V394.674V394.676V394.679V394.681V394.683V394.685V394.687V394.689V394.691V394.693V394.695V394.697V394.699V394.701V394.703V394.705V394.708V394.71V394.712V394.714V394.716V394.718V394.72V394.722V394.724V394.726V394.728V394.731V394.733V394.735V394.737V394.739V394.741V394.743V394.745V394.747H156.05L156.05 394.75C156.073 395.238 156.091 395.822 156.113 396.505C156.129 397.016 156.147 397.583 156.17 398.206C156.21 399.716 156.317 401.545 156.464 403.681C156.597 405.816 156.757 408.233 157.011 410.917C157.438 416.284 158.212 422.639 159.2 429.687L159.2 429.688C160.268 436.723 161.617 444.426 163.379 452.45L163.379 452.45C165.181 460.46 167.237 468.017 169.333 474.812L169.334 474.813C169.685 475.855 170.021 476.886 170.352 477.9C171.089 480.159 171.799 482.336 172.591 484.373C172.821 484.994 173.048 485.609 173.272 486.215C173.582 487.052 173.885 487.873 174.18 488.67L174.18 488.672C174.682 489.891 175.163 491.067 175.622 492.191L175.782 492.582C175.782 492.583 175.782 492.583 175.782 492.583C176.77 495.094 177.799 497.297 178.706 499.233L178.707 499.233C178.977 499.807 179.234 500.361 179.479 500.89C179.645 501.248 179.805 501.595 179.961 501.929L179.962 501.931C180.376 502.745 180.763 503.493 181.11 504.16L181.11 504.161C181.443 504.787 181.741 505.353 182.005 505.855C182.281 506.38 182.521 506.836 182.726 507.218L182.726 507.218C182.854 507.455 182.968 507.655 183.067 507.83C183.102 507.892 183.135 507.95 183.167 508.006L183.168 508.008C183.222 508.095 183.266 508.16 183.296 508.203C183.312 508.224 183.324 508.24 183.332 508.25L183.334 508.253V508.369L183.419 508.284C183.435 508.268 183.436 508.248 183.436 508.24C183.436 508.23 183.434 508.22 183.433 508.212C183.429 508.195 183.421 508.173 183.412 508.149C183.393 508.1 183.363 508.029 183.323 507.936L183.323 507.935L183.323 507.935L183.322 507.932C183.215 507.72 183.096 507.454 182.949 507.12L182.948 507.118C182.574 506.358 182.067 505.317 181.44 504.009L181.44 504.008C181.295 503.714 181.146 503.407 180.991 503.088C180.787 502.669 180.572 502.228 180.346 501.767C179.972 500.926 179.572 500.019 179.145 499.045L179.145 499.044L179.124 498.998C178.261 497.06 177.282 494.861 176.329 492.373L176.329 492.372C176.033 491.648 175.737 490.902 175.434 490.135C175.217 489.587 174.996 489.029 174.767 488.462C174.418 487.49 174.056 486.484 173.684 485.455C173.531 485.029 173.376 484.598 173.219 484.164L173.219 484.164C172.474 482.205 171.807 480.118 171.114 477.95C170.763 476.855 170.406 475.739 170.03 474.609C167.988 467.816 165.959 460.289 164.157 452.295C162.409 444.287 161.034 436.613 159.94 429.592M156.113 393.546L159.94 429.592M156.296 394.744C156.363 395.598 156.443 396.746 156.537 398.201L156.537 398.202C156.617 399.696 156.763 401.537 156.95 403.66L156.95 403.66C156.971 403.908 156.991 404.16 157.012 404.417C157.169 406.354 157.345 408.523 157.604 410.88L157.604 410.881C158.098 416.232 158.926 422.572 159.94 429.592M156.296 394.744L159.94 429.592" fill="#D7D7D7" stroke="#D7D7D7" stroke-width="0.1"/>
<path d="M230.702 550.322C230.702 550.322 230.141 550.296 229.14 550.136C228.139 549.989 226.71 549.642 224.962 549.121C223.213 548.614 221.184 547.84 219.008 546.838C216.846 545.797 214.537 544.502 212.254 542.914C209.985 541.299 207.983 539.564 206.274 537.882C204.592 536.173 203.177 534.518 202.109 533.05C201.028 531.595 200.227 530.353 199.747 529.459C199.253 528.578 198.999 528.071 199.039 528.057C199.146 527.991 200.267 529.926 202.496 532.756C203.604 534.171 205.033 535.759 206.728 537.428C208.437 539.07 210.425 540.765 212.655 542.34C214.897 543.902 217.166 545.197 219.289 546.264C221.424 547.292 223.413 548.093 225.109 548.667C228.512 549.815 230.728 550.202 230.702 550.336V550.322Z" fill="#D7D7D7"/>
<path d="M249.747 488.573C249.747 488.573 249.427 488.626 248.813 488.666C248.199 488.666 247.291 488.813 246.116 488.746C243.767 488.746 240.363 488.359 236.332 487.158C234.317 486.571 232.181 485.69 229.952 484.595C227.776 483.42 225.48 482.072 223.317 480.31C218.953 476.866 214.895 472.048 212.278 466.148C209.756 460.208 208.995 453.947 209.462 448.408C209.649 445.631 210.236 443.028 210.863 440.639C211.584 438.276 212.399 436.114 213.346 434.232C215.215 430.468 217.271 427.718 218.872 425.996C219.62 425.088 220.341 424.514 220.768 424.074C221.222 423.647 221.462 423.433 221.475 423.46C221.529 423.513 220.581 424.407 219.073 426.169C217.551 427.931 215.575 430.694 213.787 434.445C212.879 436.314 212.105 438.463 211.424 440.799C210.823 443.162 210.276 445.725 210.103 448.461C209.675 453.921 210.436 460.047 212.919 465.881C215.482 471.661 219.446 476.413 223.718 479.816C225.84 481.565 228.083 482.913 230.219 484.088C232.394 485.182 234.49 486.077 236.479 486.691C240.443 487.946 243.807 488.386 246.13 488.479C248.452 488.573 249.747 488.506 249.747 488.573Z" fill="#D7D7D7"/>
<path d="M330.787 394.397H330.908L330.823 394.311C330.808 394.297 330.789 394.295 330.782 394.294C330.773 394.293 330.763 394.294 330.754 394.295C330.735 394.297 330.711 394.301 330.682 394.308C330.624 394.322 330.539 394.346 330.426 394.379L330.426 394.379C330.306 394.415 330.176 394.453 330.033 394.496L329.982 394.511C329.819 394.559 329.638 394.613 329.438 394.673L329.437 394.673C328.579 394.951 327.41 395.324 325.943 395.792L325.686 395.874L325.686 395.874C324.071 396.408 322.07 397.049 319.735 397.703C319.032 397.899 318.304 398.112 317.549 398.334C315.787 398.85 313.876 399.41 311.794 399.904L311.793 399.905C310.853 400.151 309.885 400.396 308.891 400.649C308.319 400.794 307.738 400.942 307.148 401.093C306.159 401.346 305.136 401.564 304.088 401.788C303.427 401.929 302.755 402.072 302.077 402.227L302.077 402.227C299.257 402.894 296.256 403.44 293.112 404.011C292.359 404.148 291.597 404.287 290.827 404.429C282.86 405.737 274.038 406.845 264.736 407.445C255.435 407.992 246.547 407.966 238.472 407.645C237.685 407.598 236.905 407.554 236.133 407.51C232.954 407.329 229.913 407.156 227.036 406.845L227.036 406.845C226.292 406.767 225.558 406.701 224.836 406.636C223.819 406.544 222.825 406.455 221.857 406.337C220.991 406.232 220.141 406.123 219.308 406.016C218.561 405.92 217.827 405.825 217.105 405.737L217.105 405.737C214.873 405.492 212.822 405.154 210.938 404.844C210.254 404.731 209.592 404.622 208.951 404.522L208.951 404.522C206.549 404.175 204.508 403.775 202.826 403.441L202.826 403.441C201.203 403.125 199.919 402.886 198.987 402.713L198.955 402.707L198.955 402.707L198.953 402.707C198.753 402.675 198.569 402.642 198.402 402.612C198.229 402.581 198.074 402.554 197.939 402.533C197.826 402.513 197.738 402.5 197.678 402.493C197.648 402.49 197.624 402.488 197.606 402.488C197.598 402.488 197.588 402.488 197.579 402.49C197.574 402.491 197.566 402.493 197.558 402.499C197.548 402.505 197.534 402.52 197.534 402.543C197.534 402.56 197.542 402.572 197.546 402.577C197.551 402.583 197.556 402.587 197.559 402.589C197.566 402.594 197.575 402.599 197.583 402.603C197.599 402.61 197.622 402.619 197.65 402.629C197.707 402.648 197.792 402.671 197.906 402.698C198.173 402.765 198.507 402.845 198.907 402.938L198.908 402.939C199.456 403.056 200.123 403.206 200.91 403.382C201.464 403.506 202.078 403.644 202.752 403.793C204.421 404.167 206.465 404.594 208.868 404.995C209.419 405.089 209.985 405.191 210.568 405.295C212.53 405.645 214.679 406.028 217.026 406.316C218.063 406.462 219.13 406.607 220.229 406.757C220.743 406.827 221.264 406.898 221.791 406.971C222.912 407.124 224.071 407.235 225.257 407.349C225.823 407.403 226.395 407.458 226.972 407.518C230.007 407.869 233.235 408.067 236.612 408.273C237.217 408.31 237.826 408.347 238.44 408.386L238.441 408.386C246.532 408.746 255.45 408.786 264.783 408.239L264.783 408.239C274.115 407.625 282.967 406.503 290.951 405.155L290.952 405.155C291.58 405.037 292.203 404.921 292.822 404.806C296.119 404.192 299.274 403.605 302.22 402.885C302.891 402.726 303.556 402.579 304.213 402.434C305.267 402.201 306.299 401.973 307.294 401.71C307.821 401.571 308.341 401.433 308.854 401.296C309.913 401.016 310.941 400.743 311.938 400.482C311.939 400.482 311.939 400.482 311.939 400.482L330.787 394.397ZM330.787 394.397H330.787L330.778 394.402C330.764 394.41 330.744 394.421 330.716 394.435C330.661 394.462 330.58 394.5 330.471 394.54L330.471 394.541C330.217 394.634 329.897 394.754 329.51 394.901L329.509 394.901C328.888 395.124 328.1 395.404 327.15 395.742C326.731 395.891 326.28 396.051 325.798 396.223L330.787 394.397Z" fill="#D7D7D7" stroke="#D7D7D7" stroke-width="0.1"/>
<path d="M152.161 383.508C152.161 383.508 152.335 383.548 152.682 383.655C153.042 383.775 153.536 383.949 154.163 384.162C155.498 384.629 157.407 385.31 159.85 386.164C161.091 386.605 162.453 387.099 163.961 387.633C165.469 388.14 167.138 388.607 168.913 389.168C172.477 390.222 176.495 391.597 181.06 392.665C183.33 393.252 185.706 393.853 188.175 394.494C190.658 395.121 193.274 395.588 195.97 396.162C201.336 397.39 207.17 398.231 213.283 399.219C225.55 400.888 239.139 402.022 253.422 402.089C267.718 402.036 281.306 400.888 293.574 399.219C299.687 398.231 305.507 397.39 310.886 396.162C313.583 395.575 316.199 395.121 318.682 394.494C321.151 393.853 323.527 393.252 325.797 392.665C330.362 391.597 334.366 390.222 337.943 389.168C339.719 388.62 341.387 388.14 342.896 387.633C344.391 387.099 345.766 386.605 347.007 386.164C349.45 385.297 351.359 384.629 352.693 384.162C353.321 383.949 353.815 383.775 354.175 383.655C354.509 383.548 354.682 383.495 354.696 383.508C354.709 383.521 354.536 383.588 354.202 383.722C353.841 383.868 353.361 384.055 352.733 384.296C351.412 384.789 349.503 385.51 347.087 386.431C345.859 386.885 344.484 387.406 343.003 387.953C341.494 388.474 339.839 388.968 338.064 389.541C334.5 390.636 330.495 392.038 325.93 393.146C323.661 393.746 321.285 394.374 318.802 395.014C316.319 395.655 313.703 396.136 311.007 396.723C305.627 397.978 299.794 398.845 293.667 399.846C281.373 401.555 267.758 402.716 253.422 402.77C239.099 402.703 225.47 401.542 213.19 399.833C207.063 398.819 201.23 397.964 195.85 396.696C193.154 396.096 190.538 395.615 188.055 394.988C185.585 394.334 183.196 393.706 180.927 393.119C176.362 392.011 172.357 390.609 168.793 389.515C167.018 388.941 165.363 388.447 163.854 387.926C162.359 387.366 160.998 386.858 159.77 386.405C157.34 385.484 155.445 384.776 154.123 384.269C153.509 384.029 153.015 383.842 152.655 383.695C152.321 383.561 152.161 383.495 152.161 383.481V383.508Z" fill="#D7D7D7"/>
<path d="M165.634 404.098C176.914 418.173 189.372 459.312 188.61 476.161C170.52 458.599 164.148 420.013 165.634 404.098Z" fill="url(#paint13_linear_451_313)"/>
</g>
<path d="M327.495 434.33C335.061 459.866 344.221 485.268 359.081 507.392C361.15 510.5 363.423 513.574 366.476 515.736C369.53 517.864 373.601 518.945 377.129 517.627C381.947 515.837 384.22 510.331 385.136 505.298C387.138 494.151 385.136 482.734 382.625 471.689C375.772 441.491 365.323 412.205 354.908 383.021C343.78 399.673 337.028 416.698 327.495 434.296" fill="url(#paint14_linear_451_313)"/>
<path fill-rule="evenodd" clip-rule="evenodd" d="M459.501 394.91C453.984 395.809 449.171 399.47 446.064 404.08C442.956 408.69 441.393 414.183 440.64 419.687C439.206 430.334 442.5 442.286 446.783 452.143C457.489 446.713 462.847 433.94 465.161 427.289C468.815 416.785 469.006 395.59 459.501 394.91ZM432.273 466.704C435.151 461.2 434.323 454.169 430.814 449.028C427.304 443.887 421.417 440.627 415.265 439.571C412.41 439.081 409.191 439.141 407.015 441.03C404.986 442.784 404.406 445.82 405.037 448.419C405.667 451.037 407.323 453.272 409.192 455.213C415.6 461.852 423.03 467.12 432.273 466.704ZM475.272 452.955C462.385 455.567 451.031 464.775 445.863 476.811L445.849 477.716C459.354 481.262 474.801 475.688 482.876 464.366C484.82 461.643 486.338 457.878 484.479 455.112C482.621 452.327 478.555 452.294 475.272 452.955Z" fill="url(#paint15_linear_451_313)"/>
<path d="M435.51 501.284C435.51 501.284 435.641 500.504 435.735 499.08C435.834 497.514 435.971 495.488 436.123 493.06C436.374 488.02 436.868 480.817 434.788 473.195C432.767 465.596 428.812 459.392 425.059 455.871C423.205 454.071 421.49 452.86 420.242 452.149C419.629 451.764 419.112 451.544 418.774 451.37C418.437 451.196 418.257 451.129 418.236 451.149C418.129 451.305 421.094 452.624 424.64 456.258C428.23 459.813 432.006 465.929 434.011 473.407C436.036 480.866 435.647 487.993 435.557 493.058C435.461 495.61 435.424 497.66 435.411 499.088C435.397 500.515 435.449 501.302 435.489 501.303L435.51 501.284Z" fill="#313C41"/>
<path d="M457.934 411.044C457.934 411.044 457.801 411.341 457.597 411.937C457.389 412.613 457.113 413.488 456.769 414.561C456.056 416.847 455.081 420.17 453.894 424.289C451.519 432.528 448.418 443.937 445.269 456.632C442.12 469.328 439.54 480.877 437.788 489.26C436.901 493.451 436.227 496.845 435.794 499.203C435.59 500.321 435.435 501.221 435.307 501.92C435.203 502.54 435.17 502.88 435.19 502.881C435.21 502.882 435.303 502.564 435.468 501.966C435.636 501.269 435.851 500.392 436.095 499.274C436.652 496.841 437.406 493.49 438.329 489.381C440.223 481.024 442.882 469.517 446.031 456.822C449.18 444.147 452.2 432.714 454.414 424.45C455.498 420.387 456.392 417.061 457.049 414.652C457.333 413.556 457.569 412.68 457.736 411.982C457.881 411.364 457.954 411.045 457.934 411.044Z" fill="#313C41"/>
<path d="M471.365 462.424C471.365 462.424 470.613 462.496 469.308 462.769C468.655 462.905 467.84 463.055 466.918 463.363C465.997 463.65 464.935 463.891 463.825 464.373C462.695 464.813 461.444 465.248 460.185 465.905C458.889 466.48 457.565 467.235 456.18 468.027C453.466 469.695 450.615 471.801 447.987 474.397C445.38 477.014 443.25 479.831 441.59 482.544C440.789 483.922 440.031 485.242 439.476 486.548C438.842 487.812 438.41 489.063 438.003 490.194C437.557 491.304 437.334 492.382 437.057 493.296C436.78 494.211 436.647 495.031 436.521 495.69C436.29 497.009 436.181 497.749 436.241 497.752C436.423 497.779 436.837 494.837 438.502 490.394C438.948 489.284 439.398 488.074 440.052 486.831C440.626 485.566 441.383 484.267 442.182 482.929C443.861 480.276 445.968 477.519 448.513 474.96C451.097 472.422 453.867 470.334 456.541 468.644C457.887 467.83 459.17 467.074 460.447 466.478C461.686 465.821 462.898 465.343 464.008 464.882C468.464 463.139 471.398 462.606 471.364 462.444L471.365 462.424Z" fill="#313C41"/>
<g filter="url(#filter0_bi_451_313)">
<path d="M183.578 154.828C183.578 143.782 174.624 134.828 163.578 134.828H20.3477C9.30203 134.828 0.347733 143.782 0.347733 154.828V176.828C0.347733 187.874 9.30203 196.828 20.3477 196.828H179.578C181.787 196.828 183.578 195.037 183.578 192.828V154.828Z" fill="#1EBFB7" fill-opacity="0.81"/>
<path d="M182.828 154.828C182.828 144.197 174.21 135.578 163.578 135.578H20.3477C9.71625 135.578 1.09773 144.197 1.09773 154.828V176.828C1.09773 187.46 9.71625 196.078 20.3477 196.078H179.578C181.373 196.078 182.828 194.623 182.828 192.828V154.828Z" stroke="url(#paint16_linear_451_313)" stroke-width="1.5"/>
</g>
<path d="M25.1888 152.556V162.328H23.2288V158.17H19.0428V162.328H17.0828V152.556H19.0428V156.574H23.2288V152.556H25.1888Z" fill="white"/>
<path d="M28.112 153.648C27.7666 153.648 27.4773 153.541 27.244 153.326C27.02 153.102 26.908 152.827 26.908 152.5C26.908 152.174 27.02 151.903 27.244 151.688C27.4773 151.464 27.7666 151.352 28.112 151.352C28.4573 151.352 28.742 151.464 28.966 151.688C29.1993 151.903 29.316 152.174 29.316 152.5C29.316 152.827 29.1993 153.102 28.966 153.326C28.742 153.541 28.4573 153.648 28.112 153.648ZM29.078 154.572V162.328H27.118V154.572H29.078Z" fill="white"/>
<path d="M33.1564 160.27L31.5184 164.204H30.2584L31.1684 160.27H33.1564Z" fill="white"/>
<path d="M42.2731 154.46C42.8611 154.46 43.3837 154.591 43.8411 154.852C44.2984 155.104 44.6531 155.482 44.9051 155.986C45.1664 156.481 45.2971 157.078 45.2971 157.778V162.328H43.3371V158.044C43.3371 157.428 43.1831 156.957 42.8751 156.63C42.5671 156.294 42.1471 156.126 41.6151 156.126C41.0737 156.126 40.6444 156.294 40.3271 156.63C40.0191 156.957 39.8651 157.428 39.8651 158.044V162.328H37.9051V151.968H39.8651V155.538C40.1171 155.202 40.4531 154.941 40.8731 154.754C41.2931 154.558 41.7597 154.46 42.2731 154.46Z" fill="white"/>
<path d="M50.6049 162.454C49.8583 162.454 49.1863 162.291 48.5889 161.964C47.9916 161.628 47.5203 161.157 47.1749 160.55C46.8389 159.944 46.6709 159.244 46.6709 158.45C46.6709 157.657 46.8436 156.957 47.1889 156.35C47.5436 155.744 48.0243 155.277 48.6309 154.95C49.2376 154.614 49.9143 154.446 50.6609 154.446C51.4076 154.446 52.0843 154.614 52.6909 154.95C53.2976 155.277 53.7736 155.744 54.1189 156.35C54.4736 156.957 54.6509 157.657 54.6509 158.45C54.6509 159.244 54.4689 159.944 54.1049 160.55C53.7503 161.157 53.2649 161.628 52.6489 161.964C52.0423 162.291 51.3609 162.454 50.6049 162.454ZM50.6049 160.746C50.9596 160.746 51.2909 160.662 51.5989 160.494C51.9163 160.317 52.1683 160.056 52.3549 159.71C52.5416 159.365 52.6349 158.945 52.6349 158.45C52.6349 157.713 52.4389 157.148 52.0469 156.756C51.6643 156.355 51.1929 156.154 50.6329 156.154C50.0729 156.154 49.6016 156.355 49.2189 156.756C48.8456 157.148 48.6589 157.713 48.6589 158.45C48.6589 159.188 48.8409 159.757 49.2049 160.158C49.5783 160.55 50.0449 160.746 50.6049 160.746Z" fill="white"/>
<path d="M66.8407 154.572L64.5727 162.328H62.4587L61.0447 156.91L59.6307 162.328H57.5027L55.2207 154.572H57.2087L58.5807 160.48L60.0647 154.572H62.1367L63.5927 160.466L64.9647 154.572H66.8407Z" fill="white"/>
<path d="M70.7331 158.45C70.7331 157.648 70.8964 156.948 71.2231 156.35C71.5498 155.744 72.0024 155.277 72.5811 154.95C73.1598 154.614 73.8224 154.446 74.5691 154.446C75.5304 154.446 76.3238 154.689 76.9491 155.174C77.5838 155.65 78.0084 156.322 78.2231 157.19H76.1091C75.9971 156.854 75.8058 156.593 75.5351 156.406C75.2738 156.21 74.9471 156.112 74.5551 156.112C73.9951 156.112 73.5518 156.318 73.2251 156.728C72.8984 157.13 72.7351 157.704 72.7351 158.45C72.7351 159.188 72.8984 159.762 73.2251 160.172C73.5518 160.574 73.9951 160.774 74.5551 160.774C75.3484 160.774 75.8664 160.42 76.1091 159.71H78.2231C78.0084 160.55 77.5838 161.218 76.9491 161.712C76.3144 162.207 75.5211 162.454 74.5691 162.454C73.8224 162.454 73.1598 162.291 72.5811 161.964C72.0024 161.628 71.5498 161.162 71.2231 160.564C70.8964 159.958 70.7331 159.253 70.7331 158.45Z" fill="white"/>
<path d="M79.155 158.422C79.155 157.638 79.309 156.943 79.617 156.336C79.9343 155.73 80.359 155.263 80.891 154.936C81.4323 154.61 82.0343 154.446 82.697 154.446C83.2756 154.446 83.7796 154.563 84.209 154.796C84.6476 155.03 84.9976 155.324 85.259 155.678V154.572H87.233V162.328H85.259V161.194C85.007 161.558 84.657 161.862 84.209 162.104C83.7703 162.338 83.2616 162.454 82.683 162.454C82.0296 162.454 81.4323 162.286 80.891 161.95C80.359 161.614 79.9343 161.143 79.617 160.536C79.309 159.92 79.155 159.216 79.155 158.422ZM85.259 158.45C85.259 157.974 85.1656 157.568 84.979 157.232C84.7923 156.887 84.5403 156.626 84.223 156.448C83.9056 156.262 83.565 156.168 83.201 156.168C82.837 156.168 82.501 156.257 82.193 156.434C81.885 156.612 81.633 156.873 81.437 157.218C81.2503 157.554 81.157 157.956 81.157 158.422C81.157 158.889 81.2503 159.3 81.437 159.654C81.633 160 81.885 160.266 82.193 160.452C82.5103 160.639 82.8463 160.732 83.201 160.732C83.565 160.732 83.9056 160.644 84.223 160.466C84.5403 160.28 84.7923 160.018 84.979 159.682C85.1656 159.337 85.259 158.926 85.259 158.45Z" fill="white"/>
<path d="M93.4453 154.46C94.3693 154.46 95.1159 154.754 95.6852 155.342C96.2546 155.921 96.5393 156.733 96.5393 157.778V162.328H94.5793V158.044C94.5793 157.428 94.4252 156.957 94.1172 156.63C93.8092 156.294 93.3893 156.126 92.8573 156.126C92.3159 156.126 91.8866 156.294 91.5693 156.63C91.2613 156.957 91.1073 157.428 91.1073 158.044V162.328H89.1473V154.572H91.1073V155.538C91.3686 155.202 91.6999 154.941 92.1012 154.754C92.5119 154.558 92.9599 154.46 93.4453 154.46Z" fill="white"/>
<path d="M102.733 153.648C102.388 153.648 102.098 153.541 101.865 153.326C101.641 153.102 101.529 152.827 101.529 152.5C101.529 152.174 101.641 151.903 101.865 151.688C102.098 151.464 102.388 151.352 102.733 151.352C103.078 151.352 103.363 151.464 103.587 151.688C103.82 151.903 103.937 152.174 103.937 152.5C103.937 152.827 103.82 153.102 103.587 153.326C103.363 153.541 103.078 153.648 102.733 153.648ZM103.699 154.572V162.328H101.739V154.572H103.699Z" fill="white"/>
<path d="M113.339 154.46C113.927 154.46 114.45 154.591 114.907 154.852C115.365 155.104 115.719 155.482 115.971 155.986C116.233 156.481 116.363 157.078 116.363 157.778V162.328H114.403V158.044C114.403 157.428 114.249 156.957 113.941 156.63C113.633 156.294 113.213 156.126 112.681 156.126C112.14 156.126 111.711 156.294 111.393 156.63C111.085 156.957 110.931 157.428 110.931 158.044V162.328H108.971V151.968H110.931V155.538C111.183 155.202 111.519 154.941 111.939 154.754C112.359 154.558 112.826 154.46 113.339 154.46Z" fill="white"/>
<path d="M125.437 158.282C125.437 158.562 125.419 158.814 125.381 159.038H119.711C119.758 159.598 119.954 160.037 120.299 160.354C120.645 160.672 121.069 160.83 121.573 160.83C122.301 160.83 122.819 160.518 123.127 159.892H125.241C125.017 160.639 124.588 161.255 123.953 161.74C123.319 162.216 122.539 162.454 121.615 162.454C120.869 162.454 120.197 162.291 119.599 161.964C119.011 161.628 118.549 161.157 118.213 160.55C117.887 159.944 117.723 159.244 117.723 158.45C117.723 157.648 117.887 156.943 118.213 156.336C118.54 155.73 118.997 155.263 119.585 154.936C120.173 154.61 120.85 154.446 121.615 154.446C122.353 154.446 123.011 154.605 123.589 154.922C124.177 155.24 124.63 155.692 124.947 156.28C125.274 156.859 125.437 157.526 125.437 158.282ZM123.407 157.722C123.398 157.218 123.216 156.817 122.861 156.518C122.507 156.21 122.073 156.056 121.559 156.056C121.074 156.056 120.663 156.206 120.327 156.504C120.001 156.794 119.8 157.2 119.725 157.722H123.407Z" fill="white"/>
<path d="M128.828 151.968V162.328H126.868V151.968H128.828Z" fill="white"/>
<path d="M132.724 155.692C132.976 155.338 133.322 155.044 133.76 154.81C134.208 154.568 134.717 154.446 135.286 154.446C135.949 154.446 136.546 154.61 137.078 154.936C137.62 155.263 138.044 155.73 138.352 156.336C138.67 156.934 138.828 157.629 138.828 158.422C138.828 159.216 138.67 159.92 138.352 160.536C138.044 161.143 137.62 161.614 137.078 161.95C136.546 162.286 135.949 162.454 135.286 162.454C134.717 162.454 134.213 162.338 133.774 162.104C133.345 161.871 132.995 161.577 132.724 161.222V166.024H130.764V154.572H132.724V155.692ZM136.826 158.422C136.826 157.956 136.728 157.554 136.532 157.218C136.346 156.873 136.094 156.612 135.776 156.434C135.468 156.257 135.132 156.168 134.768 156.168C134.414 156.168 134.078 156.262 133.76 156.448C133.452 156.626 133.2 156.887 133.004 157.232C132.818 157.578 132.724 157.984 132.724 158.45C132.724 158.917 132.818 159.323 133.004 159.668C133.2 160.014 133.452 160.28 133.76 160.466C134.078 160.644 134.414 160.732 134.768 160.732C135.132 160.732 135.468 160.639 135.776 160.452C136.094 160.266 136.346 160 136.532 159.654C136.728 159.309 136.826 158.898 136.826 158.422Z" fill="white"/>
<path d="M151.009 154.572L146.207 165.996H144.121L145.801 162.132L142.693 154.572H144.891L146.893 159.99L148.923 154.572H151.009Z" fill="white"/>
<path d="M155.509 162.454C154.763 162.454 154.091 162.291 153.493 161.964C152.896 161.628 152.425 161.157 152.079 160.55C151.743 159.944 151.575 159.244 151.575 158.45C151.575 157.657 151.748 156.957 152.093 156.35C152.448 155.744 152.929 155.277 153.535 154.95C154.142 154.614 154.819 154.446 155.565 154.446C156.312 154.446 156.989 154.614 157.595 154.95C158.202 155.277 158.678 155.744 159.023 156.35C159.378 156.957 159.555 157.657 159.555 158.45C159.555 159.244 159.373 159.944 159.009 160.55C158.655 161.157 158.169 161.628 157.553 161.964C156.947 162.291 156.265 162.454 155.509 162.454ZM155.509 160.746C155.864 160.746 156.195 160.662 156.503 160.494C156.821 160.317 157.073 160.056 157.259 159.71C157.446 159.365 157.539 158.945 157.539 158.45C157.539 157.713 157.343 157.148 156.951 156.756C156.569 156.355 156.097 156.154 155.537 156.154C154.977 156.154 154.506 156.355 154.123 156.756C153.75 157.148 153.563 157.713 153.563 158.45C153.563 159.188 153.745 159.757 154.109 160.158C154.483 160.55 154.949 160.746 155.509 160.746Z" fill="white"/>
<path d="M168.315 154.572V162.328H166.341V161.348C166.089 161.684 165.758 161.95 165.347 162.146C164.946 162.333 164.507 162.426 164.031 162.426C163.424 162.426 162.888 162.3 162.421 162.048C161.954 161.787 161.586 161.409 161.315 160.914C161.054 160.41 160.923 159.813 160.923 159.122V154.572H162.883V158.842C162.883 159.458 163.037 159.934 163.345 160.27C163.653 160.597 164.073 160.76 164.605 160.76C165.146 160.76 165.571 160.597 165.879 160.27C166.187 159.934 166.341 159.458 166.341 158.842V154.572H168.315Z" fill="white"/>
<path d="M19.3648 180.182V183.934C19.3648 184.196 19.4255 184.387 19.5468 184.508C19.6775 184.62 19.8921 184.676 20.1908 184.676H21.1008V186.328H19.8688C18.2168 186.328 17.3908 185.526 17.3908 183.92V180.182H16.4668V178.572H17.3908V176.654H19.3648V178.572H21.1008V180.182H19.3648Z" fill="white"/>
<path d="M25.9545 186.454C25.2079 186.454 24.5359 186.291 23.9385 185.964C23.3412 185.628 22.8699 185.157 22.5245 184.55C22.1885 183.944 22.0205 183.244 22.0205 182.45C22.0205 181.657 22.1932 180.957 22.5385 180.35C22.8932 179.744 23.3739 179.277 23.9805 178.95C24.5872 178.614 25.2639 178.446 26.0105 178.446C26.7572 178.446 27.4339 178.614 28.0405 178.95C28.6472 179.277 29.1232 179.744 29.4685 180.35C29.8232 180.957 30.0005 181.657 30.0005 182.45C30.0005 183.244 29.8185 183.944 29.4545 184.55C29.0999 185.157 28.6145 185.628 27.9985 185.964C27.3919 186.291 26.7105 186.454 25.9545 186.454ZM25.9545 184.746C26.3092 184.746 26.6405 184.662 26.9485 184.494C27.2659 184.317 27.5179 184.056 27.7045 183.71C27.8912 183.365 27.9845 182.945 27.9845 182.45C27.9845 181.713 27.7885 181.148 27.3965 180.756C27.0139 180.355 26.5425 180.154 25.9825 180.154C25.4225 180.154 24.9512 180.355 24.5685 180.756C24.1952 181.148 24.0085 181.713 24.0085 182.45C24.0085 183.188 24.1905 183.757 24.5545 184.158C24.9279 184.55 25.3945 184.746 25.9545 184.746Z" fill="white"/>
<path d="M30.9343 182.422C30.9343 181.638 31.0883 180.943 31.3963 180.336C31.7136 179.73 32.1429 179.263 32.6843 178.936C33.2256 178.61 33.8276 178.446 34.4903 178.446C34.9943 178.446 35.4749 178.558 35.9323 178.782C36.3896 178.997 36.7536 179.286 37.0243 179.65V175.968H39.0123V186.328H37.0243V185.18C36.7816 185.563 36.4409 185.871 36.0023 186.104C35.5636 186.338 35.0549 186.454 34.4763 186.454C33.8229 186.454 33.2256 186.286 32.6843 185.95C32.1429 185.614 31.7136 185.143 31.3963 184.536C31.0883 183.92 30.9343 183.216 30.9343 182.422ZM37.0383 182.45C37.0383 181.974 36.9449 181.568 36.7583 181.232C36.5716 180.887 36.3196 180.626 36.0023 180.448C35.6849 180.262 35.3443 180.168 34.9803 180.168C34.6163 180.168 34.2803 180.257 33.9723 180.434C33.6643 180.612 33.4123 180.873 33.2163 181.218C33.0296 181.554 32.9363 181.956 32.9363 182.422C32.9363 182.889 33.0296 183.3 33.2163 183.654C33.4123 184 33.6643 184.266 33.9723 184.452C34.2896 184.639 34.6256 184.732 34.9803 184.732C35.3443 184.732 35.6849 184.644 36.0023 184.466C36.3196 184.28 36.5716 184.018 36.7583 183.682C36.9449 183.337 37.0383 182.926 37.0383 182.45Z" fill="white"/>
<path d="M40.4225 182.422C40.4225 181.638 40.5765 180.943 40.8845 180.336C41.2019 179.73 41.6265 179.263 42.1585 178.936C42.6999 178.61 43.3019 178.446 43.9645 178.446C44.5432 178.446 45.0472 178.563 45.4765 178.796C45.9152 179.03 46.2652 179.324 46.5265 179.678V178.572H48.5005V186.328H46.5265V185.194C46.2745 185.558 45.9245 185.862 45.4765 186.104C45.0379 186.338 44.5292 186.454 43.9505 186.454C43.2972 186.454 42.6999 186.286 42.1585 185.95C41.6265 185.614 41.2019 185.143 40.8845 184.536C40.5765 183.92 40.4225 183.216 40.4225 182.422ZM46.5265 182.45C46.5265 181.974 46.4332 181.568 46.2465 181.232C46.0599 180.887 45.8079 180.626 45.4905 180.448C45.1732 180.262 44.8325 180.168 44.4685 180.168C44.1045 180.168 43.7685 180.257 43.4605 180.434C43.1525 180.612 42.9005 180.873 42.7045 181.218C42.5179 181.554 42.4245 181.956 42.4245 182.422C42.4245 182.889 42.5179 183.3 42.7045 183.654C42.9005 184 43.1525 184.266 43.4605 184.452C43.7779 184.639 44.1139 184.732 44.4685 184.732C44.8325 184.732 45.1732 184.644 45.4905 184.466C45.8079 184.28 46.0599 184.018 46.2465 183.682C46.4332 183.337 46.5265 182.926 46.5265 182.45Z" fill="white"/>
<path d="M57.8348 178.572L53.0328 189.996H50.9468L52.6268 186.132L49.5188 178.572H51.7168L53.7188 183.99L55.7488 178.572H57.8348Z" fill="white"/>
<path d="M61.4254 176.388L61.2014 183.15H59.5494L59.3114 176.388H61.4254ZM60.4174 186.426C60.0627 186.426 59.7687 186.319 59.5354 186.104C59.3114 185.88 59.1994 185.605 59.1994 185.278C59.1994 184.952 59.3114 184.681 59.5354 184.466C59.7687 184.242 60.0627 184.13 60.4174 184.13C60.7627 184.13 61.0474 184.242 61.2714 184.466C61.4954 184.681 61.6074 184.952 61.6074 185.278C61.6074 185.605 61.4954 185.88 61.2714 186.104C61.0474 186.319 60.7627 186.426 60.4174 186.426Z" fill="white"/>
<defs>
<filter id="filter0_bi_451_313" x="-8.65234" y="125.828" width="201.23" height="80" filterUnits="userSpaceOnUse" color-interpolation-filters="sRGB">
<feFlood flood-opacity="0" result="BackgroundImageFix"/>
<feGaussianBlur in="BackgroundImageFix" stdDeviation="4.5"/>
<feComposite in2="SourceAlpha" operator="in" result="effect1_backgroundBlur_451_313"/>
<feBlend mode="normal" in="SourceGraphic" in2="effect1_backgroundBlur_451_313" result="shape"/>
<feColorMatrix in="SourceAlpha" type="matrix" values="0 0 0 0 0 0 0 0 0 0 0 0 0 0 0 0 0 0 127 0" result="hardAlpha"/>
<feOffset dx="4" dy="4"/>
<feGaussianBlur stdDeviation="4"/>
<feComposite in2="hardAlpha" operator="arithmetic" k2="-1" k3="1"/>
<feColorMatrix type="matrix" values="0 0 0 0 0 0 0 0 0 0 0 0 0 0 0 0 0 0 0.15 0"/>
<feBlend mode="normal" in2="shape" result="effect2_innerShadow_451_313"/>
</filter>
<linearGradient id="paint0_linear_451_313" x1="250.844" y1="0" x2="250.844" y2="393.481" gradientUnits="userSpaceOnUse">
<stop stop-color="#C7F431" stop-opacity="0.12"/>
<stop offset="0.864583" stop-color="#C7F431" stop-opacity="0.01"/>
<stop offset="1" stop-color="#C7F431" stop-opacity="0"/>
</linearGradient>
<linearGradient id="paint1_linear_451_313" x1="250.124" y1="43.3649" x2="250.124" y2="521.486" gradientUnits="userSpaceOnUse">
<stop stop-color="#C7F431" stop-opacity="0.12"/>
<stop offset="0.864583" stop-color="#C7F431" stop-opacity="0.01"/>
<stop offset="1" stop-color="#C7F431" stop-opacity="0"/>
</linearGradient>
<linearGradient id="paint2_linear_451_313" x1="249.398" y1="86.7299" x2="249.398" y2="466.534" gradientUnits="userSpaceOnUse">
<stop stop-color="#C7F431" stop-opacity="0.12"/>
<stop offset="0.864583" stop-color="#C7F431" stop-opacity="0.01"/>
<stop offset="1" stop-color="#C7F431" stop-opacity="0"/>
</linearGradient>
<linearGradient id="paint3_linear_451_313" x1="248.673" y1="130.095" x2="248.673" y2="446.659" gradientUnits="userSpaceOnUse">
<stop stop-color="#D8DCCA" stop-opacity="0.12"/>
<stop offset="0.864583" stop-color="#C7F431" stop-opacity="0.01"/>
<stop offset="1" stop-color="#C7F431" stop-opacity="0"/>
</linearGradient>
<linearGradient id="paint4_linear_451_313" x1="250.122" y1="533.364" x2="250.122" y2="315.718" gradientUnits="userSpaceOnUse">
<stop stop-color="#D8DCCA" stop-opacity="0.12"/>
<stop offset="0.850547" stop-color="#C7F431" stop-opacity="0.04"/>
<stop offset="1" stop-color="#C7F431" stop-opacity="0"/>
</linearGradient>
<linearGradient id="paint5_linear_451_313" x1="253.09" y1="350.978" x2="253.09" y2="340.086" gradientUnits="userSpaceOnUse">
<stop stop-color="#D6D6D6"/>
<stop offset="1" stop-color="#EFEFEF"/>
</linearGradient>
<linearGradient id="paint6_linear_451_313" x1="177.027" y1="211.942" x2="347.886" y2="324.068" gradientUnits="userSpaceOnUse">
<stop stop-color="#F0F0F0"/>
<stop offset="0.304048" stop-color="#EDEDED"/>
<stop offset="1" stop-color="#D3D3D3"/>
</linearGradient>
<linearGradient id="paint7_linear_451_313" x1="335.061" y1="293.367" x2="162.867" y2="255.991" gradientUnits="userSpaceOnUse">
<stop stop-color="#F4F4F4"/>
<stop offset="1" stop-color="#CCCCCC"/>
</linearGradient>
<linearGradient id="paint8_linear_451_313" x1="202.115" y1="220.618" x2="180.09" y2="239.973" gradientUnits="userSpaceOnUse">
<stop stop-color="#E4E4E4"/>
<stop offset="0.489583" stop-color="#E4E4E4" stop-opacity="0.65625"/>
<stop offset="1" stop-color="#E4E4E4" stop-opacity="0"/>
</linearGradient>
<linearGradient id="paint9_linear_451_313" x1="153.891" y1="402.134" x2="76.2934" y2="339.353" gradientUnits="userSpaceOnUse">
<stop stop-color="#F2F2F2"/>
<stop offset="1" stop-color="#D4D4D4"/>
</linearGradient>
<linearGradient id="paint10_linear_451_313" x1="152.056" y1="386.805" x2="338.933" y2="547.653" gradientUnits="userSpaceOnUse">
<stop stop-color="#F2F2F2"/>
<stop offset="1" stop-color="#D4D4D4"/>
</linearGradient>
<linearGradient id="paint11_linear_451_313" x1="280.348" y1="471.567" x2="218.946" y2="436.861" gradientUnits="userSpaceOnUse">
<stop stop-color="white"/>
<stop offset="1" stop-color="#CCCCCC"/>
</linearGradient>
<linearGradient id="paint12_linear_451_313" x1="155.687" y1="378.358" x2="349.238" y2="386.367" gradientUnits="userSpaceOnUse">
<stop stop-color="#E8E8E8"/>
<stop offset="1" stop-color="#BFBFBF"/>
</linearGradient>
<linearGradient id="paint13_linear_451_313" x1="167.726" y1="407.606" x2="181.458" y2="456.03" gradientUnits="userSpaceOnUse">
<stop stop-color="#E8E8E8"/>
<stop offset="0.520833" stop-color="#DDDDDD" stop-opacity="0.244792"/>
<stop offset="1" stop-color="#D9D9D9" stop-opacity="0"/>
</linearGradient>
<linearGradient id="paint14_linear_451_313" x1="380.108" y1="463.649" x2="326.323" y2="455.517" gradientUnits="userSpaceOnUse">
<stop stop-color="#F2F2F2"/>
<stop offset="0.630208" stop-color="#E0E0E0"/>
<stop offset="1" stop-color="#DFDFDF"/>
</linearGradient>
<linearGradient id="paint15_linear_451_313" x1="465.134" y1="395.123" x2="426.626" y2="483.307" gradientUnits="userSpaceOnUse">
<stop stop-color="#DEFFFE"/>
<stop offset="1" stop-color="#EAFFCC"/>
</linearGradient>
<linearGradient id="paint16_linear_451_313" x1="-20.8883" y1="128.977" x2="142.729" y2="211.488" gradientUnits="userSpaceOnUse">
<stop stop-color="white"/>
<stop offset="1" stop-color="white" stop-opacity="0"/>
</linearGradient>
</defs>
</svg>
