<svg width="579" height="742" viewBox="0 0 579 742" fill="none" xmlns="http://www.w3.org/2000/svg">
<mask id="mask0_535_408" style="mask-type:alpha" maskUnits="userSpaceOnUse" x="0" y="0" width="579" height="742">
<rect width="579" height="742" fill="#D9D9D9"/>
</mask>
<g mask="url(#mask0_535_408)">
<g style="mix-blend-mode:hard-light" opacity="0.3">
<path d="M125.35 333.435C125.35 336.04 127.265 338.169 129.762 338.536V505.093C129.762 514.484 137.406 522.127 146.796 522.127H192.046C200.594 522.127 207.549 529.082 207.549 537.63V742.191H209.08V537.63C209.08 528.239 201.437 520.596 192.046 520.596H146.796C138.248 520.596 131.294 513.641 131.294 505.093V338.536C133.791 338.169 135.705 336.024 135.705 333.435C135.705 330.571 133.377 328.258 130.528 328.258C127.678 328.258 125.35 330.586 125.35 333.435ZM338.95 618.358H377.782C378.15 615.861 380.294 613.946 382.883 613.946C385.747 613.946 388.061 616.274 388.061 619.123C388.061 621.973 385.732 624.301 382.883 624.301C380.279 624.301 378.15 622.386 377.782 619.889H338.95C332.271 619.889 326.833 625.327 326.833 632.006V742.207H325.301V632.006C325.301 624.485 331.428 618.358 338.95 618.358ZM433.204 479.42H466.675C467.042 476.923 469.187 475.008 471.776 475.008C474.64 475.008 476.953 477.336 476.953 480.186C476.953 483.035 474.625 485.363 471.776 485.363C469.171 485.363 467.042 483.448 466.675 480.952H433.204C424.243 480.952 416.951 488.243 416.951 497.204V742.207H415.419V497.204C415.419 487.401 423.4 479.42 433.204 479.42ZM-145.847 228.106V555.047C-145.847 565.279 -137.514 573.612 -127.281 573.612H-74.7388V602.886H-105.238C-114.628 602.886 -122.272 610.53 -122.272 619.92V663.286H-127.618C-137.008 663.286 -144.652 670.93 -144.652 680.32V742.222H-143.12V680.32C-143.12 671.773 -136.165 664.818 -127.618 664.818H-122.272V742.222H-120.74V664.818H-90.241C-80.8508 664.818 -73.2069 657.174 -73.2069 647.784V604.418H-44.3777V742.222H-39.7822V604.418H4.0744V742.222H5.60626V604.418H7.61292C17.0031 604.418 24.647 596.774 24.647 587.384V459.981H63.6935V660.07H45.3422C35.952 660.07 28.308 667.713 28.308 677.104V742.222H29.8399V677.104C29.8399 668.556 36.7945 661.601 45.3422 661.601H63.6935V742.222H65.2254V661.601H90.5927C99.9828 661.601 107.627 653.957 107.627 644.567V601.875C113.785 601.477 118.687 596.345 118.687 590.08C118.687 583.815 113.386 578.254 106.861 578.254C100.335 578.254 95.035 583.554 95.035 590.08C95.035 596.605 99.9369 601.477 106.095 601.875V644.567C106.095 653.115 99.1403 660.07 90.5927 660.07H65.2254V459.981H91.8794C101.27 459.981 108.913 452.337 108.913 442.947V296.074C108.913 287.526 115.868 280.572 124.416 280.572H546.606V688.455H508.8C503.362 688.455 498.95 684.043 498.95 678.605V571.882H513.503C521.085 571.882 527.259 565.708 527.259 558.141V330.877C533.417 330.479 538.319 325.347 538.319 319.082C538.319 312.817 533.018 307.256 526.493 307.256C519.967 307.256 514.667 312.556 514.667 319.082C514.667 325.608 519.569 330.479 525.727 330.877V558.141C525.727 564.881 520.243 570.35 513.503 570.35H498.95V400.316C501.447 399.948 503.362 397.803 503.362 395.215C503.362 392.35 501.034 390.037 498.184 390.037C495.335 390.037 493.007 392.365 493.007 395.215C493.007 397.819 494.922 399.948 497.419 400.316V570.35H485.179C477.597 570.35 471.423 576.523 471.423 584.106V742.237H472.955V584.106C472.955 577.365 478.439 571.882 485.179 571.882H497.419V678.605C497.419 684.885 502.52 689.986 508.8 689.986H546.606V742.222H548.138V689.986H579.219V688.455H548.138V280.556H579.219V279.025H548.138V239.12H579.219V234.525H548.138V201.927H579.219V200.395H548.138V192.598C548.138 185.062 542.01 178.949 534.489 178.949H516.199V129.532C518.696 129.165 520.611 127.02 520.611 124.431C520.611 121.567 518.282 119.254 515.433 119.254C512.584 119.254 510.255 121.582 510.255 124.431C510.255 127.035 512.17 129.165 514.667 129.532V178.949H479.481V61.1204H574.577V59.5886H479.465V30.2079H579.219V25.6124H479.465C479.404 15.4256 471.102 7.15369 460.899 7.15369H228.014C226.988 3.04836 223.281 0 218.869 0C213.661 0 209.417 4.2432 209.417 9.45145C209.417 14.6597 213.661 18.9029 218.869 18.9029C223.281 18.9029 226.988 15.8545 228.014 11.7492H460.899C468.574 11.7492 474.809 17.9685 474.87 25.6124H433.786C423.553 25.6124 415.22 33.9456 415.22 44.1782V59.5886H400.101C390.711 59.5886 383.067 67.2324 383.067 76.6226V128.322H-85.1093C-86.1969 122.042 -91.6809 117.262 -98.2525 117.262C-105.621 117.262 -111.61 123.252 -111.61 130.62C-111.61 137.988 -105.621 143.978 -98.2525 143.978C-91.6656 143.978 -86.1969 139.183 -85.1093 132.918H383.067V173.557C383.067 182.105 376.112 189.06 367.565 189.06H-35.5543C-35.9525 182.902 -41.0843 178 -47.3495 178C-53.6147 178 -59.1752 183.3 -59.1752 189.826C-59.1752 196.351 -53.8751 201.651 -47.3495 201.651C-40.8239 201.651 -35.9525 196.749 -35.5543 190.591H367.565C376.955 190.591 384.599 182.948 384.599 173.557V132.918H401.25C411.482 132.918 419.816 124.584 419.816 114.352V61.1204H474.87V178.949H446.301C445.933 176.453 443.789 174.538 441.2 174.538C438.336 174.538 436.022 176.866 436.022 179.715C436.022 182.565 438.351 184.893 441.2 184.893C443.804 184.893 445.933 182.978 446.301 180.481H474.87V220.57C474.87 230.802 483.203 239.135 493.436 239.135H546.606V279.04H124.416C115.026 279.04 107.382 286.684 107.382 296.074V442.947C107.382 451.494 100.427 458.449 91.8794 458.449H65.2254V452.735C65.2254 443.345 57.5815 435.701 48.1913 435.701H24.647V309.615C27.1439 309.248 29.0587 307.103 29.0587 304.514C29.0587 301.65 26.7303 299.337 23.881 299.337C21.0318 299.337 18.7034 301.665 18.7034 304.514C18.7034 307.118 20.6183 309.248 23.1152 309.615V435.701H-27.8185C-36.3661 435.701 -43.3207 428.746 -43.3207 420.199V268.608C-40.8238 268.24 -38.909 266.096 -38.909 263.507C-38.909 260.642 -41.2374 258.329 -44.0866 258.329C-46.9358 258.329 -49.2643 260.658 -49.2643 263.507C-49.2643 266.111 -47.3494 268.24 -44.8525 268.608V420.199C-44.8525 429.589 -37.2087 437.233 -27.8185 437.233H23.1152V458.449H-73.2069V224.108C-70.71 223.74 -68.7952 221.596 -68.7952 219.007C-68.7952 216.143 -71.1236 213.829 -73.9728 213.829C-76.8221 213.829 -79.1505 216.158 -79.1505 219.007C-79.1505 221.611 -77.2357 223.74 -74.7388 224.108V458.449H-100.29V380.218C-94.1318 379.82 -89.2299 374.688 -89.2299 368.423C-89.2299 362.157 -94.5301 356.597 -101.056 356.597C-107.581 356.597 -112.882 361.897 -112.882 368.423C-112.882 374.948 -107.98 379.82 -101.822 380.218V458.449H-111.197C-111.564 455.952 -113.709 454.037 -116.298 454.037C-119.162 454.037 -121.475 456.366 -121.475 459.215C-121.475 462.064 -119.147 464.392 -116.298 464.392C-113.693 464.392 -111.564 462.478 -111.197 459.981H-101.822V516.276C-101.822 525.666 -94.1778 533.31 -84.7876 533.31H-74.7388V569.017H-127.281C-134.986 569.017 -141.251 562.752 -141.251 555.047V228.106C-137.146 227.08 -134.098 223.373 -134.098 218.961C-134.098 213.753 -138.341 209.51 -143.549 209.51C-148.757 209.51 -153 213.753 -153 218.961C-153 223.373 -149.952 227.08 -145.847 228.106ZM-100.29 378.671V373.202C-97.7929 372.834 -95.8781 370.69 -95.8781 368.101C-95.8781 365.236 -98.2065 362.923 -101.056 362.923C-103.905 362.923 -106.233 365.252 -106.233 368.101C-106.233 370.705 -104.319 372.834 -101.822 373.202V378.671C-107.137 378.272 -111.35 373.83 -111.35 368.407C-111.35 362.985 -106.724 358.113 -101.056 358.113C-95.3879 358.113 -90.7618 362.74 -90.7618 368.407C-90.7618 374.075 -94.9743 378.272 -100.29 378.671ZM-37.0861 189.075H-42.0034C-42.371 186.578 -44.5156 184.663 -47.1044 184.663C-49.9689 184.663 -52.282 186.992 -52.282 189.841C-52.282 192.69 -49.9536 195.018 -47.1044 195.018C-44.5002 195.018 -42.371 193.104 -42.0034 190.607H-37.0861C-37.4844 195.922 -41.9268 200.135 -47.3495 200.135C-52.7722 200.135 -57.6434 195.509 -57.6434 189.841C-57.6434 184.173 -53.0173 179.547 -47.3495 179.547C-41.6817 179.547 -37.4844 183.759 -37.0861 189.075ZM-89.4904 130.635C-89.4904 135.476 -93.4272 139.397 -98.2525 139.397C-103.078 139.397 -107.015 135.461 -107.015 130.635C-107.015 125.81 -103.078 121.873 -98.2525 121.873C-93.4272 121.873 -89.4904 125.81 -89.4904 130.635ZM223.725 9.45145C223.725 12.1322 221.55 14.3074 218.869 14.3074C216.188 14.3074 214.013 12.1322 214.013 9.45145C214.013 6.77073 216.188 4.59552 218.869 4.59552C221.55 4.59552 223.725 6.77073 223.725 9.45145ZM415.22 61.1204V114.352C415.22 122.057 408.955 128.322 401.25 128.322H384.599V76.6226C384.599 68.0749 391.553 61.1204 400.101 61.1204H415.22ZM474.87 59.5886H419.816V44.1782C419.816 36.4731 426.081 30.2079 433.786 30.2079H474.87V59.5886ZM546.606 200.395H528.316C521.637 200.395 516.199 194.957 516.199 188.278V180.481H534.489C541.168 180.481 546.606 185.919 546.606 192.598V200.395ZM546.606 234.525H493.436C485.731 234.525 479.465 228.259 479.465 220.554V180.466H514.652V188.263C514.652 195.8 520.779 201.912 528.3 201.912H546.591V234.509L546.606 234.525ZM527.259 329.315V323.724C529.756 323.356 531.67 321.211 531.67 318.623C531.67 315.758 529.342 313.445 526.493 313.445C523.644 313.445 521.315 315.773 521.315 318.623C521.315 321.227 523.23 323.356 525.727 323.724V329.315C520.411 328.917 516.199 324.474 516.199 319.051C516.199 313.629 520.825 308.758 526.493 308.758C532.161 308.758 536.787 313.384 536.787 319.051C536.787 324.719 532.574 328.917 527.259 329.315ZM107.642 600.328V595.38C110.139 595.012 112.054 592.868 112.054 590.279C112.054 587.414 109.725 585.101 106.876 585.101C104.027 585.101 101.698 587.43 101.698 590.279C101.698 592.883 103.613 595.012 106.11 595.38V600.328C100.795 599.93 96.5822 595.487 96.5822 590.065C96.5822 584.642 101.208 579.771 106.876 579.771C112.544 579.771 117.17 584.397 117.17 590.065C117.17 595.732 112.958 599.93 107.642 600.328ZM-74.7234 459.965V531.763H-84.7723C-93.3199 531.763 -100.274 524.808 -100.274 516.26V459.965H-74.7234ZM24.6623 458.434V437.218H48.2067C56.7543 437.218 63.7089 444.172 63.7089 452.72V458.434H24.6623ZM5.62152 602.871V548.797C5.62152 539.407 -2.02236 531.763 -11.4125 531.763H-73.1916V459.965H23.1305V587.368C23.1305 595.916 16.1759 602.871 7.62823 602.871H5.62152ZM-39.7668 602.871V587.568C-39.7668 577.335 -48.1001 569.002 -58.3328 569.002H-73.2069V533.295H-11.4278C-2.88013 533.295 4.0744 540.249 4.0744 548.797V602.871H-39.7822H-39.7668ZM-74.7234 604.402V647.769C-74.7234 656.317 -81.678 663.271 -90.2256 663.271H-120.725V619.905C-120.725 611.357 -113.77 604.402 -105.222 604.402H-74.7234ZM-73.1916 573.597H-58.3174C-50.6123 573.597 -44.347 579.862 -44.347 587.568V602.871H-73.1763V573.597H-73.1916ZM-148.39 218.946C-148.39 216.265 -146.214 214.09 -143.534 214.09C-140.853 214.09 -138.678 216.265 -138.678 218.946C-138.678 221.626 -140.853 223.802 -143.534 223.802C-146.214 223.802 -148.39 221.626 -148.39 218.946Z" fill="url(#paint0_radial_535_408)" style="mix-blend-mode:overlay"/>
</g>
<path d="M255.993 405.931H347.582C353.559 405.931 358.404 401.086 358.404 395.109V393.533C358.404 387.556 353.559 382.71 347.582 382.71H255.993C250.016 382.71 245.171 387.556 245.171 393.533V395.109C245.171 401.086 250.016 405.931 255.993 405.931Z" fill="url(#paint1_linear_535_408)"/>
<path d="M297.856 234.225H305.764V194.248H297.856V234.225Z" fill="#F0F0F0"/>
<path d="M422.738 353.22C435.223 350.253 442.938 337.726 439.971 325.241C437.003 312.756 424.477 305.041 411.992 308.008C399.507 310.976 391.791 323.502 394.759 335.987C397.726 348.472 410.253 356.188 422.738 353.22Z" fill="#F0F0F0"/>
<mask id="mask1_535_408" style="mask-type:alpha" maskUnits="userSpaceOnUse" x="394" y="307" width="47" height="47">
<path d="M422.738 353.22C435.223 350.253 442.938 337.726 439.971 325.241C437.003 312.756 424.477 305.041 411.992 308.008C399.507 310.976 391.791 323.502 394.759 335.987C397.726 348.472 410.253 356.187 422.738 353.22Z" fill="#F0F0F0"/>
</mask>
<g mask="url(#mask1_535_408)">
<path d="M426.072 332.69C430.15 316.255 413.029 324.928 413.091 307.279L394.673 348.648L430.089 387.974C469.683 371.959 430.824 378.653 436.631 358.297C442.438 337.942 422.685 346.342 426.072 332.69Z" fill="#CFCFCF"/>
</g>
<path d="M187.94 351.725C200.455 348.886 208.299 336.44 205.46 323.925C202.621 311.41 190.175 303.566 177.66 306.405C165.145 309.244 157.301 321.69 160.14 334.205C162.979 346.72 175.425 354.564 187.94 351.725Z" fill="#E8E8E8"/>
<mask id="mask2_535_408" style="mask-type:alpha" maskUnits="userSpaceOnUse" x="159" y="305" width="48" height="48">
<path d="M187.94 351.725C200.455 348.886 208.299 336.44 205.46 323.925C202.621 311.41 190.175 303.566 177.66 306.405C165.145 309.244 157.301 321.69 160.14 334.205C162.979 346.72 175.425 354.564 187.94 351.725Z" fill="#F0F0F0"/>
</mask>
<g mask="url(#mask2_535_408)">
<path d="M172.813 331.335C171.04 314.495 186.801 325.446 189.173 307.957L201.712 351.471L161.212 385.537C124.204 364.217 161.769 376.204 158.824 355.242C155.879 334.28 174.285 345.324 172.813 331.335Z" fill="#CFCFCF"/>
</g>
<path d="M297.352 225.553C297.352 225.553 202.878 224.419 187.918 306.244C172.957 388.07 252.854 389.601 275.839 391.148C286.264 391.854 308.558 391.928 328.23 391.575C371.786 390.824 402.546 382.386 413.03 341.981C414.252 337.27 415.077 332.425 415.386 327.507C418.154 283.23 388.175 223.359 297.367 225.538L297.352 225.553Z" fill="url(#paint2_linear_535_408)"/>
<path d="M367.029 351.683L367.03 351.683C382.344 351.434 394.575 338.925 394.34 323.7L394.34 323.698C394.088 308.474 381.466 296.354 366.152 296.587L366.151 296.587L227.839 298.737L227.838 298.737C212.523 298.986 200.292 311.495 200.528 326.72L200.528 326.722C200.779 341.946 213.401 354.066 228.716 353.833L228.716 353.833L367.029 351.683Z" fill="#030303" stroke="url(#paint3_linear_535_408)" stroke-width="3"/>
<path d="M256.965 323.84C256.082 328.376 251.679 331.321 247.159 330.437C242.623 329.554 239.678 325.151 240.562 320.63C241.445 316.095 245.848 313.15 250.369 314.034C254.904 314.917 257.849 319.32 256.965 323.84Z" fill="#C7F431"/>
<path d="M352.854 322.309C351.97 326.844 347.568 329.789 343.047 328.906C338.512 328.022 335.567 323.619 336.45 319.099C337.334 314.564 341.737 311.619 346.257 312.502C350.792 313.386 353.737 317.788 352.854 322.309Z" fill="#C7F431"/>
<path d="M311.034 202.644C316.124 197.555 316.124 189.304 311.034 184.215C305.945 179.125 297.694 179.125 292.605 184.215C287.516 189.304 287.516 197.555 292.605 202.644C297.694 207.733 305.945 207.733 311.034 202.644Z" fill="#C7F431"/>
<path d="M280.995 319.983C281.614 320.056 281.305 322.972 283.131 326.859C284.014 328.788 285.487 330.894 287.563 332.69C289.639 334.486 292.392 335.856 295.411 336.18C298.444 336.415 301.404 335.561 303.775 334.177C306.16 332.793 307.986 330.982 309.193 329.244C311.697 325.755 311.918 322.824 312.536 322.869C312.772 322.869 313.037 323.605 313.037 324.989C313.037 326.373 312.639 328.39 311.52 330.629C310.401 332.867 308.457 335.282 305.645 337.152C302.877 339.036 299.107 340.317 295.058 339.979C291.023 339.567 287.548 337.638 285.163 335.282C282.748 332.926 281.261 330.202 280.568 327.801C279.862 325.387 279.832 323.325 280.097 321.97C280.348 320.616 280.73 319.924 280.966 319.968L280.995 319.983Z" fill="#C7F431"/>
<path d="M406.79 358.134C406.657 358.061 408.35 355.484 409.97 350.846C411.649 346.237 413.106 339.552 413.799 332.086C414.55 324.606 414.432 317.789 414.24 312.87C414.122 310.411 414.005 308.424 413.902 307.039C413.799 305.67 413.769 304.904 413.828 304.89C413.887 304.89 414.005 305.641 414.196 307.01C414.402 308.379 414.594 310.367 414.785 312.841C415.109 317.774 415.315 324.636 414.564 332.16C413.857 339.684 412.297 346.414 410.485 351.037C409.602 353.349 408.689 355.16 407.982 356.353C407.261 357.531 406.834 358.179 406.79 358.149V358.134Z" fill="#777777"/>
<path d="M187.98 303.564C187.98 303.564 187.862 304.33 187.509 305.67C187.332 306.333 187.111 307.157 186.92 308.114C186.713 309.072 186.434 310.146 186.257 311.369C185.801 313.783 185.432 316.699 185.226 319.953C185.064 323.207 185.064 326.785 185.374 330.526C185.727 334.266 186.345 337.785 187.082 340.965C187.862 344.117 188.731 346.929 189.614 349.226C190.012 350.389 190.468 351.405 190.836 352.318C191.19 353.231 191.543 353.997 191.852 354.615C192.427 355.867 192.721 356.574 192.677 356.603C192.633 356.633 192.25 355.97 191.587 354.748C191.249 354.144 190.851 353.393 190.454 352.495C190.041 351.597 189.541 350.595 189.114 349.432C188.157 347.135 187.229 344.323 186.404 341.142C185.624 337.947 184.961 334.383 184.608 330.599C184.284 326.815 184.313 323.193 184.519 319.909C184.77 316.625 185.197 313.695 185.727 311.266C185.948 310.043 186.257 308.968 186.507 308.011C186.743 307.054 186.993 306.244 187.229 305.582C187.671 304.271 187.936 303.55 187.98 303.564Z" fill="#777777"/>
<path opacity="0.5" d="M285.237 231.678C285.237 231.678 285.119 231.708 284.898 231.737C284.633 231.766 284.295 231.796 283.897 231.825C283.014 231.914 281.718 231.943 280.054 232.149C276.726 232.444 271.926 233.106 266.109 234.461C260.293 235.801 253.49 237.98 246.334 241.293C239.178 244.592 231.712 249.127 224.674 254.899C217.68 260.715 211.804 267.194 207.21 273.585C202.601 279.99 199.171 286.248 196.741 291.696C194.311 297.144 192.751 301.739 191.823 304.949C191.308 306.539 191.042 307.805 190.777 308.659C190.66 309.042 190.571 309.366 190.498 309.616C190.424 309.837 190.395 309.94 190.38 309.94C190.38 309.94 190.38 309.823 190.424 309.602C190.483 309.337 190.542 309.013 190.63 308.615C190.836 307.761 191.072 306.48 191.528 304.86C192.368 301.621 193.855 296.983 196.24 291.475C198.611 285.968 202.012 279.637 206.636 273.173C211.245 266.708 217.135 260.171 224.188 254.295C231.285 248.479 238.824 243.944 246.04 240.645C253.269 237.347 260.131 235.197 265.992 233.916C271.852 232.62 276.682 232.046 280.024 231.84C281.688 231.693 282.999 231.708 283.882 231.663C284.28 231.663 284.619 231.663 284.884 231.663C285.104 231.663 285.222 231.663 285.222 231.678H285.237Z" fill="#BDBDBD"/>
<path d="M192.795 345.029C192.707 345.059 192.133 343.969 191.455 342.084C190.763 340.214 190.012 337.535 189.541 334.531C189.07 331.512 188.982 328.744 189.055 326.741C189.129 324.739 189.335 323.531 189.438 323.531C189.674 323.531 189.35 328.464 190.292 334.413C191.205 340.362 193.031 344.941 192.795 345.029Z" fill="#C8C8C8"/>
<path d="M168.028 337.417C168.028 337.417 167.689 337.181 167.233 336.622C166.761 336.062 166.158 335.208 165.569 334.045C164.361 331.762 163.331 328.14 163.846 324.15C164.376 320.159 166.334 316.935 168.087 315.035C168.97 314.078 169.765 313.401 170.369 312.988C170.958 312.576 171.311 312.385 171.341 312.429C171.429 312.532 170.104 313.445 168.499 315.389C166.894 317.317 165.112 320.439 164.612 324.238C164.111 328.037 165.024 331.527 166.055 333.794C167.085 336.092 168.146 337.314 168.028 337.402V337.417Z" fill="#8F8F8F"/>
<path d="M302.672 184.353C302.643 184.5 301.332 184.014 299.212 184.264C297.15 184.485 294.176 185.678 292.409 188.387C290.686 191.126 290.833 194.321 291.496 196.294C292.144 198.326 293.13 199.328 293.013 199.416C292.983 199.445 292.703 199.239 292.306 198.768C291.893 198.297 291.393 197.531 290.981 196.486C290.141 194.454 289.861 190.993 291.761 187.99C293.705 185.015 296.959 183.837 299.168 183.749C300.287 183.69 301.2 183.822 301.789 183.999C302.392 184.176 302.687 184.338 302.672 184.367V184.353Z" fill="#5B7409"/>
<path d="M430.999 319.556C430.837 319.732 428.54 317.538 425.079 315.889C421.634 314.196 418.497 313.754 418.541 313.518C418.541 313.327 421.825 313.445 425.418 315.197C429.011 316.92 431.146 319.438 430.999 319.556Z" fill="#8F8F8F"/>
<path d="M343.046 293.287C343.046 293.493 324.964 293.669 302.67 293.669C280.377 293.669 262.295 293.493 262.295 293.287C262.295 293.081 280.377 292.904 302.67 292.904C324.964 292.904 343.046 293.081 343.046 293.287Z" fill="#CFCFCF"/>
<path d="M274.148 385.361C274.148 385.361 273.913 385.42 273.471 385.478C272.926 385.523 272.278 385.581 271.498 385.655C270.644 385.729 269.598 385.802 268.376 385.817C267.154 385.847 265.77 385.92 264.238 385.861C261.161 385.861 257.509 385.64 253.46 385.213C249.425 384.742 245.008 384.021 240.428 382.96C235.864 381.871 231.594 380.531 227.765 379.161C223.951 377.748 220.594 376.29 217.841 374.935C216.442 374.288 215.234 373.61 214.159 373.036C213.07 372.476 212.172 371.946 211.435 371.505C210.773 371.092 210.213 370.754 209.742 370.474C209.359 370.238 209.168 370.091 209.182 370.076C209.197 370.062 209.418 370.15 209.816 370.341C210.302 370.592 210.876 370.886 211.568 371.24C212.319 371.652 213.246 372.138 214.351 372.653C215.44 373.183 216.663 373.831 218.076 374.435C220.844 375.731 224.216 377.115 228.015 378.484C231.829 379.824 236.085 381.12 240.62 382.21C245.155 383.27 249.543 383.991 253.548 384.507C257.553 384.978 261.19 385.243 264.253 385.316C265.785 385.405 267.169 385.361 268.376 385.375C269.598 385.39 270.644 385.375 271.498 385.346C272.278 385.346 272.926 385.331 273.471 385.316C273.927 385.316 274.163 385.331 274.163 385.361H274.148Z" fill="#C8C8C8"/>
<path d="M231.038 285.846C232.39 284.935 233.569 283.769 234.837 282.733C237.893 280.239 241.519 278.498 245.329 277.696C246.529 277.441 247.865 277.208 248.609 276.21C248.96 275.743 249.128 275.152 249.202 274.567C249.474 272.257 248.227 269.963 246.471 268.504C244.716 267.046 242.525 266.286 240.345 265.695C236.111 264.546 231.667 263.928 227.343 264.643C223.02 265.365 218.807 267.534 216.176 271.156C215.049 272.701 214.226 274.513 213.975 276.427C213.435 280.58 215.846 284.864 219.467 286.74C223.088 288.611 227.647 288.139 231.038 285.857V285.846Z" fill="url(#paint4_linear_535_408)"/>
<g filter="url(#filter0_f_535_408)">
<ellipse cx="301.644" cy="438.439" rx="64.0528" ry="12.5161" fill="white" fill-opacity="0.05"/>
</g>
<path d="M194.27 474.775L193.285 474.598L193.27 474.686V474.775H194.27ZM199.975 443.173L199.004 442.93L198.996 442.963L198.991 442.995L199.975 443.173ZM207.095 443.173L208.08 443.002L208.074 442.966L208.065 442.93L207.095 443.173ZM212.575 474.775L213.57 474.676L213.567 474.64L213.56 474.605L212.575 474.775ZM207.05 474.775L208.045 474.676L208.043 474.653L208.039 474.63L207.05 474.775ZM206.556 471.406L207.545 471.261L207.42 470.406H206.556V471.406ZM200.289 471.406V470.406H199.425L199.3 471.261L200.289 471.406ZM199.795 474.775L198.806 474.63L198.802 474.653L198.8 474.676L199.795 474.775ZM203.276 453.572L204.264 453.73L204.267 453.71L204.269 453.69L203.276 453.572ZM201.21 466.487L200.223 466.329L200.037 467.487H201.21V466.487ZM205.635 466.487V467.487H206.791L206.624 466.343L205.635 466.487ZM203.748 453.572L204.738 453.428L204.736 453.416L203.748 453.572ZM203.479 451.865L204.466 451.709L202.485 451.748L203.479 451.865ZM195.254 474.953L200.959 443.351L198.991 442.995L193.285 474.598L195.254 474.953ZM200.945 443.415C200.922 443.506 200.855 443.677 200.678 443.819C200.498 443.963 200.308 443.993 200.199 443.993V441.993C199.97 441.993 199.684 442.053 199.429 442.257C199.176 442.459 199.057 442.72 199.004 442.93L200.945 443.415ZM200.199 443.993H206.87V441.993H200.199V443.993ZM206.87 443.993C206.761 443.993 206.572 443.963 206.391 443.819C206.214 443.677 206.147 443.506 206.125 443.415L208.065 442.93C208.012 442.72 207.893 442.459 207.641 442.257C207.386 442.053 207.099 441.993 206.87 441.993V443.993ZM206.109 443.344L211.59 474.946L213.56 474.605L208.08 443.002L206.109 443.344ZM211.58 474.875C211.576 474.833 211.555 474.576 211.761 474.319C211.989 474.034 212.289 474 212.396 474V476C212.637 476 213.034 475.929 213.322 475.569C213.588 475.237 213.589 474.868 213.57 474.676L211.58 474.875ZM212.396 474H207.297V476H212.396V474ZM207.297 474C207.384 474 207.597 474.023 207.795 474.204C207.993 474.384 208.036 474.592 208.045 474.676L206.055 474.875C206.078 475.108 206.17 475.429 206.45 475.684C206.731 475.939 207.06 476 207.297 476V474ZM208.039 474.63L207.545 471.261L205.566 471.551L206.06 474.921L208.039 474.63ZM206.556 470.406H200.289V472.406H206.556V470.406ZM199.3 471.261L198.806 474.63L200.784 474.921L201.278 471.551L199.3 471.261ZM198.8 474.676C198.806 474.616 198.838 474.419 199.02 474.237C199.218 474.039 199.448 474 199.57 474V476C199.827 476 200.162 475.924 200.435 475.651C200.692 475.394 200.769 475.085 200.79 474.875L198.8 474.676ZM199.57 474H194.449V476H199.57V474ZM194.449 474C194.61 474 194.889 474.061 195.095 474.319C195.268 474.534 195.27 474.743 195.27 474.775H193.27C193.27 474.957 193.302 475.278 193.534 475.569C193.8 475.901 194.169 476 194.449 476V474ZM202.289 453.414L200.223 466.329L202.197 466.645L204.264 453.73L202.289 453.414ZM201.21 467.487H205.635V465.487H201.21V467.487ZM206.624 466.343L204.738 453.428L202.759 453.717L204.645 466.632L206.624 466.343ZM204.736 453.416L204.466 451.709L202.491 452.021L202.76 453.728L204.736 453.416ZM202.485 451.748L202.283 453.455L204.269 453.69L204.472 451.983L202.485 451.748ZM219.59 474.775L218.59 474.774V474.775H219.59ZM219.635 443.173L220.635 443.174V443.173H219.635ZM225.161 443.173L224.161 443.173L224.161 443.174L225.161 443.173ZM225.205 474.775L226.205 474.775L226.205 474.774L225.205 474.775ZM225.026 474H219.815V476H225.026V474ZM219.815 474C219.894 474 220.137 474.02 220.353 474.237C220.57 474.453 220.59 474.696 220.59 474.775H218.59C218.59 475.004 218.648 475.36 218.939 475.651C219.23 475.942 219.586 476 219.815 476V474ZM220.59 474.777L220.635 443.174L218.635 443.171L218.59 474.774L220.59 474.777ZM220.635 443.173C220.635 443.267 220.611 443.521 220.387 443.745C220.163 443.969 219.909 443.993 219.815 443.993V441.993C219.601 441.993 219.257 442.047 218.973 442.331C218.689 442.615 218.635 442.959 218.635 443.173H220.635ZM219.815 443.993H224.981V441.993H219.815V443.993ZM224.981 443.993C224.887 443.993 224.632 443.969 224.408 443.745C224.185 443.521 224.161 443.267 224.161 443.173H226.161C226.161 442.959 226.106 442.615 225.823 442.331C225.539 442.047 225.195 441.993 224.981 441.993V443.993ZM224.161 443.174L224.205 474.777L226.205 474.774L226.161 443.171L224.161 443.174ZM224.205 474.775C224.205 474.743 224.207 474.534 224.38 474.319C224.586 474.061 224.865 474 225.026 474V476C225.306 476 225.675 475.901 225.941 475.569C226.173 475.278 226.205 474.957 226.205 474.775H224.205ZM253.386 474.191L252.862 475.043L252.866 475.046L253.386 474.191ZM250.129 470.822L249.256 471.31L249.262 471.32L250.129 470.822ZM248.939 466.083L247.939 466.08V466.083H248.939ZM248.983 451.73L249.983 451.734V451.73H248.983ZM250.151 447.104L251.022 447.596L251.024 447.592L250.151 447.104ZM253.363 443.757L253.887 444.608L253.89 444.607L253.363 443.757ZM262.505 443.712L261.979 444.563L261.984 444.565L262.505 443.712ZM265.717 447.059L264.846 447.55L264.852 447.561L265.717 447.059ZM255.542 468.846L254.805 469.521L254.812 469.529L255.542 468.846ZM260.416 468.733L261.18 469.379L261.186 469.372L260.416 468.733ZM265.762 470.8L266.625 471.305L266.631 471.294L265.762 470.8ZM262.505 474.191L263.033 475.04L263.04 475.036L262.505 474.191ZM257.945 474.449C256.461 474.449 255.122 474.077 253.906 473.337L252.866 475.046C254.405 475.983 256.106 476.449 257.945 476.449V474.449ZM253.91 473.34C252.691 472.59 251.723 471.589 250.996 470.324L249.262 471.32C250.152 472.87 251.355 474.116 252.862 475.043L253.91 473.34ZM251.002 470.335C250.297 469.071 249.939 467.661 249.939 466.083H247.939C247.939 467.979 248.373 469.728 249.256 471.309L251.002 470.335ZM249.939 466.086L249.983 451.734L247.983 451.727L247.939 466.08L249.939 466.086ZM249.983 451.73C249.983 450.182 250.335 448.811 251.022 447.596L249.281 446.611C248.411 448.151 247.983 449.865 247.983 451.73H249.983ZM251.024 447.592C251.719 446.348 252.67 445.358 253.887 444.608L252.839 442.905C251.332 443.833 250.141 445.073 249.279 446.615L251.024 447.592ZM253.89 444.607C255.104 443.855 256.448 443.477 257.945 443.477V441.477C256.089 441.477 254.378 441.952 252.837 442.907L253.89 444.607ZM257.945 443.477C259.484 443.477 260.819 443.845 261.979 444.563L263.031 442.861C261.526 441.931 259.821 441.477 257.945 441.477V443.477ZM261.984 444.565C263.182 445.298 264.134 446.287 264.846 447.55L266.588 446.567C265.713 445.015 264.523 443.773 263.026 442.859L261.984 444.565ZM264.852 447.561C265.566 448.79 265.93 450.172 265.93 451.73H267.93C267.93 449.845 267.485 448.112 266.582 446.556L264.852 447.561ZM265.93 451.73V453.842H267.93V451.73H265.93ZM265.93 453.842C265.93 453.748 265.954 453.493 266.178 453.269C266.401 453.046 266.656 453.021 266.75 453.021V455.021C266.964 455.021 267.308 454.967 267.592 454.684C267.876 454.4 267.93 454.056 267.93 453.842H265.93ZM266.75 453.021H261.584V455.021H266.75V453.021ZM261.584 453.021C261.678 453.021 261.933 453.046 262.156 453.269C262.38 453.493 262.404 453.748 262.404 453.842H260.404C260.404 454.056 260.459 454.4 260.742 454.684C261.026 454.967 261.37 455.021 261.584 455.021V453.021ZM262.404 453.842V451.73H260.404V453.842H262.404ZM262.404 451.73C262.404 450.474 261.99 449.358 261.16 448.434L259.672 449.771C260.16 450.314 260.404 450.95 260.404 451.73H262.404ZM261.16 448.434C260.311 447.489 259.217 447.002 257.945 447.002V449.002C258.651 449.002 259.203 449.249 259.672 449.771L261.16 448.434ZM257.945 447.002C256.597 447.002 255.445 447.48 254.641 448.51L256.218 449.74C256.583 449.273 257.108 449.002 257.945 449.002V447.002ZM254.641 448.51C253.914 449.442 253.554 450.529 253.554 451.73H255.554C255.554 450.955 255.777 450.305 256.218 449.74L254.641 448.51ZM253.554 451.73V466.083H255.554V451.73H253.554ZM253.554 466.083C253.554 467.416 253.951 468.59 254.805 469.521L256.279 468.17C255.815 467.664 255.554 466.996 255.554 466.083H253.554ZM254.812 469.529C255.655 470.43 256.719 470.901 257.945 470.901V468.901C257.285 468.901 256.747 468.669 256.272 468.162L254.812 469.529ZM257.945 470.901C259.238 470.901 260.338 470.374 261.179 469.379L259.653 468.087C259.177 468.65 258.629 468.901 257.945 468.901V470.901ZM261.186 469.372C261.984 468.411 262.404 467.304 262.404 466.083H260.404C260.404 466.808 260.166 467.469 259.647 468.095L261.186 469.372ZM262.404 466.083V463.949H260.404V466.083H262.404ZM262.404 463.949C262.404 464.043 262.38 464.298 262.156 464.522C261.933 464.745 261.678 464.77 261.584 464.77V462.77C261.37 462.77 261.026 462.824 260.742 463.107C260.459 463.391 260.404 463.735 260.404 463.949H262.404ZM261.584 464.77H266.795V462.77H261.584V464.77ZM266.795 464.77C266.701 464.77 266.446 464.745 266.223 464.522C265.999 464.298 265.975 464.043 265.975 463.949H267.975C267.975 463.735 267.92 463.391 267.637 463.107C267.353 462.824 267.009 462.77 266.795 462.77V464.77ZM265.975 463.949V466.083H267.975V463.949H265.975ZM265.975 466.083C265.975 467.641 265.611 469.042 264.892 470.306L266.631 471.294C267.53 469.713 267.975 467.969 267.975 466.083H265.975ZM264.899 470.295C264.154 471.568 263.18 472.58 261.97 473.347L263.04 475.036C264.526 474.095 265.723 472.847 266.625 471.305L264.899 470.295ZM261.977 473.342C260.798 474.076 259.464 474.449 257.945 474.449V476.449C259.811 476.449 261.516 475.984 263.033 475.04L261.977 473.342ZM274.461 474.775L273.461 474.774V474.775H274.461ZM274.506 443.173L275.506 443.174V443.173H274.506ZM280.077 443.173L281.077 443.176V443.173H280.077ZM280.032 455.684L279.032 455.68L279.028 456.684H280.032V455.684ZM286.927 455.684V456.684H287.927V455.684H286.927ZM292.453 443.173H291.453L291.453 443.176L292.453 443.173ZM292.542 474.775H293.542L293.542 474.773L292.542 474.775ZM286.927 461.254H287.927V460.254H286.927V461.254ZM280.032 461.254V460.254H279.032V461.254H280.032ZM279.852 474H274.641V476H279.852V474ZM274.641 474C274.802 474 275.081 474.061 275.287 474.319C275.459 474.534 275.461 474.743 275.461 474.775H273.461C273.461 474.957 273.493 475.278 273.725 475.569C273.992 475.901 274.36 476 274.641 476V474ZM275.461 474.777L275.506 443.174L273.506 443.171L273.461 474.774L275.461 474.777ZM275.506 443.173C275.506 443.334 275.445 443.613 275.187 443.819C274.972 443.991 274.763 443.993 274.731 443.993V441.993C274.549 441.993 274.228 442.025 273.938 442.257C273.605 442.523 273.506 442.892 273.506 443.173H275.506ZM274.731 443.993H279.852V441.993H274.731V443.993ZM279.852 443.993C279.82 443.993 279.611 443.991 279.396 443.819C279.138 443.613 279.077 443.334 279.077 443.173H281.077C281.077 442.892 280.978 442.523 280.645 442.257C280.355 442.025 280.034 441.993 279.852 441.993V443.993ZM279.077 443.169L279.032 455.68L281.032 455.687L281.077 443.176L279.077 443.169ZM280.032 456.684H286.927V454.684H280.032V456.684ZM287.927 455.684V443.173H285.927V455.684H287.927ZM287.927 443.173C287.927 443.267 287.903 443.521 287.679 443.745C287.455 443.969 287.201 443.993 287.107 443.993V441.993C286.893 441.993 286.549 442.047 286.265 442.331C285.981 442.615 285.927 442.959 285.927 443.173H287.927ZM287.107 443.993H292.228V441.993H287.107V443.993ZM292.228 443.993C292.196 443.993 291.987 443.991 291.772 443.819C291.514 443.613 291.453 443.334 291.453 443.173H293.453C293.453 442.892 293.354 442.523 293.021 442.257C292.731 442.025 292.41 441.993 292.228 441.993V443.993ZM291.453 443.176L291.542 474.778L293.542 474.773L293.453 443.17L291.453 443.176ZM291.542 474.775C291.542 474.696 291.563 474.453 291.779 474.237C291.995 474.02 292.239 474 292.318 474V476C292.547 476 292.902 475.942 293.193 475.651C293.484 475.36 293.542 475.004 293.542 474.775H291.542ZM292.318 474H287.152V476H292.318V474ZM287.152 474C287.231 474 287.474 474.02 287.69 474.237C287.907 474.453 287.927 474.696 287.927 474.775H285.927C285.927 475.004 285.985 475.36 286.276 475.651C286.567 475.942 286.923 476 287.152 476V474ZM287.927 474.775V461.254H285.927V474.775H287.927ZM286.927 460.254H280.032V462.254H286.927V460.254ZM279.032 461.254V474.775H281.032V461.254H279.032ZM279.032 474.775C279.032 474.743 279.034 474.534 279.206 474.319C279.412 474.061 279.691 474 279.852 474V476C280.133 476 280.501 475.901 280.768 475.569C281 475.278 281.032 474.957 281.032 474.775H279.032ZM298.884 474.775L297.899 474.598L297.884 474.686V474.775H298.884ZM304.589 443.173L303.619 442.93L303.61 442.963L303.605 442.995L304.589 443.173ZM311.709 443.173L312.694 443.002L312.688 442.966L312.679 442.93L311.709 443.173ZM317.189 474.775L318.184 474.676L318.181 474.64L318.175 474.605L317.189 474.775ZM311.664 474.775L312.659 474.676L312.657 474.653L312.653 474.63L311.664 474.775ZM311.17 471.406L312.159 471.261L312.034 470.406H311.17V471.406ZM304.903 471.406V470.406H304.039L303.914 471.261L304.903 471.406ZM304.409 474.775L303.42 474.63L303.416 474.653L303.414 474.676L304.409 474.775ZM307.89 453.572L308.878 453.73L308.881 453.71L308.883 453.69L307.89 453.572ZM305.824 466.487L304.837 466.329L304.651 467.487H305.824V466.487ZM310.249 466.487V467.487H311.406L311.238 466.343L310.249 466.487ZM308.362 453.572L309.352 453.428L309.35 453.416L308.362 453.572ZM308.093 451.865L309.08 451.709L307.1 451.748L308.093 451.865ZM299.868 474.953L305.573 443.351L303.605 442.995L297.899 474.598L299.868 474.953ZM305.559 443.415C305.536 443.506 305.469 443.677 305.292 443.819C305.112 443.963 304.922 443.993 304.813 443.993V441.993C304.584 441.993 304.298 442.053 304.043 442.257C303.79 442.459 303.671 442.72 303.619 442.93L305.559 443.415ZM304.813 443.993H311.484V441.993H304.813V443.993ZM311.484 443.993C311.375 443.993 311.186 443.963 311.005 443.819C310.828 443.677 310.761 443.506 310.739 443.415L312.679 442.93C312.626 442.72 312.507 442.459 312.255 442.257C312 442.053 311.713 441.993 311.484 441.993V443.993ZM310.723 443.344L316.204 474.946L318.175 474.605L312.694 443.002L310.723 443.344ZM316.194 474.875C316.19 474.833 316.169 474.576 316.375 474.319C316.603 474.034 316.903 474 317.01 474V476C317.251 476 317.648 475.929 317.936 475.569C318.202 475.237 318.203 474.868 318.184 474.676L316.194 474.875ZM317.01 474H311.911V476H317.01V474ZM311.911 474C311.998 474 312.211 474.023 312.41 474.204C312.607 474.384 312.651 474.592 312.659 474.676L310.669 474.875C310.692 475.108 310.784 475.429 311.064 475.684C311.345 475.939 311.675 476 311.911 476V474ZM312.653 474.63L312.159 471.261L310.18 471.551L310.674 474.921L312.653 474.63ZM311.17 470.406H304.903V472.406H311.17V470.406ZM303.914 471.261L303.42 474.63L305.398 474.921L305.893 471.551L303.914 471.261ZM303.414 474.676C303.42 474.616 303.452 474.419 303.634 474.237C303.832 474.039 304.062 474 304.184 474V476C304.441 476 304.776 475.924 305.049 475.651C305.306 475.394 305.383 475.085 305.404 474.875L303.414 474.676ZM304.184 474H299.063V476H304.184V474ZM299.063 474C299.224 474 299.503 474.061 299.709 474.319C299.882 474.534 299.884 474.743 299.884 474.775H297.884C297.884 474.957 297.916 475.278 298.148 475.569C298.414 475.901 298.783 476 299.063 476V474ZM306.903 453.414L304.837 466.329L306.811 466.645L308.878 453.73L306.903 453.414ZM305.824 467.487H310.249V465.487H305.824V467.487ZM311.238 466.343L309.352 453.428L307.373 453.717L309.259 466.632L311.238 466.343ZM309.35 453.416L309.08 451.709L307.105 452.021L307.374 453.728L309.35 453.416ZM307.1 451.748L306.897 453.455L308.883 453.69L309.086 451.983L307.1 451.748ZM325.844 448.541H326.844V447.541H325.844V448.541ZM319.645 448.316L318.645 448.308V448.316H319.645ZM319.69 443.173L320.69 443.182V443.173H319.69ZM331.369 448.541V447.541H330.368L330.369 448.543L331.369 448.541ZM331.414 474.775H332.414L332.414 474.774L331.414 474.775ZM331.235 474H326.046V476H331.235V474ZM326.046 474C326.162 474 326.424 474.037 326.638 474.275C326.834 474.493 326.844 474.721 326.844 474.775H324.844C324.844 474.98 324.888 475.32 325.151 475.613C325.433 475.926 325.796 476 326.046 476V474ZM326.844 474.775V448.541H324.844V474.775H326.844ZM325.844 447.541H319.869V449.541H325.844V447.541ZM319.869 447.541C319.949 447.541 320.192 447.562 320.408 447.778C320.624 447.994 320.645 448.237 320.645 448.316H318.645C318.645 448.545 318.703 448.901 318.994 449.192C319.285 449.483 319.64 449.541 319.869 449.541V447.541ZM320.645 448.325L320.69 443.182L318.69 443.164L318.645 448.308L320.645 448.325ZM320.69 443.173C320.69 443.267 320.665 443.521 320.442 443.745C320.218 443.969 319.964 443.993 319.869 443.993V441.993C319.655 441.993 319.311 442.047 319.027 442.331C318.744 442.615 318.69 442.959 318.69 443.173H320.69ZM319.869 443.993H337.344V441.993H319.869V443.993ZM337.344 443.993C337.335 443.993 337.147 443.997 336.941 443.847C336.827 443.764 336.73 443.649 336.666 443.511C336.606 443.378 336.591 443.257 336.591 443.173H338.591C338.591 442.857 338.465 442.482 338.117 442.229C337.829 442.019 337.518 441.993 337.344 441.993V443.993ZM336.591 443.173V448.316H338.591V443.173H336.591ZM336.591 448.316C336.591 448.284 336.593 448.075 336.765 447.86C336.971 447.602 337.25 447.541 337.411 447.541V449.541C337.692 449.541 338.061 449.442 338.327 449.11C338.559 448.819 338.591 448.498 338.591 448.316H336.591ZM337.411 447.541H331.369V449.541H337.411V447.541ZM330.369 448.543L330.414 474.777L332.414 474.774L332.369 448.539L330.369 448.543ZM330.414 474.775C330.414 474.743 330.416 474.534 330.588 474.319C330.795 474.061 331.074 474 331.235 474V476C331.515 476 331.884 475.901 332.15 475.569C332.382 475.278 332.414 474.957 332.414 474.775H330.414ZM343.977 474.775L342.977 474.773V474.775H343.977ZM344.067 443.173L345.067 443.176V443.173H344.067ZM357.791 444.251L358.311 443.397L358.302 443.392L357.791 444.251ZM361.047 447.598L360.179 448.093L360.181 448.097L361.047 447.598ZM359.206 458.536L358.556 457.776L357.734 458.479L358.498 459.243L359.206 458.536ZM360.733 470.171L361.594 470.68L361.597 470.674L360.733 470.171ZM357.251 473.697L357.765 474.556L357.771 474.552L357.251 473.697ZM349.592 448.451V447.451H348.592V448.451H349.592ZM349.592 455.684H348.592V456.684H349.592V455.684ZM355.679 454.561L356.43 455.221L356.436 455.214L355.679 454.561ZM355.612 449.552L354.89 450.244L354.897 450.251L355.612 449.552ZM349.592 461.254V460.254H348.598L348.592 461.248L349.592 461.254ZM349.547 469.385L348.547 469.379L348.542 470.385H349.547V469.385ZM352.4 474H344.157V476H352.4V474ZM344.157 474C344.318 474 344.597 474.061 344.803 474.319C344.975 474.534 344.977 474.743 344.977 474.775H342.977C342.977 474.957 343.009 475.278 343.241 475.569C343.507 475.901 343.876 476 344.157 476V474ZM344.977 474.778L345.067 443.176L343.067 443.17L342.977 474.773L344.977 474.778ZM345.067 443.173C345.067 443.267 345.043 443.521 344.819 443.745C344.595 443.969 344.341 443.993 344.247 443.993V441.993C344.033 441.993 343.688 442.047 343.405 442.331C343.121 442.615 343.067 442.959 343.067 443.173H345.067ZM344.247 443.993H353.096V441.993H344.247V443.993ZM353.096 443.993C354.648 443.993 356.034 444.369 357.279 445.11L358.302 443.392C356.732 442.456 354.989 441.993 353.096 441.993V443.993ZM357.271 445.105C358.504 445.856 359.469 446.848 360.179 448.093L361.916 447.103C361.038 445.562 359.832 444.323 358.31 443.397L357.271 445.105ZM360.181 448.097C360.885 449.32 361.238 450.645 361.238 452.09H363.238C363.238 450.301 362.797 448.631 361.914 447.098L360.181 448.097ZM361.238 452.09C361.238 453.249 360.976 454.317 360.454 455.308L362.224 456.239C362.901 454.954 363.238 453.566 363.238 452.09H361.238ZM360.454 455.308C359.904 456.354 359.267 457.168 358.556 457.776L359.855 459.296C360.791 458.496 361.577 457.469 362.224 456.239L360.454 455.308ZM358.498 459.243C359.289 460.034 359.906 460.952 360.351 462.003L362.193 461.224C361.649 459.939 360.889 458.805 359.913 457.829L358.498 459.243ZM360.351 462.003C360.792 463.046 361.013 464.141 361.013 465.297H363.013C363.013 463.877 362.74 462.517 362.193 461.224L360.351 462.003ZM361.013 465.297C361.013 466.911 360.629 468.361 359.869 469.668L361.597 470.674C362.544 469.046 363.013 467.246 363.013 465.297H361.013ZM359.872 469.662C359.087 470.988 358.044 472.045 356.732 472.843L357.771 474.552C359.364 473.583 360.642 472.288 361.594 470.68L359.872 469.662ZM356.738 472.839C355.449 473.61 354.011 474 352.4 474V476C354.353 476 356.149 475.522 357.765 474.556L356.738 472.839ZM353.096 447.451H349.592V449.451H353.096V447.451ZM348.592 448.451V455.684H350.592V448.451H348.592ZM349.592 456.684H353.096V454.684H349.592V456.684ZM353.096 456.684C354.425 456.684 355.567 456.201 356.43 455.221L354.929 453.9C354.473 454.417 353.893 454.684 353.096 454.684V456.684ZM356.436 455.214C357.228 454.296 357.667 453.247 357.667 452.09H355.667C355.667 452.7 355.448 453.298 354.922 453.907L356.436 455.214ZM357.667 452.09C357.667 450.845 357.206 449.751 356.326 448.852L354.897 450.251C355.425 450.79 355.667 451.388 355.667 452.09H357.667ZM356.334 448.86C355.451 447.939 354.355 447.451 353.096 447.451V449.451C353.784 449.451 354.366 449.697 354.89 450.244L356.334 448.86ZM352.4 460.254H349.592V462.254H352.4V460.254ZM348.592 461.248L348.547 469.379L350.547 469.39L350.592 461.259L348.592 461.248ZM349.547 470.385H352.4V468.385H349.547V470.385ZM352.4 470.385C353.783 470.385 354.989 469.868 355.966 468.872L354.539 467.471C353.928 468.093 353.233 468.385 352.4 468.385V470.385ZM355.966 468.872C356.939 467.881 357.443 466.673 357.443 465.297H355.443C355.443 466.136 355.153 466.845 354.539 467.471L355.966 468.872ZM357.443 465.297C357.443 463.92 356.938 462.716 355.96 461.737L354.545 463.151C355.154 463.76 355.443 464.458 355.443 465.297H357.443ZM355.96 461.737C354.981 460.759 353.777 460.254 352.4 460.254V462.254C353.239 462.254 353.937 462.543 354.545 463.151L355.96 461.737ZM373.453 474.191L372.929 475.043L372.933 475.046L373.453 474.191ZM370.151 470.845L369.288 471.35L369.295 471.361L370.151 470.845ZM368.916 466.218L367.916 466.215V466.218H368.916ZM368.961 451.641L369.961 451.644V451.641H368.961ZM370.196 447.036L371.052 447.553L371.059 447.542L370.196 447.036ZM373.475 443.734L373.989 444.593L373.995 444.589L373.475 443.734ZM382.482 443.712L381.957 444.563L381.961 444.565L382.482 443.712ZM385.717 447.036L384.852 447.538L384.858 447.549L385.717 447.036ZM386.952 451.641H385.952L385.952 451.644L386.952 451.641ZM386.997 466.218H387.997L387.997 466.215L386.997 466.218ZM385.784 470.822L386.647 471.327L386.649 471.324L385.784 470.822ZM380.393 468.778L381.129 469.455L381.136 469.448L380.393 468.778ZM381.427 466.218H382.427L382.427 466.215L381.427 466.218ZM381.382 451.641H380.382L380.382 451.644L381.382 451.641ZM375.542 468.823L374.805 469.5L374.812 469.507L375.542 468.823ZM377.968 474.449C376.517 474.449 375.192 474.079 373.973 473.337L372.933 475.046C374.469 475.981 376.154 476.449 377.968 476.449V474.449ZM373.977 473.34C372.753 472.586 371.765 471.587 371.008 470.329L369.295 471.361C370.214 472.888 371.428 474.119 372.929 475.043L373.977 473.34ZM371.014 470.34C370.283 469.09 369.916 467.723 369.916 466.218H367.916C367.916 468.067 368.372 469.784 369.288 471.35L371.014 470.34ZM369.916 466.221L369.961 451.644L367.961 451.638L367.916 466.215L369.916 466.221ZM369.961 451.641C369.961 450.102 370.33 448.749 371.052 447.553L369.34 446.519C368.416 448.049 367.961 449.765 367.961 451.641H369.961ZM371.059 447.542C371.782 446.31 372.754 445.331 373.989 444.593L372.962 442.876C371.441 443.785 370.228 445.007 369.334 446.53L371.059 447.542ZM373.995 444.589C375.216 443.846 376.533 443.477 377.968 443.477V441.477C376.168 441.477 374.49 441.946 372.956 442.88L373.995 444.589ZM377.968 443.477C379.473 443.477 380.793 443.844 381.957 444.563L383.008 442.861C381.506 441.933 379.817 441.477 377.968 441.477V443.477ZM381.961 444.565C383.164 445.3 384.125 446.287 384.852 447.538L386.581 446.534C385.691 445.001 384.496 443.771 383.004 442.859L381.961 444.565ZM384.858 447.549C385.584 448.763 385.952 450.119 385.952 451.641H387.952C387.952 449.778 387.496 448.064 386.575 446.523L384.858 447.549ZM385.952 451.644L385.997 466.221L387.997 466.215L387.952 451.638L385.952 451.644ZM385.997 466.218C385.997 467.726 385.636 469.087 384.919 470.32L386.649 471.324C387.55 469.773 387.997 468.064 387.997 466.218H385.997ZM384.921 470.317C384.179 471.586 383.201 472.589 381.981 473.34L383.029 475.043C384.534 474.117 385.742 472.874 386.647 471.327L384.921 470.317ZM381.981 473.34C380.782 474.077 379.452 474.449 377.968 474.449V476.449C379.807 476.449 381.502 475.982 383.029 475.043L381.981 473.34ZM377.968 470.901C379.204 470.901 380.271 470.388 381.129 469.455L379.658 468.101C379.138 468.666 378.588 468.901 377.968 468.901V470.901ZM381.136 469.448C381.974 468.519 382.427 467.432 382.427 466.218H380.427C380.427 466.891 380.19 467.511 379.651 468.109L381.136 469.448ZM382.427 466.215L382.382 451.638L380.382 451.644L380.427 466.221L382.427 466.215ZM382.382 451.641C382.382 450.391 381.978 449.284 381.154 448.383L379.678 449.733C380.141 450.239 380.382 450.854 380.382 451.641H382.382ZM381.154 448.383C380.313 447.463 379.225 447.002 377.968 447.002V449.002C378.687 449.002 379.231 449.244 379.678 449.733L381.154 448.383ZM377.968 447.002C376.749 447.002 375.684 447.459 374.827 448.336L376.257 449.734C376.747 449.233 377.3 449.002 377.968 449.002V447.002ZM374.827 448.336C373.954 449.229 373.531 450.356 373.531 451.641H375.531C375.531 450.829 375.783 450.219 376.257 449.734L374.827 448.336ZM373.531 451.641V466.218H375.531V451.641H373.531ZM373.531 466.218C373.531 467.47 373.961 468.58 374.805 469.5L376.278 468.147C375.775 467.599 375.531 466.972 375.531 466.218H373.531ZM374.812 469.507C375.666 470.418 376.734 470.901 377.968 470.901V468.901C377.314 468.901 376.766 468.666 376.271 468.139L374.812 469.507ZM398.1 448.541H399.1V447.541H398.1V448.541ZM391.901 448.316L390.901 448.308V448.316H391.901ZM391.946 443.173L392.946 443.182V443.173H391.946ZM403.625 448.541V447.541H402.624L402.625 448.543L403.625 448.541ZM403.67 474.775H404.67L404.67 474.774L403.67 474.775ZM403.49 474H398.302V476H403.49V474ZM398.302 474C398.418 474 398.68 474.037 398.894 474.275C399.09 474.493 399.1 474.721 399.1 474.775H397.1C397.1 474.98 397.144 475.32 397.407 475.613C397.689 475.926 398.052 476 398.302 476V474ZM399.1 474.775V448.541H397.1V474.775H399.1ZM398.1 447.541H392.125V449.541H398.1V447.541ZM392.125 447.541C392.205 447.541 392.448 447.562 392.664 447.778C392.88 447.994 392.901 448.237 392.901 448.316H390.901C390.901 448.545 390.959 448.901 391.25 449.192C391.541 449.483 391.896 449.541 392.125 449.541V447.541ZM392.901 448.325L392.946 443.182L390.946 443.164L390.901 448.308L392.901 448.325ZM392.946 443.173C392.946 443.267 392.921 443.521 392.698 443.745C392.474 443.969 392.219 443.993 392.125 443.993V441.993C391.911 441.993 391.567 442.047 391.283 442.331C391 442.615 390.946 442.959 390.946 443.173H392.946ZM392.125 443.993H409.6V441.993H392.125V443.993ZM409.6 443.993C409.591 443.993 409.403 443.997 409.197 443.847C409.083 443.764 408.986 443.649 408.922 443.511C408.861 443.378 408.847 443.257 408.847 443.173H410.847C410.847 442.857 410.721 442.482 410.373 442.229C410.085 442.019 409.774 441.993 409.6 441.993V443.993ZM408.847 443.173V448.316H410.847V443.173H408.847ZM408.847 448.316C408.847 448.284 408.849 448.075 409.021 447.86C409.227 447.602 409.506 447.541 409.667 447.541V449.541C409.948 449.541 410.317 449.442 410.583 449.11C410.815 448.819 410.847 448.498 410.847 448.316H408.847ZM409.667 447.541H403.625V449.541H409.667V447.541ZM402.625 448.543L402.67 474.777L404.67 474.774L404.625 448.539L402.625 448.543ZM402.67 474.775C402.67 474.743 402.672 474.534 402.844 474.319C403.051 474.061 403.33 474 403.49 474V476C403.771 476 404.14 475.901 404.406 475.569C404.638 475.278 404.67 474.957 404.67 474.775H402.67Z" fill="white"/>
<path d="M192.27 472.775L197.975 441.173C198.005 441.053 198.079 440.993 198.199 440.993H204.87C204.99 440.993 205.065 441.053 205.095 441.173L210.575 472.775C210.59 472.925 210.53 473 210.396 473H205.297C205.147 473 205.065 472.925 205.05 472.775L204.556 469.406H198.289L197.795 472.775C197.78 472.925 197.705 473 197.57 473H192.449C192.329 473 192.27 472.925 192.27 472.775ZM201.276 451.572L199.21 464.487H203.635L201.748 451.572L201.479 449.865L201.276 451.572Z" fill="white"/>
<path d="M223.026 473H217.815C217.665 473 217.59 472.925 217.59 472.775L217.635 441.173C217.635 441.053 217.695 440.993 217.815 440.993H222.981C223.101 440.993 223.161 441.053 223.161 441.173L223.205 472.775C223.205 472.925 223.146 473 223.026 473Z" fill="white"/>
<path d="M255.945 473.449C254.283 473.449 252.763 473.03 251.386 472.191C250.023 471.353 248.938 470.23 248.129 468.822C247.335 467.4 246.939 465.82 246.939 464.083L246.983 449.73C246.983 448.023 247.373 446.481 248.151 445.104C248.93 443.711 250.001 442.595 251.363 441.757C252.741 440.903 254.268 440.477 255.945 440.477C257.652 440.477 259.172 440.888 260.505 441.712C261.853 442.535 262.923 443.651 263.717 445.059C264.525 446.451 264.93 448.008 264.93 449.73V451.842C264.93 451.962 264.87 452.021 264.75 452.021H259.584C259.464 452.021 259.404 451.962 259.404 451.842V449.73C259.404 448.712 259.075 447.836 258.416 447.103C257.757 446.369 256.934 446.002 255.945 446.002C254.852 446.002 254.014 446.376 253.43 447.125C252.846 447.874 252.554 448.742 252.554 449.73V464.083C252.554 465.206 252.883 466.127 253.542 466.846C254.201 467.549 255.002 467.901 255.945 467.901C256.934 467.901 257.757 467.512 258.416 466.733C259.075 465.94 259.404 465.056 259.404 464.083V461.949C259.404 461.829 259.464 461.77 259.584 461.77H264.795C264.915 461.77 264.975 461.829 264.975 461.949V464.083C264.975 465.805 264.57 467.377 263.762 468.8C262.938 470.207 261.853 471.338 260.505 472.191C259.157 473.03 257.637 473.449 255.945 473.449Z" fill="white"/>
<path d="M277.852 473H272.641C272.521 473 272.461 472.925 272.461 472.775L272.506 441.173C272.506 441.053 272.581 440.993 272.731 440.993H277.852C278.002 440.993 278.077 441.053 278.077 441.173L278.032 453.684H284.927V441.173C284.927 441.053 284.987 440.993 285.107 440.993H290.228C290.378 440.993 290.453 441.053 290.453 441.173L290.542 472.775C290.542 472.925 290.468 473 290.318 473H285.152C285.002 473 284.927 472.925 284.927 472.775V459.254H278.032V472.775C278.032 472.925 277.972 473 277.852 473Z" fill="white"/>
<path d="M296.884 472.775L302.589 441.173C302.619 441.053 302.693 440.993 302.813 440.993H309.484C309.604 440.993 309.679 441.053 309.709 441.173L315.189 472.775C315.204 472.925 315.144 473 315.01 473H309.911C309.761 473 309.679 472.925 309.664 472.775L309.17 469.406H302.903L302.409 472.775C302.394 472.925 302.319 473 302.184 473H297.063C296.943 473 296.884 472.925 296.884 472.775ZM305.89 451.572L303.824 464.487H308.249L306.362 451.572L306.093 449.865L305.89 451.572Z" fill="white"/>
<path d="M329.235 473H324.046C323.911 473 323.844 472.925 323.844 472.775V446.541H317.869C317.72 446.541 317.645 446.466 317.645 446.316L317.69 441.173C317.69 441.053 317.75 440.993 317.869 440.993H335.344C335.509 440.993 335.591 441.053 335.591 441.173V446.316C335.591 446.466 335.531 446.541 335.411 446.541H329.369L329.414 472.775C329.414 472.925 329.354 473 329.235 473Z" fill="white"/>
<path d="M350.4 473H342.157C342.037 473 341.977 472.925 341.977 472.775L342.067 441.173C342.067 441.053 342.127 440.993 342.247 440.993H351.096C352.818 440.993 354.383 441.412 355.791 442.251C357.168 443.09 358.254 444.205 359.047 445.598C359.841 446.975 360.238 448.473 360.238 450.09C360.238 451.408 359.938 452.635 359.339 453.773C358.74 454.911 358.029 455.832 357.206 456.536C358.089 457.42 358.778 458.445 359.272 459.613C359.766 460.781 360.013 462.009 360.013 463.297C360.013 465.079 359.586 466.703 358.733 468.171C357.864 469.638 356.704 470.814 355.251 471.697C353.799 472.566 352.182 473 350.4 473ZM351.096 446.451H347.592V453.684H351.096C352.159 453.684 353.02 453.309 353.679 452.561C354.338 451.797 354.667 450.973 354.667 450.09C354.667 449.117 354.316 448.271 353.612 447.552C352.908 446.818 352.07 446.451 351.096 446.451ZM350.4 459.254H347.592L347.547 467.385H350.4C351.508 467.385 352.459 466.98 353.252 466.172C354.046 465.363 354.443 464.405 354.443 463.297C354.443 462.189 354.046 461.238 353.252 460.444C352.459 459.651 351.508 459.254 350.4 459.254Z" fill="white"/>
<path d="M375.968 473.449C374.335 473.449 372.831 473.03 371.453 472.191C370.09 471.353 368.99 470.237 368.151 468.845C367.328 467.437 366.916 465.895 366.916 464.218L366.961 449.641C366.961 447.934 367.373 446.399 368.196 445.036C369.005 443.659 370.098 442.558 371.475 441.734C372.853 440.896 374.35 440.477 375.968 440.477C377.645 440.477 379.15 440.888 380.482 441.712C381.83 442.535 382.908 443.644 383.717 445.036C384.54 446.414 384.952 447.949 384.952 449.641L384.997 464.218C384.997 465.895 384.593 467.43 383.784 468.822C382.96 470.23 381.867 471.353 380.505 472.191C379.142 473.03 377.63 473.449 375.968 473.449ZM375.968 467.901C376.896 467.901 377.705 467.527 378.393 466.778C379.082 466.015 379.427 465.161 379.427 464.218L379.382 449.641C379.382 448.622 379.06 447.761 378.416 447.058C377.772 446.354 376.956 446.002 375.968 446.002C375.024 446.002 374.216 446.346 373.542 447.035C372.868 447.724 372.531 448.592 372.531 449.641V464.218C372.531 465.221 372.868 466.09 373.542 466.823C374.216 467.542 375.024 467.901 375.968 467.901Z" fill="white"/>
<path d="M401.49 473H396.302C396.167 473 396.1 472.925 396.1 472.775V446.541H390.125C389.975 446.541 389.901 446.466 389.901 446.316L389.946 441.173C389.946 441.053 390.005 440.993 390.125 440.993H407.6C407.765 440.993 407.847 441.053 407.847 441.173V446.316C407.847 446.466 407.787 446.541 407.667 446.541H401.625L401.67 472.775C401.67 472.925 401.61 473 401.49 473Z" fill="white"/>
<path d="M175.866 500.968L172.416 507.613V511.393H170.706V507.613L167.241 500.968H169.146L171.561 506.083L173.976 500.968H175.866Z" fill="white" fill-opacity="0.9"/>
<path d="M180.808 511.528C180.028 511.528 179.323 511.353 178.693 511.003C178.063 510.643 177.568 510.143 177.208 509.503C176.848 508.853 176.668 508.103 176.668 507.253C176.668 506.413 176.853 505.668 177.223 505.018C177.593 504.368 178.098 503.868 178.738 503.518C179.378 503.168 180.093 502.993 180.883 502.993C181.673 502.993 182.388 503.168 183.028 503.518C183.668 503.868 184.173 504.368 184.543 505.018C184.913 505.668 185.098 506.413 185.098 507.253C185.098 508.093 184.908 508.838 184.528 509.488C184.148 510.138 183.628 510.643 182.968 511.003C182.318 511.353 181.598 511.528 180.808 511.528ZM180.808 510.043C181.248 510.043 181.658 509.938 182.038 509.728C182.428 509.518 182.743 509.203 182.983 508.783C183.223 508.363 183.343 507.853 183.343 507.253C183.343 506.653 183.228 506.148 182.998 505.738C182.768 505.318 182.463 505.003 182.083 504.793C181.703 504.583 181.293 504.478 180.853 504.478C180.413 504.478 180.003 504.583 179.623 504.793C179.253 505.003 178.958 505.318 178.738 505.738C178.518 506.148 178.408 506.653 178.408 507.253C178.408 508.143 178.633 508.833 179.083 509.323C179.543 509.803 180.118 510.043 180.808 510.043Z" fill="white" fill-opacity="0.9"/>
<path d="M194.274 503.128V511.393H192.564V510.418C192.294 510.758 191.939 511.028 191.499 511.228C191.069 511.418 190.609 511.513 190.119 511.513C189.469 511.513 188.884 511.378 188.364 511.108C187.854 510.838 187.449 510.438 187.149 509.908C186.859 509.378 186.714 508.738 186.714 507.988V503.128H188.409V507.733C188.409 508.473 188.594 509.043 188.964 509.443C189.334 509.833 189.839 510.028 190.479 510.028C191.119 510.028 191.624 509.833 191.994 509.443C192.374 509.043 192.564 508.473 192.564 507.733V503.128H194.274Z" fill="white" fill-opacity="0.9"/>
<path d="M198.24 504.328C198.49 503.908 198.82 503.583 199.23 503.353C199.65 503.113 200.145 502.993 200.715 502.993V504.763H200.28C199.61 504.763 199.1 504.933 198.75 505.273C198.41 505.613 198.24 506.203 198.24 507.043V511.393H196.53V503.128H198.24V504.328Z" fill="white" fill-opacity="0.9"/>
<path d="M207.893 504.343C208.183 503.963 208.578 503.643 209.078 503.383C209.578 503.123 210.143 502.993 210.773 502.993C211.493 502.993 212.148 503.173 212.738 503.533C213.338 503.883 213.808 504.378 214.148 505.018C214.488 505.658 214.658 506.393 214.658 507.223C214.658 508.053 214.488 508.798 214.148 509.458C213.808 510.108 213.338 510.618 212.738 510.988C212.148 511.348 211.493 511.528 210.773 511.528C210.143 511.528 209.583 511.403 209.093 511.153C208.603 510.893 208.203 510.573 207.893 510.193V515.323H206.183V503.128H207.893V504.343ZM212.918 507.223C212.918 506.653 212.798 506.163 212.558 505.753C212.328 505.333 212.018 505.018 211.628 504.808C211.248 504.588 210.838 504.478 210.398 504.478C209.968 504.478 209.558 504.588 209.168 504.808C208.788 505.028 208.478 505.348 208.238 505.768C208.008 506.188 207.893 506.683 207.893 507.253C207.893 507.823 208.008 508.323 208.238 508.753C208.478 509.173 208.788 509.493 209.168 509.713C209.558 509.933 209.968 510.043 210.398 510.043C210.838 510.043 211.248 509.933 211.628 509.713C212.018 509.483 212.328 509.153 212.558 508.723C212.798 508.293 212.918 507.793 212.918 507.223Z" fill="white" fill-opacity="0.9"/>
<path d="M223.924 507.058C223.924 507.368 223.904 507.648 223.864 507.898H217.549C217.599 508.558 217.844 509.088 218.284 509.488C218.724 509.888 219.264 510.088 219.904 510.088C220.824 510.088 221.474 509.703 221.854 508.933H223.699C223.449 509.693 222.994 510.318 222.334 510.808C221.684 511.288 220.874 511.528 219.904 511.528C219.114 511.528 218.404 511.353 217.774 511.003C217.154 510.643 216.664 510.143 216.304 509.503C215.954 508.853 215.779 508.103 215.779 507.253C215.779 506.403 215.949 505.658 216.289 505.018C216.639 504.368 217.124 503.868 217.744 503.518C218.374 503.168 219.094 502.993 219.904 502.993C220.684 502.993 221.379 503.163 221.989 503.503C222.599 503.843 223.074 504.323 223.414 504.943C223.754 505.553 223.924 506.258 223.924 507.058ZM222.139 506.518C222.129 505.888 221.904 505.383 221.464 505.003C221.024 504.623 220.479 504.433 219.829 504.433C219.239 504.433 218.734 504.623 218.314 505.003C217.894 505.373 217.644 505.878 217.564 506.518H222.139Z" fill="white" fill-opacity="0.9"/>
<path d="M227.317 504.328C227.567 503.908 227.897 503.583 228.307 503.353C228.727 503.113 229.222 502.993 229.792 502.993V504.763H229.357C228.687 504.763 228.177 504.933 227.827 505.273C227.487 505.613 227.317 506.203 227.317 507.043V511.393H225.607V503.128H227.317V504.328Z" fill="white" fill-opacity="0.9"/>
<path d="M234.364 511.528C233.714 511.528 233.129 511.413 232.609 511.183C232.099 510.943 231.694 510.623 231.394 510.223C231.094 509.813 230.934 509.358 230.914 508.858H232.684C232.714 509.208 232.879 509.503 233.179 509.743C233.489 509.973 233.874 510.088 234.334 510.088C234.814 510.088 235.184 509.998 235.444 509.818C235.714 509.628 235.849 509.388 235.849 509.098C235.849 508.788 235.699 508.558 235.399 508.408C235.109 508.258 234.644 508.093 234.004 507.913C233.384 507.743 232.879 507.578 232.489 507.418C232.099 507.258 231.759 507.013 231.469 506.683C231.189 506.353 231.049 505.918 231.049 505.378C231.049 504.938 231.179 504.538 231.439 504.178C231.699 503.808 232.069 503.518 232.549 503.308C233.039 503.098 233.599 502.993 234.229 502.993C235.169 502.993 235.924 503.233 236.494 503.713C237.074 504.183 237.384 504.828 237.424 505.648H235.714C235.684 505.278 235.534 504.983 235.264 504.763C234.994 504.543 234.629 504.433 234.169 504.433C233.719 504.433 233.374 504.518 233.134 504.688C232.894 504.858 232.774 505.083 232.774 505.363C232.774 505.583 232.854 505.768 233.014 505.918C233.174 506.068 233.369 506.188 233.599 506.278C233.829 506.358 234.169 506.463 234.619 506.593C235.219 506.753 235.709 506.918 236.089 507.088C236.479 507.248 236.814 507.488 237.094 507.808C237.374 508.128 237.519 508.553 237.529 509.083C237.529 509.553 237.399 509.973 237.139 510.343C236.879 510.713 236.509 511.003 236.029 511.213C235.559 511.423 235.004 511.528 234.364 511.528Z" fill="white" fill-opacity="0.9"/>
<path d="M242.962 511.528C242.182 511.528 241.477 511.353 240.847 511.003C240.217 510.643 239.722 510.143 239.362 509.503C239.002 508.853 238.822 508.103 238.822 507.253C238.822 506.413 239.007 505.668 239.377 505.018C239.747 504.368 240.252 503.868 240.892 503.518C241.532 503.168 242.247 502.993 243.037 502.993C243.827 502.993 244.542 503.168 245.182 503.518C245.822 503.868 246.327 504.368 246.697 505.018C247.067 505.668 247.252 506.413 247.252 507.253C247.252 508.093 247.062 508.838 246.682 509.488C246.302 510.138 245.782 510.643 245.122 511.003C244.472 511.353 243.752 511.528 242.962 511.528ZM242.962 510.043C243.402 510.043 243.812 509.938 244.192 509.728C244.582 509.518 244.897 509.203 245.137 508.783C245.377 508.363 245.497 507.853 245.497 507.253C245.497 506.653 245.382 506.148 245.152 505.738C244.922 505.318 244.617 505.003 244.237 504.793C243.857 504.583 243.447 504.478 243.007 504.478C242.567 504.478 242.157 504.583 241.777 504.793C241.407 505.003 241.112 505.318 240.892 505.738C240.672 506.148 240.562 506.653 240.562 507.253C240.562 508.143 240.787 508.833 241.237 509.323C241.697 509.803 242.272 510.043 242.962 510.043Z" fill="white" fill-opacity="0.9"/>
<path d="M253.112 502.993C253.762 502.993 254.342 503.128 254.852 503.398C255.372 503.668 255.777 504.068 256.067 504.598C256.357 505.128 256.502 505.768 256.502 506.518V511.393H254.807V506.773C254.807 506.033 254.622 505.468 254.252 505.078C253.882 504.678 253.377 504.478 252.737 504.478C252.097 504.478 251.587 504.678 251.207 505.078C250.837 505.468 250.652 506.033 250.652 506.773V511.393H248.942V503.128H250.652V504.073C250.932 503.733 251.287 503.468 251.717 503.278C252.157 503.088 252.622 502.993 253.112 502.993Z" fill="white" fill-opacity="0.9"/>
<path d="M258.113 507.223C258.113 506.393 258.283 505.658 258.623 505.018C258.973 504.378 259.443 503.883 260.033 503.533C260.633 503.173 261.293 502.993 262.013 502.993C262.663 502.993 263.228 503.123 263.708 503.383C264.198 503.633 264.588 503.948 264.878 504.328V503.128H266.603V511.393H264.878V510.163C264.588 510.553 264.193 510.878 263.693 511.138C263.193 511.398 262.623 511.528 261.983 511.528C261.273 511.528 260.623 511.348 260.033 510.988C259.443 510.618 258.973 510.108 258.623 509.458C258.283 508.798 258.113 508.053 258.113 507.223ZM264.878 507.253C264.878 506.683 264.758 506.188 264.518 505.768C264.288 505.348 263.983 505.028 263.603 504.808C263.223 504.588 262.813 504.478 262.373 504.478C261.933 504.478 261.523 504.588 261.143 504.808C260.763 505.018 260.453 505.333 260.213 505.753C259.983 506.163 259.868 506.653 259.868 507.223C259.868 507.793 259.983 508.293 260.213 508.723C260.453 509.153 260.763 509.483 261.143 509.713C261.533 509.933 261.943 510.043 262.373 510.043C262.813 510.043 263.223 509.933 263.603 509.713C263.983 509.493 264.288 509.173 264.518 508.753C264.758 508.323 264.878 507.823 264.878 507.253Z" fill="white" fill-opacity="0.9"/>
<path d="M270.559 500.293V511.393H268.849V500.293H270.559Z" fill="white" fill-opacity="0.9"/>
<path d="M280.031 502.993C280.671 502.993 281.236 503.123 281.726 503.383C282.226 503.633 282.616 503.948 282.896 504.328V503.128H284.621V511.528C284.621 512.288 284.461 512.963 284.141 513.553C283.821 514.153 283.356 514.623 282.746 514.963C282.146 515.303 281.426 515.473 280.586 515.473C279.466 515.473 278.536 515.208 277.796 514.678C277.056 514.158 276.636 513.448 276.536 512.548H278.231C278.361 512.978 278.636 513.323 279.056 513.583C279.486 513.853 279.996 513.988 280.586 513.988C281.276 513.988 281.831 513.778 282.251 513.358C282.681 512.938 282.896 512.328 282.896 511.528V510.148C282.606 510.538 282.211 510.868 281.711 511.138C281.221 511.398 280.661 511.528 280.031 511.528C279.311 511.528 278.651 511.348 278.051 510.988C277.461 510.618 276.991 510.108 276.641 509.458C276.301 508.798 276.131 508.053 276.131 507.223C276.131 506.393 276.301 505.658 276.641 505.018C276.991 504.378 277.461 503.883 278.051 503.533C278.651 503.173 279.311 502.993 280.031 502.993ZM282.896 507.253C282.896 506.683 282.776 506.188 282.536 505.768C282.306 505.348 282.001 505.028 281.621 504.808C281.241 504.588 280.831 504.478 280.391 504.478C279.951 504.478 279.541 504.588 279.161 504.808C278.781 505.018 278.471 505.333 278.231 505.753C278.001 506.163 277.886 506.653 277.886 507.223C277.886 507.793 278.001 508.293 278.231 508.723C278.471 509.153 278.781 509.483 279.161 509.713C279.551 509.933 279.961 510.043 280.391 510.043C280.831 510.043 281.241 509.933 281.621 509.713C282.001 509.493 282.306 509.173 282.536 508.753C282.776 508.323 282.896 507.823 282.896 507.253Z" fill="white" fill-opacity="0.9"/>
<path d="M294.352 503.128V511.393H292.642V510.418C292.372 510.758 292.017 511.028 291.577 511.228C291.147 511.418 290.687 511.513 290.197 511.513C289.547 511.513 288.962 511.378 288.442 511.108C287.932 510.838 287.527 510.438 287.227 509.908C286.937 509.378 286.792 508.738 286.792 507.988V503.128H288.487V507.733C288.487 508.473 288.672 509.043 289.042 509.443C289.412 509.833 289.917 510.028 290.557 510.028C291.197 510.028 291.702 509.833 292.072 509.443C292.452 509.043 292.642 508.473 292.642 507.733V503.128H294.352Z" fill="white" fill-opacity="0.9"/>
<path d="M297.478 502.033C297.168 502.033 296.908 501.928 296.698 501.718C296.488 501.508 296.383 501.248 296.383 500.938C296.383 500.628 296.488 500.368 296.698 500.158C296.908 499.948 297.168 499.843 297.478 499.843C297.778 499.843 298.033 499.948 298.243 500.158C298.453 500.368 298.558 500.628 298.558 500.938C298.558 501.248 298.453 501.508 298.243 501.718C298.033 501.928 297.778 502.033 297.478 502.033ZM298.318 503.128V511.393H296.608V503.128H298.318Z" fill="white" fill-opacity="0.9"/>
<path d="M299.993 507.223C299.993 506.393 300.163 505.658 300.503 505.018C300.853 504.378 301.323 503.883 301.913 503.533C302.513 503.173 303.178 502.993 303.908 502.993C304.448 502.993 304.978 503.113 305.498 503.353C306.028 503.583 306.448 503.893 306.758 504.283V500.293H308.483V511.393H306.758V510.148C306.478 510.548 306.088 510.878 305.588 511.138C305.098 511.398 304.533 511.528 303.893 511.528C303.173 511.528 302.513 511.348 301.913 510.988C301.323 510.618 300.853 510.108 300.503 509.458C300.163 508.798 299.993 508.053 299.993 507.223ZM306.758 507.253C306.758 506.683 306.638 506.188 306.398 505.768C306.168 505.348 305.863 505.028 305.483 504.808C305.103 504.588 304.693 504.478 304.253 504.478C303.813 504.478 303.403 504.588 303.023 504.808C302.643 505.018 302.333 505.333 302.093 505.753C301.863 506.163 301.748 506.653 301.748 507.223C301.748 507.793 301.863 508.293 302.093 508.723C302.333 509.153 302.643 509.483 303.023 509.713C303.413 509.933 303.823 510.043 304.253 510.043C304.693 510.043 305.103 509.933 305.483 509.713C305.863 509.493 306.168 509.173 306.398 508.753C306.638 508.323 306.758 507.823 306.758 507.253Z" fill="white" fill-opacity="0.9"/>
<path d="M318.304 507.058C318.304 507.368 318.284 507.648 318.244 507.898H311.929C311.979 508.558 312.224 509.088 312.664 509.488C313.104 509.888 313.644 510.088 314.284 510.088C315.204 510.088 315.854 509.703 316.234 508.933H318.079C317.829 509.693 317.374 510.318 316.714 510.808C316.064 511.288 315.254 511.528 314.284 511.528C313.494 511.528 312.784 511.353 312.154 511.003C311.534 510.643 311.044 510.143 310.684 509.503C310.334 508.853 310.159 508.103 310.159 507.253C310.159 506.403 310.329 505.658 310.669 505.018C311.019 504.368 311.504 503.868 312.124 503.518C312.754 503.168 313.474 502.993 314.284 502.993C315.064 502.993 315.759 503.163 316.369 503.503C316.979 503.843 317.454 504.323 317.794 504.943C318.134 505.553 318.304 506.258 318.304 507.058ZM316.519 506.518C316.509 505.888 316.284 505.383 315.844 505.003C315.404 504.623 314.859 504.433 314.209 504.433C313.619 504.433 313.114 504.623 312.694 505.003C312.274 505.373 312.024 505.878 311.944 506.518H316.519Z" fill="white" fill-opacity="0.9"/>
<path d="M321.697 504.328C321.947 503.908 322.277 503.583 322.687 503.353C323.107 503.113 323.602 502.993 324.172 502.993V504.763H323.737C323.067 504.763 322.557 504.933 322.207 505.273C321.867 505.613 321.697 506.203 321.697 507.043V511.393H319.987V503.128H321.697V504.328Z" fill="white" fill-opacity="0.9"/>
<path d="M327.619 509.338L325.804 513.478H324.694L325.759 509.338H327.619Z" fill="white" fill-opacity="0.9"/>
<path d="M332.439 507.223C332.439 506.393 332.609 505.658 332.949 505.018C333.299 504.378 333.769 503.883 334.359 503.533C334.959 503.173 335.619 502.993 336.339 502.993C336.989 502.993 337.554 503.123 338.034 503.383C338.524 503.633 338.914 503.948 339.204 504.328V503.128H340.929V511.393H339.204V510.163C338.914 510.553 338.519 510.878 338.019 511.138C337.519 511.398 336.949 511.528 336.309 511.528C335.599 511.528 334.949 511.348 334.359 510.988C333.769 510.618 333.299 510.108 332.949 509.458C332.609 508.798 332.439 508.053 332.439 507.223ZM339.204 507.253C339.204 506.683 339.084 506.188 338.844 505.768C338.614 505.348 338.309 505.028 337.929 504.808C337.549 504.588 337.139 504.478 336.699 504.478C336.259 504.478 335.849 504.588 335.469 504.808C335.089 505.018 334.779 505.333 334.539 505.753C334.309 506.163 334.194 506.653 334.194 507.223C334.194 507.793 334.309 508.293 334.539 508.723C334.779 509.153 335.089 509.483 335.469 509.713C335.859 509.933 336.269 510.043 336.699 510.043C337.139 510.043 337.549 509.933 337.929 509.713C338.309 509.493 338.614 509.173 338.844 508.753C339.084 508.323 339.204 507.823 339.204 507.253Z" fill="white" fill-opacity="0.9"/>
<path d="M346.175 511.528C345.525 511.528 344.94 511.413 344.42 511.183C343.91 510.943 343.505 510.623 343.205 510.223C342.905 509.813 342.745 509.358 342.725 508.858H344.495C344.525 509.208 344.69 509.503 344.99 509.743C345.3 509.973 345.685 510.088 346.145 510.088C346.625 510.088 346.995 509.998 347.255 509.818C347.525 509.628 347.66 509.388 347.66 509.098C347.66 508.788 347.51 508.558 347.21 508.408C346.92 508.258 346.455 508.093 345.815 507.913C345.195 507.743 344.69 507.578 344.3 507.418C343.91 507.258 343.57 507.013 343.28 506.683C343 506.353 342.86 505.918 342.86 505.378C342.86 504.938 342.99 504.538 343.25 504.178C343.51 503.808 343.88 503.518 344.36 503.308C344.85 503.098 345.41 502.993 346.04 502.993C346.98 502.993 347.735 503.233 348.305 503.713C348.885 504.183 349.195 504.828 349.235 505.648H347.525C347.495 505.278 347.345 504.983 347.075 504.763C346.805 504.543 346.44 504.433 345.98 504.433C345.53 504.433 345.185 504.518 344.945 504.688C344.705 504.858 344.585 505.083 344.585 505.363C344.585 505.583 344.665 505.768 344.825 505.918C344.985 506.068 345.18 506.188 345.41 506.278C345.64 506.358 345.98 506.463 346.43 506.593C347.03 506.753 347.52 506.918 347.9 507.088C348.29 507.248 348.625 507.488 348.905 507.808C349.185 508.128 349.33 508.553 349.34 509.083C349.34 509.553 349.21 509.973 348.95 510.343C348.69 510.713 348.32 511.003 347.84 511.213C347.37 511.423 346.815 511.528 346.175 511.528Z" fill="white" fill-opacity="0.9"/>
<path d="M354.458 507.268L358.268 511.393H355.958L352.898 507.838V511.393H351.188V500.293H352.898V506.743L355.898 503.128H358.268L354.458 507.268Z" fill="white" fill-opacity="0.9"/>
<path d="M362.82 507.223C362.82 506.393 362.99 505.658 363.33 505.018C363.68 504.378 364.15 503.883 364.74 503.533C365.34 503.173 366 502.993 366.72 502.993C367.37 502.993 367.935 503.123 368.415 503.383C368.905 503.633 369.295 503.948 369.585 504.328V503.128H371.31V511.393H369.585V510.163C369.295 510.553 368.9 510.878 368.4 511.138C367.9 511.398 367.33 511.528 366.69 511.528C365.98 511.528 365.33 511.348 364.74 510.988C364.15 510.618 363.68 510.108 363.33 509.458C362.99 508.798 362.82 508.053 362.82 507.223ZM369.585 507.253C369.585 506.683 369.465 506.188 369.225 505.768C368.995 505.348 368.69 505.028 368.31 504.808C367.93 504.588 367.52 504.478 367.08 504.478C366.64 504.478 366.23 504.588 365.85 504.808C365.47 505.018 365.16 505.333 364.92 505.753C364.69 506.163 364.575 506.653 364.575 507.223C364.575 507.793 364.69 508.293 364.92 508.723C365.16 509.153 365.47 509.483 365.85 509.713C366.24 509.933 366.65 510.043 367.08 510.043C367.52 510.043 367.93 509.933 368.31 509.713C368.69 509.493 368.995 509.173 369.225 508.753C369.465 508.323 369.585 507.823 369.585 507.253Z" fill="white" fill-opacity="0.9"/>
<path d="M377.726 502.993C378.376 502.993 378.956 503.128 379.466 503.398C379.986 503.668 380.391 504.068 380.681 504.598C380.971 505.128 381.116 505.768 381.116 506.518V511.393H379.421V506.773C379.421 506.033 379.236 505.468 378.866 505.078C378.496 504.678 377.991 504.478 377.351 504.478C376.711 504.478 376.201 504.678 375.821 505.078C375.451 505.468 375.266 506.033 375.266 506.773V511.393H373.556V503.128H375.266V504.073C375.546 503.733 375.901 503.468 376.331 503.278C376.771 503.088 377.236 502.993 377.726 502.993Z" fill="white" fill-opacity="0.9"/>
<path d="M390.737 503.128L385.667 515.278H383.897L385.577 511.258L382.322 503.128H384.227L386.552 509.428L388.967 503.128H390.737Z" fill="white" fill-opacity="0.9"/>
<path d="M394.023 504.523V509.098C394.023 509.408 394.093 509.633 394.233 509.773C394.383 509.903 394.633 509.968 394.983 509.968H396.033V511.393H394.683C393.913 511.393 393.323 511.213 392.913 510.853C392.503 510.493 392.298 509.908 392.298 509.098V504.523H391.323V503.128H392.298V501.073H394.023V503.128H396.033V504.523H394.023Z" fill="white" fill-opacity="0.9"/>
<path d="M401.884 502.993C402.514 502.993 403.074 503.128 403.564 503.398C404.064 503.668 404.454 504.068 404.734 504.598C405.024 505.128 405.169 505.768 405.169 506.518V511.393H403.474V506.773C403.474 506.033 403.289 505.468 402.919 505.078C402.549 504.678 402.044 504.478 401.404 504.478C400.764 504.478 400.254 504.678 399.874 505.078C399.504 505.468 399.319 506.033 399.319 506.773V511.393H397.609V500.293H399.319V504.088C399.609 503.738 399.974 503.468 400.414 503.278C400.864 503.088 401.354 502.993 401.884 502.993Z" fill="white" fill-opacity="0.9"/>
<path d="M408.22 502.033C407.91 502.033 407.65 501.928 407.44 501.718C407.23 501.508 407.125 501.248 407.125 500.938C407.125 500.628 407.23 500.368 407.44 500.158C407.65 499.948 407.91 499.843 408.22 499.843C408.52 499.843 408.775 499.948 408.985 500.158C409.195 500.368 409.3 500.628 409.3 500.938C409.3 501.248 409.195 501.508 408.985 501.718C408.775 501.928 408.52 502.033 408.22 502.033ZM409.06 503.128V511.393H407.35V503.128H409.06Z" fill="white" fill-opacity="0.9"/>
<path d="M415.475 502.993C416.125 502.993 416.705 503.128 417.215 503.398C417.735 503.668 418.14 504.068 418.43 504.598C418.72 505.128 418.865 505.768 418.865 506.518V511.393H417.17V506.773C417.17 506.033 416.985 505.468 416.615 505.078C416.245 504.678 415.74 504.478 415.1 504.478C414.46 504.478 413.95 504.678 413.57 505.078C413.2 505.468 413.015 506.033 413.015 506.773V511.393H411.305V503.128H413.015V504.073C413.295 503.733 413.65 503.468 414.08 503.278C414.52 503.088 414.985 502.993 415.475 502.993Z" fill="white" fill-opacity="0.9"/>
<path d="M424.376 502.993C425.016 502.993 425.581 503.123 426.071 503.383C426.571 503.633 426.961 503.948 427.241 504.328V503.128H428.966V511.528C428.966 512.288 428.806 512.963 428.486 513.553C428.166 514.153 427.701 514.623 427.091 514.963C426.491 515.303 425.771 515.473 424.931 515.473C423.811 515.473 422.881 515.208 422.141 514.678C421.401 514.158 420.981 513.448 420.881 512.548H422.576C422.706 512.978 422.981 513.323 423.401 513.583C423.831 513.853 424.341 513.988 424.931 513.988C425.621 513.988 426.176 513.778 426.596 513.358C427.026 512.938 427.241 512.328 427.241 511.528V510.148C426.951 510.538 426.556 510.868 426.056 511.138C425.566 511.398 425.006 511.528 424.376 511.528C423.656 511.528 422.996 511.348 422.396 510.988C421.806 510.618 421.336 510.108 420.986 509.458C420.646 508.798 420.476 508.053 420.476 507.223C420.476 506.393 420.646 505.658 420.986 505.018C421.336 504.378 421.806 503.883 422.396 503.533C422.996 503.173 423.656 502.993 424.376 502.993ZM427.241 507.253C427.241 506.683 427.121 506.188 426.881 505.768C426.651 505.348 426.346 505.028 425.966 504.808C425.586 504.588 425.176 504.478 424.736 504.478C424.296 504.478 423.886 504.588 423.506 504.808C423.126 505.018 422.816 505.333 422.576 505.753C422.346 506.163 422.231 506.653 422.231 507.223C422.231 507.793 422.346 508.293 422.576 508.723C422.816 509.153 423.126 509.483 423.506 509.713C423.896 509.933 424.306 510.043 424.736 510.043C425.176 510.043 425.586 509.933 425.966 509.713C426.346 509.493 426.651 509.173 426.881 508.753C427.121 508.323 427.241 507.823 427.241 507.253Z" fill="white" fill-opacity="0.9"/>
<path d="M267.598 530.223C267.598 529.393 267.768 528.658 268.108 528.018C268.458 527.378 268.928 526.883 269.518 526.533C270.118 526.173 270.778 525.993 271.498 525.993C272.148 525.993 272.713 526.123 273.193 526.383C273.683 526.633 274.073 526.948 274.363 527.328V526.128H276.088V534.393H274.363V533.163C274.073 533.553 273.678 533.878 273.178 534.138C272.678 534.398 272.108 534.528 271.468 534.528C270.758 534.528 270.108 534.348 269.518 533.988C268.928 533.618 268.458 533.108 268.108 532.458C267.768 531.798 267.598 531.053 267.598 530.223ZM274.363 530.253C274.363 529.683 274.243 529.188 274.003 528.768C273.773 528.348 273.468 528.028 273.088 527.808C272.708 527.588 272.298 527.478 271.858 527.478C271.418 527.478 271.008 527.588 270.628 527.808C270.248 528.018 269.938 528.333 269.698 528.753C269.468 529.163 269.353 529.653 269.353 530.223C269.353 530.793 269.468 531.293 269.698 531.723C269.938 532.153 270.248 532.483 270.628 532.713C271.018 532.933 271.428 533.043 271.858 533.043C272.298 533.043 272.708 532.933 273.088 532.713C273.468 532.493 273.773 532.173 274.003 531.753C274.243 531.323 274.363 530.823 274.363 530.253Z" fill="white" fill-opacity="0.9"/>
<path d="M282.504 525.993C283.154 525.993 283.734 526.128 284.244 526.398C284.764 526.668 285.169 527.068 285.459 527.598C285.749 528.128 285.894 528.768 285.894 529.518V534.393H284.199V529.773C284.199 529.033 284.014 528.468 283.644 528.078C283.274 527.678 282.769 527.478 282.129 527.478C281.489 527.478 280.979 527.678 280.599 528.078C280.229 528.468 280.044 529.033 280.044 529.773V534.393H278.334V526.128H280.044V527.073C280.324 526.733 280.679 526.468 281.109 526.278C281.549 526.088 282.014 525.993 282.504 525.993Z" fill="white" fill-opacity="0.9"/>
<path d="M295.515 526.128L290.445 538.278H288.675L290.355 534.258L287.1 526.128H289.005L291.33 532.428L293.745 526.128H295.515Z" fill="white" fill-opacity="0.9"/>
<path d="M302.697 527.523V532.098C302.697 532.408 302.767 532.633 302.907 532.773C303.057 532.903 303.307 532.968 303.657 532.968H304.707V534.393H303.357C302.587 534.393 301.997 534.213 301.587 533.853C301.177 533.493 300.972 532.908 300.972 532.098V527.523H299.997V526.128H300.972V524.073H302.697V526.128H304.707V527.523H302.697Z" fill="white" fill-opacity="0.9"/>
<path d="M307.153 525.033C306.843 525.033 306.583 524.928 306.373 524.718C306.163 524.508 306.058 524.248 306.058 523.938C306.058 523.628 306.163 523.368 306.373 523.158C306.583 522.948 306.843 522.843 307.153 522.843C307.453 522.843 307.708 522.948 307.918 523.158C308.128 523.368 308.233 523.628 308.233 523.938C308.233 524.248 308.128 524.508 307.918 524.718C307.708 524.928 307.453 525.033 307.153 525.033ZM307.993 526.128V534.393H306.283V526.128H307.993Z" fill="white" fill-opacity="0.9"/>
<path d="M320.243 525.993C320.893 525.993 321.473 526.128 321.983 526.398C322.503 526.668 322.908 527.068 323.198 527.598C323.498 528.128 323.648 528.768 323.648 529.518V534.393H321.953V529.773C321.953 529.033 321.768 528.468 321.398 528.078C321.028 527.678 320.523 527.478 319.883 527.478C319.243 527.478 318.733 527.678 318.353 528.078C317.983 528.468 317.798 529.033 317.798 529.773V534.393H316.103V529.773C316.103 529.033 315.918 528.468 315.548 528.078C315.178 527.678 314.673 527.478 314.033 527.478C313.393 527.478 312.883 527.678 312.503 528.078C312.133 528.468 311.948 529.033 311.948 529.773V534.393H310.238V526.128H311.948V527.073C312.228 526.733 312.583 526.468 313.013 526.278C313.443 526.088 313.903 525.993 314.393 525.993C315.053 525.993 315.643 526.133 316.163 526.413C316.683 526.693 317.083 527.098 317.363 527.628C317.613 527.128 318.003 526.733 318.533 526.443C319.063 526.143 319.633 525.993 320.243 525.993Z" fill="white" fill-opacity="0.9"/>
<path d="M333.399 530.058C333.399 530.368 333.379 530.648 333.339 530.898H327.024C327.074 531.558 327.319 532.088 327.759 532.488C328.199 532.888 328.739 533.088 329.379 533.088C330.299 533.088 330.949 532.703 331.329 531.933H333.174C332.924 532.693 332.469 533.318 331.809 533.808C331.159 534.288 330.349 534.528 329.379 534.528C328.589 534.528 327.879 534.353 327.249 534.003C326.629 533.643 326.139 533.143 325.779 532.503C325.429 531.853 325.254 531.103 325.254 530.253C325.254 529.403 325.424 528.658 325.764 528.018C326.114 527.368 326.599 526.868 327.219 526.518C327.849 526.168 328.569 525.993 329.379 525.993C330.159 525.993 330.854 526.163 331.464 526.503C332.074 526.843 332.549 527.323 332.889 527.943C333.229 528.553 333.399 529.258 333.399 530.058ZM331.614 529.518C331.604 528.888 331.379 528.383 330.939 528.003C330.499 527.623 329.954 527.433 329.304 527.433C328.714 527.433 328.209 527.623 327.789 528.003C327.369 528.373 327.119 528.878 327.039 529.518H331.614Z" fill="white" fill-opacity="0.9"/>
</g>
<defs>
<filter id="filter0_f_535_408" x="227.591" y="415.923" width="148.105" height="45.0322" filterUnits="userSpaceOnUse" color-interpolation-filters="sRGB">
<feFlood flood-opacity="0" result="BackgroundImageFix"/>
<feBlend mode="normal" in="SourceGraphic" in2="BackgroundImageFix" result="shape"/>
<feGaussianBlur stdDeviation="5" result="effect1_foregroundBlur_535_408"/>
</filter>
<radialGradient id="paint0_radial_535_408" cx="0" cy="0" r="1" gradientUnits="userSpaceOnUse" gradientTransform="translate(176.345 297.079) rotate(180) scale(505.675 439.938)">
<stop stop-color="white"/>
<stop offset="0.09" stop-color="white" stop-opacity="0.97"/>
<stop offset="0.22" stop-color="white" stop-opacity="0.9"/>
<stop offset="0.37" stop-color="white" stop-opacity="0.77"/>
<stop offset="0.54" stop-color="white" stop-opacity="0.59"/>
<stop offset="0.73" stop-color="white" stop-opacity="0.37"/>
<stop offset="0.93" stop-color="white" stop-opacity="0.1"/>
<stop offset="1" stop-color="#C7F431" stop-opacity="0"/>
</radialGradient>
<linearGradient id="paint1_linear_535_408" x1="301.787" y1="405.931" x2="301.787" y2="393.916" gradientUnits="userSpaceOnUse">
<stop stop-color="#D6D6D6"/>
<stop offset="1" stop-color="#EFEFEF"/>
</linearGradient>
<linearGradient id="paint2_linear_535_408" x1="217.883" y1="252.558" x2="406.36" y2="376.246" gradientUnits="userSpaceOnUse">
<stop stop-color="#F0F0F0"/>
<stop offset="0.304048" stop-color="#EDEDED"/>
<stop offset="1" stop-color="#D3D3D3"/>
</linearGradient>
<linearGradient id="paint3_linear_535_408" x1="392.213" y1="342.379" x2="202.263" y2="301.15" gradientUnits="userSpaceOnUse">
<stop stop-color="#F4F4F4"/>
<stop offset="1" stop-color="#C7C7C7"/>
</linearGradient>
<linearGradient id="paint4_linear_535_408" x1="245.558" y1="262.129" x2="221.262" y2="283.48" gradientUnits="userSpaceOnUse">
<stop stop-color="#E4E4E4"/>
<stop offset="0.489583" stop-color="#E4E4E4" stop-opacity="0.65625"/>
<stop offset="1" stop-color="#E4E4E4" stop-opacity="0"/>
</linearGradient>
</defs>
</svg>
