<svg width="23" height="23" viewBox="0 0 23 23" fill="none" xmlns="http://www.w3.org/2000/svg">
<mask id="mask0_405_346" style="mask-type:alpha" maskUnits="userSpaceOnUse" x="0" y="0" width="23" height="23">
<rect width="23" height="23" fill="#D9D9D9"/>
</mask>
<g mask="url(#mask0_405_346)">
<path opacity="0.4" d="M17.8506 19.643L5.76266 19.6854C5.20049 19.6888 4.64315 19.5814 4.12253 19.3693C3.60191 19.1571 3.12821 18.8444 2.72852 18.4491C2.32884 18.0538 2.01101 17.5835 1.79322 17.0652C1.57542 16.5469 1.46193 15.9908 1.45924 15.4286L1.43225 7.7211L22.0971 7.64874L22.1241 15.3563C22.1254 15.9185 22.0158 16.4754 21.8016 16.9952C21.5874 17.5149 21.2729 17.9874 20.876 18.3856C20.4791 18.7837 20.0076 19.0997 19.4885 19.3155C18.9694 19.5312 18.4128 19.6425 17.8506 19.643Z" fill="white"/>
<path d="M22.0975 7.64801L1.42423 7.71204L1.4189 6.1906C1.41766 5.62842 1.52725 5.07151 1.74141 4.55172C1.95557 4.03192 2.2701 3.55945 2.66701 3.16131C3.06391 2.76318 3.53541 2.44719 4.05454 2.23142C4.57366 2.01565 5.13023 1.90433 5.69241 1.90383L17.7837 1.86484C18.3459 1.8614 18.9032 1.96882 19.4238 2.18095C19.9445 2.39308 20.4182 2.70576 20.8179 3.10111C21.2175 3.49645 21.5354 3.96671 21.7532 4.48499C21.971 5.00327 22.0844 5.5594 22.0871 6.12157L22.0975 7.64801Z" fill="white"/>
<path d="M8.14354 16.502L5.88645 16.5099C5.77557 16.5103 5.66571 16.4888 5.56312 16.4468C5.46053 16.4047 5.36724 16.3428 5.28856 16.2647C5.12967 16.1069 5.03996 15.8925 5.03918 15.6685C5.03839 15.4446 5.1266 15.2296 5.28438 15.0707C5.44217 14.9118 5.65661 14.8221 5.88054 14.8213L8.13763 14.8134C8.36155 14.8126 8.57662 14.9008 8.73551 15.0586C8.89441 15.2164 8.98412 15.4308 8.9849 15.6547C8.98568 15.8787 8.89748 16.0937 8.73969 16.2526C8.58191 16.4115 8.36746 16.5012 8.14354 16.502Z" fill="white"/>
<path d="M15.4681 16.477L10.9706 16.4927C10.7467 16.4935 10.5316 16.4053 10.3727 16.2475C10.2138 16.0898 10.1241 15.8753 10.1233 15.6514C10.1225 15.4275 10.2108 15.2124 10.3685 15.0535C10.5263 14.8946 10.7408 14.8049 10.9647 14.8041L15.4621 14.7884C15.5731 14.7876 15.6831 14.8089 15.7859 14.8508C15.8886 14.8928 15.982 14.9546 16.0608 15.0328C16.1395 15.111 16.202 15.204 16.2447 15.3064C16.2874 15.4089 16.3094 15.5188 16.3094 15.6297C16.3051 15.8521 16.2153 16.0642 16.0586 16.222C15.9019 16.3798 15.6904 16.4712 15.4681 16.477Z" fill="white"/>
</g>
</svg>
