<svg width="21" height="21" viewBox="0 0 21 21" fill="none" xmlns="http://www.w3.org/2000/svg">
<path d="M18.9957 7.89251H13.612C13.6289 7.70368 13.6385 7.51244 13.6385 7.31878C13.6383 6.20979 13.3463 5.12036 12.7918 4.15994C12.2374 3.19952 11.4399 2.40191 10.4796 1.84725C9.51924 1.29258 8.42987 1.00038 7.32087 1C6.21187 0.999619 5.1223 1.29107 4.16159 1.84507C4.11806 1.87024 4.07992 1.90374 4.04933 1.94364C4.01875 1.98355 3.99633 2.0291 3.98334 2.07767C3.97036 2.12624 3.96707 2.1769 3.97367 2.22675C3.98026 2.27659 3.99661 2.32465 4.02178 2.36818C4.04694 2.41171 4.08044 2.44985 4.12034 2.48044C4.16025 2.51102 4.2058 2.53344 4.25437 2.54643C4.30294 2.55941 4.3536 2.5627 4.40345 2.5561C4.45329 2.54951 4.50135 2.53316 4.54488 2.50799C5.28272 2.08311 6.10837 1.83358 6.95802 1.77869C7.80768 1.72379 8.65858 1.865 9.44496 2.1914C10.2313 2.5178 10.9321 3.02065 11.4932 3.66108C12.0542 4.30152 12.4605 5.06238 12.6806 5.88487C12.9007 6.70735 12.9287 7.56944 12.7625 8.40448C12.5963 9.23952 12.2403 10.0252 11.722 10.7007C11.2037 11.3762 10.5371 11.9235 9.77357 12.3003C9.01005 12.6771 8.17012 12.8733 7.3187 12.8737C6.05099 12.8781 4.82081 12.4437 3.83696 11.6442C3.78815 11.605 3.73047 11.5784 3.66898 11.5666C3.60749 11.5548 3.54405 11.5583 3.48421 11.5767L2.46773 11.8427L2.8695 10.9677C2.89771 10.906 2.909 10.8379 2.90222 10.7704C2.89545 10.7029 2.87084 10.6384 2.83093 10.5836C2.19848 9.71462 1.83164 8.68088 1.77488 7.60765C1.71811 6.53441 1.97386 5.46774 2.51112 4.53693C2.53836 4.49333 2.55655 4.4447 2.5646 4.39393C2.57266 4.34316 2.57042 4.29128 2.55802 4.24139C2.54562 4.1915 2.52331 4.14462 2.49242 4.10353C2.46153 4.06244 2.42269 4.02798 2.3782 4.00221C2.33372 3.97644 2.28451 3.95988 2.2335 3.95351C2.18249 3.94715 2.13072 3.95111 2.08127 3.96517C2.03182 3.97922 1.9857 4.00308 1.94566 4.03532C1.90562 4.06756 1.87248 4.10753 1.8482 4.15284C1.2557 5.1782 0.963092 6.34937 1.00372 7.53292C1.04435 8.71647 1.41659 9.86481 2.07801 10.8471L1.43518 12.2557C1.40513 12.3216 1.39438 12.3946 1.40418 12.4663C1.41398 12.538 1.44393 12.6055 1.49055 12.6609C1.53717 12.7162 1.59855 12.7573 1.66755 12.7791C1.73655 12.801 1.81034 12.8029 1.88034 12.7845L3.50831 12.3586C4.17137 12.8595 4.92675 13.2247 5.73118 13.4332C6.53561 13.6416 7.37327 13.6893 8.19616 13.5735V16.9259C8.19616 17.3521 8.36548 17.7609 8.66686 18.0623C8.96825 18.3637 9.37702 18.533 9.80324 18.533H15.2231L17.6442 20.5137C17.7002 20.5597 17.7682 20.5888 17.8402 20.5977C17.9122 20.6065 17.9852 20.5947 18.0508 20.5636C18.1163 20.5326 18.1716 20.4835 18.2103 20.4221C18.249 20.3608 18.2695 20.2897 18.2693 20.2172V18.5298H18.9965C19.4228 18.5298 19.8315 18.3604 20.1329 18.0591C20.4343 17.7577 20.6036 17.3489 20.6036 16.9227V9.50039C20.6036 9.07417 20.4343 8.6654 20.1329 8.36402C19.8315 8.06263 19.4228 7.89332 18.9965 7.89332L18.9957 7.89251ZM19.8378 16.9283C19.8376 17.1516 19.7488 17.3657 19.591 17.5235C19.4331 17.6814 19.219 17.7702 18.9957 17.7704H17.8852C17.7838 17.7704 17.6865 17.8107 17.6148 17.8824C17.5431 17.9542 17.5028 18.0515 17.5028 18.1529V19.4121L15.612 17.8652C15.5076 17.7704 15.4168 17.7704 15.2103 17.7704H9.80645C9.58318 17.7702 9.36911 17.6814 9.21123 17.5235C9.05335 17.3657 8.96456 17.1516 8.96435 16.9283V13.4193C10.0823 13.1154 11.0956 12.5109 11.8942 11.6715C12.6928 10.8322 13.246 9.79001 13.4939 8.65829H18.9957C19.219 8.6585 19.4331 8.74729 19.591 8.90517C19.7488 9.06305 19.8376 9.27712 19.8378 9.50039V16.9283Z" fill="white" stroke="white" stroke-width="0.3"/>
<path d="M16.3063 14.348C16.3849 14.3112 16.4487 14.2486 16.4871 14.1707C16.5255 14.0928 16.5362 14.0042 16.5175 13.9193C16.4988 13.8345 16.4518 13.7586 16.3842 13.7041C16.3166 13.6495 16.2324 13.6196 16.1456 13.6192H15.9849L14.7498 10.8068C14.7201 10.7385 14.6711 10.6804 14.6088 10.6395C14.5465 10.5987 14.4736 10.5769 14.3991 10.5769C14.3246 10.5769 14.2517 10.5987 14.1894 10.6395C14.1271 10.6804 14.0781 10.7385 14.0483 10.8068L12.8133 13.6192H12.6526C12.5657 13.6196 12.4816 13.6495 12.414 13.7041C12.3464 13.7586 12.2994 13.8345 12.2807 13.9193C12.262 14.0042 12.2727 14.0928 12.3111 14.1707C12.3495 14.2486 12.4133 14.3112 12.4919 14.348L12.0323 15.3926C12.012 15.4387 12.0011 15.4883 12.0001 15.5386C11.999 15.5889 12.0079 15.6389 12.0262 15.6857C12.0445 15.7326 12.0718 15.7754 12.1066 15.8117C12.1415 15.848 12.1831 15.8771 12.2291 15.8973C12.2752 15.9175 12.3248 15.9284 12.3751 15.9294C12.4254 15.9305 12.4753 15.9216 12.5222 15.9033C12.5691 15.885 12.6119 15.8577 12.6482 15.8229C12.6845 15.7881 12.7136 15.7465 12.7338 15.7004L13.3123 14.3818H15.4818L16.0604 15.7004C16.0806 15.7465 16.1097 15.7881 16.146 15.8229C16.1823 15.8577 16.2251 15.8851 16.272 15.9033C16.3188 15.9216 16.3688 15.9305 16.4191 15.9294C16.4694 15.9284 16.519 15.9175 16.565 15.8973C16.6111 15.8771 16.6527 15.848 16.6876 15.8117C16.7224 15.7754 16.7497 15.7326 16.768 15.6857C16.7863 15.6389 16.7951 15.5889 16.7941 15.5386C16.793 15.4883 16.7821 15.4387 16.7619 15.3926L16.3063 14.348ZM13.6546 13.6192L14.4035 11.9117L15.1524 13.6192H13.6546Z" fill="white" stroke="white" stroke-width="0.3"/>
<path d="M5.03401 9.649C4.98778 9.67197 4.94667 9.70405 4.91314 9.7433C4.87961 9.78256 4.85435 9.82818 4.83889 9.87743C4.82343 9.92668 4.81807 9.97856 4.82315 10.0299C4.82822 10.0813 4.84363 10.1311 4.86843 10.1764C4.89324 10.2217 4.92693 10.2615 4.9675 10.2934C5.00806 10.3253 5.05465 10.3488 5.10449 10.3622C5.15432 10.3757 5.20636 10.379 5.25749 10.3719C5.30862 10.3647 5.35779 10.3474 5.40203 10.3208C6.24095 9.86068 6.90637 9.13882 7.29678 8.2653C7.68724 9.13879 8.35264 9.86063 9.19153 10.3208C9.23577 10.3474 9.28494 10.3647 9.33607 10.3719C9.3872 10.379 9.43924 10.3757 9.48908 10.3622C9.53891 10.3488 9.58551 10.3253 9.62607 10.2934C9.66663 10.2615 9.70033 10.2217 9.72513 10.1764C9.74994 10.1311 9.76534 10.0813 9.77041 10.0299C9.77549 9.97856 9.77013 9.92668 9.75467 9.87743C9.73921 9.82818 9.71395 9.78256 9.68042 9.7433C9.64689 9.70405 9.60578 9.67197 9.55955 9.649C9.07086 9.38101 8.65063 9.00382 8.33161 8.54681C8.01258 8.0898 7.80336 7.56531 7.72025 7.01419H9.42053C9.52208 7.01419 9.61947 6.97385 9.69127 6.90205C9.76308 6.83024 9.80342 6.73285 9.80342 6.6313C9.80342 6.52976 9.76308 6.43237 9.69127 6.36057C9.61947 6.28876 9.52208 6.24842 9.42053 6.24842H7.67926V4.6534C7.67926 4.55185 7.63893 4.45446 7.56712 4.38265C7.49532 4.31085 7.39793 4.27051 7.29638 4.27051C7.19483 4.27051 7.09744 4.31085 7.02564 4.38265C6.95383 4.45446 6.91349 4.55185 6.91349 4.6534V6.24922H5.53141C5.42986 6.24922 5.33247 6.28956 5.26066 6.36137C5.18886 6.43318 5.14852 6.53056 5.14852 6.63211C5.14852 6.73366 5.18886 6.83104 5.26066 6.90285C5.33247 6.97465 5.42986 7.01499 5.53141 7.01499H6.87331C6.79009 7.56597 6.58082 8.0903 6.2618 8.54716C5.94277 9.00403 5.5226 9.38109 5.03401 9.649Z" fill="white" stroke="white" stroke-width="0.3"/>
</svg>
