<svg width="22" height="22" viewBox="0 0 22 22" fill="none" xmlns="http://www.w3.org/2000/svg">
<path opacity="0.4" d="M15.585 8.25022C15.5223 10.0122 14.7633 11.6773 13.4744 12.8803C12.1855 14.0832 10.472 14.7258 8.70996 14.6669L7.85746 15.6936L7.35329 16.2986C7.25377 16.4179 7.12552 16.51 6.98061 16.5662C6.8357 16.6224 6.67888 16.6408 6.52489 16.6198C6.3709 16.5987 6.2248 16.5388 6.10032 16.4457C5.97584 16.3526 5.87707 16.2295 5.81329 16.0877L4.58496 13.3836C3.74633 12.8134 3.05818 12.0487 2.57929 11.1547C2.10041 10.2608 1.84503 9.26428 1.83496 8.25022C1.89759 6.48827 2.65662 4.82313 3.94551 3.62016C5.23441 2.41719 6.94788 1.77466 8.70996 1.83355C9.99339 1.81284 11.2571 2.15118 12.3585 2.81039C13.4599 3.46961 14.3551 4.42347 14.9433 5.56439C15.3659 6.39656 15.5858 7.31688 15.585 8.25022Z" fill="white"/>
<path d="M20.1683 11.7881C20.1582 12.8022 19.9028 13.7987 19.4239 14.6927C18.945 15.5866 18.2569 16.3513 17.4183 16.9215L16.1899 19.6256C16.1261 19.7674 16.0274 19.8906 15.9029 19.9836C15.7784 20.0767 15.6323 20.1366 15.4783 20.1577C15.3243 20.1787 15.1675 20.1603 15.0226 20.1041C14.8777 20.048 14.7494 19.9558 14.6499 19.8365L13.2933 18.2048C12.2575 18.2166 11.2321 17.9973 10.2917 17.5628C9.35138 17.1283 8.51976 16.4896 7.85742 15.6931L8.70992 14.6665C10.472 14.7254 12.1855 14.0828 13.4744 12.8799C14.7633 11.6769 15.5223 10.0117 15.5849 8.2498C15.5858 7.31645 15.3659 6.39614 14.9433 5.56396C16.39 5.85704 17.6945 6.63223 18.6436 7.76281C19.5927 8.89339 20.1302 10.3125 20.1683 11.7881Z" fill="white"/>
<path d="M11.0033 8.9375H6.41992C6.23796 8.9363 6.06379 8.86348 5.93511 8.73481C5.80644 8.60614 5.73362 8.43197 5.73242 8.25C5.73362 8.06803 5.80644 7.89386 5.93511 7.76519C6.06379 7.63652 6.23796 7.5637 6.41992 7.5625H11.0033C11.1852 7.5637 11.3594 7.63652 11.4881 7.76519C11.6167 7.89386 11.6896 8.06803 11.6908 8.25C11.6896 8.43197 11.6167 8.60614 11.4881 8.73481C11.3594 8.86348 11.1852 8.9363 11.0033 8.9375Z" fill="white"/>
</svg>
