<svg width="27" height="28" viewBox="0 0 27 28" fill="none" xmlns="http://www.w3.org/2000/svg">
<path d="M21 0.247986H6C2.68629 0.247986 0 2.93428 0 6.24799V21.248C0 24.5617 2.68629 27.248 6 27.248H21C24.3137 27.248 27 24.5617 27 21.248V6.24799C27 2.93428 24.3137 0.247986 21 0.247986Z" fill="#C7F431"/>
<path d="M21.4557 8.60399C21.2326 8.37845 20.9292 8.25046 20.6119 8.24802C20.2947 8.24559 19.9893 8.3689 19.7627 8.59099L10.9127 17.337L7.06574 13.354C6.95731 13.2375 6.82678 13.1437 6.68177 13.0781C6.53675 13.0125 6.38013 12.9765 6.22104 12.972C6.06194 12.9675 5.90355 12.9947 5.75507 13.0521C5.6066 13.1094 5.47101 13.1957 5.3562 13.3059C5.2414 13.4161 5.14967 13.5481 5.08635 13.6941C5.02303 13.8401 4.9894 13.9973 4.9874 14.1565C4.9854 14.3156 5.01508 14.4735 5.07471 14.6211C5.13434 14.7687 5.22274 14.9029 5.33474 15.016L5.34074 15.022L10.0317 19.883C10.1429 19.9964 10.2754 20.0866 10.4217 20.1484C10.5679 20.2102 10.725 20.2423 10.8837 20.243H10.8997C11.2144 20.2419 11.5161 20.1173 11.7397 19.896L21.4487 10.296C21.6732 10.0721 21.7999 9.76845 21.8012 9.45143C21.8025 9.1344 21.6783 8.82974 21.4557 8.60399Z" fill="black"/>
</svg>
