<svg width="20" height="20" viewBox="0 0 20 20" fill="none" xmlns="http://www.w3.org/2000/svg">
<path d="M8.33452 16.7804H8.34658C8.42264 16.779 8.49767 16.7625 8.56737 16.732C8.63708 16.7016 8.70009 16.6576 8.7528 16.6028C8.8055 16.5479 8.84688 16.4832 8.87454 16.4123C8.90221 16.3414 8.91563 16.2658 8.91403 16.1897L8.68223 5.13909C8.67883 4.98772 8.61625 4.84372 8.50791 4.73797C8.39957 4.63222 8.2541 4.57315 8.10272 4.57343H8.09066C8.0146 4.57488 7.93956 4.59132 7.86985 4.6218C7.80015 4.65228 7.73713 4.69621 7.68443 4.75108C7.63172 4.80594 7.59035 4.87067 7.56268 4.94154C7.53502 5.01242 7.52161 5.08806 7.52321 5.16413L7.75501 16.2148C7.75864 16.366 7.8213 16.5099 7.92959 16.6156C8.03787 16.7213 8.18321 16.7804 8.33452 16.7804ZM11.7272 16.7804C11.8786 16.7807 12.024 16.7216 12.1324 16.6159C12.2407 16.5101 12.3033 16.3661 12.3067 16.2148L12.5385 5.16413C12.5401 5.08806 12.5267 5.01242 12.499 4.94154C12.4714 4.87067 12.43 4.80594 12.3773 4.75108C12.3246 4.69621 12.2616 4.65228 12.1918 4.6218C12.1221 4.59132 12.0471 4.57488 11.9711 4.57343H11.9618C11.8104 4.57315 11.6649 4.63222 11.5566 4.73797C11.4482 4.84372 11.3857 4.98772 11.3823 5.13909L11.1505 16.1897C11.1489 16.2658 11.1623 16.3414 11.1899 16.4123C11.2176 16.4832 11.259 16.5479 11.3117 16.6028C11.3644 16.6576 11.4274 16.7016 11.4971 16.732C11.5668 16.7625 11.6418 16.779 11.7179 16.7804H11.7272ZM16.2909 4.57436C16.1379 4.56958 15.9891 4.62529 15.8768 4.72943C15.7645 4.83356 15.6978 4.97774 15.691 5.13074L15.2274 18.1343C15.2269 18.3227 15.1518 18.5032 15.0185 18.6363C14.8852 18.7694 14.7046 18.8443 14.5162 18.8446H5.55009C5.45506 18.844 5.36109 18.8245 5.27364 18.7873C5.18619 18.7501 5.10699 18.6959 5.04066 18.6278C4.97433 18.5597 4.92217 18.4792 4.88722 18.3908C4.85227 18.3024 4.83522 18.208 4.83707 18.1129L4.37346 5.13074C4.36805 4.97703 4.3018 4.83177 4.18929 4.7269C4.07679 4.62204 3.92725 4.56617 3.77355 4.57158C3.61986 4.57699 3.4746 4.64324 3.36975 4.75575C3.26489 4.86827 3.20903 5.01783 3.21444 5.17154L3.67805 18.1333C3.67952 18.6291 3.87754 19.104 4.22865 19.4539C4.57977 19.8039 5.05532 20.0002 5.55101 20H14.5172C15.0095 20.0012 15.4824 19.8079 15.8328 19.4621C16.1833 19.1163 16.3829 18.6461 16.3883 18.1537L16.8519 5.17154C16.8572 5.01852 16.8016 4.86965 16.6973 4.75754C16.593 4.64544 16.4486 4.57923 16.2956 4.57343L16.2909 4.57436ZM17.4592 2.26168H13.9247V0.607375C13.9246 0.531309 13.9094 0.456015 13.8802 0.385798C13.851 0.31558 13.8082 0.251819 13.7542 0.198161C13.7003 0.144504 13.6364 0.102003 13.566 0.0730908C13.4957 0.0441788 13.4203 0.0294222 13.3443 0.0296661H6.71838C6.64232 0.0294222 6.56697 0.0441788 6.49662 0.0730908C6.42627 0.102003 6.3623 0.144504 6.30839 0.198161C6.25448 0.251819 6.21168 0.31558 6.18243 0.385798C6.15318 0.456015 6.13807 0.531309 6.13795 0.607375V2.2626H2.60155C2.44822 2.2626 2.30118 2.32352 2.19276 2.43195C2.08434 2.54038 2.02344 2.68744 2.02344 2.84078C2.02344 2.99412 2.08434 3.14118 2.19276 3.2496C2.30118 3.35803 2.44822 3.41895 2.60155 3.41895H17.4583C17.6116 3.41895 17.7587 3.35803 17.8671 3.2496C17.9755 3.14118 18.0364 2.99412 18.0364 2.84078C18.0364 2.68744 17.9755 2.54038 17.8671 2.43195C17.7587 2.32352 17.6116 2.2626 17.4583 2.2626L17.4592 2.26168ZM12.7647 2.26168H7.29418V1.18508H12.7647V2.26168Z" fill="#A9A9A9"/>
</svg>
