<svg width="25" height="25" viewBox="0 0 25 25" fill="none" xmlns="http://www.w3.org/2000/svg">
<path d="M13.9892 16.4387L13.9962 1.00038C13.9962 0.735157 13.8908 0.480801 13.7033 0.293261C13.5158 0.105721 13.2614 0.000360489 12.9962 0.000360489C12.731 0.000360489 12.4766 0.105721 12.2891 0.293261C12.1015 0.480801 11.9962 0.735157 11.9962 1.00038L11.9892 16.4217L9.0771 13.5086C8.88957 13.3211 8.63525 13.2158 8.37009 13.2158C8.10492 13.2158 7.8506 13.3211 7.66307 13.5086C7.4756 13.6962 7.37028 13.9505 7.37028 14.2156C7.37028 14.4808 7.4756 14.7351 7.66307 14.9227L10.8741 18.1377C11.1527 18.4165 11.4835 18.6377 11.8477 18.7885C12.2118 18.9394 12.602 19.0171 12.9962 19.0171C13.3903 19.0171 13.7806 18.9394 14.1447 18.7885C14.5088 18.6377 14.8396 18.4165 15.1182 18.1377L18.3293 14.9257C18.5168 14.7381 18.6221 14.4838 18.6221 14.2186C18.6221 13.9535 18.5168 13.6992 18.3293 13.5116C18.1417 13.3241 17.8874 13.2188 17.6223 13.2188C17.3571 13.2188 17.1028 13.3241 16.9153 13.5116L13.9892 16.4387Z" fill="#B9B9B9"/>
<path d="M22.9965 17.001V21.0011C22.9965 21.2663 22.8912 21.5207 22.7036 21.7082C22.5161 21.8957 22.2617 22.0011 21.9965 22.0011H3.99615C3.73093 22.0011 3.47657 21.8957 3.28903 21.7082C3.10149 21.5207 2.99613 21.2663 2.99613 21.0011V17.001C2.99613 16.7358 2.89077 16.4814 2.70323 16.2939C2.51569 16.1063 2.26133 16.001 1.99611 16.001C1.73089 16.001 1.47653 16.1063 1.28899 16.2939C1.10145 16.4814 0.996094 16.7358 0.996094 17.001L0.996094 21.0011C0.996094 21.7967 1.31217 22.5598 1.87479 23.1224C2.43741 23.6851 3.20049 24.0011 3.99615 24.0011H21.9965C22.7922 24.0011 23.5552 23.6851 24.1179 23.1224C24.6805 22.5598 24.9966 21.7967 24.9966 21.0011V17.001C24.9966 16.7358 24.8912 16.4814 24.7037 16.2939C24.5161 16.1063 24.2618 16.001 23.9965 16.001C23.7313 16.001 23.477 16.1063 23.2894 16.2939C23.1019 16.4814 22.9965 16.7358 22.9965 17.001Z" fill="#B9B9B9"/>
</svg>
