<svg xmlns="http://www.w3.org/2000/svg" width="21.569" height="21.569" viewBox="0 0 21.569 21.569">
  <g id="edit_3_" data-name="edit (3)" transform="translate(-102.409 -0.004)">
    <g id="Group_57598" data-name="Group 57598" transform="translate(102.409 0.004)">
      <g id="Group_57597" data-name="Group 57597" transform="translate(0)">
        <path id="Path_197749" data-name="Path 197749" d="M122.878,1.1a3.753,3.753,0,0,0-5.308,0L104.656,14.016a.991.991,0,0,0-.236.383l-1.961,5.882a.98.98,0,0,0,.929,1.29,1,1,0,0,0,.31-.05l5.882-1.961a.981.981,0,0,0,.383-.237L122.878,6.411A3.753,3.753,0,0,0,122.878,1.1Z" transform="translate(-102.409 -0.004)" fill="#fff"/>
      </g>
    </g>
  </g>
</svg>
