<svg width="20" height="20" viewBox="0 0 20 20" fill="none" xmlns="http://www.w3.org/2000/svg">
<path d="M7.50001 10C6.51111 10 5.54441 9.70676 4.72216 9.15735C3.89992 8.60794 3.25905 7.82705 2.88062 6.91342C2.50218 5.99979 2.40316 4.99446 2.59609 4.02455C2.78901 3.05465 3.26522 2.16373 3.96448 1.46447C4.66374 0.765206 5.55466 0.289002 6.52456 0.0960758C7.49447 -0.0968503 8.4998 0.00216643 9.41343 0.380605C10.3271 0.759043 11.108 1.39991 11.6574 2.22215C12.2068 3.0444 12.5 4.0111 12.5 5C12.4987 6.32568 11.9715 7.59668 11.0341 8.53407C10.0967 9.47147 8.82569 9.99868 7.50001 10ZM8.33335 18.7875C8.33143 18.094 8.46707 17.4071 8.73242 16.7664C8.99776 16.1257 9.38753 15.544 9.87918 15.055L11.8592 13.075C10.7398 12.2696 9.41973 11.789 8.04456 11.6863C6.66939 11.5835 5.29255 11.8626 4.06591 12.4926C2.83927 13.1227 1.81049 14.0794 1.09303 15.257C0.375579 16.4347 -0.00266663 17.7877 1.41514e-05 19.1667C1.41514e-05 19.3877 0.0878115 19.5996 0.244092 19.7559C0.400372 19.9122 0.612334 20 0.833347 20H8.33335V18.7875Z" fill="#888B7E"/>
<path d="M9.16662 19.9657C9.16662 19.9657 11.3258 20.2233 12.4316 19.3216C13.5374 18.4199 18.7216 13.1098 18.7216 13.1098C19.0104 12.7748 19.174 12.3499 19.1845 11.9077C19.195 11.4654 19.0517 11.0333 18.7792 10.6849C18.638 10.4773 18.4548 10.3015 18.2416 10.169C18.0284 10.0364 17.7899 9.95016 17.5413 9.91546C17.2926 9.88076 17.0395 9.89846 16.7982 9.96755C16.5568 10.0366 16.3326 10.1555 16.14 10.3165C15.6958 10.7156 10.355 16.0365 10.1117 16.3465C9.54765 16.9366 9.21232 17.7083 9.16581 18.5233C9.12546 19.0033 9.12572 19.4858 9.16662 19.9657Z" fill="white"/>
</svg>
