<svg width="23" height="24" viewBox="0 0 23 24" fill="none" xmlns="http://www.w3.org/2000/svg">
<circle cx="11.5" cy="12.748" r="10.5" fill="#D9D9D9"/>
<path d="M23 11.748C23 5.39675 17.8512 0.247986 11.5 0.247986C5.14877 0.247986 0 5.39666 0 11.748C0 17.4879 4.20541 22.2456 9.70312 23.1083V15.0722H6.7832V11.748H9.70312V9.2144C9.70312 6.33221 11.42 4.74017 14.0468 4.74017C15.3051 4.74017 16.6211 4.96478 16.6211 4.96478V7.79486H15.171C13.7423 7.79486 13.2969 8.68135 13.2969 9.59084V11.748H16.4863L15.9765 15.0722H13.2969V23.1083C18.7946 22.2456 23 17.488 23 11.748Z" fill="#1877F2"/>
</svg>
