<svg width="24" height="25" viewBox="0 0 24 25" fill="none" xmlns="http://www.w3.org/2000/svg">
<path d="M21.8055 10.2895H21V10.248H12V14.248H17.6515C16.827 16.5765 14.6115 18.248 12 18.248C8.6865 18.248 6 15.5615 6 12.248C6 8.93448 8.6865 6.24799 12 6.24799C13.5295 6.24799 14.921 6.82499 15.9805 7.76748L18.809 4.93899C17.023 3.27449 14.634 2.24799 12 2.24799C6.4775 2.24799 2 6.72548 2 12.248C2 17.7705 6.4775 22.248 12 22.248C17.5225 22.248 22 17.7705 22 12.248C22 11.5775 21.931 10.923 21.8055 10.2895Z" fill="#FFC107"/>
<path d="M3.15332 7.59349L6.43882 10.003C7.32782 7.80199 9.48082 6.24799 12.0003 6.24799C13.5298 6.24799 14.9213 6.82499 15.9808 7.76749L18.8093 4.93899C17.0233 3.27449 14.6343 2.24799 12.0003 2.24799C8.15932 2.24799 4.82832 4.41649 3.15332 7.59349Z" fill="#FF3D00"/>
<path d="M12.0002 22.248C14.5832 22.248 16.9302 21.2595 18.7047 19.652L15.6097 17.033C14.5719 17.8222 13.3039 18.249 12.0002 18.248C9.39916 18.248 7.19066 16.5895 6.35866 14.275L3.09766 16.7875C4.75266 20.026 8.11366 22.248 12.0002 22.248Z" fill="#4CAF50"/>
<path d="M21.8055 10.2895H21V10.248H12V14.248H17.6515C17.2571 15.3562 16.5467 16.3246 15.608 17.0335L15.6095 17.0325L18.7045 19.6515C18.4855 19.8505 22 17.248 22 12.248C22 11.5775 21.931 10.923 21.8055 10.2895Z" fill="#1976D2"/>
</svg>
