<svg width="22" height="22" viewBox="0 0 22 22" fill="none" xmlns="http://www.w3.org/2000/svg">
<path opacity="0.4" d="M20.1683 10.9999C20.1683 12.8129 19.6307 14.5852 18.6234 16.0926C17.6162 17.6001 16.1846 18.775 14.5096 19.4688C12.8346 20.1626 10.9915 20.3441 9.2133 19.9904C7.43514 19.6368 5.8018 18.7637 4.51982 17.4817C3.23784 16.1997 2.3648 14.5664 2.0111 12.7882C1.6574 11.0101 1.83893 9.16698 2.53274 7.49199C3.22654 5.817 4.40145 4.38536 5.9089 3.37811C7.41635 2.37087 9.18864 1.83325 11.0016 1.83325C13.4328 1.83325 15.7644 2.79902 17.4834 4.51811C19.2025 6.23719 20.1683 8.56877 20.1683 10.9999Z" fill="white"/>
<path d="M12.8006 11.0162L12.8007 11.0161C13.3207 10.5985 13.5739 9.9753 13.5739 9.16555C13.5739 8.43757 13.347 7.85836 12.8836 7.44179C12.43 7.01978 11.824 6.81357 11.077 6.81357C10.5593 6.81357 10.0981 6.90879 9.69585 7.10216C9.29326 7.29571 8.98077 7.57224 8.76189 7.93182C8.54319 8.29112 8.43516 8.70342 8.43516 9.16555V9.26555H8.53516H9.51621H9.61621V9.16555C9.61621 8.76604 9.74471 8.45184 9.99694 8.213C10.2573 7.97346 10.6028 7.8497 11.0435 7.8497C11.4619 7.8497 11.7798 7.9696 12.0096 8.19946L12.0096 8.19947L12.0107 8.20048C12.2474 8.4305 12.3705 8.74801 12.3705 9.16555C12.3705 9.79127 12.1742 10.1922 11.8071 10.4058L11.8071 10.4058L11.8064 10.4062C11.426 10.6316 10.9034 10.749 10.2297 10.749H9.78377H9.68377V10.849V12.8557V12.9557H9.78377H10.7425H10.8425V12.8557V11.6376C11.6581 11.6091 12.3142 11.4053 12.8006 11.0162ZM10.9875 13.8925V13.7925H10.8875H9.66114H9.56114V13.8925V15.0853V15.1853H9.66114H10.8875H10.9875V15.0853V13.8925Z" fill="white" stroke="white" stroke-width="0.2"/>
</svg>
