<svg width="660" height="660" viewBox="0 0 660 660" fill="none" xmlns="http://www.w3.org/2000/svg">
<g opacity="0.25" filter="url(#filter0_i_403_362)">
<circle cx="330" cy="330" r="328.5" stroke="#171717" stroke-width="3"/>
</g>
<g opacity="0.35" filter="url(#filter1_i_403_362)">
<circle cx="330" cy="330" r="285.269" stroke="#171717" stroke-width="3"/>
</g>
<g opacity="0.5" filter="url(#filter2_i_403_362)">
<circle cx="330" cy="330" r="240.596" stroke="#171717" stroke-width="3"/>
</g>
<g opacity="0.7" filter="url(#filter3_i_403_362)">
<circle cx="330" cy="330" r="195.924" stroke="#171717" stroke-width="3"/>
</g>
<circle cx="330" cy="330" r="157.074" fill="#171717"/>
<circle cx="330" cy="330" r="157.074" fill="url(#paint0_radial_403_362)"/>
<path d="M291.573 305.25H374.344C379.746 305.25 384.125 300.871 384.125 295.469V294.045C384.125 288.643 379.746 284.264 374.344 284.264H291.573C286.171 284.264 281.792 288.643 281.792 294.045V295.469C281.792 300.871 286.171 305.25 291.573 305.25Z" fill="url(#paint1_linear_403_362)"/>
<path d="M329.406 150.074H336.552V113.945H329.406V150.074Z" fill="#F0F0F0"/>
<path d="M442.264 257.613C453.547 254.932 460.52 243.611 457.838 232.328C455.156 221.045 443.836 214.072 432.553 216.754C421.27 219.436 414.297 230.756 416.979 242.039C419.661 253.322 430.981 260.295 442.264 257.613Z" fill="#F0F0F0"/>
<mask id="mask0_403_362" style="mask-type:alpha" maskUnits="userSpaceOnUse" x="416" y="216" width="43" height="43">
<path d="M442.264 257.613C453.547 254.932 460.52 243.611 457.838 232.328C455.156 221.045 443.836 214.072 432.553 216.754C421.27 219.436 414.297 230.756 416.979 242.039C419.661 253.322 430.981 260.295 442.264 257.613Z" fill="#F0F0F0"/>
</mask>
<g mask="url(#mask0_403_362)">
<path d="M445.278 239.06C448.963 224.207 433.49 232.044 433.546 216.094L416.901 253.482L448.907 289.021C484.69 274.549 449.572 280.597 454.82 262.202C460.068 243.806 442.216 251.397 445.278 239.06Z" fill="#CFCFCF"/>
</g>
<path d="M230.071 256.262C241.381 253.697 248.47 242.449 245.904 231.139C243.339 219.829 232.09 212.74 220.78 215.305C209.47 217.87 202.381 229.119 204.947 240.429C207.512 251.739 218.761 258.828 230.071 256.262Z" fill="#E8E8E8"/>
<mask id="mask1_403_362" style="mask-type:alpha" maskUnits="userSpaceOnUse" x="204" y="214" width="43" height="43">
<path d="M230.071 256.262C241.381 253.697 248.47 242.449 245.904 231.139C243.339 219.829 232.09 212.74 220.78 215.305C209.47 217.87 202.381 229.119 204.947 240.429C207.512 251.739 218.761 258.828 230.071 256.262Z" fill="#F0F0F0"/>
</mask>
<g mask="url(#mask1_403_362)">
<path d="M216.399 237.835C214.797 222.616 229.041 232.512 231.185 216.707L242.516 256.032L205.915 286.819C172.47 267.551 206.419 278.384 203.757 259.441C201.096 240.497 217.73 250.477 216.399 237.835Z" fill="#CFCFCF"/>
</g>
<path d="M328.95 142.236C328.95 142.236 243.571 141.211 230.051 215.16C216.531 289.108 288.736 290.492 309.508 291.889C318.93 292.528 339.077 292.595 356.856 292.275C396.219 291.597 424.017 283.972 433.492 247.457C434.597 243.198 435.342 238.82 435.621 234.375C438.123 194.361 411.029 140.253 328.964 142.223L328.95 142.236Z" fill="url(#paint2_linear_403_362)"/>
<path d="M391.918 256.254L391.919 256.254C405.775 256.029 416.842 244.71 416.629 230.934L416.629 230.933C416.401 217.157 404.98 206.192 391.124 206.403L391.124 206.403L266.127 208.345L266.126 208.346C252.269 208.571 241.203 219.889 241.416 233.665L241.416 233.666C241.643 247.442 253.064 258.408 266.92 258.197L266.921 258.197L391.918 256.254Z" fill="#030303" stroke="url(#paint3_linear_403_362)" stroke-width="2.77033"/>
<path d="M292.45 231.062C291.652 235.161 287.673 237.822 283.587 237.024C279.489 236.225 276.827 232.246 277.626 228.161C278.424 224.062 282.403 221.401 286.488 222.199C290.587 222.998 293.249 226.977 292.45 231.062Z" fill="#C7F431"/>
<path d="M379.107 229.678C378.309 233.777 374.33 236.438 370.245 235.64C366.146 234.841 363.485 230.862 364.283 226.777C365.082 222.678 369.06 220.017 373.146 220.815C377.244 221.614 379.906 225.593 379.107 229.678Z" fill="#C7F431"/>
<path d="M341.314 121.533C345.913 116.934 345.913 109.477 341.314 104.878C336.715 100.279 329.258 100.279 324.659 104.878C320.059 109.477 320.059 116.934 324.659 121.533C329.258 126.132 336.715 126.132 341.314 121.533Z" fill="#C7F431"/>
<path d="M314.168 227.576C314.727 227.642 314.447 230.277 316.097 233.79C316.896 235.533 318.226 237.436 320.103 239.06C321.979 240.683 324.467 241.921 327.195 242.214C329.937 242.426 332.611 241.655 334.754 240.404C336.91 239.153 338.56 237.516 339.651 235.946C341.913 232.792 342.113 230.144 342.672 230.184C342.885 230.184 343.124 230.849 343.124 232.1C343.124 233.351 342.765 235.174 341.754 237.197C340.742 239.219 338.986 241.402 336.444 243.092C333.942 244.795 330.536 245.953 326.876 245.647C323.23 245.274 320.089 243.531 317.934 241.402C315.751 239.273 314.407 236.811 313.782 234.642C313.143 232.459 313.116 230.596 313.356 229.372C313.582 228.148 313.928 227.522 314.141 227.562L314.168 227.576Z" fill="#C7F431"/>
<path d="M427.851 262.055C427.732 261.988 429.262 259.659 430.726 255.467C432.243 251.302 433.56 245.261 434.186 238.514C434.864 231.754 434.758 225.593 434.585 221.148C434.478 218.926 434.372 217.129 434.279 215.878C434.186 214.641 434.159 213.949 434.212 213.936C434.265 213.936 434.372 214.614 434.545 215.852C434.731 217.089 434.904 218.886 435.077 221.121C435.37 225.579 435.556 231.781 434.878 238.581C434.239 245.381 432.828 251.462 431.191 255.64C430.393 257.73 429.568 259.366 428.929 260.444C428.277 261.509 427.891 262.094 427.851 262.068V262.055Z" fill="#777777"/>
<path d="M230.106 212.738C230.106 212.738 230 213.43 229.681 214.641C229.521 215.24 229.321 215.985 229.148 216.85C228.962 217.715 228.709 218.686 228.549 219.791C228.137 221.973 227.804 224.608 227.618 227.549C227.472 230.49 227.472 233.723 227.751 237.103C228.07 240.483 228.629 243.664 229.295 246.538C230 249.386 230.785 251.928 231.583 254.004C231.943 255.055 232.355 255.973 232.688 256.798C233.007 257.623 233.327 258.315 233.606 258.874C234.125 260.005 234.391 260.644 234.351 260.671C234.311 260.697 233.965 260.098 233.367 258.994C233.061 258.448 232.701 257.77 232.342 256.958C231.969 256.146 231.517 255.241 231.131 254.19C230.266 252.114 229.428 249.572 228.682 246.698C227.977 243.81 227.378 240.59 227.059 237.17C226.766 233.75 226.793 230.476 226.979 227.509C227.205 224.541 227.591 221.893 228.07 219.698C228.27 218.593 228.549 217.622 228.776 216.757C228.989 215.892 229.215 215.16 229.428 214.561C229.827 213.377 230.066 212.725 230.106 212.738Z" fill="#777777"/>
<path opacity="0.5" d="M318.002 147.772C318.002 147.772 317.895 147.798 317.696 147.825C317.456 147.852 317.15 147.878 316.791 147.905C315.992 147.985 314.821 148.011 313.318 148.198C310.31 148.464 305.972 149.063 300.716 150.287C295.459 151.498 289.311 153.467 282.844 156.461C276.377 159.442 269.63 163.541 263.269 168.757C256.948 174.014 251.638 179.869 247.487 185.644C243.321 191.433 240.221 197.089 238.025 202.012C235.829 206.936 234.419 211.088 233.58 213.989C233.115 215.426 232.875 216.57 232.636 217.342C232.529 217.688 232.449 217.981 232.383 218.207C232.316 218.407 232.29 218.5 232.276 218.5C232.276 218.5 232.276 218.393 232.316 218.194C232.37 217.954 232.423 217.662 232.503 217.302C232.689 216.53 232.902 215.373 233.314 213.909C234.073 210.981 235.417 206.79 237.573 201.813C239.715 196.836 242.789 191.114 246.968 185.272C251.133 179.43 256.456 173.521 262.83 168.212C269.244 162.955 276.057 158.857 282.578 155.876C289.112 152.895 295.313 150.952 300.609 149.795C305.905 148.624 310.27 148.105 313.291 147.918C314.795 147.785 315.979 147.798 316.777 147.759C317.137 147.759 317.443 147.759 317.682 147.759C317.882 147.759 317.988 147.759 317.988 147.772H318.002Z" fill="#BDBDBD"/>
<path d="M234.458 250.211C234.379 250.238 233.86 249.253 233.247 247.55C232.622 245.86 231.943 243.438 231.518 240.723C231.092 237.995 231.012 235.493 231.078 233.684C231.145 231.874 231.331 230.783 231.424 230.783C231.637 230.783 231.345 235.24 232.196 240.617C233.021 245.993 234.671 250.131 234.458 250.211Z" fill="#C8C8C8"/>
<path d="M212.074 243.331C212.074 243.331 211.768 243.118 211.355 242.613C210.93 242.107 210.384 241.335 209.852 240.284C208.761 238.221 207.829 234.948 208.295 231.341C208.774 227.735 210.544 224.821 212.127 223.104C212.926 222.239 213.644 221.627 214.19 221.255C214.722 220.882 215.042 220.709 215.068 220.749C215.148 220.842 213.95 221.667 212.5 223.424C211.049 225.167 209.439 227.988 208.987 231.421C208.534 234.855 209.359 238.008 210.291 240.058C211.222 242.134 212.181 243.238 212.074 243.318V243.331Z" fill="#8F8F8F"/>
<path d="M333.757 105.002C333.73 105.135 332.546 104.696 330.63 104.922C328.767 105.122 326.079 106.2 324.482 108.649C322.925 111.124 323.058 114.011 323.657 115.795C324.242 117.631 325.134 118.536 325.027 118.616C325.001 118.642 324.748 118.456 324.389 118.03C324.016 117.604 323.563 116.912 323.191 115.968C322.432 114.131 322.18 111.004 323.896 108.289C325.653 105.601 328.594 104.537 330.59 104.457C331.601 104.403 332.426 104.523 332.958 104.683C333.504 104.843 333.77 104.989 333.757 105.016V105.002Z" fill="#5B7409"/>
<path d="M449.73 227.19C449.584 227.349 447.508 225.366 444.381 223.876C441.267 222.346 438.432 221.947 438.472 221.734C438.472 221.561 441.44 221.667 444.687 223.251C447.934 224.808 449.863 227.083 449.73 227.19Z" fill="#8F8F8F"/>
<path d="M370.245 203.449C370.245 203.636 353.903 203.795 333.756 203.795C313.609 203.795 297.268 203.636 297.268 203.449C297.268 203.263 313.609 203.103 333.756 203.103C353.903 203.103 370.245 203.263 370.245 203.449Z" fill="#CFCFCF"/>
<path d="M307.98 286.66C307.98 286.66 307.767 286.713 307.368 286.766C306.875 286.806 306.29 286.859 305.585 286.926C304.813 286.992 303.868 287.059 302.763 287.072C301.659 287.099 300.408 287.165 299.024 287.112C296.243 287.112 292.943 286.913 289.283 286.527C285.637 286.101 281.645 285.449 277.506 284.491C273.381 283.506 269.522 282.295 266.062 281.057C262.615 279.78 259.581 278.462 257.093 277.238C255.829 276.653 254.738 276.041 253.766 275.522C252.781 275.016 251.97 274.537 251.304 274.138C250.705 273.765 250.2 273.459 249.774 273.206C249.428 272.993 249.255 272.86 249.268 272.847C249.282 272.833 249.481 272.913 249.841 273.086C250.28 273.313 250.799 273.579 251.424 273.898C252.103 274.271 252.941 274.71 253.939 275.176C254.924 275.655 256.028 276.24 257.306 276.786C259.808 277.957 262.855 279.208 266.288 280.445C269.735 281.656 273.581 282.827 277.679 283.812C281.778 284.77 285.743 285.422 289.363 285.888C292.983 286.314 296.27 286.553 299.037 286.62C300.421 286.7 301.672 286.66 302.763 286.673C303.868 286.686 304.813 286.673 305.585 286.646C306.29 286.646 306.875 286.633 307.368 286.62C307.78 286.62 307.993 286.633 307.993 286.66H307.98Z" fill="#C8C8C8"/>
<path d="M269.019 196.725C270.241 195.902 271.306 194.848 272.452 193.912C275.214 191.658 278.491 190.085 281.934 189.359C283.019 189.129 284.226 188.918 284.899 188.017C285.216 187.595 285.368 187.061 285.434 186.532C285.68 184.444 284.553 182.371 282.966 181.053C281.38 179.735 279.4 179.049 277.43 178.514C273.603 177.476 269.587 176.917 265.68 177.564C261.773 178.216 257.965 180.176 255.588 183.449C254.569 184.846 253.826 186.483 253.598 188.213C253.111 191.966 255.289 195.838 258.562 197.534C261.834 199.224 265.955 198.798 269.019 196.735V196.725Z" fill="url(#paint4_linear_403_362)"/>
<path d="M228.965 352.863L172.848 347.008L149.174 293.127L130.73 297.944C130.73 297.944 144.357 354.886 159.594 363.695C174.831 372.518 226.955 374.115 226.955 374.115L228.965 352.863Z" fill="#C7F431"/>
<path d="M258.779 380.202C267.899 369.941 266.974 354.229 256.713 345.109C246.451 335.988 230.739 336.914 221.619 347.175C212.499 357.437 213.424 373.149 223.686 382.269C233.947 391.389 249.659 390.464 258.779 380.202Z" fill="#303030"/>
<path d="M240.198 388.58C233.544 388.58 227.303 385.985 222.592 381.288C217.895 376.59 215.3 370.336 215.3 363.682C215.3 357.028 217.895 350.787 222.592 346.077C227.29 341.379 233.544 338.784 240.198 338.784C246.851 338.784 253.092 341.379 257.803 346.077C262.501 350.774 265.096 357.028 265.096 363.682C265.096 370.336 262.501 376.577 257.803 381.288C253.106 385.985 246.851 388.58 240.198 388.58ZM240.198 338.864C233.571 338.864 227.33 341.446 222.645 346.13C217.961 350.814 215.38 357.055 215.38 363.682C215.38 370.309 217.961 376.55 222.645 381.234C227.33 385.919 233.571 388.5 240.198 388.5C246.825 388.5 253.066 385.919 257.75 381.234C262.434 376.55 265.016 370.309 265.016 363.682C265.016 357.055 262.434 350.814 257.75 346.13C253.066 341.446 246.825 338.864 240.198 338.864Z" fill="#303030"/>
<path d="M167.883 367.959C177.895 365.555 184.062 355.49 181.659 345.478C179.255 335.466 169.19 329.298 159.178 331.702C149.166 334.106 142.998 344.17 145.402 354.182C147.806 364.194 157.871 370.362 167.883 367.959Z" fill="#303030"/>
<path fill-rule="evenodd" clip-rule="evenodd" d="M146.421 273.636V259.074C146.421 257.277 144.957 255.814 143.161 255.814H142.682C140.885 255.814 139.421 257.277 139.421 259.074V271.507C138.909 271.48 138.396 271.478 137.884 271.503L135.117 259.134C134.725 257.381 132.977 256.272 131.223 256.664L130.756 256.768C129.003 257.161 127.894 258.909 128.286 260.662L131.144 273.435C130.606 273.737 130.083 274.075 129.578 274.448L122.977 263.014C122.079 261.459 120.079 260.923 118.523 261.821L118.108 262.061C116.553 262.959 116.017 264.958 116.915 266.514L124.826 280.217C122.159 285.869 123.162 292.823 127.835 297.496C133.785 303.447 143.433 303.447 149.383 297.496C152.621 294.258 154.097 289.925 153.811 285.689L162.354 278.475L162.345 278.465C163.718 277.305 163.892 275.243 162.733 273.87L162.424 273.504C161.265 272.132 159.202 271.958 157.829 273.117L151.446 278.507C150.864 277.6 150.176 276.741 149.383 275.948C148.473 275.038 147.477 274.268 146.421 273.636Z" fill="url(#paint5_linear_403_362)"/>
<path d="M472.566 492.393L489.343 485.258L440.933 371.434L424.157 378.569L472.566 492.393Z" fill="#C7F431"/>
<path d="M443.32 382.33C452.194 371.855 450.896 356.169 440.421 347.295C429.946 338.421 414.26 339.719 405.386 350.194C396.512 360.669 397.81 376.355 408.285 385.229C418.76 394.103 434.446 392.805 443.32 382.33Z" fill="#303030"/>
<path d="M424.411 391.188C421.949 391.188 419.46 390.816 417.039 390.07C410.691 388.114 405.475 383.789 402.374 377.921C399.273 372.039 398.635 365.306 400.591 358.958C402.547 352.61 406.872 347.394 412.74 344.293C418.622 341.193 425.356 340.554 431.703 342.51C438.051 344.466 443.267 348.791 446.368 354.66C449.468 360.542 450.107 367.275 448.151 373.623C446.195 379.97 441.87 385.187 436.001 388.287C432.368 390.203 428.403 391.188 424.397 391.188H424.411ZM424.344 341.446C420.352 341.446 416.4 342.417 412.78 344.333C406.912 347.434 402.613 352.624 400.657 358.971C398.701 365.306 399.327 372.026 402.427 377.894C405.528 383.763 410.718 388.061 417.065 390.017C423.399 391.973 430.12 391.348 435.988 388.247C441.857 385.147 446.155 379.957 448.111 373.609C450.067 367.275 449.428 360.555 446.341 354.686C443.241 348.818 438.051 344.52 431.703 342.564C429.281 341.818 426.819 341.446 424.358 341.446H424.344Z" fill="#263238"/>
<path d="M474.7 440.57C477.457 430.65 471.65 420.373 461.729 417.616C451.809 414.859 441.532 420.666 438.775 430.587C436.018 440.507 441.825 450.784 451.746 453.541C461.667 456.298 471.944 450.491 474.7 440.57Z" fill="#303030"/>
<path d="M454.97 422.248C454.985 422.366 453.903 422.493 452.281 423.105C450.67 423.709 448.582 424.918 446.783 426.828C444.998 428.761 443.944 430.928 443.456 432.577C442.968 434.225 442.91 435.318 442.796 435.314C442.736 435.321 442.599 434.198 442.992 432.454C443.373 430.716 444.413 428.383 446.282 426.362C448.159 424.352 450.41 423.147 452.124 422.65C453.841 422.134 454.963 422.189 454.959 422.256L454.97 422.248Z" fill="#D8D8D8"/>
<path fill-rule="evenodd" clip-rule="evenodd" d="M499.303 488.77C496.641 480.786 488.005 476.474 480.034 479.149C472.05 481.811 467.738 490.447 470.413 498.418C470.522 498.744 470.64 499.064 470.769 499.378L464.936 508.948L464.948 508.955C464.013 510.489 464.501 512.501 466.035 513.436L466.444 513.685C467.978 514.62 469.99 514.132 470.925 512.598L475.284 505.445C477.112 506.921 479.263 507.959 481.559 508.47L486.176 522.301C486.744 524.005 488.596 524.93 490.301 524.361L490.755 524.209C492.459 523.64 493.384 521.788 492.815 520.084L488.876 508.285C489.145 508.211 489.414 508.129 489.682 508.039C489.903 507.966 490.121 507.887 490.336 507.805L496.882 518.668C497.809 520.207 499.818 520.706 501.357 519.778L501.767 519.531C503.306 518.604 503.805 516.595 502.877 515.056L496.125 503.849C496.55 503.383 496.943 502.891 497.305 502.378L507.186 511.132C508.53 512.324 510.597 512.199 511.788 510.854L512.106 510.495C513.297 509.151 513.172 507.084 511.827 505.893L499.988 495.404C500.248 493.236 500.043 490.978 499.303 488.77Z" fill="url(#paint6_linear_403_362)"/>
<path d="M211.334 353.529C211.32 353.715 206.969 353.569 201.606 353.183C196.243 352.797 191.918 352.331 191.932 352.145C191.945 351.958 196.296 352.105 201.659 352.491C207.009 352.877 211.347 353.342 211.334 353.529Z" fill="#010101"/>
<path d="M161.271 325.118C161.098 325.211 158.836 321.352 156.201 316.495C153.566 311.637 151.584 307.632 151.743 307.539C151.916 307.446 154.179 311.305 156.813 316.162C159.448 321.019 161.431 325.025 161.271 325.118Z" fill="#010101"/>
<path d="M169.962 337.626C169.908 337.733 168.937 337.241 167.247 336.855C165.57 336.469 163.162 336.322 160.607 336.921C158.052 337.547 155.976 338.771 154.658 339.875C153.341 340.98 152.689 341.858 152.596 341.792C152.542 341.765 153.048 340.754 154.339 339.516C155.616 338.279 157.772 336.908 160.447 336.256C163.122 335.617 165.663 335.857 167.367 336.389C169.083 336.908 169.988 337.573 169.948 337.626H169.962Z" fill="#D8D8D8"/>
<mask id="mask2_403_362" style="mask-type:alpha" maskUnits="userSpaceOnUse" x="172" y="172" width="316" height="316">
<circle cx="330.001" cy="330" r="157.074" fill="#171717"/>
</mask>
<g mask="url(#mask2_403_362)">
<path d="M232.759 337.826C232.759 337.826 234.555 512.324 332.483 515.744C430.411 519.164 434.523 339.077 434.523 337.826C434.523 337.826 422.959 311.797 333.641 312.822C244.323 313.846 232.759 337.826 232.759 337.826Z" fill="url(#paint7_linear_403_362)"/>
<path d="M326.639 439.27C345.452 440.644 361.863 426.737 363.684 408.054H363.707L363.77 407.197C365.164 388.086 350.81 371.461 331.697 370.067C312.585 368.672 295.961 383.027 294.567 402.139C293.172 421.251 307.527 437.876 326.639 439.27Z" fill="#030303" stroke="url(#paint8_linear_403_362)" stroke-width="1.84689"/>
<path d="M341.838 410.936C341.745 410.883 341.665 409.419 341.612 406.877C341.545 404.336 341.505 400.703 341.492 396.272L341.758 396.764C338.072 394.608 333.787 392.106 329.103 389.378H329.808C325.843 391.627 321.531 394.036 317.033 396.564C316.687 397.137 317.499 395.779 317.419 395.926V395.952V395.979V396.045V396.165V396.405V396.884L317.393 397.842L317.366 399.745C317.339 401.009 317.326 402.247 317.3 403.471C317.246 405.919 317.206 408.288 317.166 410.577L316.82 409.965C321.451 412.786 325.67 415.368 329.329 417.603H328.77C332.669 415.501 335.89 413.824 338.152 412.666C340.428 411.508 341.732 410.883 341.838 410.936C341.931 410.989 340.8 411.735 338.644 413.052C336.489 414.369 333.308 416.259 329.316 418.561L329.037 418.721L328.757 418.561C325.058 416.405 320.786 413.904 316.102 411.176L315.756 410.976V410.564C315.782 408.275 315.809 405.906 315.836 403.458C315.849 402.233 315.862 400.996 315.876 399.731L315.902 397.829V396.87L315.929 396.391V396.152V396.032V395.966V395.939V395.912C315.849 396.045 316.661 394.688 316.315 395.26C320.826 392.758 325.151 390.363 329.13 388.154L329.489 387.955L329.835 388.167C334.466 390.989 338.698 393.584 342.344 395.806L342.623 395.979V396.298C342.477 400.903 342.317 404.602 342.184 407.13C342.051 409.659 341.931 411.003 341.838 410.949V410.936Z" fill="#C7F431"/>
<path d="M232.389 338.055C232.389 338.055 243.953 314.062 333.271 313.051C422.589 312.026 434.153 338.055 434.153 338.055C434.153 338.055 344.063 382.488 232.402 338.055H232.389Z" fill="url(#paint9_linear_403_362)"/>
<path d="M236.285 347.687L236.333 347.675L236.333 347.675L236.333 347.675L236.333 347.675L236.333 347.675L236.334 347.676L236.335 347.68L236.338 347.696C236.341 347.709 236.345 347.729 236.351 347.755C236.361 347.808 236.374 347.885 236.388 347.986L236.388 347.987L236.388 347.987C236.414 348.228 236.441 348.521 236.468 348.881M236.285 347.687L236.468 348.881C236.468 348.881 236.468 348.881 236.468 348.881M236.285 347.687L236.333 347.675L236.324 347.637H236.285C236.265 347.637 236.252 347.647 236.245 347.655C236.239 347.662 236.235 347.67 236.234 347.674C236.23 347.682 236.229 347.692 236.228 347.699C236.225 347.715 236.224 347.737 236.223 347.763C236.221 347.816 236.221 347.893 236.221 347.992V347.993V347.994V347.996V347.997V347.998V348V348.001V348.003V348.004V348.006V348.007V348.008V348.01V348.011V348.013V348.014V348.015V348.017V348.018V348.02V348.021V348.023V348.024V348.025V348.027V348.028V348.03V348.031V348.033V348.034V348.036V348.037V348.038V348.04V348.041V348.043V348.044V348.046V348.047V348.049V348.05V348.051V348.053V348.054V348.056V348.057V348.059V348.06V348.062V348.063V348.065V348.066V348.068V348.069V348.07V348.072V348.073V348.075V348.076V348.078V348.079V348.081V348.082V348.084V348.085V348.087V348.088V348.09V348.091V348.093V348.094V348.096V348.097V348.099V348.1V348.102V348.103V348.105V348.106V348.108V348.109V348.111V348.112V348.114V348.115V348.117V348.118V348.12V348.121V348.123V348.124V348.126V348.127V348.129V348.13V348.132V348.133V348.135V348.136V348.138V348.139V348.141V348.142V348.144V348.146V348.147V348.149V348.15V348.152V348.153V348.155V348.156V348.158V348.159V348.161V348.162V348.164V348.166V348.167V348.169V348.17V348.172V348.173V348.175V348.176V348.178V348.18V348.181V348.183V348.184V348.186V348.187V348.189V348.191V348.192V348.194V348.195V348.197V348.198V348.2V348.202V348.203V348.205V348.206V348.208V348.209V348.211V348.213V348.214V348.216V348.217V348.219V348.221V348.222V348.224V348.225V348.227V348.229V348.23V348.232V348.233V348.235V348.237V348.238V348.24V348.241V348.243V348.245V348.246V348.248V348.25V348.251V348.253V348.254V348.256V348.258V348.259V348.261V348.263V348.264V348.266V348.267V348.269V348.271V348.272V348.274V348.276V348.277V348.279V348.281V348.282V348.284V348.285V348.287V348.289V348.29V348.292V348.294V348.295V348.297V348.299V348.3V348.302V348.304V348.305V348.307V348.309V348.31V348.312V348.314V348.315V348.317V348.319V348.32V348.322V348.324V348.325V348.327V348.329V348.33V348.332V348.334V348.336V348.337V348.339V348.341V348.342V348.344V348.346V348.347V348.349V348.351V348.352V348.354V348.356V348.358V348.359V348.361V348.363V348.364V348.366V348.368V348.37V348.371V348.373V348.375V348.376V348.378V348.38V348.382V348.383V348.385V348.387V348.389V348.39V348.392V348.394V348.395V348.397V348.399V348.401V348.402V348.404V348.406V348.408V348.409V348.411V348.413V348.415V348.416V348.418V348.42V348.422V348.423V348.425V348.427V348.429V348.43V348.432V348.434V348.436V348.438V348.439V348.441V348.443V348.445V348.446V348.448V348.45V348.452V348.454V348.455V348.457V348.459V348.461V348.462V348.464V348.466V348.468V348.47V348.471V348.473V348.475V348.477V348.479V348.48V348.482V348.484V348.486V348.488V348.489V348.491V348.493V348.495V348.497V348.499V348.5V348.502V348.504V348.506V348.508V348.509V348.511V348.513V348.515V348.517V348.519V348.52V348.522V348.524V348.526V348.528V348.53V348.531V348.533V348.535V348.537V348.539V348.541V348.543V348.544V348.546V348.548V348.55V348.552V348.554V348.556V348.557V348.559V348.561V348.563V348.565V348.567V348.569V348.57V348.572V348.574V348.576V348.578V348.58V348.582V348.584V348.585V348.587V348.589V348.591V348.593V348.595V348.597V348.599V348.601V348.602V348.604V348.606V348.608V348.61V348.612V348.614V348.616V348.618V348.62V348.621V348.623V348.625V348.627V348.629V348.631V348.633V348.635V348.637V348.639V348.641V348.643V348.645V348.646V348.648V348.65V348.652V348.654V348.656V348.658V348.66V348.662V348.664V348.666V348.668V348.67V348.672V348.674V348.676V348.678V348.679V348.681V348.683V348.685V348.687V348.689V348.691V348.693V348.695V348.697V348.699V348.701V348.703V348.705V348.707V348.709V348.711V348.713V348.715V348.717V348.719V348.721V348.723V348.725V348.727V348.729V348.731V348.733V348.735V348.737V348.739V348.741V348.743V348.745V348.747V348.749V348.751V348.753V348.755V348.757V348.759V348.761V348.763V348.765V348.767V348.769V348.771V348.773V348.775V348.777V348.779V348.781V348.783V348.785V348.787V348.789V348.791V348.793V348.795V348.797V348.799V348.801V348.803V348.806V348.808V348.81V348.812V348.814V348.816V348.818V348.82V348.822V348.824V348.826V348.828V348.83V348.832V348.834V348.836V348.838V348.841V348.843V348.845V348.847V348.849V348.851V348.853V348.855V348.857V348.859V348.861V348.863V348.866V348.868V348.87V348.872V348.874V348.876V348.878V348.88V348.882V348.884H236.221L236.222 348.887C236.244 349.374 236.263 349.956 236.284 350.636C236.301 351.146 236.318 351.711 236.341 352.333C236.381 353.837 236.488 355.661 236.634 357.79C236.767 359.919 236.927 362.329 237.18 365.004C237.606 370.355 238.378 376.69 239.362 383.716L239.363 383.717C240.427 390.731 241.771 398.41 243.528 406.409L243.528 406.409C245.325 414.395 247.375 421.928 249.464 428.703L249.465 428.704C249.815 429.743 250.15 430.77 250.48 431.781C251.214 434.033 251.922 436.203 252.712 438.234C252.941 438.854 253.168 439.467 253.391 440.07C253.7 440.905 254.002 441.723 254.296 442.518L254.297 442.52C254.797 443.735 255.276 444.908 255.734 446.028L255.893 446.418C255.893 446.418 255.893 446.419 255.893 446.419C256.879 448.922 257.904 451.119 258.809 453.048L258.809 453.048C259.079 453.62 259.334 454.173 259.579 454.701C259.744 455.058 259.904 455.403 260.059 455.736L260.06 455.738C260.473 456.55 260.859 457.295 261.205 457.96L261.205 457.961C261.537 458.585 261.834 459.149 262.097 459.65C262.372 460.173 262.611 460.628 262.815 461.008L262.815 461.009C262.943 461.245 263.057 461.445 263.155 461.619C263.19 461.68 263.224 461.739 263.255 461.794L263.256 461.796C263.31 461.884 263.354 461.948 263.384 461.99C263.391 461.999 263.396 462.007 263.401 462.014C263.409 462.024 263.415 462.032 263.42 462.038L263.422 462.04V462.157L263.507 462.071C263.523 462.055 263.524 462.035 263.524 462.028C263.524 462.018 263.522 462.008 263.52 462C263.517 461.983 263.509 461.961 263.5 461.937C263.481 461.888 263.451 461.817 263.412 461.725L263.411 461.724L263.411 461.724L263.41 461.721C263.304 461.509 263.185 461.244 263.038 460.911L263.037 460.909C262.665 460.151 262.159 459.113 261.534 457.809L261.534 457.809C261.39 457.516 261.241 457.209 261.086 456.891C260.883 456.473 260.669 456.034 260.443 455.574C260.07 454.736 259.671 453.832 259.246 452.861L259.246 452.86L259.225 452.814C258.365 450.882 257.389 448.69 256.439 446.209L256.438 446.208C256.143 445.486 255.849 444.743 255.546 443.978C255.33 443.432 255.109 442.876 254.882 442.31C254.534 441.342 254.173 440.34 253.803 439.314C253.649 438.889 253.495 438.459 253.339 438.026L253.338 438.025C252.596 436.073 251.93 433.992 251.239 431.831C250.89 430.739 250.534 429.627 250.159 428.5C248.123 421.728 246.101 414.224 244.305 406.254C242.562 398.271 241.191 390.621 240.1 383.622M236.285 347.687L240.1 383.622M236.468 348.881C236.534 349.733 236.614 350.877 236.707 352.328L236.707 352.328C236.787 353.818 236.933 355.654 237.12 357.769L237.12 357.77C237.14 358.017 237.16 358.268 237.181 358.524C237.338 360.455 237.513 362.618 237.772 364.967L237.772 364.968C238.264 370.303 239.089 376.623 240.1 383.622M236.468 348.881L240.1 383.622" fill="#D7D7D7" stroke="#D7D7D7" stroke-width="0.1"/>
<path d="M310.646 503.981C310.646 503.981 310.087 503.954 309.089 503.794C308.091 503.648 306.667 503.302 304.924 502.783C303.181 502.277 301.158 501.505 298.989 500.507C296.833 499.469 294.531 498.179 292.255 496.595C289.993 494.985 287.997 493.255 286.294 491.578C284.617 489.875 283.207 488.225 282.142 486.761C281.064 485.31 280.266 484.073 279.787 483.181C279.294 482.303 279.041 481.797 279.081 481.784C279.188 481.717 280.306 483.647 282.528 486.468C283.632 487.879 285.056 489.462 286.746 491.126C288.45 492.762 290.432 494.453 292.655 496.023C294.89 497.58 297.152 498.871 299.268 499.935C301.398 500.96 303.38 501.758 305.07 502.33C308.464 503.475 310.673 503.861 310.646 503.994V503.981Z" fill="#D7D7D7"/>
<path d="M329.632 442.421C329.632 442.421 329.312 442.474 328.7 442.514C328.088 442.514 327.183 442.661 326.012 442.594C323.67 442.594 320.277 442.208 316.258 441.011C314.248 440.425 312.119 439.547 309.897 438.456C307.728 437.285 305.439 435.941 303.283 434.184C298.932 430.751 294.886 425.947 292.278 420.065C289.763 414.143 289.005 407.902 289.47 402.38C289.657 399.612 290.242 397.017 290.868 394.635C291.586 392.279 292.398 390.124 293.343 388.247C295.206 384.495 297.255 381.753 298.852 380.037C299.597 379.132 300.316 378.56 300.742 378.12C301.194 377.695 301.433 377.482 301.447 377.508C301.5 377.562 300.555 378.453 299.051 380.21C297.534 381.966 295.565 384.721 293.782 388.46C292.877 390.323 292.105 392.466 291.426 394.794C290.828 397.15 290.282 399.705 290.109 402.433C289.683 407.876 290.442 413.984 292.917 419.799C295.472 425.561 299.424 430.298 303.682 433.692C305.798 435.435 308.034 436.779 310.163 437.95C312.332 439.041 314.421 439.933 316.404 440.545C320.356 441.796 323.71 442.235 326.025 442.328C328.341 442.421 329.632 442.355 329.632 442.421Z" fill="#D7D7D7"/>
<path d="M410.424 348.535H410.545L410.459 348.45C410.444 348.435 410.426 348.433 410.419 348.432C410.41 348.431 410.4 348.432 410.391 348.433C410.372 348.435 410.348 348.44 410.319 348.447C410.261 348.46 410.177 348.484 410.064 348.517L410.064 348.517C409.944 348.553 409.814 348.591 409.671 348.634L409.621 348.649C409.458 348.697 409.279 348.75 409.079 348.81L409.078 348.81C408.222 349.087 407.056 349.46 405.591 349.927L405.339 350.008L405.338 350.008C403.728 350.54 401.733 351.179 399.405 351.83C398.705 352.026 397.979 352.239 397.226 352.46C395.47 352.974 393.565 353.532 391.489 354.026L391.488 354.026C390.551 354.271 389.586 354.516 388.595 354.768C388.025 354.912 387.446 355.06 386.858 355.21C385.871 355.463 384.851 355.68 383.807 355.903C383.148 356.043 382.478 356.186 381.802 356.341L381.802 356.341C378.991 357.006 375.999 357.55 372.865 358.12C372.114 358.256 371.354 358.395 370.587 358.536C362.644 359.84 353.85 360.944 344.577 361.543C335.304 362.088 326.443 362.062 318.393 361.743C317.608 361.696 316.831 361.651 316.062 361.608C312.892 361.427 309.86 361.255 306.992 360.944L306.992 360.944C306.25 360.867 305.519 360.801 304.799 360.736C303.785 360.645 302.795 360.555 301.829 360.439C300.966 360.333 300.119 360.225 299.288 360.118C298.543 360.022 297.811 359.928 297.092 359.84L297.092 359.84C294.867 359.596 292.822 359.259 290.943 358.95C290.261 358.837 289.602 358.728 288.963 358.629L288.962 358.629C286.569 358.283 284.534 357.884 282.857 357.552L282.857 357.552C281.239 357.236 279.959 356.998 279.03 356.826L278.997 356.82L278.997 356.82L278.996 356.819C278.796 356.787 278.613 356.754 278.447 356.725C278.274 356.694 278.12 356.667 277.985 356.646C277.872 356.626 277.784 356.613 277.725 356.606C277.695 356.603 277.671 356.601 277.653 356.601C277.645 356.601 277.635 356.601 277.626 356.603C277.621 356.604 277.613 356.606 277.604 356.612C277.595 356.618 277.581 356.633 277.581 356.656C277.581 356.673 277.589 356.685 277.593 356.69C277.598 356.696 277.603 356.7 277.606 356.702C277.613 356.708 277.622 356.712 277.63 356.716C277.646 356.724 277.668 356.732 277.697 356.742C277.753 356.761 277.838 356.784 277.952 356.811C278.218 356.878 278.551 356.957 278.95 357.051L278.951 357.051C279.497 357.168 280.162 357.317 280.946 357.493C281.499 357.616 282.112 357.754 282.783 357.902C284.447 358.275 286.484 358.701 288.88 359.1C289.429 359.195 289.994 359.296 290.575 359.399C292.531 359.748 294.673 360.131 297.013 360.418C297.013 360.418 297.013 360.418 297.013 360.418L410.424 348.535ZM410.424 348.535H410.424L410.415 348.54C410.401 348.548 410.381 348.56 410.353 348.573C410.298 348.601 410.217 348.638 410.109 348.678L410.109 348.679C409.856 348.772 409.537 348.891 409.151 349.038L409.15 349.038C408.531 349.26 407.746 349.539 406.798 349.876C406.38 350.025 405.931 350.184 405.451 350.355L410.424 348.535ZM306.928 361.616C309.954 361.966 313.172 362.163 316.539 362.369C317.142 362.406 317.749 362.443 318.361 362.481L318.362 362.481C326.428 362.841 335.319 362.88 344.623 362.335L344.623 362.335C353.927 361.722 362.751 360.604 370.71 359.26L370.711 359.26C371.337 359.142 371.959 359.027 372.575 358.912C375.863 358.3 379.008 357.715 381.945 356.997C382.613 356.839 383.277 356.692 383.932 356.548C384.982 356.316 386.011 356.088 387.003 355.826C387.528 355.687 388.047 355.549 388.559 355.414C389.614 355.134 390.639 354.862 391.633 354.602C391.633 354.602 391.633 354.602 391.633 354.602L306.928 361.616Z" fill="#D7D7D7" stroke="#D7D7D7" stroke-width="0.1"/>
<path d="M232.346 337.68C232.346 337.68 232.519 337.72 232.865 337.826C233.224 337.946 233.716 338.119 234.342 338.332C235.673 338.798 237.575 339.476 240.011 340.328C241.248 340.767 242.606 341.259 244.109 341.792C245.613 342.297 247.276 342.763 249.046 343.322C252.599 344.373 256.605 345.744 261.156 346.809C263.418 347.394 265.787 347.993 268.249 348.632C270.724 349.257 273.332 349.723 276.02 350.295C281.37 351.519 287.185 352.358 293.28 353.342C305.509 355.006 319.056 356.137 333.295 356.203C347.547 356.15 361.093 355.006 373.323 353.342C379.417 352.358 385.219 351.519 390.582 350.295C393.27 349.71 395.879 349.257 398.354 348.632C400.816 347.993 403.184 347.394 405.446 346.809C409.998 345.744 413.99 344.373 417.556 343.322C419.326 342.776 420.989 342.297 422.493 341.792C423.983 341.259 425.354 340.767 426.592 340.328C429.027 339.463 430.93 338.798 432.261 338.332C432.886 338.119 433.378 337.946 433.738 337.826C434.07 337.72 434.243 337.666 434.257 337.68C434.27 337.693 434.097 337.76 433.764 337.893C433.405 338.039 432.926 338.225 432.301 338.465C430.983 338.957 429.08 339.676 426.672 340.594C425.447 341.046 424.077 341.565 422.6 342.111C421.096 342.63 419.446 343.122 417.676 343.695C414.123 344.786 410.131 346.183 405.58 347.288C403.317 347.886 400.949 348.512 398.473 349.151C395.998 349.789 393.39 350.268 390.702 350.854C385.339 352.105 379.524 352.97 373.416 353.968C361.16 355.671 347.587 356.829 333.295 356.882C319.016 356.816 305.429 355.658 293.186 353.955C287.078 352.943 281.263 352.092 275.9 350.827C273.212 350.229 270.604 349.749 268.129 349.124C265.667 348.472 263.285 347.847 261.023 347.261C256.472 346.156 252.48 344.759 248.927 343.668C247.157 343.096 245.507 342.603 244.003 342.084C242.512 341.526 241.155 341.02 239.931 340.567C237.509 339.649 235.619 338.944 234.302 338.438C233.69 338.199 233.197 338.012 232.838 337.866C232.505 337.733 232.346 337.666 232.346 337.653V337.68Z" fill="#D7D7D7"/>
<path d="M397.38 385.045C396.664 383.758 396.192 382.335 395.595 380.981C394.157 377.72 391.949 374.832 389.209 372.624C388.347 371.927 387.367 371.191 387.176 370.083C387.084 369.563 387.192 369.018 387.372 368.516C388.1 366.544 390.044 365.208 392.056 364.752C394.068 364.297 396.144 364.583 398.142 365.001C402.024 365.81 405.856 367.134 409.045 369.482C412.232 371.835 414.737 375.309 415.371 379.305C415.645 381.011 415.565 382.807 414.984 384.452C413.716 388.019 410.019 390.481 406.333 390.509C402.649 390.531 399.171 388.283 397.375 385.054L397.38 385.045Z" fill="url(#paint10_linear_403_362)"/>
<path d="M245.774 358.206C257.02 372.238 269.439 413.25 268.68 430.047C250.645 412.54 244.293 374.072 245.774 358.206Z" fill="url(#paint11_linear_403_362)"/>
</g>
<path d="M229.942 151.734C229.942 151.734 231.22 168.944 238.406 173C238.406 173 215.347 169.03 209.673 160.419C203.999 151.808 229.942 151.734 229.942 151.734Z" fill="url(#paint12_linear_403_362)"/>
<g filter="url(#filter4_b_403_362)">
<path d="M212.698 102H171.302C155.119 102 142 115.077 142 131.209C142 147.341 155.119 160.419 171.302 160.419H212.698C228.881 160.419 242 147.341 242 131.209C242 115.077 228.881 102 212.698 102Z" fill="url(#paint13_linear_403_362)"/>
</g>
<path fill-rule="evenodd" clip-rule="evenodd" d="M225.706 136.878C223.873 136.958 222.959 137.075 222.965 137.21V137.217L223.169 141.574C223.175 141.691 224.095 141.71 225.929 141.624C227.762 141.538 228.67 141.396 228.664 141.199L228.466 136.927C228.46 136.81 227.54 136.792 225.706 136.878ZM225.675 135.481C227.089 135.413 227.793 135.321 227.793 135.204L227.713 120.561C227.707 120.425 226.799 120.395 224.984 120.481C223.169 120.567 222.267 120.684 222.274 120.844L223.539 135.432C223.545 135.53 224.255 135.549 225.675 135.481ZM202.202 142.652C204.221 142.559 205.227 142.424 205.221 142.245L205.227 142.239L204.289 121.927C204.283 121.792 203.431 121.73 201.745 121.749C199.819 121.841 198.868 122.032 198.88 122.327L199.813 142.522C199.819 142.664 200.615 142.707 202.202 142.652ZM197.133 142.615C197.139 142.793 196.133 142.929 194.114 143.021C192.527 143.076 191.731 143.033 191.725 142.892L190.792 122.697C190.78 122.401 191.731 122.21 193.657 122.118C195.343 122.1 196.195 122.161 196.201 122.296L197.139 142.609L197.133 142.615ZM171.449 144.03C173.456 143.938 174.45 143.729 174.431 143.39L174.419 143.378L173.518 123.78C173.505 123.503 172.999 123.331 172.005 123.257L170.486 123.269C169.992 123.294 169.486 123.337 168.974 123.398C167.992 123.558 167.504 123.78 167.516 124.057L167.838 130.963L163.676 131.154L163.355 124.186C163.337 123.768 162.324 123.608 160.324 123.7C158.317 123.792 157.329 124.051 157.348 124.463L158.255 144.123C158.268 144.461 159.28 144.584 161.281 144.492C163.287 144.4 164.281 144.19 164.263 143.852L163.948 137.032L168.109 136.841L168.424 143.661C168.436 144 169.449 144.123 171.449 144.03ZM183.717 143.766C185.68 143.68 187.267 143.236 188.483 142.449L188.496 142.442C188.866 142.245 189.033 141.858 189.008 141.273C188.977 140.688 188.706 139.986 188.193 139.156C188.02 138.866 187.928 138.737 187.909 138.755C186.687 139.451 185.384 139.826 183.995 139.888C183.359 139.913 182.877 139.826 182.538 139.611C182.198 139.402 182.013 138.995 181.988 138.405L184.038 138.312C187.724 138.14 189.496 136.453 189.348 133.253C189.28 131.812 188.687 130.612 187.557 129.652C186.427 128.698 184.872 128.261 182.89 128.353C180.908 128.439 179.303 129.24 178.068 130.741C176.833 132.243 176.271 134.176 176.382 136.54C176.493 138.903 177.253 140.719 178.66 141.993C180.068 143.267 181.754 143.858 183.717 143.766ZM183.093 132.859C183.908 132.822 184.334 133.216 184.371 134.047H184.365C184.396 134.718 184.087 135.068 183.433 135.099L181.828 135.173L181.785 134.256C181.766 133.825 181.883 133.487 182.143 133.247C182.402 133.006 182.717 132.877 183.093 132.859ZM209.123 140.553C207.82 139.248 207.116 137.389 207.005 134.976C206.894 132.563 207.425 130.649 208.604 129.227C209.784 127.805 211.42 127.048 213.519 126.95C215.618 126.851 217.316 127.461 218.612 128.766C219.903 130.07 220.607 131.935 220.718 134.342C220.829 136.755 220.304 138.669 219.137 140.091C217.97 141.513 216.334 142.27 214.235 142.369C212.136 142.467 210.432 141.858 209.129 140.553H209.123ZM213.76 131.899C212.642 131.948 212.123 132.883 212.204 134.705C212.29 136.521 212.889 137.407 214.013 137.358C215.13 137.309 215.649 136.373 215.569 134.551C215.482 132.736 214.883 131.849 213.76 131.899Z" fill="#0B572D"/>
<path fill-rule="evenodd" clip-rule="evenodd" d="M224.706 135.878C222.873 135.958 221.959 136.075 221.965 136.21V136.217L222.169 140.574C222.175 140.691 223.095 140.71 224.929 140.624C226.762 140.538 227.67 140.396 227.664 140.199L227.466 135.927C227.46 135.81 226.54 135.792 224.706 135.878ZM224.675 134.481C226.089 134.413 226.793 134.321 226.793 134.204L226.713 119.561C226.707 119.425 225.799 119.395 223.984 119.481C222.169 119.567 221.267 119.684 221.274 119.844L222.539 134.432C222.545 134.53 223.255 134.549 224.675 134.481ZM201.202 141.652C203.221 141.559 204.227 141.424 204.221 141.245L204.227 141.239L203.289 120.927C203.283 120.792 202.431 120.73 200.745 120.749C198.819 120.841 197.868 121.032 197.88 121.327L198.813 141.522C198.819 141.664 199.615 141.707 201.202 141.652ZM196.133 141.615C196.139 141.793 195.133 141.929 193.114 142.021C191.527 142.076 190.731 142.033 190.725 141.892L189.792 121.697C189.78 121.401 190.731 121.21 192.657 121.118C194.343 121.1 195.195 121.161 195.201 121.296L196.139 141.609L196.133 141.615ZM170.449 143.03C172.456 142.938 173.45 142.729 173.431 142.39L173.419 142.378L172.518 122.78C172.505 122.503 171.999 122.331 171.005 122.257L169.486 122.269C168.992 122.294 168.486 122.337 167.974 122.398C166.992 122.558 166.504 122.78 166.516 123.057L166.838 129.963L162.676 130.154L162.355 123.186C162.337 122.768 161.324 122.608 159.324 122.7C157.317 122.792 156.329 123.051 156.348 123.463L157.255 143.123C157.268 143.461 158.28 143.584 160.281 143.492C162.287 143.4 163.281 143.19 163.263 142.852L162.948 136.032L167.109 135.841L167.424 142.661C167.436 143 168.449 143.123 170.449 143.03ZM182.717 142.766C184.68 142.68 186.267 142.236 187.483 141.449L187.496 141.442C187.866 141.245 188.033 140.858 188.008 140.273C187.977 139.688 187.706 138.986 187.193 138.156C187.02 137.866 186.928 137.737 186.909 137.755C185.687 138.451 184.384 138.826 182.995 138.888C182.359 138.913 181.877 138.826 181.538 138.611C181.198 138.402 181.013 137.995 180.988 137.405L183.038 137.312C186.724 137.14 188.496 135.453 188.348 132.253C188.28 130.812 187.687 129.612 186.557 128.652C185.427 127.698 183.872 127.261 181.89 127.353C179.908 127.439 178.303 128.24 177.068 129.741C175.833 131.243 175.271 133.176 175.382 135.54C175.493 137.903 176.253 139.719 177.66 140.993C179.068 142.267 180.754 142.858 182.717 142.766ZM182.093 131.859C182.908 131.822 183.334 132.216 183.371 133.047H183.365C183.396 133.718 183.087 134.068 182.433 134.099L180.828 134.173L180.785 133.256C180.766 132.825 180.883 132.487 181.143 132.247C181.402 132.006 181.717 131.877 182.093 131.859ZM208.123 139.553C206.82 138.248 206.116 136.389 206.005 133.976C205.894 131.563 206.425 129.649 207.604 128.227C208.784 126.805 210.42 126.048 212.519 125.95C214.618 125.851 216.316 126.461 217.612 127.766C218.903 129.07 219.607 130.935 219.718 133.342C219.829 135.755 219.304 137.669 218.137 139.091C216.97 140.513 215.334 141.27 213.235 141.369C211.136 141.467 209.432 140.858 208.129 139.553H208.123ZM212.76 130.899C211.642 130.948 211.123 131.883 211.204 133.705C211.29 135.521 211.889 136.407 213.013 136.358C214.13 136.309 214.649 135.373 214.569 133.551C214.482 131.736 213.883 130.849 212.76 130.899Z" fill="url(#paint14_linear_403_362)"/>
<path d="M226.034 131.379C226.034 131.379 224.861 120.792 225.447 120.502C226.028 120.213 226.306 125.999 226.034 131.379Z" fill="white"/>
<path d="M227.195 136.721C227.195 137.072 226.911 137.355 226.559 137.355C226.207 137.355 225.923 137.072 225.923 136.721C225.923 136.371 226.207 136.087 226.559 136.087C226.911 136.087 227.195 136.371 227.195 136.721Z" fill="white"/>
<path d="M218.842 132.087C218.842 131.496 218.774 129.815 217.551 128.449C216.496 127.279 215.088 126.892 214.446 126.965C214.322 126.978 213.909 127.052 213.884 127.224C213.829 127.581 215.52 127.833 216.792 128.781C217.502 129.311 218.342 130.258 218.848 132.087H218.842Z" fill="white"/>
<path d="M202.344 121.124C202.999 121.118 203.246 132.991 203.054 135.139C202.863 137.288 202.085 121.13 202.344 121.124Z" fill="white"/>
<path d="M187.614 131.286C187.33 129.68 185.49 127.876 184.341 128.16C183.193 128.443 185.7 129.311 186.601 130.086C187.503 130.862 187.614 131.286 187.614 131.286Z" fill="white"/>
<path d="M177.538 140.433C178.871 141.904 180.773 142.193 180.804 142.126C180.835 142.058 178.717 141.775 177.606 140.088C177.081 139.294 176.562 137.854 176.223 137.854C176.217 137.854 176.198 137.854 176.192 137.866C176.013 137.996 176.692 139.491 177.544 140.433H177.538Z" fill="white"/>
<path d="M172.654 140.131C172.228 140.716 172.172 125.734 171.9 124.269V124.171C171.9 124.072 171.888 123.882 171.882 123.5C171.882 123.414 171.802 123.118 171.734 123.057C171.178 122.552 168.727 122.804 169.77 122.669C170.69 122.552 171.758 122.638 172.024 122.737C172.141 122.78 172.147 123.008 172.178 123.094C172.709 126.061 173.215 139.362 172.647 140.131H172.654Z" fill="white"/>
<defs>
<filter id="filter0_i_403_362" x="0" y="0" width="660" height="661" filterUnits="userSpaceOnUse" color-interpolation-filters="sRGB">
<feFlood flood-opacity="0" result="BackgroundImageFix"/>
<feBlend mode="normal" in="SourceGraphic" in2="BackgroundImageFix" result="shape"/>
<feColorMatrix in="SourceAlpha" type="matrix" values="0 0 0 0 0 0 0 0 0 0 0 0 0 0 0 0 0 0 127 0" result="hardAlpha"/>
<feOffset dy="1"/>
<feGaussianBlur stdDeviation="1"/>
<feComposite in2="hardAlpha" operator="arithmetic" k2="-1" k3="1"/>
<feColorMatrix type="matrix" values="0 0 0 0 1 0 0 0 0 1 0 0 0 0 1 0 0 0 0.12 0"/>
<feBlend mode="normal" in2="shape" result="effect1_innerShadow_403_362"/>
</filter>
<filter id="filter1_i_403_362" x="43.2314" y="43.2314" width="573.537" height="574.537" filterUnits="userSpaceOnUse" color-interpolation-filters="sRGB">
<feFlood flood-opacity="0" result="BackgroundImageFix"/>
<feBlend mode="normal" in="SourceGraphic" in2="BackgroundImageFix" result="shape"/>
<feColorMatrix in="SourceAlpha" type="matrix" values="0 0 0 0 0 0 0 0 0 0 0 0 0 0 0 0 0 0 127 0" result="hardAlpha"/>
<feOffset dy="1"/>
<feGaussianBlur stdDeviation="1"/>
<feComposite in2="hardAlpha" operator="arithmetic" k2="-1" k3="1"/>
<feColorMatrix type="matrix" values="0 0 0 0 1 0 0 0 0 1 0 0 0 0 1 0 0 0 0.12 0"/>
<feBlend mode="normal" in2="shape" result="effect1_innerShadow_403_362"/>
</filter>
<filter id="filter2_i_403_362" x="87.9043" y="87.9039" width="484.192" height="485.192" filterUnits="userSpaceOnUse" color-interpolation-filters="sRGB">
<feFlood flood-opacity="0" result="BackgroundImageFix"/>
<feBlend mode="normal" in="SourceGraphic" in2="BackgroundImageFix" result="shape"/>
<feColorMatrix in="SourceAlpha" type="matrix" values="0 0 0 0 0 0 0 0 0 0 0 0 0 0 0 0 0 0 127 0" result="hardAlpha"/>
<feOffset dy="1"/>
<feGaussianBlur stdDeviation="1"/>
<feComposite in2="hardAlpha" operator="arithmetic" k2="-1" k3="1"/>
<feColorMatrix type="matrix" values="0 0 0 0 1 0 0 0 0 1 0 0 0 0 1 0 0 0 0.12 0"/>
<feBlend mode="normal" in2="shape" result="effect1_innerShadow_403_362"/>
</filter>
<filter id="filter3_i_403_362" x="132.576" y="132.576" width="394.848" height="395.847" filterUnits="userSpaceOnUse" color-interpolation-filters="sRGB">
<feFlood flood-opacity="0" result="BackgroundImageFix"/>
<feBlend mode="normal" in="SourceGraphic" in2="BackgroundImageFix" result="shape"/>
<feColorMatrix in="SourceAlpha" type="matrix" values="0 0 0 0 0 0 0 0 0 0 0 0 0 0 0 0 0 0 127 0" result="hardAlpha"/>
<feOffset dy="1"/>
<feGaussianBlur stdDeviation="1"/>
<feComposite in2="hardAlpha" operator="arithmetic" k2="-1" k3="1"/>
<feColorMatrix type="matrix" values="0 0 0 0 1 0 0 0 0 1 0 0 0 0 1 0 0 0 0.12 0"/>
<feBlend mode="normal" in2="shape" result="effect1_innerShadow_403_362"/>
</filter>
<filter id="filter4_b_403_362" x="128" y="88" width="128" height="86.4188" filterUnits="userSpaceOnUse" color-interpolation-filters="sRGB">
<feFlood flood-opacity="0" result="BackgroundImageFix"/>
<feGaussianBlur in="BackgroundImageFix" stdDeviation="7"/>
<feComposite in2="SourceAlpha" operator="in" result="effect1_backgroundBlur_403_362"/>
<feBlend mode="normal" in="SourceGraphic" in2="effect1_backgroundBlur_403_362" result="shape"/>
</filter>
<radialGradient id="paint0_radial_403_362" cx="0" cy="0" r="1" gradientUnits="userSpaceOnUse" gradientTransform="translate(323.496 330.325) rotate(91.5166) scale(207.877)">
<stop stop-color="#0E0E10"/>
<stop offset="0.685617" stop-color="#010101" stop-opacity="0.12"/>
<stop offset="1" stop-color="white"/>
</radialGradient>
<linearGradient id="paint1_linear_403_362" x1="332.959" y1="305.25" x2="332.959" y2="294.391" gradientUnits="userSpaceOnUse">
<stop stop-color="#D6D6D6"/>
<stop offset="1" stop-color="#EFEFEF"/>
</linearGradient>
<linearGradient id="paint2_linear_403_362" x1="257.131" y1="166.642" x2="427.464" y2="278.423" gradientUnits="userSpaceOnUse">
<stop stop-color="#F0F0F0"/>
<stop offset="0.304048" stop-color="#EDEDED"/>
<stop offset="1" stop-color="#D3D3D3"/>
</linearGradient>
<linearGradient id="paint3_linear_403_362" x1="414.677" y1="247.816" x2="243.014" y2="210.556" gradientUnits="userSpaceOnUse">
<stop stop-color="#F4F4F4"/>
<stop offset="1" stop-color="#CCCCCC"/>
</linearGradient>
<linearGradient id="paint4_linear_403_362" x1="282.141" y1="175.291" x2="260.184" y2="194.587" gradientUnits="userSpaceOnUse">
<stop stop-color="#E4E4E4"/>
<stop offset="0.489583" stop-color="#E4E4E4" stop-opacity="0.65625"/>
<stop offset="1" stop-color="#E4E4E4" stop-opacity="0"/>
</linearGradient>
<linearGradient id="paint5_linear_403_362" x1="120.329" y1="263.712" x2="156.272" y2="283.819" gradientUnits="userSpaceOnUse">
<stop stop-color="#F0F0F0"/>
<stop offset="0.263914" stop-color="#EDEDED"/>
<stop offset="1" stop-color="#D3D3D3"/>
</linearGradient>
<linearGradient id="paint6_linear_403_362" x1="507.972" y1="515.175" x2="468.269" y2="494.968" gradientUnits="userSpaceOnUse">
<stop stop-color="#F0F0F0"/>
<stop offset="0.263914" stop-color="#EDEDED"/>
<stop offset="1" stop-color="#D3D3D3"/>
</linearGradient>
<linearGradient id="paint7_linear_403_362" x1="232.24" y1="340.967" x2="418.541" y2="501.319" gradientUnits="userSpaceOnUse">
<stop stop-color="#F2F2F2"/>
<stop offset="1" stop-color="#D4D4D4"/>
</linearGradient>
<linearGradient id="paint8_linear_403_362" x1="360.137" y1="425.468" x2="298.924" y2="390.869" gradientUnits="userSpaceOnUse">
<stop stop-color="white"/>
<stop offset="1" stop-color="#CCCCCC"/>
</linearGradient>
<linearGradient id="paint9_linear_403_362" x1="235.862" y1="332.546" x2="428.817" y2="340.53" gradientUnits="userSpaceOnUse">
<stop stop-color="#E8E8E8"/>
<stop offset="1" stop-color="#BFBFBF"/>
</linearGradient>
<linearGradient id="paint10_linear_403_362" x1="387.149" y1="361.759" x2="413.268" y2="385.247" gradientUnits="userSpaceOnUse">
<stop stop-color="#F7F5F5"/>
<stop offset="0.666667" stop-color="#F6F5F5" stop-opacity="0.104167"/>
<stop offset="1" stop-color="#F6F5F5" stop-opacity="0"/>
</linearGradient>
<linearGradient id="paint11_linear_403_362" x1="247.86" y1="361.703" x2="261.55" y2="409.978" gradientUnits="userSpaceOnUse">
<stop stop-color="#E8E8E8"/>
<stop offset="0.520833" stop-color="#DDDDDD" stop-opacity="0.244792"/>
<stop offset="1" stop-color="#D9D9D9" stop-opacity="0"/>
</linearGradient>
<linearGradient id="paint12_linear_403_362" x1="217.896" y1="150.318" x2="227.448" y2="176.519" gradientUnits="userSpaceOnUse">
<stop offset="0.439354" stop-color="#B0F0EA"/>
<stop offset="0.684364" stop-color="#D5F7EA"/>
<stop offset="1" stop-color="#D7F8EA"/>
</linearGradient>
<linearGradient id="paint13_linear_403_362" x1="142" y1="131.212" x2="242" y2="131.212" gradientUnits="userSpaceOnUse">
<stop stop-color="#F7FFDC"/>
<stop offset="1" stop-color="#E3FDFF"/>
</linearGradient>
<linearGradient id="paint14_linear_403_362" x1="158" y1="146" x2="232.458" y2="117.889" gradientUnits="userSpaceOnUse">
<stop stop-color="#06CFF1"/>
<stop offset="0.708333" stop-color="#B1F047"/>
<stop offset="1" stop-color="#C7F431"/>
</linearGradient>
</defs>
</svg>
