<svg width="19" height="23" viewBox="0 0 19 23" fill="none" xmlns="http://www.w3.org/2000/svg">
<path d="M16.0834 7.97002V6.66467C16.0834 3.12085 13.2106 0.247986 9.66669 0.247986C6.12283 0.247986 3.25001 3.12085 3.25001 6.66467V7.97002C1.5817 8.69813 0.502406 10.3444 0.5 12.1647V17.6647C0.503008 20.1948 2.55327 22.2451 5.08332 22.2481H14.25C16.7801 22.2451 18.8303 20.1948 18.8334 17.6647V12.1647C18.831 10.3444 17.7517 8.69813 16.0834 7.97002ZM10.5833 15.8314C10.5833 16.3377 10.173 16.7481 9.66669 16.7481C9.16043 16.7481 8.75003 16.3377 8.75003 15.8314V13.998C8.75003 13.4918 9.16043 13.0814 9.66669 13.0814C10.173 13.0814 10.5833 13.4918 10.5833 13.998V15.8314ZM14.2501 7.58137H5.08332V6.66471C5.08332 4.13341 7.13535 2.08134 9.66669 2.08134C12.198 2.08134 14.2501 4.13337 14.2501 6.66471V7.58137Z" fill="white"/>
</svg>
