<svg width="291" height="286" viewBox="0 0 291 286" fill="none" xmlns="http://www.w3.org/2000/svg">
<path d="M100.993 230.931H192.582C198.559 230.931 203.404 226.086 203.404 220.109V218.533C203.404 212.556 198.559 207.71 192.582 207.71H100.993C95.0161 207.71 90.1707 212.556 90.1707 218.533V220.109C90.1707 226.086 95.0161 230.931 100.993 230.931Z" fill="url(#paint0_linear_403_1760)"/>
<path d="M142.856 59.2253H150.764V19.2475H142.856V59.2253Z" fill="#F0F0F0"/>
<path d="M267.738 178.22C280.223 175.253 287.938 162.726 284.971 150.241C282.003 137.756 269.477 130.041 256.992 133.008C244.507 135.976 236.791 148.502 239.759 160.987C242.726 173.472 255.253 181.188 267.738 178.22Z" fill="#F0F0F0"/>
<mask id="mask0_403_1760" style="mask-type:alpha" maskUnits="userSpaceOnUse" x="239" y="132" width="47" height="47">
<path d="M267.738 178.22C280.223 175.253 287.938 162.726 284.971 150.241C282.003 137.756 269.477 130.041 256.992 133.008C244.507 135.976 236.791 148.502 239.759 160.987C242.726 173.472 255.253 181.188 267.738 178.22Z" fill="#F0F0F0"/>
</mask>
<g mask="url(#mask0_403_1760)">
<path d="M271.072 157.69C275.15 141.255 258.029 149.928 258.091 132.279L239.673 173.648L275.089 212.974C314.683 196.959 275.824 203.653 281.631 183.297C287.438 162.942 267.685 171.342 271.072 157.69Z" fill="#CFCFCF"/>
</g>
<path d="M32.94 176.725C45.4548 173.887 53.2988 161.44 50.4601 148.925C47.6214 136.41 35.1749 128.566 22.6601 131.405C10.1453 134.244 2.30122 146.69 5.13993 159.205C7.97863 171.72 20.4251 179.564 32.94 176.725Z" fill="#E8E8E8"/>
<mask id="mask1_403_1760" style="mask-type:alpha" maskUnits="userSpaceOnUse" x="4" y="130" width="48" height="48">
<path d="M32.94 176.725C45.4548 173.886 53.2988 161.44 50.4601 148.925C47.6214 136.41 35.1749 128.566 22.6601 131.405C10.1453 134.244 2.30122 146.69 5.13993 159.205C7.97863 171.72 20.4251 179.564 32.94 176.725Z" fill="#F0F0F0"/>
</mask>
<g mask="url(#mask1_403_1760)">
<path d="M17.8128 156.335C16.0402 139.495 31.8014 150.445 34.1734 132.956L46.7118 176.471L6.21204 210.537C-30.7959 189.217 6.76925 201.204 3.82429 180.242C0.879331 159.28 19.2853 170.324 17.8128 156.335Z" fill="#CFCFCF"/>
</g>
<path d="M142.352 50.5525C142.352 50.5525 47.8779 49.4187 32.9175 131.244C17.9572 213.07 97.8539 214.601 120.839 216.148C131.264 216.854 153.558 216.928 173.23 216.575C216.786 215.824 247.546 207.386 258.03 166.981C259.252 162.27 260.077 157.425 260.386 152.507C263.154 108.23 233.175 48.3585 142.367 50.5378L142.352 50.5525Z" fill="url(#paint1_linear_403_1760)"/>
<path d="M212.029 176.683L212.03 176.683C227.344 176.434 239.575 163.925 239.34 148.7L239.34 148.698C239.088 133.474 226.466 121.354 211.152 121.587L211.151 121.587L72.8386 123.737L72.8376 123.737C57.5232 123.986 45.2922 136.495 45.5278 151.72L45.5278 151.722C45.779 166.946 58.4014 179.066 73.7158 178.833L73.7162 178.833L212.029 176.683Z" fill="#030303" stroke="url(#paint2_linear_403_1760)" stroke-width="3"/>
<path d="M101.965 148.841C101.082 153.376 96.679 156.321 92.1585 155.437C87.6233 154.554 84.6783 150.151 85.5618 145.631C86.4453 141.095 90.848 138.15 95.3685 139.034C99.9038 139.917 102.849 144.32 101.965 148.841Z" fill="#C7F431"/>
<path d="M197.854 147.309C196.97 151.844 192.568 154.789 188.047 153.906C183.512 153.022 180.567 148.62 181.45 144.099C182.334 139.564 186.737 136.619 191.257 137.502C195.792 138.386 198.737 142.789 197.854 147.309Z" fill="#C7F431"/>
<path d="M156.034 27.6438C161.124 22.5547 161.124 14.3037 156.034 9.21458C150.945 4.12549 142.694 4.12549 137.605 9.21458C132.516 14.3037 132.516 22.5547 137.605 27.6438C142.694 32.7329 150.945 32.7329 156.034 27.6438Z" fill="#C7F431"/>
<path d="M125.995 144.983C126.614 145.056 126.305 147.972 128.131 151.859C129.014 153.788 130.487 155.894 132.563 157.69C134.639 159.487 137.392 160.856 140.411 161.18C143.444 161.416 146.404 160.561 148.775 159.177C151.16 157.793 152.986 155.982 154.193 154.245C156.697 150.755 156.918 147.825 157.536 147.869C157.772 147.869 158.037 148.605 158.037 149.989C158.037 151.373 157.639 153.391 156.52 155.629C155.401 157.867 153.457 160.282 150.645 162.152C147.877 164.037 144.107 165.318 140.058 164.979C136.023 164.567 132.548 162.638 130.163 160.282C127.748 157.926 126.261 155.202 125.568 152.802C124.862 150.387 124.832 148.325 125.097 146.971C125.348 145.616 125.73 144.924 125.966 144.968L125.995 144.983Z" fill="#C7F431"/>
<path d="M251.79 183.134C251.657 183.061 253.35 180.484 254.97 175.846C256.649 171.237 258.106 164.552 258.799 157.086C259.55 149.606 259.432 142.788 259.24 137.87C259.122 135.411 259.005 133.423 258.902 132.039C258.799 130.67 258.769 129.904 258.828 129.89C258.887 129.89 259.005 130.64 259.196 132.01C259.402 133.379 259.594 135.367 259.785 137.841C260.109 142.774 260.315 149.635 259.564 157.16C258.857 164.684 257.297 171.413 255.485 176.037C254.602 178.349 253.689 180.16 252.982 181.353C252.261 182.531 251.834 183.179 251.79 183.149V183.134Z" fill="#777777"/>
<path d="M32.9798 128.564C32.9798 128.564 32.862 129.33 32.5086 130.67C32.3319 131.333 32.111 132.157 31.9196 133.114C31.7135 134.071 31.4337 135.146 31.257 136.368C30.8005 138.783 30.4324 141.699 30.2263 144.953C30.0643 148.207 30.0643 151.785 30.3735 155.525C30.7269 159.265 31.3454 162.785 32.0816 165.965C32.862 169.116 33.7308 171.929 34.6143 174.226C35.0118 175.389 35.4683 176.405 35.8364 177.318C36.1898 178.231 36.5432 178.997 36.8524 179.615C37.4267 180.867 37.7212 181.574 37.677 181.603C37.6328 181.632 37.25 180.97 36.5874 179.748C36.2487 179.144 35.8511 178.393 35.4536 177.495C35.0413 176.597 34.5406 175.595 34.1136 174.432C33.1565 172.135 32.2288 169.323 31.4043 166.142C30.6238 162.947 29.9612 159.383 29.6078 155.599C29.2839 151.815 29.3133 148.192 29.5195 144.909C29.7698 141.625 30.1968 138.695 30.7269 136.265C30.9478 135.043 31.257 133.968 31.5073 133.011C31.7429 132.054 31.9933 131.244 32.2288 130.582C32.6706 129.271 32.9356 128.55 32.9798 128.564Z" fill="#777777"/>
<path opacity="0.5" d="M130.237 56.6779C130.237 56.6779 130.119 56.7074 129.898 56.7368C129.633 56.7663 129.295 56.7957 128.897 56.8252C128.014 56.9135 126.718 56.943 125.054 57.1491C121.726 57.4436 116.926 58.1062 111.109 59.4609C105.293 60.8009 98.4903 62.9801 91.3341 66.2932C84.1778 69.5916 76.7124 74.1268 69.6739 79.8989C62.6796 85.7152 56.8045 92.1941 52.2103 98.5847C47.6015 104.99 44.1706 111.248 41.741 116.696C39.3114 122.144 37.7506 126.738 36.8229 129.948C36.3075 131.539 36.0425 132.805 35.7775 133.659C35.6597 134.042 35.5713 134.366 35.4977 134.616C35.4241 134.837 35.3946 134.94 35.3799 134.94C35.3799 134.94 35.3799 134.822 35.4241 134.602C35.483 134.336 35.5419 134.013 35.6302 133.615C35.8364 132.761 36.0719 131.48 36.5284 129.86C37.3677 126.621 38.8549 121.982 41.2403 116.475C43.611 110.968 47.0125 104.637 51.6361 98.1724C56.2449 91.7082 62.1348 85.1704 69.188 79.2952C76.2854 73.4789 83.8244 68.9437 91.0396 65.6453C98.2695 62.347 105.131 60.1972 110.992 58.9161C116.852 57.6203 121.682 57.0461 125.024 56.8399C126.688 56.6927 127.999 56.7074 128.882 56.6632C129.28 56.6632 129.619 56.6632 129.884 56.6632C130.104 56.6632 130.222 56.6632 130.222 56.6779H130.237Z" fill="#BDBDBD"/>
<path d="M37.7953 170.029C37.7069 170.059 37.1327 168.969 36.4553 167.084C35.7633 165.214 35.0123 162.535 34.5411 159.531C34.0699 156.512 33.9816 153.744 34.0552 151.741C34.1288 149.739 34.335 148.531 34.438 148.531C34.6736 148.531 34.3497 153.464 35.2921 159.413C36.205 165.362 38.0309 169.941 37.7953 170.029Z" fill="#C8C8C8"/>
<path d="M13.0278 162.417C13.0278 162.417 12.6891 162.181 12.2327 161.622C11.7615 161.062 11.1578 160.208 10.5688 159.045C9.36134 156.762 8.3306 153.14 8.84597 149.15C9.37606 145.159 11.3345 141.935 13.0867 140.035C13.9702 139.078 14.7653 138.401 15.3691 137.988C15.958 137.576 16.3114 137.385 16.3409 137.429C16.4292 137.532 15.104 138.445 13.499 140.389C11.894 142.317 10.1123 145.439 9.61166 149.238C9.11102 153.037 10.024 156.527 11.0547 158.794C12.0854 161.092 13.1456 162.314 13.0278 162.402V162.417Z" fill="#8F8F8F"/>
<path d="M147.672 9.35252C147.643 9.49977 146.332 9.01385 144.212 9.26417C142.15 9.48504 139.176 10.6777 137.409 13.3871C135.686 16.1259 135.833 19.3212 136.496 21.2943C137.144 23.3263 138.13 24.3276 138.013 24.416C137.983 24.4454 137.703 24.2393 137.306 23.7681C136.893 23.2969 136.393 22.5312 135.981 21.4857C135.141 19.4537 134.861 15.9934 136.761 12.9895C138.705 10.0151 141.959 8.83715 144.168 8.7488C145.287 8.6899 146.2 8.82243 146.789 8.99912C147.392 9.17582 147.687 9.33779 147.672 9.36724V9.35252Z" fill="#5B7409"/>
<path d="M275.999 144.556C275.837 144.732 273.54 142.538 270.079 140.889C266.634 139.196 263.497 138.754 263.541 138.518C263.541 138.327 266.825 138.445 270.418 140.197C274.011 141.92 276.146 144.438 275.999 144.556Z" fill="#8F8F8F"/>
<path d="M188.046 118.287C188.046 118.493 169.964 118.669 147.67 118.669C125.377 118.669 107.295 118.493 107.295 118.287C107.295 118.081 125.377 117.904 147.67 117.904C169.964 117.904 188.046 118.081 188.046 118.287Z" fill="#CFCFCF"/>
<path d="M119.148 210.361C119.148 210.361 118.913 210.42 118.471 210.479C117.926 210.523 117.278 210.582 116.498 210.655C115.644 210.729 114.598 210.802 113.376 210.817C112.154 210.847 110.77 210.92 109.238 210.861C106.161 210.861 102.509 210.641 98.4599 210.213C94.4253 209.742 90.0078 209.021 85.4284 207.961C80.8637 206.871 76.5936 205.531 72.7651 204.162C68.9514 202.748 65.5941 201.29 62.8406 199.936C61.4418 199.288 60.2343 198.61 59.1594 198.036C58.0698 197.477 57.1716 196.946 56.4353 196.505C55.7727 196.092 55.2132 195.754 54.742 195.474C54.3591 195.238 54.1677 195.091 54.1824 195.076C54.1972 195.062 54.418 195.15 54.8156 195.341C55.3015 195.592 55.8758 195.886 56.5678 196.24C57.3188 196.652 58.2465 197.138 59.3508 197.653C60.4405 198.183 61.6626 198.831 63.0762 199.435C65.8445 200.731 69.2164 202.115 73.0154 203.484C76.8292 204.824 81.0846 206.12 85.6199 207.21C90.1551 208.27 94.5431 208.991 98.5482 209.507C102.553 209.978 106.19 210.243 109.253 210.317C110.785 210.405 112.169 210.361 113.376 210.375C114.598 210.39 115.644 210.375 116.498 210.346C117.278 210.346 117.926 210.331 118.471 210.317C118.927 210.317 119.163 210.331 119.163 210.361H119.148Z" fill="#C8C8C8"/>
<path d="M76.0379 110.846C77.39 109.935 78.5691 108.769 79.8373 107.733C82.8925 105.239 86.5189 103.498 90.3288 102.696C91.5289 102.441 92.8652 102.208 93.6093 101.21C93.9604 100.743 94.1281 100.152 94.2015 99.5668C94.474 97.2567 93.2268 94.963 91.4712 93.5043C89.7156 92.0457 87.5251 91.2865 85.3451 90.6954C81.1107 89.5458 76.6668 88.9277 72.3434 89.6435C68.02 90.3647 63.8066 92.5337 61.1759 96.156C60.0492 97.7014 59.2264 99.5125 58.9749 101.427C58.4351 105.58 60.8457 109.864 64.4669 111.74C68.0881 113.611 72.6473 113.139 76.0379 110.857V110.846Z" fill="url(#paint3_linear_403_1760)"/>
<g filter="url(#filter0_f_403_1760)">
<ellipse cx="146.644" cy="263.439" rx="64.0528" ry="12.5161" fill="white" fill-opacity="0.05"/>
</g>
<defs>
<filter id="filter0_f_403_1760" x="72.5908" y="240.923" width="148.105" height="45.0321" filterUnits="userSpaceOnUse" color-interpolation-filters="sRGB">
<feFlood flood-opacity="0" result="BackgroundImageFix"/>
<feBlend mode="normal" in="SourceGraphic" in2="BackgroundImageFix" result="shape"/>
<feGaussianBlur stdDeviation="5" result="effect1_foregroundBlur_403_1760"/>
</filter>
<linearGradient id="paint0_linear_403_1760" x1="146.787" y1="230.931" x2="146.787" y2="218.916" gradientUnits="userSpaceOnUse">
<stop stop-color="#D6D6D6"/>
<stop offset="1" stop-color="#EFEFEF"/>
</linearGradient>
<linearGradient id="paint1_linear_403_1760" x1="62.8825" y1="77.5578" x2="251.36" y2="201.246" gradientUnits="userSpaceOnUse">
<stop stop-color="#F0F0F0"/>
<stop offset="0.304048" stop-color="#EDEDED"/>
<stop offset="1" stop-color="#D3D3D3"/>
</linearGradient>
<linearGradient id="paint2_linear_403_1760" x1="237.213" y1="167.379" x2="47.2631" y2="126.15" gradientUnits="userSpaceOnUse">
<stop stop-color="#F4F4F4"/>
<stop offset="1" stop-color="#C7C7C7"/>
</linearGradient>
<linearGradient id="paint3_linear_403_1760" x1="90.5577" y1="87.1289" x2="66.2618" y2="108.48" gradientUnits="userSpaceOnUse">
<stop stop-color="#E4E4E4"/>
<stop offset="0.489583" stop-color="#E4E4E4" stop-opacity="0.65625"/>
<stop offset="1" stop-color="#E4E4E4" stop-opacity="0"/>
</linearGradient>
</defs>
</svg>
