<svg width="86" height="68" viewBox="0 0 86 68" fill="none" xmlns="http://www.w3.org/2000/svg">
<path d="M29.7901 67.638H56.8064C58.5694 67.638 59.9988 66.2217 59.9988 64.4747V64.0142C59.9988 62.2673 58.5694 60.851 56.8064 60.851H29.7901C28.027 60.851 26.5977 62.2673 26.5977 64.0142V64.4747C26.5977 66.2217 28.027 67.638 29.7901 67.638Z" fill="url(#paint0_linear_197_299)"/>
<path d="M42.1387 17.4518H44.4712V5.76703H42.1387V17.4518Z" fill="#F0F0F0"/>
<path d="M78.9746 52.2318C82.6574 51.3646 84.9333 47.7033 84.0577 44.0541C83.1825 40.405 79.4875 38.1499 75.8047 39.0173C72.1219 39.8846 69.846 43.5459 70.7216 47.1951C71.5968 50.8442 75.2918 53.0994 78.9746 52.2318Z" fill="#F0F0F0"/>
<mask id="mask0_197_299" style="mask-type:alpha" maskUnits="userSpaceOnUse" x="70" y="38" width="15" height="15">
<path d="M78.9746 52.2318C82.6574 51.3646 84.9333 47.7033 84.0577 44.0541C83.1825 40.405 79.4875 38.1499 75.8047 39.0173C72.1219 39.8846 69.846 43.5459 70.7216 47.1951C71.5968 50.8442 75.2918 53.0994 78.9746 52.2318Z" fill="#F0F0F0"/>
</mask>
<g mask="url(#mask0_197_299)">
<path d="M79.9592 46.2314C81.1619 41.4276 76.1118 43.9625 76.13 38.804L70.6973 50.8955L81.1437 62.3896C92.8232 57.7092 81.3604 59.6653 83.0734 53.7157C84.7865 47.7662 78.9598 50.2215 79.9592 46.2314Z" fill="#CFCFCF"/>
</g>
<path d="M9.71631 51.7949C13.4079 50.9651 15.7217 47.3271 14.8843 43.6693C14.047 40.0116 10.3756 37.7189 6.68403 38.5486C2.99246 39.3783 0.678673 43.0162 1.51602 46.6742C2.35336 50.332 6.02478 52.6247 9.71631 51.7949Z" fill="#E8E8E8"/>
<mask id="mask1_197_299" style="mask-type:alpha" maskUnits="userSpaceOnUse" x="1" y="38" width="15" height="14">
<path d="M9.71631 51.7949C13.4079 50.9651 15.7217 47.3271 14.8843 43.6693C14.047 40.0116 10.3756 37.7189 6.68403 38.5486C2.99246 39.3783 0.678673 43.0162 1.51602 46.6742C2.35336 50.332 6.02478 52.6247 9.71631 51.7949Z" fill="#F0F0F0"/>
</mask>
<g mask="url(#mask1_197_299)">
<path d="M5.25448 45.8354C4.73157 40.9131 9.38074 44.1139 10.0804 39.002L13.7789 51.7204L1.83254 61.6777C-9.08385 55.4458 1.9969 58.9495 1.12822 52.8226C0.259531 46.6962 5.68882 49.924 5.25448 45.8354Z" fill="#CFCFCF"/>
</g>
<path d="M41.9908 14.9168C41.9908 14.9168 14.1233 14.5854 9.71039 38.5016C5.29746 62.418 28.8649 62.8656 35.645 63.3175C38.7202 63.5241 45.2959 63.5456 51.0988 63.4423C63.9466 63.2228 73.0201 60.7568 76.1126 48.9471C76.4731 47.5699 76.7163 46.154 76.8076 44.7165C77.6241 31.7748 68.7809 14.2756 41.9951 14.9125L41.9908 14.9168Z" fill="url(#paint1_linear_197_299)"/>
<path d="M62.5456 51.9898H62.546C67.177 51.9154 70.8785 48.1664 70.8072 43.6005V43.5996C70.7312 39.0342 66.9116 35.4021 62.2802 35.472L21.4815 36.1004C16.8504 36.1749 13.1485 39.9239 13.2198 44.4896V44.4905C13.2958 49.0559 17.1156 52.6879 21.7467 52.6182L62.5456 51.9898Z" fill="#030303" stroke="url(#paint2_linear_197_299)" stroke-width="3"/>
<path d="M30.0771 43.6448C29.8165 44.9704 28.5178 45.8311 27.1844 45.5729C25.8466 45.3147 24.978 44.0278 25.2386 42.7065C25.4992 41.3809 26.7978 40.5202 28.1313 40.7784C29.4691 41.0366 30.3377 42.3235 30.0771 43.6448Z" fill="#C7F431"/>
<path d="M58.3613 43.1972C58.1007 44.5228 56.802 45.3835 55.4686 45.1253C54.1308 44.8671 53.2621 43.5802 53.5227 42.2589C53.7833 40.9333 55.082 40.0726 56.4155 40.3308C57.7532 40.589 58.6219 41.8759 58.3613 43.1972Z" fill="#C7F431"/>
<path d="M46.0249 8.22098C47.5259 6.73355 47.5259 4.32191 46.0249 2.83446C44.5238 1.34701 42.0899 1.34701 40.5887 2.83446C39.0876 4.32191 39.0876 6.73355 40.5887 8.22098C42.0899 9.70846 44.5238 9.70846 46.0249 8.22098Z" fill="#C7F431"/>
<path d="M37.1648 42.5171C37.3473 42.5386 37.2561 43.3909 37.7946 44.5271C38.0552 45.0909 38.4896 45.7063 39.102 46.2314C39.7144 46.7565 40.5267 47.1567 41.4171 47.2514C42.3118 47.3203 43.1848 47.0706 43.8841 46.6661C44.5877 46.2615 45.1263 45.7322 45.4825 45.2243C46.2209 44.2043 46.286 43.3479 46.4684 43.3608C46.5379 43.3608 46.6161 43.576 46.6161 43.9805C46.6161 44.3851 46.4988 44.9747 46.1687 45.6289C45.8386 46.283 45.2653 46.9889 44.4357 47.5354C43.6191 48.0863 42.5073 48.4608 41.3128 48.3618C40.1227 48.2413 39.0977 47.6775 38.394 46.9889C37.6817 46.3003 37.243 45.5041 37.0389 44.8025C36.8304 44.0967 36.8217 43.4942 36.8999 43.0982C36.9737 42.7022 37.0867 42.4999 37.1562 42.5128L37.1648 42.5171Z" fill="#C7F431"/>
<path d="M74.2717 53.6684C74.2326 53.6468 74.7321 52.8937 75.2099 51.538C75.705 50.1909 76.135 48.237 76.3392 46.0549C76.5607 43.8686 76.5259 41.876 76.4695 40.4385C76.4347 39.7198 76.4 39.1387 76.3696 38.7342C76.3392 38.3339 76.3305 38.1101 76.3478 38.1058C76.3652 38.1058 76.4 38.3253 76.4564 38.7256C76.5172 39.1258 76.5737 39.7068 76.6302 40.4299C76.7257 41.8717 76.7865 43.8772 76.565 46.0765C76.3565 48.2757 75.8961 50.2425 75.3619 51.5939C75.1013 52.2696 74.832 52.799 74.6235 53.1476C74.4107 53.4919 74.2847 53.6813 74.2717 53.6727V53.6684Z" fill="#777777"/>
<path d="M9.72763 37.7184C9.72763 37.7184 9.69288 37.9422 9.58864 38.3339C9.53652 38.5276 9.47137 38.7686 9.4149 39.0483C9.35409 39.3281 9.27157 39.6422 9.21945 39.9995C9.0848 40.7053 8.97621 41.5574 8.91541 42.5086C8.86763 43.4598 8.86763 44.5056 8.95884 45.5988C9.06308 46.692 9.24551 47.7206 9.46268 48.6502C9.69288 49.5712 9.94914 50.3932 10.2097 51.0646C10.327 51.4046 10.4617 51.7016 10.5703 51.9684C10.6745 52.2352 10.7787 52.459 10.87 52.6398C11.0393 53.0056 11.1262 53.2122 11.1132 53.2208C11.1002 53.2294 10.9872 53.0357 10.7918 52.6785C10.6919 52.5021 10.5746 52.2826 10.4573 52.0201C10.3357 51.7575 10.188 51.4649 10.0621 51.1249C9.77975 50.4535 9.50611 49.6314 9.26288 48.7018C9.03268 47.7679 8.83722 46.7264 8.73298 45.6203C8.63743 44.5142 8.64611 43.4555 8.70692 42.4957C8.78076 41.5359 8.90672 40.6795 9.06308 39.9693C9.12823 39.6121 9.21945 39.2979 9.29328 39.0182C9.36278 38.7384 9.43662 38.5017 9.50611 38.3081C9.63642 37.925 9.7146 37.7141 9.72763 37.7184Z" fill="#777777"/>
<path opacity="0.5" d="M38.4169 16.7072C38.4169 16.7072 38.3822 16.7158 38.317 16.7244C38.2388 16.733 38.1389 16.7416 38.0217 16.7502C37.7611 16.776 37.3788 16.7847 36.888 16.8449C35.9064 16.931 34.4905 17.1247 32.7748 17.5206C31.0591 17.9122 29.0525 18.5492 26.9416 19.5176C24.8307 20.4816 22.6285 21.8072 20.5524 23.4943C18.4893 25.1943 16.7562 27.0879 15.4011 28.9558C14.0416 30.8279 13.0296 32.6571 12.3129 34.2495C11.5962 35.8419 11.1358 37.1847 10.8622 38.1229C10.7102 38.5877 10.632 38.9578 10.5538 39.2074C10.519 39.3193 10.493 39.414 10.4713 39.4872C10.4496 39.5517 10.4409 39.5819 10.4365 39.5819C10.4365 39.5819 10.4365 39.5474 10.4496 39.4829C10.4669 39.4054 10.4843 39.3107 10.5104 39.1945C10.5712 38.9449 10.6407 38.5705 10.7753 38.0971C11.0229 37.1502 11.4616 35.7945 12.1652 34.1849C12.8645 32.5753 13.8678 30.7247 15.2317 28.8353C16.5912 26.9459 18.3285 25.035 20.409 23.3178C22.5026 21.6178 24.7264 20.2922 26.8547 19.3282C28.9873 18.3641 31.0114 17.7358 32.7401 17.3614C34.4687 16.9826 35.8934 16.8148 36.8794 16.7545C37.3702 16.7115 37.7567 16.7158 38.0173 16.7029C38.1346 16.7029 38.2345 16.7029 38.3127 16.7029C38.3778 16.7029 38.4126 16.7029 38.4126 16.7072H38.4169Z" fill="#BDBDBD"/>
<path d="M11.1491 49.8376C11.123 49.8462 10.9536 49.5277 10.7538 48.9768C10.5497 48.4302 10.3282 47.6469 10.1892 46.769C10.0502 45.8867 10.0241 45.0776 10.0458 44.4922C10.0676 43.9069 10.1284 43.554 10.1588 43.554C10.2283 43.554 10.1327 44.9958 10.4107 46.7345C10.68 48.4733 11.2186 49.8117 11.1491 49.8376Z" fill="#C8C8C8"/>
<path d="M3.84201 47.6125C3.84201 47.6125 3.74211 47.5437 3.60747 47.3801C3.46848 47.2166 3.2904 46.967 3.11666 46.627C2.7605 45.9599 2.45646 44.9016 2.60848 43.7348C2.76484 42.5687 3.34252 41.6262 3.85939 41.071C4.11999 40.7912 4.35453 40.5932 4.53261 40.4727C4.70634 40.3522 4.81059 40.2963 4.81927 40.3092C4.84533 40.3393 4.45443 40.6062 3.981 41.1743C3.50757 41.7381 2.98201 42.6505 2.83434 43.7606C2.68666 44.871 2.95595 45.891 3.25999 46.5538C3.56403 47.2252 3.87676 47.5824 3.84201 47.6082V47.6125Z" fill="#8F8F8F"/>
<path d="M43.5602 2.87469C43.5515 2.91773 43.1648 2.77571 42.5393 2.84887C41.9312 2.91343 41.0539 3.26203 40.5326 4.05393C40.0245 4.85444 40.0679 5.78836 40.2634 6.36507C40.4545 6.959 40.7455 7.25165 40.7107 7.27748C40.702 7.28609 40.6195 7.22583 40.5022 7.08811C40.3806 6.95039 40.2329 6.72659 40.1113 6.42102C39.8638 5.8271 39.7812 4.81571 40.3415 3.93773C40.9149 3.06836 41.8748 2.72406 42.5263 2.69824C42.8564 2.68102 43.1257 2.71976 43.2994 2.7714C43.4777 2.82305 43.5645 2.87039 43.5602 2.879V2.87469Z" fill="#5B7409"/>
<path d="M81.412 42.3921C81.3642 42.4438 80.6866 41.8025 79.6659 41.3205C78.6496 40.8255 77.7244 40.6964 77.7374 40.6276C77.7374 40.5716 78.706 40.606 79.7658 41.1182C80.8256 41.6217 81.4554 42.3577 81.412 42.3921Z" fill="#8F8F8F"/>
<path d="M55.4687 34.7142C55.4687 34.7744 50.135 34.8261 43.559 34.8261C36.9832 34.8261 31.6494 34.7744 31.6494 34.7142C31.6494 34.6539 36.9832 34.6023 43.559 34.6023C50.135 34.6023 55.4687 34.6539 55.4687 34.7142Z" fill="#CFCFCF"/>
<path d="M35.1459 61.6261C35.1459 61.6261 35.0764 61.6433 34.9461 61.6605C34.7854 61.6734 34.5943 61.6906 34.3641 61.7121C34.1122 61.7337 33.8038 61.7552 33.4433 61.7595C33.0828 61.7681 32.6745 61.7896 32.2228 61.7724C31.315 61.7724 30.2378 61.7078 29.0434 61.583C27.8533 61.4453 26.5502 61.2344 25.1994 60.9245C23.853 60.6061 22.5934 60.2144 21.4641 59.8142C20.3391 59.401 19.3488 58.9749 18.5366 58.579C18.124 58.3896 17.7678 58.1916 17.4507 58.0238C17.1293 57.8602 16.8644 57.7053 16.6472 57.5762C16.4517 57.4557 16.2867 57.3567 16.1477 57.2749C16.0348 57.2061 15.9783 57.163 15.9827 57.1587C15.987 57.1544 16.0521 57.1802 16.1694 57.2362C16.3128 57.3094 16.4821 57.3954 16.6863 57.4987C16.9078 57.6192 17.1814 57.7613 17.5072 57.9119C17.8286 58.0668 18.1891 58.2562 18.6061 58.4327C19.4227 58.8114 20.4173 59.2159 21.5379 59.6162C22.6629 60.0078 23.9181 60.3866 25.2559 60.7051C26.5937 61.0149 27.888 61.2258 29.0694 61.3764C30.2508 61.5142 31.3237 61.5916 32.2271 61.6132C32.6788 61.639 33.0871 61.6261 33.4433 61.6304C33.8038 61.6347 34.1122 61.6304 34.3641 61.6218C34.5943 61.6218 34.7854 61.6175 34.9461 61.6132C35.0807 61.6132 35.1502 61.6175 35.1502 61.6261H35.1459Z" fill="#C8C8C8"/>
<path d="M22.4294 32.5396C22.8283 32.2733 23.1761 31.9326 23.5502 31.6299C24.4514 30.9008 25.5211 30.392 26.6449 30.1574C26.9989 30.0829 27.3931 30.0148 27.6126 29.7232C27.7161 29.5869 27.7656 29.4141 27.7872 29.243C27.8676 28.5678 27.4997 27.8973 26.9819 27.471C26.464 27.0447 25.8179 26.8228 25.1748 26.65C23.9258 26.314 22.615 26.1333 21.3397 26.3426C20.0644 26.5534 18.8215 27.1873 18.0455 28.246C17.7132 28.6977 17.4705 29.2271 17.3963 29.7866C17.2371 31.0006 17.9481 32.2527 19.0163 32.8011C20.0845 33.3479 21.4293 33.21 22.4294 32.5428V32.5396Z" fill="url(#paint3_linear_197_299)"/>
<defs>
<linearGradient id="paint0_linear_197_299" x1="43.2982" y1="67.638" x2="43.2982" y2="64.1261" gradientUnits="userSpaceOnUse">
<stop stop-color="#D6D6D6"/>
<stop offset="1" stop-color="#EFEFEF"/>
</linearGradient>
<linearGradient id="paint1_linear_197_299" x1="18.5493" y1="22.81" x2="73.8371" y2="59.4271" gradientUnits="userSpaceOnUse">
<stop stop-color="#F0F0F0"/>
<stop offset="0.304048" stop-color="#EDEDED"/>
<stop offset="1" stop-color="#D3D3D3"/>
</linearGradient>
<linearGradient id="paint2_linear_197_299" x1="69.9711" y1="49.0633" x2="13.9873" y2="36.7999" gradientUnits="userSpaceOnUse">
<stop stop-color="#F4F4F4"/>
<stop offset="1" stop-color="#C7C7C7"/>
</linearGradient>
<linearGradient id="paint3_linear_197_299" x1="26.7124" y1="25.6076" x2="19.6031" y2="31.9127" gradientUnits="userSpaceOnUse">
<stop stop-color="#E4E4E4"/>
<stop offset="0.489583" stop-color="#E4E4E4" stop-opacity="0.65625"/>
<stop offset="1" stop-color="#E4E4E4" stop-opacity="0"/>
</linearGradient>
</defs>
</svg>
