<svg width="22" height="22" viewBox="0 0 22 22" fill="none" xmlns="http://www.w3.org/2000/svg">
<path opacity="0.4" d="M8.2498 6.60005V15.3909C8.19804 16.0304 8.28575 16.6735 8.50686 17.2758C8.72798 17.8781 9.07722 18.4252 9.53047 18.8793C9.98372 19.3335 10.5302 19.6838 11.132 19.906C11.7339 20.1283 12.3769 20.2172 13.0165 20.1667H15.3906C16.0295 20.2175 16.6718 20.1291 17.2732 19.9076C17.8746 19.686 18.4207 19.3365 18.8739 18.8833C19.3271 18.4302 19.6766 17.884 19.8981 17.2826C20.1197 16.6812 20.2081 16.0389 20.1573 15.4001V6.60005C20.21 5.96153 20.1232 5.31917 19.9029 4.71754C19.6826 4.11591 19.3341 3.56941 18.8815 3.11593C18.4288 2.66245 17.883 2.31286 17.2818 2.09139C16.6806 1.86992 16.0384 1.78189 15.3998 1.83339H13.0165C12.3776 1.78256 11.7353 1.87098 11.1339 2.09255C10.5325 2.31412 9.98635 2.66357 9.53316 3.11676C9.07998 3.56994 8.73053 4.11608 8.50896 4.71747C8.28739 5.31886 8.19897 5.96116 8.2498 6.60005Z" fill="white"/>
<path d="M11.3958 7.4432L14.4666 10.514C14.5945 10.6434 14.6662 10.818 14.6662 10.9999C14.6662 11.1818 14.5945 11.3563 14.4666 11.4857L11.3958 14.5565C11.2655 14.678 11.0931 14.7441 10.915 14.7409C10.7369 14.7378 10.5669 14.6656 10.441 14.5397C10.315 14.4137 10.2429 14.2438 10.2397 14.0657C10.2366 13.8876 10.3027 13.7152 10.4241 13.5849L12.3216 11.6874H2.52246C2.34012 11.6874 2.16526 11.6149 2.03633 11.486C1.90739 11.3571 1.83496 11.1822 1.83496 10.9999C1.83496 10.8175 1.90739 10.6427 2.03633 10.5137C2.16526 10.3848 2.34012 10.3124 2.52246 10.3124H12.3216L10.4241 8.41487C10.3602 8.35116 10.3094 8.27545 10.2748 8.19208C10.2401 8.1087 10.2223 8.01931 10.2223 7.92903C10.2223 7.83875 10.2401 7.74936 10.2748 7.66599C10.3094 7.58262 10.3602 7.5069 10.4241 7.4432C10.4871 7.378 10.5626 7.32614 10.6461 7.29073C10.7295 7.25531 10.8193 7.23706 10.91 7.23706C11.0006 7.23706 11.0904 7.25531 11.1738 7.29073C11.2573 7.32614 11.3328 7.378 11.3958 7.4432Z" fill="white"/>
</svg>
