<svg width="23" height="20" viewBox="0 0 23 20" fill="none" xmlns="http://www.w3.org/2000/svg">
<path d="M16.8 0.247986H5.6C2.24 0.247986 0 1.92799 0 5.84799V13.688C0 17.608 2.24 19.288 5.6 19.288H16.8C20.16 19.288 22.4 17.608 22.4 13.688V5.84799C22.4 1.92799 20.16 0.247986 16.8 0.247986ZM17.3264 7.06879L13.8208 9.86878C13.0676 10.4427 12.1469 10.7535 11.2 10.7535C10.2531 10.7535 9.33238 10.4427 8.5792 9.86878L5.0736 7.06879C4.902 6.9267 4.79213 6.72365 4.76707 6.50228C4.74201 6.28091 4.80371 6.05843 4.9392 5.88159C5.07745 5.708 5.27892 5.59635 5.4994 5.57115C5.71988 5.54595 5.94135 5.60926 6.1152 5.74719L9.6208 8.54718C10.0779 8.88021 10.6289 9.05963 11.1944 9.05963C11.7599 9.05963 12.3109 8.88021 12.768 8.54718L16.2736 5.74719C16.3591 5.67746 16.4576 5.62554 16.5635 5.5945C16.6693 5.56346 16.7803 5.55392 16.8899 5.56645C16.9995 5.57898 17.1055 5.61331 17.2016 5.66743C17.2977 5.72156 17.3821 5.79437 17.4496 5.88159C17.5891 6.05598 17.6545 6.27829 17.6314 6.50044C17.6083 6.7226 17.4988 6.92676 17.3264 7.06879Z" fill="white"/>
</svg>
