<svg width="27" height="28" viewBox="0 0 27 28" fill="none" xmlns="http://www.w3.org/2000/svg">
<path d="M18.1732 2.48657H8.68268C5.59378 2.48657 4.47461 3.60574 4.47461 6.7506V20.6059C4.47461 23.7507 5.59378 24.8699 8.68268 24.8699H18.162C21.2621 24.8699 22.3813 23.7507 22.3813 20.6059V6.7506C22.3813 3.60574 21.2621 2.48657 18.1732 2.48657ZM13.4279 21.8482C13.0406 21.8482 12.6619 21.7333 12.3398 21.5181C12.0178 21.3029 11.7667 20.997 11.6185 20.6391C11.4702 20.2812 11.4315 19.8874 11.507 19.5075C11.5826 19.1276 11.7691 18.7786 12.043 18.5047C12.317 18.2308 12.6659 18.0443 13.0458 17.9687C13.4258 17.8931 13.8196 17.9319 14.1774 18.0802C14.5353 18.2284 14.8412 18.4794 15.0564 18.8015C15.2716 19.1236 15.3865 19.5023 15.3865 19.8896C15.3841 20.4083 15.177 20.9051 14.8102 21.2719C14.4434 21.6387 13.9467 21.8458 13.4279 21.8482ZM15.6663 7.24303H11.1896C10.967 7.24303 10.7535 7.1546 10.5961 6.99718C10.4387 6.83977 10.3502 6.62627 10.3502 6.40366C10.3502 6.18104 10.4387 5.96754 10.5961 5.81013C10.7535 5.65271 10.967 5.56428 11.1896 5.56428H15.6663C15.8889 5.56428 16.1024 5.65271 16.2598 5.81013C16.4172 5.96754 16.5056 6.18104 16.5056 6.40366C16.5056 6.62627 16.4172 6.83977 16.2598 6.99718C16.1024 7.1546 15.8889 7.24303 15.6663 7.24303Z" fill="white"/>
</svg>
