<svg width="531" height="372" viewBox="0 0 531 372" fill="none" xmlns="http://www.w3.org/2000/svg">
<path d="M213.719 260.291C212.841 278.754 212.62 297.285 217.27 315.171C217.92 317.684 218.686 320.218 220.201 322.317C221.715 324.417 224.115 326.039 226.688 325.993C230.244 325.921 232.956 322.854 234.706 319.751C238.546 312.923 239.844 304.966 240.725 297.169C243.145 275.814 242.991 254.243 242.827 232.756C231.795 241.113 223.916 250.911 213.698 260.249" fill="url(#paint0_linear_726_313)"/>
<path d="M283.207 262.535C282.329 280.998 282.108 299.529 286.758 317.415C287.408 319.928 288.174 322.462 289.689 324.561C291.204 326.661 293.603 328.284 296.176 328.238C299.732 328.165 302.444 325.098 304.194 321.995C308.034 315.167 309.332 307.211 310.213 299.414C312.634 278.059 312.479 256.487 312.315 235C301.283 243.357 293.404 253.155 283.186 262.494" fill="url(#paint1_linear_726_313)"/>
<path d="M130.012 126C123.212 115.6 111.512 112 106.512 111.5L100.512 133L94.0117 154.5C96.0117 156 101.112 159.4 105.512 161C109.912 162.6 117.012 161.667 120.012 161C131.345 169.5 150.512 187.5 182.512 192C205.506 195.234 233.345 191.5 244.512 188.5V165C238.178 167.833 218.612 173.1 191.012 171.5C163.412 169.9 141.512 153.5 134.012 145.5C135.512 143.333 136.812 136.4 130.012 126Z" fill="#DFDFDF"/>
<path d="M80.0118 141C79.6118 145.4 89.5118 152.167 94.5118 155L107.512 112C103.845 110.333 92.2117 117.9 89.0117 119.5C85.8117 121.1 86.6784 124.5 87.5117 126C86.1784 126.167 83.2117 127 82.0117 129C80.8117 131 82.5117 134.833 83.5117 136.5C82.5117 136.167 80.4118 136.6 80.0118 141Z" fill="#DFDFDF"/>
<path d="M387.5 121.5C394.3 111.1 406 107.5 411 107L417 128.5L423.5 150C421.5 151.5 416.4 154.9 412 156.5C407.6 158.1 400.5 157.167 397.5 156.5C386.167 165 367 183 335 187.5C312.006 190.734 284.167 187 273 184V160.5C279.333 163.333 298.9 168.6 326.5 167C354.1 165.4 376 149 383.5 141C382 138.833 380.7 131.9 387.5 121.5Z" fill="#DFDFDF"/>
<path d="M437.5 136.5C437.9 140.9 428 147.667 423 150.5L410 107.5C413.667 105.833 425.3 113.4 428.5 115C431.7 116.6 430.833 120 430 121.5C431.333 121.667 434.3 122.5 435.5 124.5C436.7 126.5 435 130.333 434 132C435 131.667 437.1 132.1 437.5 136.5Z" fill="#DFDFDF"/>
<circle cx="259" cy="162" r="108.5" stroke="url(#paint2_linear_726_313)"/>
<path d="M232.333 144.825H289.771C293.52 144.825 296.559 141.786 296.559 138.038V137.05C296.559 133.301 293.52 130.262 289.771 130.262H232.333C228.585 130.262 225.546 133.301 225.546 137.05V138.038C225.546 141.786 228.585 144.825 232.333 144.825Z" fill="url(#paint3_linear_726_313)"/>
<path d="M258.586 37.1423H263.545V12.0708H258.586V37.1423Z" fill="#F0F0F0"/>
<path d="M336.904 111.768C344.734 109.907 349.573 102.051 347.712 94.2215C345.851 86.3917 337.995 81.5531 330.165 83.4141C322.336 85.275 317.497 93.1309 319.358 100.961C321.219 108.79 329.075 113.629 336.904 111.768Z" fill="#F0F0F0"/>
<mask id="mask0_726_313" style="mask-type:alpha" maskUnits="userSpaceOnUse" x="318" y="83" width="31" height="30">
<path d="M336.904 111.768C344.734 109.907 349.573 102.051 347.712 94.2215C345.851 86.3917 337.995 81.5531 330.165 83.4141C322.336 85.275 317.497 93.1309 319.358 100.961C321.219 108.79 329.075 113.629 336.904 111.768Z" fill="#F0F0F0"/>
</mask>
<g mask="url(#mask0_726_313)">
<path d="M338.997 98.8928C341.554 88.5857 330.817 94.0247 330.856 82.9564L319.305 108.901L341.516 133.563C366.347 123.52 341.977 127.718 345.618 114.952C349.26 102.186 336.872 107.454 338.997 98.8928Z" fill="#CFCFCF"/>
</g>
<path d="M189.654 110.83C197.502 109.05 202.422 101.245 200.641 93.3961C198.861 85.5476 191.056 80.6284 183.207 82.4086C175.359 84.1889 170.439 91.9945 172.22 99.843C174 107.691 181.805 112.611 189.654 110.83Z" fill="#E8E8E8"/>
<mask id="mask1_726_313" style="mask-type:alpha" maskUnits="userSpaceOnUse" x="171" y="82" width="31" height="30">
<path d="M189.654 110.83C197.502 109.05 202.422 101.245 200.641 93.3961C198.861 85.5476 191.056 80.6284 183.207 82.4086C175.359 84.1889 170.439 91.9945 172.22 99.843C174 107.691 181.805 112.611 189.654 110.83Z" fill="#F0F0F0"/>
</mask>
<g mask="url(#mask1_726_313)">
<path d="M180.168 98.0433C179.056 87.4821 188.941 94.3495 190.428 83.3816L198.292 110.671L172.893 132.035C149.684 118.664 173.242 126.182 171.395 113.036C169.548 99.8902 181.091 106.816 180.168 98.0433Z" fill="#CFCFCF"/>
</g>
<path d="M258.27 31.7032C258.27 31.7032 199.022 30.9921 189.64 82.3078C180.258 133.624 230.364 134.584 244.779 135.554C251.317 135.997 265.298 136.043 277.635 135.821C304.95 135.35 324.241 130.059 330.816 104.72C331.582 101.765 332.1 98.7266 332.294 95.6423C334.03 67.8744 315.228 30.3272 258.28 31.6939L258.27 31.7032Z" fill="url(#paint4_linear_726_313)"/>
<path d="M301.973 111.248L301.974 111.248C311.82 111.088 319.69 103.044 319.538 93.2477L319.538 93.2463C319.377 83.4501 311.256 75.657 301.409 75.807L301.409 75.807L214.668 77.1552L214.667 77.1552C204.821 77.3152 196.952 85.3592 197.103 95.1559L197.103 95.1573C197.265 104.953 205.386 112.747 215.232 112.597L215.233 112.597L301.973 111.248Z" fill="#030303" stroke="url(#paint5_linear_726_313)" stroke-width="2.77033"/>
<path d="M232.942 93.343C232.388 96.1872 229.627 98.0341 226.792 97.48C223.948 96.9259 222.101 94.1648 222.655 91.3299C223.209 88.4857 225.97 86.6388 228.805 87.1928C231.649 87.7469 233.496 90.508 232.942 93.343Z" fill="#C7F431"/>
<path d="M293.077 92.3826C292.523 95.2268 289.762 97.0737 286.927 96.5196C284.082 95.9656 282.236 93.2045 282.79 90.3695C283.344 87.5253 286.105 85.6784 288.94 86.2325C291.784 86.7865 293.631 89.5476 293.077 92.3826Z" fill="#C7F431"/>
<path d="M266.85 17.3364C270.042 14.1449 270.042 8.97036 266.85 5.77881C263.659 2.58726 258.484 2.58726 255.292 5.77881C252.101 8.97036 252.101 14.1449 255.292 17.3364C258.484 20.528 263.659 20.528 266.85 17.3364Z" fill="#C7F431"/>
<path d="M248.013 90.9236C248.401 90.9697 248.207 92.7982 249.352 95.236C249.906 96.4458 250.83 97.7663 252.132 98.8929C253.434 100.019 255.161 100.878 257.054 101.081C258.956 101.229 260.812 100.694 262.299 99.8256C263.795 98.9575 264.94 97.8217 265.697 96.732C267.267 94.5435 267.406 92.7058 267.793 92.7335C267.941 92.7335 268.107 93.1952 268.107 94.0633C268.107 94.9313 267.858 96.1964 267.156 97.6001C266.454 99.0037 265.236 100.518 263.472 101.691C261.736 102.873 259.372 103.676 256.832 103.464C254.302 103.205 252.123 101.996 250.627 100.518C249.112 99.0406 248.18 97.3323 247.746 95.827C247.302 94.3126 247.284 93.0198 247.45 92.1702C247.607 91.3206 247.847 90.8866 247.995 90.9143L248.013 90.9236Z" fill="#C7F431"/>
<path d="M326.903 114.85C326.82 114.804 327.882 113.188 328.898 110.279C329.95 107.389 330.865 103.196 331.299 98.5142C331.77 93.8232 331.696 89.5476 331.576 86.4633C331.502 84.9212 331.428 83.6745 331.363 82.8065C331.299 81.9477 331.28 81.4675 331.317 81.4583C331.354 81.4583 331.428 81.9292 331.548 82.788C331.677 83.6468 331.797 84.8935 331.917 86.4448C332.12 89.5384 332.25 93.8416 331.779 98.5604C331.336 103.279 330.357 107.499 329.221 110.399C328.667 111.849 328.094 112.985 327.651 113.733C327.199 114.471 326.931 114.878 326.903 114.859V114.85Z" fill="#777777"/>
<path d="M189.68 80.6272C189.68 80.6272 189.606 81.1073 189.384 81.9477C189.273 82.3632 189.135 82.8804 189.015 83.4806C188.885 84.0808 188.71 84.7549 188.599 85.5214C188.313 87.0358 188.082 88.8643 187.953 90.9051C187.851 92.9459 187.851 95.1898 188.045 97.5354C188.267 99.8809 188.655 102.088 189.116 104.083C189.606 106.059 190.151 107.823 190.705 109.263C190.954 109.993 191.24 110.63 191.471 111.202C191.693 111.775 191.914 112.255 192.108 112.643C192.468 113.428 192.653 113.871 192.625 113.89C192.598 113.908 192.358 113.492 191.942 112.726C191.73 112.347 191.48 111.876 191.231 111.313C190.972 110.75 190.658 110.122 190.391 109.392C189.79 107.952 189.209 106.188 188.691 104.193C188.202 102.19 187.786 99.9548 187.565 97.5816C187.362 95.2083 187.38 92.9366 187.509 90.8774C187.666 88.8181 187.934 86.9804 188.267 85.4568C188.405 84.6903 188.599 84.0162 188.756 83.416C188.904 82.8157 189.061 82.3078 189.209 81.8923C189.486 81.0704 189.652 80.6179 189.68 80.6272Z" fill="#777777"/>
<path opacity="0.5" d="M250.672 35.5447C250.672 35.5447 250.598 35.5632 250.459 35.5816C250.293 35.6001 250.081 35.6186 249.831 35.637C249.277 35.6924 248.465 35.7109 247.421 35.8402C245.334 36.0249 242.324 36.4404 238.676 37.29C235.029 38.1303 230.762 39.497 226.274 41.5748C221.786 43.6433 217.105 46.4875 212.691 50.1074C208.304 53.755 204.62 57.8181 201.739 61.8259C198.848 65.8429 196.697 69.7675 195.173 73.1842C193.649 76.601 192.67 79.4821 192.089 81.4952C191.765 82.4925 191.599 83.2867 191.433 83.8223C191.359 84.0624 191.304 84.2655 191.257 84.4225C191.211 84.561 191.193 84.6257 191.184 84.6257C191.184 84.6257 191.184 84.5518 191.211 84.4133C191.248 84.2471 191.285 84.0439 191.341 83.7946C191.47 83.259 191.618 82.4556 191.904 81.4398C192.43 79.4082 193.363 76.4994 194.859 73.0457C196.346 69.592 198.479 65.6212 201.378 61.5673C204.269 57.5134 207.963 53.4133 212.386 49.7288C216.837 46.0812 221.565 43.237 226.09 41.1685C230.624 39.0999 234.927 37.7517 238.602 36.9483C242.278 36.1357 245.307 35.7756 247.403 35.6463C248.446 35.5539 249.268 35.5632 249.822 35.5355C250.072 35.5355 250.284 35.5355 250.45 35.5355C250.589 35.5355 250.663 35.5355 250.663 35.5447H250.672Z" fill="#BDBDBD"/>
<path d="M192.698 106.631C192.642 106.65 192.282 105.966 191.858 104.784C191.423 103.612 190.953 101.931 190.657 100.047C190.362 98.1541 190.306 96.418 190.352 95.1622C190.398 93.9063 190.528 93.149 190.592 93.149C190.74 93.149 190.537 96.2426 191.128 99.9733C191.701 103.704 192.846 106.576 192.698 106.631Z" fill="#C8C8C8"/>
<path d="M177.167 101.857C177.167 101.857 176.954 101.709 176.668 101.358C176.373 101.008 175.994 100.472 175.625 99.7424C174.867 98.3111 174.221 96.0394 174.544 93.5369C174.877 91.0344 176.105 89.012 177.204 87.8208C177.758 87.2205 178.257 86.7957 178.635 86.5372C179.005 86.2786 179.226 86.1586 179.245 86.1863C179.3 86.2509 178.469 86.8234 177.462 88.0424C176.456 89.2521 175.338 91.2098 175.024 93.5923C174.711 95.9748 175.283 98.1633 175.929 99.5854C176.576 101.026 177.241 101.792 177.167 101.848V101.857Z" fill="#8F8F8F"/>
<path d="M261.606 5.86523C261.588 5.95757 260.766 5.65284 259.436 5.80982C258.143 5.94834 256.278 6.69633 255.17 8.39546C254.089 10.1131 254.182 12.1169 254.597 13.3543C255.004 14.6287 255.622 15.2566 255.548 15.312C255.53 15.3305 255.354 15.2012 255.105 14.9057C254.847 14.6102 254.533 14.13 254.274 13.4744C253.748 12.2 253.572 10.03 254.763 8.14613C255.982 6.28078 258.023 5.54202 259.408 5.48662C260.11 5.44968 260.683 5.53279 261.052 5.6436C261.431 5.75441 261.615 5.85599 261.606 5.87446V5.86523Z" fill="#5B7409"/>
<path d="M342.084 90.6558C341.983 90.7666 340.542 89.3906 338.372 88.3564C336.211 87.2944 334.244 87.0174 334.272 86.8696C334.272 86.7496 336.331 86.8235 338.584 87.9224C340.837 89.0028 342.176 90.5819 342.084 90.6558Z" fill="#8F8F8F"/>
<path d="M286.927 74.1815C286.927 74.3108 275.587 74.4216 261.606 74.4216C247.625 74.4216 236.285 74.3108 236.285 74.1815C236.285 74.0523 247.625 73.9414 261.606 73.9414C275.587 73.9414 286.927 74.0523 286.927 74.1815Z" fill="#CFCFCF"/>
<path d="M243.719 131.924C243.719 131.924 243.572 131.961 243.295 131.998C242.953 132.026 242.547 132.063 242.057 132.109C241.522 132.155 240.866 132.201 240.099 132.211C239.333 132.229 238.465 132.275 237.505 132.238C235.575 132.238 233.284 132.1 230.745 131.832C228.215 131.537 225.444 131.084 222.573 130.419C219.71 129.736 217.032 128.896 214.631 128.037C212.239 127.15 210.134 126.236 208.407 125.386C207.53 124.98 206.772 124.555 206.098 124.195C205.415 123.844 204.852 123.512 204.39 123.235C203.974 122.976 203.623 122.764 203.328 122.588C203.088 122.441 202.968 122.348 202.977 122.339C202.986 122.33 203.125 122.385 203.374 122.505C203.679 122.662 204.039 122.847 204.473 123.069C204.944 123.327 205.526 123.632 206.218 123.955C206.902 124.288 207.668 124.694 208.555 125.072C210.291 125.885 212.405 126.753 214.788 127.612C217.18 128.452 219.848 129.265 222.693 129.948C225.537 130.613 228.289 131.066 230.8 131.389C233.312 131.684 235.593 131.851 237.514 131.897C238.474 131.952 239.342 131.924 240.099 131.934C240.866 131.943 241.522 131.934 242.057 131.915C242.547 131.915 242.953 131.906 243.295 131.897C243.581 131.897 243.729 131.906 243.729 131.924H243.719Z" fill="#C8C8C8"/>
<path d="M216.682 69.5151C217.53 68.9438 218.269 68.2127 219.064 67.5631C220.98 65.9988 223.255 64.9072 225.644 64.4039C226.397 64.2441 227.235 64.0978 227.701 63.4721C227.922 63.1796 228.027 62.809 228.073 62.4417C228.244 60.993 227.461 59.5545 226.36 58.6397C225.26 57.725 223.886 57.2489 222.519 56.8782C219.863 56.1572 217.076 55.7696 214.365 56.2185C211.653 56.6707 209.011 58.031 207.361 60.3027C206.655 61.2719 206.139 62.4077 205.981 63.6081C205.642 66.2131 207.154 68.8996 209.425 70.0762C211.696 71.2495 214.555 70.9536 216.682 69.5219V69.5151Z" fill="url(#paint6_linear_726_313)"/>
<mask id="mask2_726_313" style="mask-type:alpha" maskUnits="userSpaceOnUse" x="150" y="53" width="218" height="218">
<circle cx="259" cy="162" r="109" fill="#171717"/>
</mask>
<g mask="url(#mask2_726_313)">
<path d="M191.52 167.431C191.52 167.431 192.766 288.522 260.722 290.895C328.678 293.268 331.532 168.299 331.532 167.431C331.532 167.431 323.507 149.368 261.526 150.079C199.544 150.79 191.52 167.431 191.52 167.431Z" fill="url(#paint7_linear_726_313)"/>
<path d="M256.646 238.109C243.228 237.13 233.15 225.458 234.129 212.04C235.108 198.621 246.779 188.543 260.197 189.522C273.616 190.501 283.694 202.173 282.715 215.591L282.653 216.447H282.629C281.227 229.435 269.769 239.067 256.646 238.109ZM256.646 238.109C256.646 238.109 256.646 238.109 256.646 238.109L256.714 237.188L256.646 238.109Z" fill="#030303" stroke="url(#paint8_linear_726_313)" stroke-width="1.84689"/>
<path d="M267.213 218.165C267.148 218.128 267.093 217.112 267.056 215.348C267.01 213.585 266.982 211.064 266.973 207.988L267.157 208.33C264.599 206.834 261.626 205.098 258.375 203.205H258.865C256.113 204.766 253.121 206.437 250 208.192C249.76 208.589 250.323 207.647 250.268 207.748V207.767V207.785V207.831V207.915V208.081V208.413L250.249 209.078L250.231 210.399C250.212 211.276 250.203 212.135 250.184 212.984C250.148 214.683 250.12 216.327 250.092 217.915L249.852 217.491C253.066 219.448 255.993 221.24 258.532 222.791H258.145C260.85 221.332 263.085 220.169 264.655 219.365C266.234 218.562 267.139 218.128 267.213 218.165C267.277 218.202 266.492 218.719 264.997 219.633C263.501 220.547 261.293 221.859 258.523 223.456L258.329 223.567L258.135 223.456C255.568 221.96 252.604 220.224 249.353 218.331L249.113 218.192V217.906C249.132 216.318 249.15 214.674 249.169 212.975C249.178 212.125 249.187 211.267 249.196 210.389L249.215 209.069V208.404L249.233 208.072V207.905V207.822V207.776V207.758V207.739C249.178 207.831 249.741 206.89 249.501 207.287C252.632 205.551 255.633 203.888 258.394 202.355L258.643 202.217L258.883 202.365C262.097 204.322 265.033 206.123 267.564 207.665L267.758 207.785V208.007C267.656 211.202 267.545 213.769 267.453 215.524C267.361 217.278 267.277 218.211 267.213 218.174V218.165Z" fill="#C7F431"/>
<path d="M191.262 167.59C191.262 167.59 199.286 150.94 261.268 150.238C323.249 149.527 331.274 167.59 331.274 167.59C331.274 167.59 268.757 198.424 191.271 167.59H191.262Z" fill="url(#paint9_linear_726_313)"/>
<path d="M212.882 253.598V253.602C212.883 253.607 212.884 253.613 212.884 253.619C212.884 253.626 212.883 253.645 212.868 253.66L212.782 253.746V253.633C212.777 253.626 212.769 253.615 212.759 253.602C212.738 253.572 212.707 253.528 212.67 253.466L212.669 253.465C212.647 253.426 212.624 253.386 212.6 253.343C212.531 253.222 212.452 253.083 212.363 252.919L212.363 252.919C212.222 252.655 212.056 252.34 211.865 251.976C211.682 251.629 211.476 251.237 211.246 250.804L211.246 250.804C211.006 250.342 210.738 249.825 210.451 249.261L210.451 249.26C210.342 249.029 210.231 248.789 210.117 248.541C209.947 248.175 209.77 247.791 209.583 247.395L209.583 247.395C208.955 246.056 208.243 244.531 207.559 242.793C207.559 242.793 207.559 242.793 207.559 242.793L207.448 242.522C207.131 241.744 206.798 240.931 206.451 240.088L206.45 240.086C206.247 239.535 206.038 238.968 205.824 238.389C205.668 237.97 205.511 237.544 205.352 237.113C204.803 235.704 204.312 234.197 203.802 232.634C203.573 231.933 203.341 231.22 203.098 230.499L203.097 230.498C201.647 225.797 200.225 220.569 198.978 215.027L198.978 215.027C197.759 209.475 196.826 204.146 196.087 199.279L196.087 199.278C195.403 194.402 194.868 190.005 194.572 186.292C194.397 184.435 194.286 182.763 194.193 181.286C194.092 179.808 194.018 178.542 193.99 177.498C193.974 177.066 193.962 176.674 193.951 176.321C193.936 175.848 193.923 175.445 193.907 175.107L193.907 175.105H193.907V175.103V175.102V175.1V175.099V175.097V175.096V175.094V175.093V175.092V175.09V175.089V175.087V175.086V175.084V175.083V175.081V175.08V175.078V175.077V175.076V175.074V175.073V175.071V175.07V175.068V175.067V175.066V175.064V175.063V175.061V175.06V175.058V175.057V175.056V175.054V175.053V175.051V175.05V175.048V175.047V175.046V175.044V175.043V175.041V175.04V175.039V175.037V175.036V175.034V175.033V175.031V175.03V175.029V175.027V175.026V175.024V175.023V175.022V175.02V175.019V175.017V175.016V175.015V175.013V175.012V175.01V175.009V175.008V175.006V175.005V175.004V175.002V175.001V174.999V174.998V174.997V174.995V174.994V174.992V174.991V174.99V174.988V174.987V174.986V174.984V174.983V174.981V174.98V174.979V174.977V174.976V174.975V174.973V174.972V174.971V174.969V174.968V174.966V174.965V174.964V174.962V174.961V174.96V174.958V174.957V174.956V174.954V174.953V174.952V174.95V174.949V174.948V174.946V174.945V174.944V174.942V174.941V174.939V174.938V174.937V174.935V174.934V174.933V174.931V174.93V174.929V174.927V174.926V174.925V174.923V174.922V174.921V174.92V174.918V174.917V174.916V174.914V174.913V174.912V174.91V174.909V174.908V174.906V174.905V174.904V174.902V174.901V174.9V174.898V174.897V174.896V174.895V174.893V174.892V174.891V174.889V174.888V174.887V174.885V174.884V174.883V174.882V174.88V174.879V174.878V174.876V174.875V174.874V174.872V174.871V174.87V174.869V174.867V174.866V174.865V174.863V174.862V174.861V174.86V174.858V174.857V174.856V174.855V174.853V174.852V174.851V174.849V174.848V174.847V174.846V174.844V174.843V174.842V174.841V174.839V174.838V174.837V174.836V174.834V174.833V174.832V174.831V174.829V174.828V174.827V174.825V174.824V174.823V174.822V174.82V174.819V174.818V174.817V174.816V174.814V174.813V174.812V174.811V174.809V174.808V174.807V174.806V174.804V174.803V174.802V174.801V174.799V174.798V174.797V174.796V174.794V174.793V174.792V174.791V174.79V174.788V174.787V174.786V174.785V174.783V174.782V174.781V174.78V174.779V174.777V174.776V174.775V174.774V174.773V174.771V174.77V174.769V174.768V174.767V174.765V174.764V174.763V174.762V174.76V174.759V174.758V174.757V174.756V174.755V174.753V174.752V174.751V174.75V174.749V174.747V174.746V174.745V174.744V174.743V174.741V174.74V174.739V174.738V174.737V174.735V174.734V174.733V174.732V174.731V174.73V174.728V174.727V174.726V174.725V174.724V174.723V174.721V174.72V174.719V174.718V174.717V174.716V174.714V174.713V174.712V174.711V174.71V174.709V174.707V174.706V174.705V174.704V174.703V174.702V174.7V174.699V174.698V174.697V174.696V174.695V174.694V174.692V174.691V174.69V174.689V174.688V174.687V174.686V174.684V174.683V174.682V174.681V174.68V174.679V174.678V174.676V174.675V174.674V174.673V174.672V174.671V174.67V174.669V174.667V174.666V174.665V174.664V174.663V174.662V174.661V174.66V174.658V174.657V174.656V174.655V174.654V174.653V174.652V174.651V174.65V174.648V174.647V174.646V174.645V174.644V174.643V174.642V174.641V174.64V174.638V174.637V174.636V174.635V174.634V174.633V174.632V174.631V174.63V174.629V174.627V174.626V174.625V174.624V174.623V174.622V174.621V174.62V174.619V174.618V174.617V174.615V174.614V174.613V174.612V174.611V174.61V174.609V174.608V174.607V174.606V174.605V174.604V174.603V174.601V174.6V174.599V174.598V174.597V174.596V174.595V174.594V174.593V174.592V174.591V174.59V174.589V174.588V174.587V174.585V174.584V174.583V174.582V174.581V174.58V174.579V174.578V174.577V174.576V174.575V174.574V174.573V174.572V174.571V174.57V174.569V174.568V174.567V174.566V174.564V174.563V174.562V174.561V174.56V174.559V174.558V174.557V174.556V174.555V174.554V174.553V174.552V174.551V174.55V174.549V174.548V174.547V174.546V174.545V174.544V174.543V174.542V174.541V174.54V174.539V174.538V174.537V174.536V174.535V174.534V174.533V174.532V174.531V174.53V174.529V174.528V174.527V174.526V174.525V174.524V174.523V174.522V174.521V174.52V174.519V174.518V174.517V174.516V174.515V174.514V174.513V174.512V174.511V174.51V174.509V174.508V174.507V174.506V174.505V174.504V174.503V174.502V174.501V174.5V174.499V174.498V174.497V174.496V174.495V174.494V174.493V174.492V174.491V174.49V174.489V174.488V174.487V174.486V174.485C193.907 174.417 193.907 174.363 193.908 174.326C193.909 174.308 193.91 174.292 193.911 174.28C193.912 174.275 193.914 174.267 193.917 174.259C193.918 174.255 193.921 174.248 193.927 174.241C193.934 174.234 193.947 174.224 193.966 174.224H194.005L194.015 174.261L193.966 174.274L194.015 174.261L194.015 174.261L194.015 174.261L194.015 174.262L194.015 174.262L194.015 174.263L194.016 174.265L194.018 174.276C194.02 174.286 194.023 174.3 194.027 174.318C194.034 174.355 194.043 174.409 194.053 174.479L194.053 174.48L194.053 174.48C194.071 174.647 194.09 174.851 194.108 175.101M212.882 253.598L194.059 175.105M212.882 253.598L212.881 253.596M212.882 253.598L212.881 253.596M194.108 175.101C194.108 175.101 194.108 175.101 194.108 175.101L194.059 175.105M194.108 175.101C194.108 175.101 194.108 175.101 194.108 175.101L194.059 175.105M194.108 175.101C194.155 175.692 194.21 176.487 194.275 177.493L194.275 177.494C194.33 178.527 194.432 179.801 194.561 181.269L194.561 181.269C194.575 181.441 194.589 181.615 194.604 181.793C194.712 183.133 194.834 184.633 195.013 186.264L195.013 186.264L195.013 186.264C195.355 189.966 195.927 194.351 196.629 199.208M194.059 175.105C194.105 175.696 194.16 176.49 194.225 177.496C194.28 178.531 194.382 179.805 194.511 181.273C194.525 181.445 194.539 181.619 194.554 181.797C194.662 183.137 194.784 184.638 194.964 186.269C195.305 189.972 195.878 194.358 196.58 199.216M196.629 199.208C196.629 199.208 196.629 199.208 196.629 199.208L196.58 199.216M196.629 199.208C196.629 199.208 196.629 199.208 196.629 199.209L196.58 199.216M196.629 199.208C197.386 204.065 198.337 209.373 199.546 214.913M196.58 199.216C197.337 204.073 198.288 209.383 199.498 214.923M212.708 253.433C212.709 253.435 212.71 253.438 212.712 253.441C212.712 253.441 212.713 253.442 212.713 253.443C212.741 253.507 212.761 253.554 212.773 253.586C212.775 253.593 212.778 253.599 212.779 253.604C212.781 253.609 212.782 253.613 212.783 253.616L212.708 253.433ZM212.708 253.433C212.709 253.435 212.711 253.438 212.712 253.44L212.708 253.433ZM212.881 253.596C212.878 253.583 212.873 253.568 212.866 253.551C212.853 253.516 212.832 253.467 212.805 253.404L212.804 253.402L212.804 253.402L212.803 253.399C212.73 253.253 212.647 253.069 212.546 252.838L212.545 252.836C212.286 252.31 211.935 251.59 211.501 250.685L211.501 250.685C211.401 250.481 211.298 250.269 211.191 250.048C211.05 249.758 210.901 249.453 210.744 249.134M212.881 253.596L211.456 250.707C211.356 250.503 211.253 250.291 211.145 250.069C211.004 249.78 210.856 249.475 210.699 249.156M199.498 214.923L199.546 214.912C199.546 214.913 199.546 214.913 199.546 214.913M199.498 214.923C200.744 220.455 202.148 225.663 203.561 230.363M199.498 214.923L199.547 214.913C199.547 214.913 199.547 214.913 199.546 214.913M199.546 214.913C200.793 220.442 202.196 225.649 203.609 230.348M203.561 230.363L203.608 230.348C203.608 230.348 203.608 230.348 203.609 230.348M203.561 230.363C203.821 231.144 204.068 231.916 204.31 232.674C204.79 234.174 205.253 235.619 205.768 236.975C205.876 237.276 205.984 237.574 206.09 237.87C206.347 238.581 206.598 239.277 206.839 239.949M203.561 230.363L203.609 230.349C203.609 230.349 203.609 230.349 203.609 230.348M203.609 230.348C203.869 231.13 204.116 231.903 204.359 232.66C204.838 234.16 205.3 235.603 205.815 236.958L205.815 236.958C205.923 237.26 206.031 237.558 206.138 237.854C206.394 238.565 206.645 239.26 206.886 239.931M206.886 239.931C206.886 239.931 206.886 239.93 206.885 239.93L206.839 239.949M206.886 239.931C206.886 239.931 206.886 239.932 206.886 239.932L206.839 239.949M206.886 239.931C207.044 240.324 207.197 240.71 207.347 241.089C207.557 241.619 207.761 242.135 207.966 242.636L207.966 242.637C208.625 244.358 209.303 245.879 209.899 247.219L209.914 247.251L209.914 247.252C210.209 247.925 210.486 248.553 210.744 249.134M206.839 239.949C206.997 240.341 207.15 240.728 207.3 241.107C207.51 241.637 207.715 242.154 207.919 242.654C208.579 244.377 209.257 245.899 209.854 247.239L209.868 247.272C210.163 247.946 210.44 248.574 210.699 249.156M210.744 249.134C210.744 249.134 210.744 249.134 210.744 249.133L210.699 249.156M210.744 249.134C210.745 249.135 210.745 249.135 210.745 249.135L210.699 249.156M194.007 174.521V174.521V174.52V174.519V174.518V174.517V174.516V174.515V174.514V174.513V174.512V174.511V174.51V174.509V174.508V174.507V174.506V174.505V174.504V174.503V174.502V174.501V174.5V174.499V174.498V174.497V174.496V174.495V174.494V174.493V174.492V174.491V174.49V174.489V174.488V174.487V174.486C194.007 174.486 194.007 174.486 194.007 174.485C194.007 174.485 194.007 174.485 194.007 174.485C194.007 174.416 194.007 174.364 194.008 174.329C194.009 174.312 194.01 174.3 194.01 174.294C194.011 174.293 194.011 174.292 194.011 174.292C194.011 174.292 194.011 174.293 194.01 174.295C194.009 174.296 194.007 174.302 194.002 174.307C193.998 174.313 193.989 174.32 193.977 174.322C193.984 174.358 193.993 174.413 194.003 174.486L194.007 174.521Z" fill="#D7D7D7" stroke="#D7D7D7" stroke-width="0.1"/>
<path d="M245.567 282.732C245.567 282.732 245.179 282.713 244.487 282.603C243.794 282.501 242.806 282.261 241.596 281.901C240.387 281.55 238.983 281.014 237.478 280.322C235.982 279.601 234.384 278.706 232.805 277.607C231.235 276.489 229.85 275.289 228.668 274.125C227.505 272.943 226.526 271.798 225.787 270.783C225.039 269.776 224.485 268.917 224.152 268.298C223.811 267.689 223.635 267.338 223.663 267.329C223.737 267.283 224.513 268.622 226.055 270.579C226.821 271.558 227.809 272.657 228.982 273.811C230.164 274.947 231.54 276.12 233.082 277.21C234.634 278.29 236.203 279.186 237.672 279.925C239.149 280.636 240.525 281.19 241.698 281.587C244.053 282.381 245.586 282.649 245.567 282.741V282.732Z" fill="#D7D7D7"/>
<path d="M258.743 240.013C258.743 240.013 258.521 240.05 258.096 240.078C257.671 240.078 257.043 240.18 256.231 240.133C254.606 240.133 252.251 239.866 249.462 239.035C248.068 238.628 246.59 238.019 245.048 237.262C243.543 236.449 241.954 235.516 240.458 234.297C237.439 231.915 234.631 228.581 232.821 224.5C231.076 220.39 230.55 216.059 230.873 212.227C231.002 210.306 231.409 208.506 231.843 206.853C232.341 205.218 232.905 203.722 233.56 202.42C234.853 199.816 236.275 197.914 237.383 196.722C237.9 196.094 238.399 195.697 238.695 195.393C239.009 195.097 239.175 194.949 239.184 194.968C239.221 195.005 238.565 195.624 237.522 196.842C236.469 198.061 235.102 199.973 233.865 202.568C233.237 203.861 232.701 205.347 232.23 206.963C231.815 208.598 231.436 210.371 231.316 212.264C231.021 216.041 231.547 220.279 233.265 224.315C235.038 228.313 237.78 231.601 240.735 233.956C242.204 235.165 243.755 236.098 245.233 236.911C246.738 237.668 248.188 238.287 249.564 238.711C252.306 239.579 254.633 239.884 256.24 239.949C257.847 240.013 258.743 239.967 258.743 240.013Z" fill="#D7D7D7"/>
<path d="M314.593 174.976L314.593 174.976C314.418 175.041 314.196 175.124 313.929 175.225L313.928 175.226C313.498 175.379 312.953 175.573 312.296 175.807C312.006 175.91 311.694 176.021 311.361 176.14C310.242 176.546 308.875 177.008 307.258 177.489C306.818 177.62 306.363 177.759 305.892 177.904C304.634 178.29 303.263 178.71 301.771 179.087M314.593 174.976L301.758 179.038M314.593 174.976C314.669 174.948 314.726 174.922 314.764 174.902C314.784 174.893 314.798 174.885 314.808 174.879L314.811 174.878M314.593 174.976L314.811 174.878M301.771 179.087C301.771 179.087 301.771 179.087 301.771 179.087L301.758 179.038M301.771 179.087C301.771 179.087 301.771 179.087 301.771 179.087L301.758 179.038M301.771 179.087C301.081 179.267 300.369 179.456 299.637 179.65C299.282 179.744 298.922 179.84 298.558 179.936C297.869 180.118 297.155 180.276 296.425 180.438C295.971 180.538 295.511 180.64 295.047 180.749M301.758 179.038C301.068 179.219 300.357 179.408 299.625 179.602C299.27 179.696 298.91 179.792 298.545 179.888C297.857 180.07 297.145 180.227 296.416 180.388C295.962 180.489 295.501 180.591 295.036 180.701M295.047 180.749C295.047 180.749 295.048 180.749 295.048 180.749L295.036 180.701M295.047 180.749C293.009 181.247 290.826 181.654 288.545 182.078C288.117 182.158 287.686 182.238 287.251 182.32L287.25 182.32C281.727 183.253 275.602 184.029 269.146 184.454L269.145 184.454C262.688 184.832 256.518 184.805 250.921 184.555L250.92 184.555C250.495 184.529 250.074 184.503 249.655 184.477C247.319 184.334 245.085 184.198 242.985 183.955M295.047 180.749C295.047 180.749 295.047 180.749 295.047 180.749L295.036 180.701M295.036 180.701L314.811 174.878M314.529 174.946C314.545 174.942 314.561 174.937 314.577 174.932C314.577 174.932 314.577 174.932 314.577 174.932L314.529 174.946ZM314.529 174.946C314.545 174.94 314.561 174.935 314.576 174.929C314.577 174.929 314.578 174.928 314.58 174.928L314.581 174.931L314.529 174.946ZM314.811 174.878H314.927L314.842 174.792C314.828 174.778 314.81 174.776 314.805 174.776C314.797 174.775 314.789 174.775 314.782 174.776C314.768 174.778 314.751 174.781 314.731 174.786C314.69 174.795 314.631 174.812 314.552 174.835L314.552 174.835C314.469 174.86 314.378 174.887 314.277 174.917L314.245 174.926C314.132 174.96 314.007 174.997 313.869 175.038L313.869 175.038L313.868 175.039C313.273 175.231 312.462 175.49 311.443 175.815L311.273 175.87L311.273 175.87C310.156 176.239 308.771 176.682 307.156 177.134C306.67 177.27 306.166 177.418 305.643 177.571C304.425 177.928 303.104 178.315 301.664 178.657L301.663 178.658C301.012 178.828 300.343 178.998 299.655 179.172C299.259 179.273 298.857 179.375 298.449 179.479C297.765 179.655 297.058 179.806 296.334 179.96C295.876 180.057 295.411 180.157 294.941 180.264L294.941 180.264C292.991 180.726 290.915 181.103 288.741 181.498C288.219 181.593 287.692 181.689 287.159 181.787C281.648 182.692 275.546 183.458 269.112 183.874C262.677 184.252 256.529 184.234 250.944 184.012C250.399 183.98 249.859 183.949 249.326 183.919C247.126 183.793 245.023 183.674 243.033 183.458L243.033 183.458C242.517 183.404 242.01 183.359 241.51 183.314C240.807 183.25 240.12 183.188 239.45 183.107C238.851 183.034 238.263 182.959 237.687 182.885C237.17 182.818 236.662 182.753 236.163 182.692L236.162 182.692C234.619 182.523 233.2 182.289 231.897 182.074C231.424 181.996 230.966 181.921 230.522 181.852L230.522 181.852C228.861 181.612 227.449 181.335 226.286 181.104L226.286 181.104C225.163 180.885 224.275 180.72 223.63 180.6L223.607 180.596L223.607 180.596L223.606 180.596C223.468 180.574 223.341 180.551 223.225 180.53C223.105 180.509 222.998 180.49 222.904 180.476C222.826 180.462 222.765 180.453 222.723 180.448C222.702 180.445 222.685 180.444 222.672 180.444C222.666 180.444 222.657 180.444 222.649 180.446C222.646 180.447 222.638 180.449 222.629 180.454C222.62 180.461 222.606 180.475 222.606 180.498C222.606 180.515 222.614 180.526 222.618 180.531C222.623 180.536 222.627 180.54 222.63 180.542C222.636 180.547 222.643 180.55 222.649 180.553C222.661 180.559 222.677 180.565 222.697 180.572C222.737 180.585 222.796 180.601 222.875 180.62C223.06 180.666 223.291 180.722 223.568 180.786L223.568 180.786L223.569 180.787C223.948 180.868 224.409 180.971 224.954 181.093C225.337 181.179 225.762 181.274 226.228 181.377C227.383 181.636 228.797 181.932 230.46 182.209M230.46 182.209C230.46 182.209 230.46 182.209 230.46 182.209L230.469 182.16L230.46 182.209C230.46 182.209 230.46 182.209 230.46 182.209ZM230.46 182.209C230.841 182.275 231.233 182.344 231.636 182.416C232.993 182.659 234.48 182.924 236.104 183.124M236.104 183.124C236.821 183.224 237.56 183.325 238.32 183.428C238.675 183.477 239.036 183.526 239.401 183.576C240.177 183.682 240.979 183.759 241.799 183.838C242.191 183.875 242.586 183.913 242.985 183.955M236.104 183.124C236.104 183.124 236.105 183.124 236.105 183.124L236.111 183.074M236.104 183.124C236.104 183.123 236.104 183.123 236.104 183.123L236.111 183.074M242.985 183.955C242.985 183.955 242.985 183.955 242.985 183.955L242.99 183.905M242.985 183.955C242.985 183.955 242.985 183.955 242.985 183.955L242.99 183.905M242.99 183.905C242.591 183.863 242.195 183.825 241.803 183.788C240.983 183.709 240.183 183.633 239.408 183.526C239.042 183.476 238.682 183.427 238.327 183.379C237.567 183.275 236.828 183.175 236.111 183.074M242.99 183.905C245.09 184.148 247.321 184.284 249.658 184.427C250.076 184.453 250.498 184.479 250.923 184.505C256.519 184.755 262.687 184.782 269.142 184.404L236.111 183.074M314.513 174.899C314.529 174.894 314.544 174.89 314.559 174.885L314.558 174.882C314.558 174.882 314.558 174.882 314.558 174.882M314.513 174.899L314.567 174.883C314.564 174.884 314.562 174.884 314.56 174.885L314.558 174.882M314.513 174.899C314.529 174.893 314.544 174.888 314.558 174.882M314.513 174.899L314.558 174.882M226.276 181.153C227.44 181.384 228.853 181.661 230.515 181.901L222.897 180.522C222.897 180.522 222.898 180.523 222.899 180.523L222.899 180.523C222.909 180.525 222.918 180.528 222.928 180.53C223.014 180.544 223.11 180.561 223.216 180.579C223.33 180.6 223.458 180.623 223.598 180.645L223.621 180.65C224.266 180.769 225.154 180.934 226.276 181.153Z" fill="#D7D7D7" stroke="#D7D7D7" stroke-width="0.1"/>
<path d="M191.232 167.329C191.232 167.329 191.352 167.357 191.593 167.431C191.842 167.514 192.184 167.634 192.618 167.782C193.541 168.105 194.862 168.576 196.551 169.167C197.41 169.472 198.352 169.813 199.396 170.183C200.439 170.534 201.593 170.857 202.822 171.245C205.287 171.974 208.067 172.925 211.225 173.664C212.795 174.07 214.439 174.486 216.147 174.929C217.865 175.363 219.674 175.686 221.54 176.083C225.252 176.933 229.287 177.515 233.517 178.198C242.003 179.352 251.404 180.137 261.285 180.184C271.175 180.147 280.576 179.352 289.062 178.198C293.291 177.515 297.318 176.933 301.039 176.083C302.904 175.677 304.714 175.363 306.432 174.929C308.14 174.486 309.784 174.07 311.354 173.664C314.512 172.925 317.282 171.974 319.757 171.245C320.985 170.866 322.14 170.534 323.183 170.183C324.217 169.813 325.169 169.472 326.027 169.167C327.717 168.567 329.038 168.105 329.961 167.782C330.395 167.634 330.737 167.514 330.986 167.431C331.217 167.357 331.337 167.32 331.346 167.329C331.356 167.338 331.236 167.385 331.005 167.477C330.755 167.579 330.423 167.708 329.989 167.874C329.075 168.216 327.754 168.714 326.083 169.352C325.233 169.666 324.282 170.026 323.257 170.404C322.214 170.764 321.068 171.106 319.84 171.503C317.375 172.26 314.604 173.23 311.446 173.996C309.876 174.412 308.233 174.846 306.515 175.289C304.797 175.733 302.987 176.065 301.122 176.471C297.401 177.339 293.365 177.94 289.127 178.632C280.622 179.814 271.203 180.618 261.285 180.655C251.376 180.608 241.948 179.805 233.452 178.623C229.214 177.921 225.178 177.33 221.457 176.453C219.591 176.037 217.781 175.705 216.064 175.271C214.355 174.818 212.702 174.384 211.133 173.978C207.974 173.212 205.204 172.242 202.739 171.485C201.51 171.088 200.365 170.746 199.322 170.386C198.288 169.998 197.346 169.647 196.496 169.333C194.815 168.696 193.504 168.207 192.59 167.856C192.165 167.689 191.823 167.56 191.574 167.459C191.343 167.366 191.232 167.32 191.232 167.311V167.329Z" fill="#D7D7D7"/>
<path d="M200.553 181.573C208.356 191.31 216.975 219.77 216.448 231.427C203.933 219.277 199.525 192.583 200.553 181.573Z" fill="url(#paint10_linear_726_313)"/>
</g>
<path d="M420.143 120V126.643" stroke="#AD5CFF" stroke-width="2" stroke-linecap="round"/>
<path d="M410.072 124.286L414.357 128.786" stroke="#AD5CFF" stroke-width="2" stroke-linecap="round"/>
<path d="M412.643 133.929H406" stroke="#AD5CFF" stroke-width="2" stroke-linecap="round"/>
<path d="M434.285 133.714H427.428" stroke="#AD5CFF" stroke-width="2" stroke-linecap="round"/>
<path d="M430.643 124.5L426.143 129.214" stroke="#AD5CFF" stroke-width="2" stroke-linecap="round"/>
<path d="M526 282.857C499.857 282.714 445.943 282.257 439.429 281.571C431.286 280.714 412 266.786 422.5 252.857C432.548 239.528 434.5 227.571 428.5 221.571C422.5 215.571 415.986 201.9 424.214 189.214C434.5 173.357 422.714 153.643 421.429 145.714C420.4 139.371 419.857 133.5 419.714 131.357" stroke="#AD5CFF" stroke-width="9" stroke-linecap="round"/>
<path d="M110.857 130V136.643" stroke="#AD5CFF" stroke-width="2" stroke-linecap="round"/>
<path d="M120.928 134.286L116.643 138.786" stroke="#AD5CFF" stroke-width="2" stroke-linecap="round"/>
<path d="M118.357 143.929H125" stroke="#AD5CFF" stroke-width="2" stroke-linecap="round"/>
<path d="M96.7148 143.714H103.572" stroke="#AD5CFF" stroke-width="2" stroke-linecap="round"/>
<path d="M100.357 134.5L104.857 139.214" stroke="#AD5CFF" stroke-width="2" stroke-linecap="round"/>
<path d="M5 292.857C31.1429 292.714 85.0571 292.257 91.5714 291.571C99.7143 290.714 119 276.786 108.5 262.857C98.4518 249.528 96.5 237.571 102.5 231.571C108.5 225.571 115.014 211.9 106.786 199.214C96.5 183.357 108.286 163.643 109.571 155.714C110.6 149.371 111.143 143.5 111.286 141.357" stroke="#AD5CFF" stroke-width="9" stroke-linecap="round"/>
<path d="M150.255 371H146.151L133.803 352.316V371H129.699V345.944H133.803L146.151 364.592V345.944H150.255V371Z" fill="white"/>
<path d="M164.249 371.324C162.377 371.324 160.685 370.904 159.173 370.064C157.661 369.2 156.473 368 155.609 366.464C154.745 364.904 154.313 363.104 154.313 361.064C154.313 359.048 154.757 357.26 155.645 355.7C156.533 354.14 157.745 352.94 159.281 352.1C160.817 351.26 162.533 350.84 164.429 350.84C166.325 350.84 168.041 351.26 169.577 352.1C171.113 352.94 172.325 354.14 173.213 355.7C174.101 357.26 174.545 359.048 174.545 361.064C174.545 363.08 174.089 364.868 173.177 366.428C172.265 367.988 171.017 369.2 169.433 370.064C167.873 370.904 166.145 371.324 164.249 371.324ZM164.249 367.76C165.305 367.76 166.289 367.508 167.201 367.004C168.137 366.5 168.893 365.744 169.469 364.736C170.045 363.728 170.333 362.504 170.333 361.064C170.333 359.624 170.057 358.412 169.505 357.428C168.953 356.42 168.221 355.664 167.309 355.16C166.397 354.656 165.413 354.404 164.357 354.404C163.301 354.404 162.317 354.656 161.405 355.16C160.517 355.664 159.809 356.42 159.281 357.428C158.753 358.412 158.489 359.624 158.489 361.064C158.489 363.2 159.029 364.856 160.109 366.032C161.213 367.184 162.593 367.76 164.249 367.76Z" fill="white"/>
<path d="M196.125 345.98C198.789 345.98 201.117 346.496 203.109 347.528C205.125 348.536 206.673 350 207.753 351.92C208.857 353.816 209.409 356.036 209.409 358.58C209.409 361.124 208.857 363.332 207.753 365.204C206.673 367.076 205.125 368.516 203.109 369.524C201.117 370.508 198.789 371 196.125 371H187.953V345.98H196.125ZM196.125 367.652C199.053 367.652 201.297 366.86 202.857 365.276C204.417 363.692 205.197 361.46 205.197 358.58C205.197 355.676 204.417 353.408 202.857 351.776C201.297 350.144 199.053 349.328 196.125 349.328H192.057V367.652H196.125Z" fill="white"/>
<path d="M212.109 360.992C212.109 359 212.517 357.236 213.333 355.7C214.173 354.164 215.301 352.976 216.717 352.136C218.157 351.272 219.741 350.84 221.469 350.84C223.029 350.84 224.385 351.152 225.537 351.776C226.713 352.376 227.649 353.132 228.345 354.044V351.164H232.485V371H228.345V368.048C227.649 368.984 226.701 369.764 225.501 370.388C224.301 371.012 222.933 371.324 221.397 371.324C219.693 371.324 218.133 370.892 216.717 370.028C215.301 369.14 214.173 367.916 213.333 366.356C212.517 364.772 212.109 362.984 212.109 360.992ZM228.345 361.064C228.345 359.696 228.057 358.508 227.481 357.5C226.929 356.492 226.197 355.724 225.285 355.196C224.373 354.668 223.389 354.404 222.333 354.404C221.277 354.404 220.293 354.668 219.381 355.196C218.469 355.7 217.725 356.456 217.149 357.464C216.597 358.448 216.321 359.624 216.321 360.992C216.321 362.36 216.597 363.56 217.149 364.592C217.725 365.624 218.469 366.416 219.381 366.968C220.317 367.496 221.301 367.76 222.333 367.76C223.389 367.76 224.373 367.496 225.285 366.968C226.197 366.44 226.929 365.672 227.481 364.664C228.057 363.632 228.345 362.432 228.345 361.064Z" fill="white"/>
<path d="M242.663 354.512V365.492C242.663 366.236 242.831 366.776 243.167 367.112C243.527 367.424 244.127 367.58 244.967 367.58H247.487V371H244.247C242.399 371 240.983 370.568 239.999 369.704C239.015 368.84 238.523 367.436 238.523 365.492V354.512H236.183V351.164H238.523V346.232H242.663V351.164H247.487V354.512H242.663Z" fill="white"/>
<path d="M249.902 360.992C249.902 359 250.31 357.236 251.126 355.7C251.966 354.164 253.094 352.976 254.51 352.136C255.95 351.272 257.534 350.84 259.262 350.84C260.822 350.84 262.178 351.152 263.33 351.776C264.506 352.376 265.442 353.132 266.138 354.044V351.164H270.278V371H266.138V368.048C265.442 368.984 264.494 369.764 263.294 370.388C262.094 371.012 260.726 371.324 259.19 371.324C257.486 371.324 255.926 370.892 254.51 370.028C253.094 369.14 251.966 367.916 251.126 366.356C250.31 364.772 249.902 362.984 249.902 360.992ZM266.138 361.064C266.138 359.696 265.85 358.508 265.274 357.5C264.722 356.492 263.99 355.724 263.078 355.196C262.166 354.668 261.182 354.404 260.126 354.404C259.07 354.404 258.086 354.668 257.174 355.196C256.262 355.7 255.518 356.456 254.942 357.464C254.39 358.448 254.114 359.624 254.114 360.992C254.114 362.36 254.39 363.56 254.942 364.592C255.518 365.624 256.262 366.416 257.174 366.968C258.11 367.496 259.094 367.76 260.126 367.76C261.182 367.76 262.166 367.496 263.078 366.968C263.99 366.44 264.722 365.672 265.274 364.664C265.85 363.632 266.138 362.432 266.138 361.064Z" fill="white"/>
<path d="M299.744 345.98V349.328H289.124V356.708H297.404V360.056H289.124V371H285.02V345.98H299.744Z" fill="white"/>
<path d="M312.151 371.324C310.279 371.324 308.587 370.904 307.075 370.064C305.563 369.2 304.375 368 303.511 366.464C302.647 364.904 302.215 363.104 302.215 361.064C302.215 359.048 302.659 357.26 303.547 355.7C304.435 354.14 305.647 352.94 307.183 352.1C308.719 351.26 310.435 350.84 312.331 350.84C314.227 350.84 315.943 351.26 317.479 352.1C319.015 352.94 320.227 354.14 321.115 355.7C322.003 357.26 322.447 359.048 322.447 361.064C322.447 363.08 321.991 364.868 321.079 366.428C320.167 367.988 318.919 369.2 317.335 370.064C315.775 370.904 314.047 371.324 312.151 371.324ZM312.151 367.76C313.207 367.76 314.191 367.508 315.103 367.004C316.039 366.5 316.795 365.744 317.371 364.736C317.947 363.728 318.235 362.504 318.235 361.064C318.235 359.624 317.959 358.412 317.407 357.428C316.855 356.42 316.123 355.664 315.211 355.16C314.299 354.656 313.315 354.404 312.259 354.404C311.203 354.404 310.219 354.656 309.307 355.16C308.419 355.664 307.711 356.42 307.183 357.428C306.655 358.412 306.391 359.624 306.391 361.064C306.391 363.2 306.931 364.856 308.011 366.032C309.115 367.184 310.495 367.76 312.151 367.76Z" fill="white"/>
<path d="M344.468 351.164V371H340.364V368.66C339.716 369.476 338.864 370.124 337.808 370.604C336.776 371.06 335.672 371.288 334.496 371.288C332.936 371.288 331.532 370.964 330.284 370.316C329.06 369.668 328.088 368.708 327.368 367.436C326.672 366.164 326.324 364.628 326.324 362.828V351.164H330.392V362.216C330.392 363.992 330.836 365.36 331.724 366.32C332.612 367.256 333.824 367.724 335.36 367.724C336.896 367.724 338.108 367.256 338.996 366.32C339.908 365.36 340.364 363.992 340.364 362.216V351.164H344.468Z" fill="white"/>
<path d="M359.891 350.84C361.451 350.84 362.843 351.164 364.067 351.812C365.315 352.46 366.287 353.42 366.983 354.692C367.679 355.964 368.027 357.5 368.027 359.3V371H363.959V359.912C363.959 358.136 363.515 356.78 362.627 355.844C361.739 354.884 360.527 354.404 358.991 354.404C357.455 354.404 356.231 354.884 355.319 355.844C354.431 356.78 353.987 358.136 353.987 359.912V371H349.883V351.164H353.987V353.432C354.659 352.616 355.511 351.98 356.543 351.524C357.599 351.068 358.715 350.84 359.891 350.84Z" fill="white"/>
<path d="M371.894 360.992C371.894 359 372.302 357.236 373.118 355.7C373.958 354.164 375.086 352.976 376.502 352.136C377.942 351.272 379.538 350.84 381.29 350.84C382.586 350.84 383.858 351.128 385.106 351.704C386.378 352.256 387.386 353 388.13 353.936V344.36H392.27V371H388.13V368.012C387.458 368.972 386.522 369.764 385.322 370.388C384.146 371.012 382.79 371.324 381.254 371.324C379.526 371.324 377.942 370.892 376.502 370.028C375.086 369.14 373.958 367.916 373.118 366.356C372.302 364.772 371.894 362.984 371.894 360.992ZM388.13 361.064C388.13 359.696 387.842 358.508 387.266 357.5C386.714 356.492 385.982 355.724 385.07 355.196C384.158 354.668 383.174 354.404 382.118 354.404C381.062 354.404 380.078 354.668 379.166 355.196C378.254 355.7 377.51 356.456 376.934 357.464C376.382 358.448 376.106 359.624 376.106 360.992C376.106 362.36 376.382 363.56 376.934 364.592C377.51 365.624 378.254 366.416 379.166 366.968C380.102 367.496 381.086 367.76 382.118 367.76C383.174 367.76 384.158 367.496 385.07 366.968C385.982 366.44 386.714 365.672 387.266 364.664C387.842 363.632 388.13 362.432 388.13 361.064Z" fill="white"/>
<ellipse cx="261" cy="325.5" rx="79" ry="5.5" fill="#D9D9D9" fill-opacity="0.17"/>
<defs>
<linearGradient id="paint0_linear_726_313" x1="224.836" y1="253.757" x2="210.492" y2="321.302" gradientUnits="userSpaceOnUse">
<stop stop-color="#CCCCCC"/>
<stop offset="1" stop-color="#D3D3D3"/>
</linearGradient>
<linearGradient id="paint1_linear_726_313" x1="294.325" y1="256.001" x2="279.981" y2="323.546" gradientUnits="userSpaceOnUse">
<stop stop-color="#CCCCCC"/>
<stop offset="1" stop-color="#D3D3D3"/>
</linearGradient>
<linearGradient id="paint2_linear_726_313" x1="259" y1="271" x2="259" y2="120.432" gradientUnits="userSpaceOnUse">
<stop stop-color="#D8DCCA" stop-opacity="0.12"/>
<stop offset="0.850547" stop-color="#C7F431" stop-opacity="0.04"/>
<stop offset="1" stop-color="#C7F431" stop-opacity="0"/>
</linearGradient>
<linearGradient id="paint3_linear_726_313" x1="261.052" y1="144.825" x2="261.052" y2="137.29" gradientUnits="userSpaceOnUse">
<stop stop-color="#D6D6D6"/>
<stop offset="1" stop-color="#EFEFEF"/>
</linearGradient>
<linearGradient id="paint4_linear_726_313" x1="208.432" y1="48.6391" x2="326.633" y2="126.208" gradientUnits="userSpaceOnUse">
<stop stop-color="#F0F0F0"/>
<stop offset="0.304048" stop-color="#EDEDED"/>
<stop offset="1" stop-color="#D3D3D3"/>
</linearGradient>
<linearGradient id="paint5_linear_726_313" x1="317.76" y1="104.969" x2="198.636" y2="79.1127" gradientUnits="userSpaceOnUse">
<stop stop-color="#F4F4F4"/>
<stop offset="1" stop-color="#CCCCCC"/>
</linearGradient>
<linearGradient id="paint6_linear_726_313" x1="225.788" y1="54.6415" x2="210.551" y2="68.0314" gradientUnits="userSpaceOnUse">
<stop stop-color="#E4E4E4"/>
<stop offset="0.489583" stop-color="#E4E4E4" stop-opacity="0.65625"/>
<stop offset="1" stop-color="#E4E4E4" stop-opacity="0"/>
</linearGradient>
<linearGradient id="paint7_linear_726_313" x1="191.159" y1="169.61" x2="320.441" y2="280.885" gradientUnits="userSpaceOnUse">
<stop stop-color="#F2F2F2"/>
<stop offset="1" stop-color="#D4D4D4"/>
</linearGradient>
<linearGradient id="paint8_linear_726_313" x1="279.913" y1="228.249" x2="237.434" y2="204.239" gradientUnits="userSpaceOnUse">
<stop stop-color="white"/>
<stop offset="1" stop-color="#CCCCCC"/>
</linearGradient>
<linearGradient id="paint9_linear_726_313" x1="193.672" y1="163.767" x2="327.571" y2="169.307" gradientUnits="userSpaceOnUse">
<stop stop-color="#E8E8E8"/>
<stop offset="1" stop-color="#BFBFBF"/>
</linearGradient>
<linearGradient id="paint10_linear_726_313" x1="202" y1="184" x2="211.5" y2="217.5" gradientUnits="userSpaceOnUse">
<stop stop-color="#E8E8E8"/>
<stop offset="0.520833" stop-color="#DDDDDD" stop-opacity="0.244792"/>
<stop offset="1" stop-color="#D9D9D9" stop-opacity="0"/>
</linearGradient>
</defs>
</svg>
