<svg width="25" height="25" viewBox="0 0 25 25" fill="none" xmlns="http://www.w3.org/2000/svg">
<path opacity="0.4" d="M20.4036 16.5184C20.2665 16.888 20.0478 17.222 19.7639 17.4955C19.48 17.769 19.1381 17.9751 18.7636 18.0984C17.6829 18.4561 16.5763 18.7302 15.4536 18.9184C15.3436 18.9384 15.2336 18.9584 15.1236 18.9684C14.9436 18.9984 14.7636 19.0184 14.5836 19.0384C14.3636 19.0684 14.1336 19.0884 13.9036 19.1084C13.2736 19.1584 12.6536 19.1884 12.0236 19.1884C11.3936 19.1884 10.7436 19.1584 10.1136 19.0984C9.84362 19.0784 9.58362 19.0484 9.32362 19.0084L8.88362 18.9484C8.77362 18.9284 8.66362 18.9184 8.55362 18.8984C7.44002 18.7183 6.34302 18.4474 5.27362 18.0884C4.89382 17.9694 4.54564 17.7665 4.25484 17.4947C3.96404 17.223 3.73806 16.8893 3.59362 16.5184C3.46353 16.1431 3.41935 15.7435 3.46435 15.3488C3.50935 14.9542 3.64238 14.5747 3.85362 14.2384L4.98362 12.3584C5.25571 11.8379 5.4126 11.2649 5.44362 10.6784V8.81841C5.44362 7.07461 6.13634 5.40223 7.36939 4.16918C8.60244 2.93613 10.2748 2.24341 12.0186 2.24341C13.7624 2.24341 15.4348 2.93613 16.6678 4.16918C17.9009 5.40223 18.5936 7.07461 18.5936 8.81841V10.6784C18.6233 11.2664 18.7839 11.8404 19.0636 12.3584L20.1936 14.2384C20.3967 14.5786 20.5209 14.96 20.5572 15.3546C20.5936 15.7491 20.5411 16.1468 20.4036 16.5184Z" fill="white"/>
<path d="M12.0041 10.9484C11.8026 10.9484 11.6093 10.8683 11.4667 10.7258C11.3242 10.5832 11.2441 10.3899 11.2441 10.1884V7.08837C11.2441 6.8868 11.3242 6.6935 11.4667 6.55097C11.6093 6.40844 11.8026 6.32837 12.0041 6.32837C12.2057 6.32837 12.399 6.40844 12.5415 6.55097C12.6841 6.6935 12.7641 6.8868 12.7641 7.08837V10.1884C12.7608 10.3889 12.6797 10.5803 12.5378 10.7221C12.396 10.8639 12.2047 10.945 12.0041 10.9484Z" fill="white"/>
<path d="M14.8336 20.1985C14.6233 20.7806 14.2389 21.2839 13.7325 21.64C13.2262 21.996 12.6226 22.1875 12.0036 22.1885C11.6088 22.1888 11.2179 22.1102 10.8538 21.9573C10.4898 21.8045 10.1599 21.5805 9.88359 21.2985C9.56444 20.9901 9.32433 20.6094 9.18359 20.1885C9.31359 20.2085 9.44359 20.2185 9.58359 20.2385C9.81359 20.2685 10.0536 20.2985 10.2936 20.3185C10.8636 20.3685 11.4436 20.3985 12.0236 20.3985C12.6036 20.3985 13.1636 20.3685 13.7236 20.3185C13.9336 20.2985 14.1436 20.2885 14.3436 20.2585L14.8336 20.1985Z" fill="white"/>
</svg>
