<svg width="22" height="22" viewBox="0 0 22 22" fill="none" xmlns="http://www.w3.org/2000/svg">
<path d="M20.165 5.49992V7.71825C20.1898 8.03514 20.1457 8.35365 20.0356 8.65184C19.9255 8.95004 19.7521 9.22084 19.5274 9.4456C19.3026 9.67036 19.0318 9.84375 18.7336 9.95383C18.4354 10.0639 18.1169 10.1081 17.8 10.0833H14.665V3.67575C14.6672 3.18617 14.8633 2.71741 15.2103 2.37208C15.5574 2.02675 16.0271 1.833 16.5167 1.83325C17.4864 1.83689 18.415 2.22495 19.0989 2.91232C19.7829 3.59969 20.1663 4.53026 20.165 5.49992Z" fill="white"/>
<path opacity="0.4" d="M1.83496 6.41659V19.2499C1.83496 19.4202 1.88237 19.587 1.97186 19.7318C2.06136 19.8767 2.18942 19.9937 2.34168 20.0698C2.49395 20.1459 2.6644 20.1782 2.83395 20.1629C3.0035 20.1476 3.16544 20.0854 3.30163 19.9833L4.86913 18.8099C5.04784 18.6764 5.26886 18.6121 5.49131 18.629C5.71375 18.6458 5.92256 18.7427 6.07913 18.9016L7.60079 20.4324C7.77387 20.6042 8.00781 20.7005 8.25163 20.7005C8.49545 20.7005 8.72939 20.6042 8.90246 20.4324L10.4425 18.8924C10.5976 18.7369 10.8037 18.6429 11.0228 18.6278C11.2419 18.6126 11.4591 18.6773 11.6341 18.8099L13.2016 19.9833C13.3378 20.0854 13.4998 20.1476 13.6693 20.1629C13.8389 20.1782 14.0093 20.1459 14.1616 20.0698C14.3138 19.9937 14.4419 19.8767 14.5314 19.7318C14.6209 19.587 14.6683 19.4202 14.6683 19.2499V3.66659C14.6697 3.1808 14.8634 2.71533 15.2069 2.37183C15.5504 2.02832 16.0158 1.8347 16.5016 1.83325L5.50163 1.83325C2.75163 1.83325 1.83496 3.47409 1.83496 5.49992V6.41659Z" fill="white"/>
<path d="M11 12.9375H5.5C5.31803 12.9363 5.14386 12.8635 5.01519 12.7348C4.88652 12.6061 4.8137 12.432 4.8125 12.25C4.8137 12.068 4.88652 11.8939 5.01519 11.7652C5.14386 11.6365 5.31803 11.5637 5.5 11.5625H11C11.182 11.5637 11.3561 11.6365 11.4848 11.7652C11.6135 11.8939 11.6863 12.068 11.6875 12.25C11.6863 12.432 11.6135 12.6061 11.4848 12.7348C11.3561 12.8635 11.182 12.9363 11 12.9375Z" fill="white"/>
<path d="M10.3125 16.6042H6.1875C6.00553 16.603 5.83136 16.5302 5.70269 16.4016C5.57402 16.2729 5.5012 16.0987 5.5 15.9167C5.5012 15.7348 5.57402 15.5606 5.70269 15.4319C5.83136 15.3033 6.00553 15.2304 6.1875 15.2292H10.3125C10.4945 15.2304 10.6686 15.3033 10.7973 15.4319C10.926 15.5606 10.9988 15.7348 11 15.9167C10.9988 16.0987 10.926 16.2729 10.7973 16.4016C10.6686 16.5302 10.4945 16.603 10.3125 16.6042Z" fill="white"/>
</svg>
