<svg width="22" height="22" viewBox="0 0 22 22" fill="none" xmlns="http://www.w3.org/2000/svg">
<path opacity="0.4" d="M6.17079 18.0583C6.33156 17.8697 6.53363 17.7208 6.7613 17.623C6.98898 17.5253 7.23613 17.4814 7.48354 17.4947C7.73095 17.508 7.97197 17.5782 8.18785 17.6997C8.40373 17.8213 8.58867 17.9911 8.72829 18.1958L9.65413 19.4333C9.79813 19.6589 9.99665 19.8445 10.2314 19.9732C10.4661 20.1018 10.7294 20.1692 10.997 20.1692C11.2647 20.1692 11.528 20.1018 11.7627 19.9732C11.9974 19.8445 12.196 19.6589 12.34 19.4333L13.2658 18.1958C13.4054 17.9911 13.5904 17.8213 13.8062 17.6997C14.0221 17.5782 14.2631 17.508 14.5105 17.4947C14.758 17.4814 15.0051 17.5253 15.2328 17.623C15.4605 17.7208 15.6625 17.8697 15.8233 18.0583C17.455 19.7999 18.7841 19.2224 18.7841 16.7841V6.45325C18.7933 2.75908 17.9316 1.83325 14.4666 1.83325H7.53663C4.07163 1.83325 3.20996 2.75908 3.20996 6.45325V16.7749C3.20996 19.2224 4.54829 19.7908 6.17079 18.0583Z" fill="white"/>
<path d="M14.6683 7.10425H7.33496C7.153 7.10305 6.97882 7.03023 6.85015 6.90156C6.72148 6.77288 6.64866 6.59871 6.64746 6.41675C6.64866 6.23478 6.72148 6.06061 6.85015 5.93194C6.97882 5.80327 7.153 5.73045 7.33496 5.72925H14.6683C14.8503 5.73045 15.0244 5.80327 15.1531 5.93194C15.2818 6.06061 15.3546 6.23478 15.3558 6.41675C15.3546 6.59871 15.2818 6.77288 15.1531 6.90156C15.0244 7.03023 14.8503 7.10305 14.6683 7.10425Z" fill="white"/>
<path d="M13.75 10.7708H8.25C8.06803 10.7696 7.89386 10.6967 7.76519 10.5681C7.63652 10.4394 7.5637 10.2652 7.5625 10.0833C7.5637 9.90129 7.63652 9.72712 7.76519 9.59844C7.89386 9.46977 8.06803 9.39695 8.25 9.39575H13.75C13.932 9.39695 14.1061 9.46977 14.2348 9.59844C14.3635 9.72712 14.4363 9.90129 14.4375 10.0833C14.4363 10.2652 14.3635 10.4394 14.2348 10.5681C14.1061 10.6967 13.932 10.7696 13.75 10.7708Z" fill="white"/>
</svg>
