<svg width="11" height="16" viewBox="0 0 11 16" fill="none" xmlns="http://www.w3.org/2000/svg">
<path d="M9.95679 1.85247C10.4476 1.85247 10.8456 1.45468 10.8456 0.964079C10.8456 0.473482 10.4476 0.0756836 9.95679 0.0756836H0.966184C0.474978 0.0756836 0.0774029 0.473482 0.0774029 0.964079C0.0774029 1.45468 0.474978 1.85247 0.966184 1.85247H3.53888H3.53848C4.17411 1.85604 4.79191 2.06267 5.30172 2.44262C5.81157 2.82218 6.18613 3.35482 6.3714 3.96244H0.966093C0.474886 3.96244 0.0773115 4.36024 0.0773115 4.85083C0.0773115 5.34143 0.474886 5.73923 0.966093 5.73923H6.3714C6.18611 6.34683 5.81116 6.87942 5.30172 7.25945C4.79186 7.639 4.17403 7.84563 3.53848 7.84921H0.966193C0.604729 7.83969 0.275798 8.05543 0.139708 8.38978C0.00401381 8.72451 0.0901108 9.10842 0.355555 9.35313L6.78576 15.4219C7.14405 15.7571 7.70589 15.7392 8.04234 15.3823C8.20383 15.2149 8.29152 14.9892 8.28477 14.7568C8.27803 14.524 8.17764 14.3039 8.00663 14.1461L3.20051 9.6259H3.53856C4.64715 9.62313 5.72008 9.23286 6.57108 8.52338C7.42217 7.81345 7.99872 6.82872 8.20024 5.7392H9.95678C10.4476 5.7392 10.8456 5.3414 10.8456 4.8508C10.8456 4.3602 10.4476 3.9624 9.95678 3.9624H8.20024C8.05264 3.18506 7.71538 2.51874 7.23805 1.85249L9.95679 1.85247Z" fill="white"/>
</svg>
