<svg width="56" height="56" viewBox="0 0 56 56" fill="none" xmlns="http://www.w3.org/2000/svg">
<rect width="56" height="56" rx="14" fill="#C7F431"/>
<path d="M24.7282 38.9626L23.3953 34.9639C23.2112 34.4171 22.9031 33.9203 22.4952 33.5123C22.0872 33.1044 21.5904 32.7963 21.0436 32.6122L17.0372 31.2716C16.2907 31.0225 15.6426 30.5429 15.186 29.9019C14.7294 29.2609 14.488 28.4916 14.4965 27.7047C14.5051 26.9177 14.7631 26.1538 15.2334 25.5228C15.7037 24.8919 16.3621 24.4264 17.1138 24.1935L18.9217 23.642C19.1688 23.5573 19.4384 23.5654 19.68 23.6649L33.7291 28.9965C34.0053 29.1023 34.2311 29.3091 34.3605 29.5751C34.4899 29.8411 34.5134 30.1463 34.4262 30.429L31.7987 38.8937C31.5653 39.6444 31.0997 40.3018 30.4689 40.771C29.8381 41.2403 29.0747 41.4973 28.2885 41.5049C27.5024 41.5126 26.7341 41.2706 26.0943 40.8137C25.4544 40.3568 24.9761 39.7087 24.7282 38.9626Z" fill="#010101"/>
<path opacity="0.4" d="M34.0638 27.4551L24.8645 23.9689C24.6385 23.8827 24.445 23.7282 24.3109 23.5269C24.1768 23.3256 24.1088 23.0875 24.1163 22.8458C24.1238 22.604 24.2064 22.3706 24.3528 22.178C24.4991 21.9854 24.7018 21.8432 24.9326 21.7712L31.6814 19.6799C32.329 19.478 33.0195 19.457 33.6781 19.6193C34.3368 19.7816 34.9385 20.121 35.4181 20.6006C35.8978 21.0803 36.2371 21.682 36.3994 22.3406C36.5617 22.9993 36.5408 23.6898 36.3389 24.3374L35.5958 26.7197C35.547 26.871 35.4679 27.0107 35.3633 27.1305C35.2587 27.2502 35.1309 27.3474 34.9876 27.4162C34.8443 27.485 34.6885 27.5239 34.5297 27.5306C34.3709 27.5373 34.2123 27.5116 34.0638 27.4551Z" fill="#010101"/>
</svg>
