<svg width="26" height="26" viewBox="0 0 26 26" fill="none" xmlns="http://www.w3.org/2000/svg">
<path d="M2.16699 13.9534V12.0468C2.16871 11.5014 2.38612 10.9789 2.77176 10.5932C3.1574 10.2076 3.67995 9.99016 4.22533 9.98844C6.18616 9.98844 6.98782 8.60178 6.00199 6.90094C5.73132 6.42811 5.65915 5.86726 5.8013 5.34131C5.94345 4.81535 6.28832 4.36721 6.76032 4.09511L8.63449 3.02261C9.04836 2.78182 9.54084 2.71502 10.0039 2.83688C10.4669 2.95874 10.8628 3.25929 11.1045 3.67261L11.2237 3.87844C12.1987 5.57928 13.802 5.57928 14.7878 3.87844L14.907 3.67261C15.1487 3.25929 15.5445 2.95874 16.0076 2.83688C16.4706 2.71502 16.9631 2.78182 17.377 3.02261L19.2512 4.09511C19.7232 4.36721 20.068 4.81535 20.2102 5.34131C20.3523 5.86726 20.2802 6.42811 20.0095 6.90094C19.0237 8.60178 19.8253 9.98844 21.7862 9.98844C22.3315 9.99016 22.8541 10.2076 23.2397 10.5932C23.6254 10.9789 23.8428 11.5014 23.8445 12.0468V13.9534C23.8428 14.4988 23.6254 15.0214 23.2397 15.407C22.8541 15.7927 22.3315 16.0101 21.7862 16.0118C19.8253 16.0118 19.0237 17.3984 20.0095 19.0993C20.2802 19.5721 20.3523 20.133 20.2102 20.6589C20.068 21.1849 19.7232 21.633 19.2512 21.9051L17.377 22.9776C16.9631 23.2184 16.4706 23.2852 16.0076 23.1633C15.5445 23.0415 15.1487 22.7409 14.907 22.3276L14.7878 22.1218C13.8128 20.4209 12.2095 20.4209 11.2237 22.1218L11.1045 22.3276C10.8628 22.7409 10.4669 23.0415 10.0039 23.1633C9.54084 23.2852 9.04836 23.2184 8.63449 22.9776L6.76032 21.9051C6.28832 21.633 5.94345 21.1849 5.8013 20.6589C5.65915 20.133 5.73132 19.5721 6.00199 19.0993C6.98782 17.3984 6.18616 16.0118 4.22533 16.0118C3.67995 16.0101 3.1574 15.7927 2.77176 15.407C2.38612 15.0214 2.16871 14.4988 2.16699 13.9534Z" fill="#83867B"/>
<path d="M16.5212 13.0001C16.5212 13.6964 16.3147 14.3772 15.9278 14.9562C15.5409 15.5351 14.991 15.9864 14.3477 16.2529C13.7043 16.5194 12.9964 16.5891 12.3134 16.4533C11.6305 16.3174 11.0031 15.9821 10.5107 15.4897C10.0183 14.9973 9.683 14.3699 9.54715 13.687C9.41129 13.004 9.48102 12.2961 9.7475 11.6527C10.014 11.0094 10.4653 10.4595 11.0443 10.0726C11.6233 9.68574 12.304 9.47925 13.0003 9.47925C13.9341 9.47925 14.8296 9.85019 15.4899 10.5105C16.1502 11.1708 16.5212 12.0663 16.5212 13.0001Z" fill="white"/>
</svg>
