<svg width="25" height="24" viewBox="0 0 25 24" fill="none" xmlns="http://www.w3.org/2000/svg">
<path d="M12.003 7.56272L11.996 23.001C11.996 23.2662 12.1014 23.5206 12.2889 23.7081C12.4764 23.8957 12.7308 24.001 12.996 24.001C13.2612 24.001 13.5156 23.8957 13.7031 23.7081C13.8907 23.5206 13.996 23.2662 13.996 23.001L14.003 7.57972L16.9151 10.4928C17.1026 10.6803 17.3569 10.7856 17.6221 10.7856C17.8873 10.7856 18.1416 10.6803 18.3291 10.4928C18.5166 10.3052 18.6219 10.0509 18.6219 9.78577C18.6219 9.5206 18.5166 9.26628 18.3291 9.07875L15.1181 5.86369C14.8394 5.58491 14.5086 5.36375 14.1445 5.21286C13.7804 5.06198 13.3901 4.98431 12.996 4.98431C12.6019 4.98431 12.2116 5.06198 11.8475 5.21286C11.4834 5.36375 11.1526 5.58491 10.874 5.86369L7.66291 9.07575C7.47543 9.26328 7.37012 9.5176 7.37012 9.78277C7.37012 10.0479 7.47543 10.3022 7.66291 10.4898C7.85044 10.6773 8.10475 10.7826 8.36992 10.7826C8.63509 10.7826 8.88941 10.6773 9.07694 10.4898L12.003 7.56272Z" fill="#B9B9B9"/>
<path d="M2.99567 7.00035V3.00027C2.99567 2.73505 3.10102 2.48069 3.28856 2.29315C3.4761 2.10561 3.73046 2.00025 3.99569 2.00025H21.996C22.2613 2.00025 22.5156 2.10561 22.7032 2.29315C22.8907 2.48069 22.9961 2.73505 22.9961 3.00027V7.00035C22.9961 7.26557 23.1014 7.51993 23.289 7.70747C23.4765 7.89501 23.7309 8.00037 23.9961 8.00037C24.2613 8.00037 24.5157 7.89501 24.7032 7.70747C24.8907 7.51993 24.9961 7.26557 24.9961 7.00035V3.00027C24.9961 2.2046 24.68 1.44153 24.1174 0.878908C23.5548 0.316288 22.7917 0.000211716 21.996 0.000211716H3.99569C3.20002 0.000211716 2.43694 0.316288 1.87432 0.878908C1.3117 1.44153 0.995628 2.2046 0.995628 3.00027V7.00035C0.995628 7.26557 1.10099 7.51993 1.28852 7.70747C1.47606 7.89501 1.73042 8.00037 1.99565 8.00037C2.26087 8.00037 2.51523 7.89501 2.70277 7.70747C2.89031 7.51993 2.99567 7.26557 2.99567 7.00035Z" fill="#B9B9B9"/>
</svg>
