<svg width="24" height="16" viewBox="0 0 24 16" fill="none" xmlns="http://www.w3.org/2000/svg">
<path d="M11.8534 15.185C5.43235 15.185 0.380354 8.831 0.168354 8.561C0.0592785 8.42191 0 8.25026 0 8.0735C0 7.89674 0.0592785 7.72509 0.168354 7.586C0.380354 7.315 5.43235 0.960999 11.8534 0.960999C18.2744 0.960999 23.3264 7.315 23.5384 7.586C23.6474 7.72509 23.7067 7.89674 23.7067 8.0735C23.7067 8.25026 23.6474 8.42191 23.5384 8.561C23.3264 8.831 18.2744 15.185 11.8534 15.185ZM1.82835 8.073C3.10735 9.506 7.17235 13.605 11.8544 13.605C16.5364 13.605 20.6004 9.505 21.8804 8.073C20.6004 6.64 16.5364 2.541 11.8534 2.541C7.17035 2.541 3.10735 6.64 1.82835 8.073Z" fill="white"/>
<path d="M11.8534 12.022C11.0718 12.0224 10.3076 11.791 9.65758 11.357C9.00754 10.923 8.50082 10.3059 8.20153 9.5839C7.90224 8.86187 7.82383 8.06729 7.97621 7.30069C8.1286 6.53408 8.50494 5.8299 9.05761 5.27722C9.61029 4.72454 10.3145 4.3482 11.0811 4.19582C11.8477 4.04343 12.6423 4.12184 13.3643 4.42113C14.0863 4.72042 14.7034 5.22714 15.1374 5.87719C15.5714 6.52723 15.8028 7.29139 15.8024 8.073C15.8019 9.12017 15.3856 10.1243 14.6452 10.8648C13.9047 11.6052 12.9006 12.0215 11.8534 12.022ZM11.8534 5.7C11.3845 5.7 10.926 5.83905 10.5361 6.09958C10.1462 6.36011 9.84233 6.73041 9.66287 7.16365C9.48342 7.5969 9.43646 8.07363 9.52795 8.53356C9.61944 8.99348 9.84525 9.41596 10.1768 9.74755C10.5084 10.0791 10.9309 10.305 11.3908 10.3964C11.8508 10.4879 12.3275 10.441 12.7607 10.2615C13.194 10.0821 13.5643 9.77816 13.8248 9.38825C14.0853 8.99834 14.2244 8.53994 14.2244 8.071C14.2239 7.44252 13.9738 6.83996 13.5292 6.39574C13.0846 5.95152 12.4819 5.702 11.8534 5.702V5.7Z" fill="white"/>
</svg>
