<svg width="45" height="16" viewBox="0 0 45 16" fill="none" xmlns="http://www.w3.org/2000/svg">
<path d="M19.9314 14.8535H16.365L18.594 1.15541H22.1606L19.9314 14.8535ZM13.3648 1.15541L9.96486 10.5771L9.56254 8.54822L9.5629 8.54895L8.36289 2.38877C8.36289 2.38877 8.21779 1.15541 6.67115 1.15541H1.05033L0.984375 1.38735C0.984375 1.38735 2.70323 1.74497 4.71486 2.95305L7.81327 14.8539H11.5291L17.203 1.15541H13.3648ZM41.4158 14.8535H44.6905L41.8354 1.15504H38.9685C37.6447 1.15504 37.3222 2.17588 37.3222 2.17588L32.0033 14.8535H35.721L36.4644 12.8188H40.9981L41.4158 14.8535ZM37.4915 10.008L39.3653 4.88186L40.4195 10.008H37.4915ZM32.2822 4.44949L32.7911 1.5079C32.7911 1.5079 31.2207 0.910645 29.5835 0.910645C27.8137 0.910645 23.6109 1.68415 23.6109 5.44541C23.6109 8.98425 28.5436 9.02822 28.5436 10.8871C28.5436 12.7459 24.1191 12.4128 22.659 11.2406L22.1288 14.3163C22.1288 14.3163 23.7212 15.0898 26.1542 15.0898C28.588 15.0898 32.2594 13.8297 32.2594 10.4001C32.2594 6.83852 27.2824 6.50692 27.2824 4.95844C27.2828 3.4096 30.756 3.60856 32.2822 4.44949Z" fill="#2566AF"/>
<path d="M9.56291 8.54884L8.36289 2.38866C8.36289 2.38866 8.21779 1.1553 6.67115 1.1553H1.05033L0.984375 1.38725C0.984375 1.38725 3.68596 1.94713 6.27725 4.04486C8.75496 6.04989 9.56291 8.54884 9.56291 8.54884Z" fill="#E6A540"/>
</svg>
