<svg width="38" height="38" viewBox="0 0 38 38" fill="none" xmlns="http://www.w3.org/2000/svg">
<rect x="0.5" y="0.5" width="37" height="37" rx="9.5" stroke="url(#paint0_linear_769_849)"/>
<path opacity="0.4" d="M24.4759 25.85L14.1999 25.886C13.722 25.8889 13.2482 25.7976 12.8056 25.6173C12.363 25.4369 11.9603 25.1711 11.6206 24.835C11.2808 24.4989 11.0106 24.0992 10.8255 23.6586C10.6403 23.218 10.5438 22.7452 10.5416 22.2673L10.5186 15.7151L28.0859 15.6536L28.1088 22.2058C28.1099 22.6837 28.0167 23.1572 27.8346 23.599C27.6526 24.0409 27.3852 24.4426 27.0478 24.781C26.7104 25.1195 26.3096 25.3881 25.8682 25.5715C25.4269 25.7549 24.9538 25.8496 24.4759 25.85Z" fill="white"/>
<path d="M28.0852 15.653L10.5108 15.7075L10.5063 14.4141C10.5052 13.9362 10.5984 13.4627 10.7805 13.0209C10.9625 12.579 11.2299 12.1773 11.5673 11.8389C11.9047 11.5004 12.3055 11.2318 12.7468 11.0484C13.1882 10.865 13.6613 10.7703 14.1392 10.7699L24.4181 10.7368C24.896 10.7338 25.3697 10.8251 25.8123 11.0055C26.2549 11.1858 26.6576 11.4516 26.9974 11.7877C27.3371 12.1238 27.6073 12.5236 27.7925 12.9642C27.9776 13.4047 28.0741 13.8775 28.0764 14.3554L28.0852 15.653Z" fill="white"/>
<path d="M16.2247 23.1798L14.3059 23.1865C14.2117 23.1868 14.1183 23.1686 14.031 23.1328C13.9438 23.0971 13.8645 23.0445 13.7976 22.9781C13.6626 22.8439 13.5863 22.6616 13.5856 22.4713C13.585 22.2809 13.66 22.0981 13.7941 21.963C13.9282 21.8279 14.1105 21.7517 14.3009 21.751L16.2196 21.7443C16.41 21.7436 16.5928 21.8186 16.7279 21.9527C16.863 22.0869 16.9392 22.2692 16.9399 22.4595C16.9406 22.6499 16.8656 22.8327 16.7315 22.9678C16.5973 23.1029 16.415 23.1791 16.2247 23.1798Z" fill="white"/>
<path d="M22.4511 23.1586L18.6278 23.1719C18.4375 23.1726 18.2546 23.0976 18.1195 22.9635C17.9845 22.8294 17.9082 22.6471 17.9075 22.4567C17.9069 22.2663 17.9819 22.0835 18.116 21.9484C18.2501 21.8134 18.4324 21.7371 18.6228 21.7364L22.4461 21.723C22.5404 21.7224 22.6339 21.7405 22.7213 21.7761C22.8086 21.8118 22.888 21.8644 22.955 21.9308C23.0219 21.9973 23.0751 22.0764 23.1113 22.1635C23.1476 22.2505 23.1663 22.3439 23.1664 22.4383C23.1627 22.6273 23.0863 22.8077 22.9531 22.9418C22.8199 23.076 22.6401 23.1536 22.4511 23.1586Z" fill="white"/>
<circle cx="27" cy="24" r="4" fill="#8B8E7F"/>
<path d="M27.0371 22.3999V25.9999" stroke="white" stroke-width="0.5" stroke-linecap="round"/>
<path d="M29.0004 24.0363H25.4004" stroke="white" stroke-width="0.5" stroke-linecap="round"/>
<defs>
<linearGradient id="paint0_linear_769_849" x1="3.09857" y1="2.03892" x2="38" y2="38" gradientUnits="userSpaceOnUse">
<stop stop-color="#C7F431" stop-opacity="0.46"/>
<stop offset="1" stop-color="#C7F431" stop-opacity="0"/>
</linearGradient>
</defs>
</svg>
