<svg width="79" height="49" viewBox="0 0 79 49" fill="none" xmlns="http://www.w3.org/2000/svg">
<g clip-path="url(#clip0_784_857)">
<path d="M24.6113 48.0087L54.6113 48.0087C67.8662 48.0087 78.6113 37.2636 78.6113 24.0087C78.6113 10.7539 67.8662 0.00872803 54.6113 0.00872803L24.6113 0.00872803C11.3565 0.00872803 0.611328 10.7539 0.611328 24.0087C0.611328 37.2636 11.3565 48.0087 24.6113 48.0087Z" fill="url(#paint0_linear_784_857)"/>
<path d="M24.6113 45.0087L54.6113 45.0087C66.2093 45.0087 75.6113 35.6067 75.6113 24.0087C75.6113 12.4107 66.2093 3.00873 54.6113 3.00873L24.6113 3.00873C13.0133 3.00873 3.61133 12.4107 3.61133 24.0087C3.61133 35.6067 13.0133 45.0087 24.6113 45.0087Z" fill="white"/>
<path d="M53.1113 11.0087C45.6555 11.0087 39.6113 17.0529 39.6113 24.5087C39.6113 31.9646 45.6555 38.0087 53.1113 38.0087C60.5672 38.0087 66.6113 31.9646 66.6113 24.5087C66.6113 17.0529 60.5672 11.0087 53.1113 11.0087Z" fill="#C7F431"/>
<path d="M22.6713 22.8157C21.5678 22.7771 20.642 23.6402 20.6033 24.7437C20.5646 25.8472 21.4278 26.7731 22.5313 26.8117C23.6348 26.8504 24.5606 25.9872 24.5993 24.8837C24.638 23.7802 23.7748 22.8544 22.6713 22.8157Z" fill="white"/>
<path d="M32.2329 21.1502C30.3018 21.0826 28.6815 22.5932 28.6139 24.5242C28.5462 26.4553 30.0568 28.0756 31.9879 28.1432C33.9189 28.2109 35.5392 26.7003 35.6069 24.7692C35.6745 22.8382 34.1639 21.2179 32.2329 21.1502Z" fill="white"/>
<path d="M21.9987 22.2271C20.8943 22.2464 20.0147 23.1574 20.034 24.2618C20.0533 25.3662 20.9643 26.2458 22.0687 26.2265C23.1731 26.2072 24.0527 25.2963 24.0334 24.1919C24.0141 23.0875 23.1031 22.2078 21.9987 22.2271Z" fill="#C7F431"/>
<path d="M31.4797 21.0612C29.547 21.095 28.0077 22.6891 28.0414 24.6218C28.0752 26.5545 29.6694 28.0939 31.6021 28.0601C33.5348 28.0263 35.0742 26.4322 35.0404 24.4995C35.0066 22.5668 33.4124 21.0274 31.4797 21.0612Z" fill="#C7F431"/>
</g>
<defs>
<linearGradient id="paint0_linear_784_857" x1="70.4213" y1="3.99273" x2="21.6276" y2="76.0809" gradientUnits="userSpaceOnUse">
<stop stop-color="#181822" stop-opacity="0"/>
<stop offset="1" stop-color="#C7F431"/>
</linearGradient>
<clipPath id="clip0_784_857">
<rect width="48" height="78" fill="white" transform="matrix(0 1 -1 0 78.6113 0.00872803)"/>
</clipPath>
</defs>
</svg>
