<svg width="80" height="50" viewBox="0 0 80 50" fill="none" xmlns="http://www.w3.org/2000/svg">
<path d="M25.4223 0.741459L55.4177 1.26592C68.6705 1.49764 79.2262 12.429 78.9945 25.6818C78.7628 38.9346 67.8314 49.4903 54.5786 49.2586L24.5832 48.7341C11.3304 48.5024 0.774695 37.571 1.00642 24.3182C1.23814 11.0654 12.1695 0.509738 25.4223 0.741459Z" fill="url(#paint0_linear_426_1386)"/>
<path d="M25.3691 3.74099L55.3645 4.26545C66.9607 4.4682 76.197 14.0332 75.9942 25.6294C75.7915 37.2256 66.2265 46.4618 54.6303 46.259L24.6349 45.7346C13.0387 45.5318 3.80245 35.9669 4.00521 24.3707C4.20797 12.7744 13.7729 3.53823 25.3691 3.74099Z" fill="black"/>
<path d="M26.2742 37.7621C18.8195 37.6317 12.8819 31.4828 13.0123 24.0281C13.1426 16.5734 19.2915 10.6358 26.7462 10.7662C34.2009 10.8965 40.1385 17.0454 40.0081 24.5001C39.8778 31.9548 33.7289 37.8924 26.2742 37.7621Z" fill="white"/>
<path d="M13.0128 24.0281C12.9718 26.3478 13.5293 28.639 14.6316 30.6805C15.7339 32.722 17.3437 34.445 19.3057 35.6832C21.2677 36.9215 23.5157 37.6331 25.8329 37.7496C28.15 37.8661 30.4581 37.3835 32.5344 36.3483C34.4095 35.4079 36.042 34.0471 37.3047 32.372C34.5849 33.1499 31.6895 33.0538 29.0273 32.0973C26.3651 31.1407 24.0707 29.3721 22.468 27.0411C20.8653 24.7101 20.0353 21.9345 20.0953 19.1063C20.1553 16.2782 21.1021 13.5403 22.8022 11.2793C20.053 12.0731 17.6239 13.7133 15.8602 15.9666C14.0552 18.2702 13.055 21.1019 13.0128 24.0281Z" fill="#A7B2C4"/>
<path d="M58.0501 22.3152C59.1545 22.3345 60.0341 23.2454 60.0148 24.3498C59.9955 25.4542 59.0846 26.3339 57.9802 26.3146C56.8758 26.2953 55.9961 25.3843 56.0154 24.2799C56.0347 23.1755 56.9457 22.2959 58.0501 22.3152Z" fill="white"/>
<path d="M48.5691 21.1492C50.5018 21.183 52.0412 22.7772 52.0074 24.7099C51.9736 26.6426 50.3794 28.182 48.4467 28.1482C46.514 28.1144 44.9747 26.5202 45.0085 24.5875C45.0422 22.6548 46.6364 21.1154 48.5691 21.1492Z" fill="white"/>
<defs>
<linearGradient id="paint0_linear_426_1386" x1="-0.210141" y1="4.66195" x2="40.9525" y2="68.5107" gradientUnits="userSpaceOnUse">
<stop stop-color="#181822" stop-opacity="0"/>
<stop offset="1" stop-color="#C7F431"/>
</linearGradient>
</defs>
</svg>
