<svg width="38" height="38" viewBox="0 0 38 38" fill="none" xmlns="http://www.w3.org/2000/svg">
<rect x="0.5" y="0.5" width="37" height="37" rx="9.5" stroke="url(#paint0_linear_769_851)"/>
<path d="M17.0003 25.5C16.2003 25.1 16.667 22.6667 17.0003 21.5C17.6669 21.1667 19.2 20.3 20 19.5C20.8 18.7 21.3333 17.1667 21.5 16.5H27.5C28.5 16.5 28 22 28 24C28 26 26.5 26 26 26C25.6 26 25.5 27 25.5 27.5C25 27 23.8 26 23 26C22 26 18.0003 26 17.0003 25.5Z" fill="#888B7E"/>
<path d="M26.9957 15.8925H21.612C21.6289 15.7037 21.6385 15.5124 21.6385 15.3188C21.6383 14.2098 21.3463 13.1204 20.7918 12.1599C20.2374 11.1995 19.4399 10.4019 18.4796 9.84725C17.5192 9.29258 16.4299 9.00038 15.3209 9C14.2119 8.99962 13.1223 9.29107 12.1616 9.84507C12.1181 9.87024 12.0799 9.90374 12.0493 9.94364C12.0188 9.98355 11.9963 10.0291 11.9833 10.0777C11.9704 10.1262 11.9671 10.1769 11.9737 10.2267C11.9803 10.2766 11.9966 10.3247 12.0218 10.3682C12.0469 10.4117 12.0804 10.4499 12.1203 10.4804C12.1603 10.511 12.2058 10.5334 12.2544 10.5464C12.3029 10.5594 12.3536 10.5627 12.4034 10.5561C12.4533 10.5495 12.5014 10.5332 12.5449 10.508C13.2827 10.0831 14.1084 9.83358 14.958 9.77869C15.8077 9.72379 16.6586 9.865 17.445 10.1914C18.2313 10.5178 18.9321 11.0206 19.4932 11.6611C20.0542 12.3015 20.4605 13.0624 20.6806 13.8849C20.9007 14.7074 20.9287 15.5694 20.7625 16.4045C20.5963 17.2395 20.2403 18.0252 19.722 18.7007C19.2037 19.3762 18.5371 19.9235 17.7736 20.3003C17.0101 20.6771 16.1701 20.8733 15.3187 20.8737C14.051 20.8781 12.8208 20.4437 11.837 19.6442C11.7881 19.605 11.7305 19.5784 11.669 19.5666C11.6075 19.5548 11.544 19.5583 11.4842 19.5767L10.4677 19.8427L10.8695 18.9677C10.8977 18.906 10.909 18.8379 10.9022 18.7704C10.8954 18.7029 10.8708 18.6384 10.8309 18.5836C10.1985 17.7146 9.83164 16.6809 9.77488 15.6076C9.71811 14.5344 9.97386 13.4677 10.5111 12.5369C10.5384 12.4933 10.5565 12.4447 10.5646 12.3939C10.5727 12.3432 10.5704 12.2913 10.558 12.2414C10.5456 12.1915 10.5233 12.1446 10.4924 12.1035C10.4615 12.0624 10.4227 12.028 10.3782 12.0022C10.3337 11.9764 10.2845 11.9599 10.2335 11.9535C10.1825 11.9472 10.1307 11.9511 10.0813 11.9652C10.0318 11.9792 9.9857 12.0031 9.94566 12.0353C9.90562 12.0676 9.87248 12.1075 9.8482 12.1528C9.2557 13.1782 8.96309 14.3494 9.00372 15.5329C9.04435 16.7165 9.41659 17.8648 10.078 18.8471L9.43518 20.2557C9.40513 20.3216 9.39438 20.3946 9.40418 20.4663C9.41398 20.538 9.44393 20.6055 9.49055 20.6609C9.53717 20.7162 9.59855 20.7573 9.66755 20.7791C9.73655 20.801 9.81034 20.8029 9.88034 20.7845L11.5083 20.3586C12.1714 20.8595 12.9268 21.2247 13.7312 21.4332C14.5356 21.6416 15.3733 21.6893 16.1962 21.5735V24.9259C16.1962 25.3521 16.3655 25.7609 16.6669 26.0623C16.9682 26.3637 17.377 26.533 17.8032 26.533H23.2231L25.6442 28.5137C25.7002 28.5597 25.7682 28.5888 25.8402 28.5977C25.9122 28.6065 25.9852 28.5947 26.0508 28.5636C26.1163 28.5326 26.1716 28.4835 26.2103 28.4221C26.249 28.3608 26.2695 28.2897 26.2693 28.2172V26.5298H26.9965C27.4228 26.5298 27.8315 26.3604 28.1329 26.0591C28.4343 25.7577 28.6036 25.3489 28.6036 24.9227V17.5004C28.6036 17.0742 28.4343 16.6654 28.1329 16.364C27.8315 16.0626 27.4228 15.8933 26.9965 15.8933L26.9957 15.8925ZM27.8378 24.9283C27.8376 25.1516 27.7488 25.3657 27.591 25.5235C27.4331 25.6814 27.219 25.7702 26.9957 25.7704H25.8852C25.7838 25.7704 25.6865 25.8107 25.6148 25.8824C25.5431 25.9542 25.5028 26.0515 25.5028 26.1529V27.4121L23.612 25.8652C23.5076 25.7704 23.4168 25.7704 23.2103 25.7704H17.8065C17.5832 25.7702 17.3691 25.6814 17.2112 25.5235C17.0533 25.3657 16.9646 25.1516 16.9643 24.9283V21.4193C18.0823 21.1154 19.0956 20.5109 19.8942 19.6715C20.6928 18.8322 21.246 17.79 21.4939 16.6583H26.9957C27.219 16.6585 27.4331 16.7473 27.591 16.9052C27.7488 17.063 27.8376 17.2771 27.8378 17.5004V24.9283Z" fill="white" stroke="white" stroke-width="0.3"/>
<path d="M24.3063 22.3481C24.3849 22.3113 24.4487 22.2487 24.4871 22.1708C24.5255 22.0929 24.5362 22.0042 24.5175 21.9194C24.4988 21.8346 24.4518 21.7587 24.3842 21.7041C24.3166 21.6496 24.2324 21.6197 24.1456 21.6193H23.9849L22.7498 18.8069C22.7201 18.7386 22.6711 18.6804 22.6088 18.6396C22.5465 18.5988 22.4736 18.577 22.3991 18.577C22.3246 18.577 22.2517 18.5988 22.1894 18.6396C22.1271 18.6804 22.0781 18.7386 22.0483 18.8069L20.8133 21.6193H20.6526C20.5657 21.6197 20.4816 21.6496 20.414 21.7041C20.3464 21.7587 20.2994 21.8346 20.2807 21.9194C20.262 22.0042 20.2727 22.0929 20.3111 22.1708C20.3495 22.2487 20.4133 22.3113 20.4919 22.3481L20.0323 23.3927C20.012 23.4388 20.0011 23.4884 20.0001 23.5387C19.999 23.589 20.0079 23.6389 20.0262 23.6858C20.0445 23.7327 20.0718 23.7755 20.1066 23.8118C20.1415 23.8481 20.1831 23.8771 20.2291 23.8974C20.2752 23.9176 20.3248 23.9285 20.3751 23.9295C20.4254 23.9306 20.4753 23.9217 20.5222 23.9034C20.5691 23.8851 20.6119 23.8578 20.6482 23.823C20.6845 23.7882 20.7136 23.7466 20.7338 23.7005L21.3123 22.3819H23.4818L24.0604 23.7005C24.0806 23.7466 24.1097 23.7882 24.146 23.823C24.1823 23.8578 24.2251 23.8852 24.272 23.9034C24.3188 23.9217 24.3688 23.9306 24.4191 23.9295C24.4694 23.9285 24.519 23.9176 24.565 23.8974C24.6111 23.8771 24.6527 23.8481 24.6876 23.8118C24.7224 23.7755 24.7497 23.7327 24.768 23.6858C24.7863 23.6389 24.7951 23.589 24.7941 23.5387C24.793 23.4884 24.7821 23.4388 24.7619 23.3927L24.3063 22.3481ZM21.6546 21.6193L22.4035 19.9118L23.1524 21.6193H21.6546Z" fill="white" stroke="white" stroke-width="0.3"/>
<path d="M13.033 17.6491C12.9868 17.6721 12.9457 17.7041 12.9122 17.7434C12.8786 17.7826 12.8534 17.8283 12.8379 17.8775C12.8224 17.9268 12.8171 17.9787 12.8222 18.03C12.8272 18.0814 12.8427 18.1312 12.8675 18.1765C12.8923 18.2218 12.926 18.2616 12.9665 18.2935C13.0071 18.3254 13.0537 18.3488 13.1035 18.3623C13.1533 18.3758 13.2054 18.3791 13.2565 18.372C13.3076 18.3648 13.3568 18.3474 13.4011 18.3209C14.24 17.8608 14.9054 17.1389 15.2958 16.2654C15.6863 17.1389 16.3517 17.8607 17.1906 18.3209C17.2348 18.3474 17.284 18.3648 17.3351 18.372C17.3862 18.3791 17.4383 18.3758 17.4881 18.3623C17.5379 18.3488 17.5845 18.3254 17.6251 18.2935C17.6657 18.2616 17.6994 18.2218 17.7242 18.1765C17.749 18.1312 17.7644 18.0814 17.7694 18.03C17.7745 17.9787 17.7692 17.9268 17.7537 17.8775C17.7382 17.8283 17.713 17.7826 17.6794 17.7434C17.6459 17.7041 17.6048 17.6721 17.5586 17.6491C17.0699 17.3811 16.6497 17.0039 16.3306 16.5469C16.0116 16.0899 15.8024 15.5654 15.7193 15.0143H17.4196C17.5211 15.0143 17.6185 14.9739 17.6903 14.9021C17.7621 14.8303 17.8024 14.7329 17.8024 14.6314C17.8024 14.5298 17.7621 14.4325 17.6903 14.3607C17.6185 14.2889 17.5211 14.2485 17.4196 14.2485H15.6783V12.6535C15.6783 12.5519 15.638 12.4546 15.5661 12.3827C15.4943 12.3109 15.397 12.2706 15.2954 12.2706C15.1939 12.2706 15.0965 12.3109 15.0247 12.3827C14.9529 12.4546 14.9125 12.5519 14.9125 12.6535V14.2493H13.5304C13.4289 14.2493 13.3315 14.2897 13.2597 14.3615C13.1879 14.4333 13.1475 14.5307 13.1475 14.6322C13.1475 14.7338 13.1879 14.8311 13.2597 14.9029C13.3315 14.9747 13.4289 15.0151 13.5304 15.0151H14.8723C14.7891 15.5661 14.5798 16.0904 14.2608 16.5473C13.9418 17.0041 13.5216 17.3812 13.033 17.6491Z" fill="white" stroke="white" stroke-width="0.3"/>
<defs>
<linearGradient id="paint0_linear_769_851" x1="3.09857" y1="2.03892" x2="38" y2="38" gradientUnits="userSpaceOnUse">
<stop stop-color="#C7F431" stop-opacity="0.46"/>
<stop offset="1" stop-color="#C7F431" stop-opacity="0"/>
</linearGradient>
</defs>
</svg>
