<svg width="38" height="38" viewBox="0 0 38 38" fill="none" xmlns="http://www.w3.org/2000/svg">
<rect x="0.5" y="0.5" width="37" height="37" rx="9.5" stroke="url(#paint0_linear_769_853)"/>
<path d="M18.5 19C17.5111 19 16.5444 18.7068 15.7222 18.1574C14.8999 17.6079 14.2591 16.8271 13.8806 15.9134C13.5022 14.9998 13.4032 13.9945 13.5961 13.0246C13.789 12.0546 14.2652 11.1637 14.9645 10.4645C15.6637 9.76521 16.5547 9.289 17.5246 9.09608C18.4945 8.90315 19.4998 9.00217 20.4134 9.3806C21.3271 9.75904 22.108 10.3999 22.6574 11.2222C23.2068 12.0444 23.5 13.0111 23.5 14C23.4987 15.3257 22.9715 16.5967 22.0341 17.5341C21.0967 18.4715 19.8257 18.9987 18.5 19ZM19.3333 27.7875C19.3314 27.094 19.4671 26.4071 19.7324 25.7664C19.9978 25.1257 20.3875 24.544 20.8792 24.055L22.8592 22.075C21.7398 21.2696 20.4197 20.789 19.0446 20.6863C17.6694 20.5835 16.2926 20.8626 15.0659 21.4926C13.8393 22.1227 12.8105 23.0794 12.093 24.257C11.3756 25.4347 10.9973 26.7877 11 28.1667C11 28.3877 11.0878 28.5996 11.2441 28.7559C11.4004 28.9122 11.6123 29 11.8333 29H19.3333V27.7875Z" fill="#888B7E"/>
<path d="M20.1676 28.9658C20.1676 28.9658 22.3267 29.2234 23.4326 28.3217C24.5384 27.42 29.7226 22.1099 29.7226 22.1099C30.0113 21.7749 30.175 21.35 30.1855 20.9077C30.196 20.4655 30.0527 20.0334 29.7801 19.685C29.639 19.4774 29.4558 19.3016 29.2426 19.1691C29.0294 19.0365 28.7909 18.9503 28.5422 18.9156C28.2936 18.8809 28.0405 18.8986 27.7991 18.9676C27.5578 19.0367 27.3336 19.1556 27.141 19.3166C26.6968 19.7157 21.356 25.0366 21.1126 25.3466C20.5486 25.9367 20.2133 26.7084 20.1668 27.5233C20.1264 28.0033 20.1267 28.4859 20.1676 28.9658Z" fill="white"/>
<defs>
<linearGradient id="paint0_linear_769_853" x1="3.09857" y1="2.03892" x2="38" y2="38" gradientUnits="userSpaceOnUse">
<stop stop-color="#C7F431" stop-opacity="0.46"/>
<stop offset="1" stop-color="#C7F431" stop-opacity="0"/>
</linearGradient>
</defs>
</svg>
