<svg width="38" height="38" viewBox="0 0 38 38" fill="none" xmlns="http://www.w3.org/2000/svg">
<rect x="0.5" y="0.5" width="37" height="37" rx="9.5" stroke="url(#paint0_linear_1214_383)"/>
<path d="M27.4798 28.1668H10.5215C10.3395 28.1656 10.1653 28.0928 10.0367 27.9641C9.908 27.8354 9.83519 27.6613 9.83398 27.4793C9.83519 27.2973 9.908 27.1232 10.0367 26.9945C10.1653 26.8658 10.3395 26.793 10.5215 26.7918H27.4798C27.6618 26.793 27.836 26.8658 27.9646 26.9945C28.0933 27.1232 28.1661 27.2973 28.1673 27.4793C28.1661 27.6613 28.0933 27.8354 27.9646 27.9641C27.836 28.0928 27.6618 28.1656 27.4798 28.1668Z" fill="black"/>
<path opacity="0.4" d="M26.8728 20.5584L20.2453 27.1859C19.9379 27.495 19.5726 27.7403 19.1703 27.9081C18.7679 28.0758 18.3365 28.1626 17.9006 28.1634C17.4647 28.1643 17.0329 28.0792 16.6299 27.913C16.2269 27.7469 15.8606 27.5029 15.552 27.1951L11.3262 22.9693L22.6562 11.6393L26.882 15.8651C27.1898 16.1737 27.4338 16.54 27.6 16.943C27.7661 17.346 27.8512 17.7778 27.8504 18.2137C27.8495 18.6495 27.7627 19.081 27.595 19.4833C27.4273 19.8857 27.1819 20.251 26.8728 20.5584Z" fill="black"/>
<path d="M22.6554 11.639L11.3162 22.969L10.482 22.1348C10.1742 21.8262 9.93023 21.4599 9.76407 21.0569C9.59791 20.6539 9.51283 20.2221 9.51368 19.7862C9.51453 19.3503 9.6013 18.9189 9.76903 18.5166C9.93676 18.1142 10.1822 17.7489 10.4912 17.4415L17.1224 10.814C17.4298 10.5049 17.7951 10.2595 18.1974 10.0918C18.5998 9.92409 19.0312 9.83731 19.4671 9.83646C19.903 9.83561 20.3348 9.9207 20.7378 10.0869C21.1408 10.253 21.5071 10.497 21.8157 10.8048L22.6554 11.639Z" fill="black"/>
<path d="M19.816 24.1333L18.5785 25.3708C18.5177 25.4316 18.4456 25.4798 18.3661 25.5127C18.2867 25.5456 18.2016 25.5625 18.1156 25.5625C17.942 25.5625 17.7755 25.4936 17.6527 25.3708C17.5299 25.248 17.4609 25.0815 17.4609 24.9079C17.4609 24.7343 17.5299 24.5677 17.6527 24.445L18.8902 23.2075C19.013 23.0847 19.1795 23.0157 19.3531 23.0157C19.5267 23.0157 19.6932 23.0847 19.816 23.2075C19.9388 23.3302 20.0078 23.4968 20.0078 23.6704C20.0078 23.844 19.9388 24.0105 19.816 24.1333Z" fill="black"/>
<path d="M23.8315 20.1184L21.3656 22.5842C21.2429 22.707 21.0763 22.776 20.9027 22.776C20.7291 22.776 20.5626 22.707 20.4398 22.5842C20.317 22.4615 20.248 22.295 20.248 22.1213C20.248 21.9477 20.317 21.7812 20.4398 21.6584L22.9056 19.1926C22.9663 19.1315 23.0384 19.0831 23.1179 19.0501C23.1973 19.017 23.2825 19 23.3685 19C23.4546 19 23.5398 19.017 23.6192 19.0501C23.6987 19.0831 23.7708 19.1315 23.8315 19.1926C23.9506 19.3173 24.0171 19.4831 24.0171 19.6555C24.0171 19.8279 23.9506 19.9937 23.8315 20.1184Z" fill="black"/>
<defs>
<linearGradient id="paint0_linear_1214_383" x1="3.09857" y1="2.03892" x2="38" y2="38" gradientUnits="userSpaceOnUse">
<stop stop-color="#C7F431" stop-opacity="0.46"/>
<stop offset="1" stop-color="#C7F431" stop-opacity="0"/>
</linearGradient>
</defs>
</svg>
