<svg width="38" height="38" viewBox="0 0 38 38" fill="none" xmlns="http://www.w3.org/2000/svg">
<path opacity="0.4" d="M16.2488 14.6001V23.3909C16.1971 24.0305 16.2848 24.6736 16.5059 25.2759C16.727 25.8782 17.0762 26.4253 17.5295 26.8794C17.9827 27.3335 18.5292 27.6838 19.131 27.9061C19.7329 28.1284 20.3759 28.2173 21.0155 28.1668H23.3897C24.0285 28.2176 24.6708 28.1292 25.2722 27.9076C25.8736 27.686 26.4198 27.3366 26.8729 26.8834C27.3261 26.4302 27.6756 25.8841 27.8972 25.2827C28.1187 24.6813 28.2071 24.039 28.1563 23.4001V14.6001C28.209 13.9616 28.1222 13.3192 27.9019 12.7176C27.6816 12.116 27.3331 11.5695 26.8805 11.116C26.4279 10.6625 25.882 10.3129 25.2808 10.0915C24.6796 9.86998 24.0374 9.78195 23.3988 9.83345H21.0155C20.3766 9.78262 19.7343 9.87104 19.1329 10.0926C18.5315 10.3142 17.9854 10.6636 17.5322 11.1168C17.079 11.57 16.7296 12.1161 16.508 12.7175C16.2864 13.3189 16.198 13.9612 16.2488 14.6001Z" fill="black"/>
<path d="M19.3948 15.4431L22.4657 18.5139C22.5935 18.6433 22.6652 18.8178 22.6652 18.9997C22.6652 19.1816 22.5935 19.3562 22.4657 19.4856L19.3948 22.5564C19.2645 22.6779 19.0921 22.744 18.914 22.7408C18.7359 22.7377 18.566 22.6655 18.44 22.5396C18.314 22.4136 18.2419 22.2437 18.2387 22.0656C18.2356 21.8874 18.3017 21.7151 18.4232 21.5847L20.3207 19.6872H10.5215C10.3391 19.6872 10.1643 19.6148 10.0353 19.4859C9.90642 19.3569 9.83398 19.1821 9.83398 18.9997C9.83398 18.8174 9.90642 18.6425 10.0353 18.5136C10.1643 18.3847 10.3391 18.3122 10.5215 18.3122H20.3207L18.4232 16.4147C18.3592 16.351 18.3084 16.2753 18.2738 16.192C18.2392 16.1086 18.2213 16.0192 18.2213 15.9289C18.2213 15.8386 18.2392 15.7492 18.2738 15.6659C18.3084 15.5825 18.3592 15.5068 18.4232 15.4431C18.4862 15.3779 18.5616 15.326 18.6451 15.2906C18.7286 15.2552 18.8183 15.2369 18.909 15.2369C18.9997 15.2369 19.0894 15.2552 19.1729 15.2906C19.2563 15.326 19.3318 15.3779 19.3948 15.4431Z" fill="black"/>
<rect x="0.5" y="0.5" width="37" height="37" rx="9.5" stroke="url(#paint0_linear_1214_388)"/>
<defs>
<linearGradient id="paint0_linear_1214_388" x1="3.09857" y1="2.03892" x2="38" y2="38" gradientUnits="userSpaceOnUse">
<stop stop-color="#C7F431" stop-opacity="0.46"/>
<stop offset="1" stop-color="#C7F431" stop-opacity="0"/>
</linearGradient>
</defs>
</svg>
