<svg width="182" height="43" viewBox="0 0 182 43" fill="none" xmlns="http://www.w3.org/2000/svg">
<path d="M18.8856 42.1833H36.0123C37.13 42.1833 38.0361 41.2773 38.0361 40.1595V39.8649C38.0361 38.7472 37.13 37.8411 36.0123 37.8411H18.8856C17.7679 37.8411 16.8618 38.7472 16.8618 39.8649V40.1595C16.8618 41.2773 17.7679 42.1833 18.8856 42.1833Z" fill="url(#paint0_linear_1775_401)"/>
<path d="M26.7139 10.0749H28.1925V2.59912H26.7139V10.0749Z" fill="#F0F0F0"/>
<path d="M50.0666 32.3267C52.4012 31.7718 53.844 29.4294 53.2891 27.0947C52.7342 24.7601 50.3918 23.3173 48.0571 23.8722C45.7225 24.4271 44.2797 26.7695 44.8346 29.1042C45.3895 31.4388 47.7319 32.8816 50.0666 32.3267Z" fill="#F0F0F0"/>
<mask id="mask0_1775_401" style="mask-type:alpha" maskUnits="userSpaceOnUse" x="44" y="23" width="10" height="10">
<path d="M50.0666 32.3267C52.4012 31.7718 53.844 29.4294 53.2891 27.0947C52.7342 24.7601 50.3918 23.3173 48.0571 23.8722C45.7225 24.4271 44.2797 26.7695 44.8346 29.1042C45.3895 31.4388 47.7319 32.8816 50.0666 32.3267Z" fill="#F0F0F0"/>
</mask>
<g mask="url(#mask0_1775_401)">
<path d="M50.69 28.4876C51.4525 25.4143 48.251 27.0361 48.2626 23.7358L44.8184 31.4718L51.441 38.8255C58.845 35.8309 51.5785 37.0825 52.6644 33.2761C53.7503 29.4697 50.0566 31.0405 50.69 28.4876Z" fill="#CFCFCF"/>
</g>
<path d="M6.15965 32.0469C8.49988 31.5161 9.96669 29.1886 9.43586 26.8484C8.90503 24.5082 6.57758 23.0414 4.23734 23.5722C1.89711 24.103 0.4303 26.4305 0.961128 28.7707C1.49196 31.1109 3.81941 32.5778 6.15965 32.0469Z" fill="#E8E8E8"/>
<mask id="mask1_1775_401" style="mask-type:alpha" maskUnits="userSpaceOnUse" x="0" y="23" width="10" height="10">
<path d="M6.15965 32.0472C8.49988 31.5164 9.96669 29.1889 9.43586 26.8487C8.90503 24.5084 6.57758 23.0416 4.23734 23.5725C1.89711 24.1033 0.4303 26.4307 0.961128 28.771C1.49196 31.1112 3.81941 32.578 6.15965 32.0472Z" fill="#F0F0F0"/>
</mask>
<g mask="url(#mask1_1775_401)">
<path d="M3.33072 28.2342C2.99924 25.0851 5.94654 27.1329 6.3901 23.8625L8.73474 31.9995L1.16141 38.3699C-5.75896 34.383 1.26561 36.6246 0.714909 32.7048C0.164211 28.785 3.60607 30.8501 3.33072 28.2342Z" fill="#CFCFCF"/>
</g>
<path d="M26.6198 8.45302C26.6198 8.45302 8.95346 8.241 6.15591 23.5422C3.35837 38.8433 18.2988 39.1297 22.597 39.4188C24.5465 39.5509 28.7152 39.5647 32.3939 39.4986C40.5387 39.3582 46.2908 37.7805 48.2512 30.2249C48.4798 29.3438 48.634 28.4379 48.6918 27.5182C49.2095 19.2385 43.6034 8.04275 26.6226 8.45027L26.6198 8.45302Z" fill="url(#paint1_linear_1775_401)"/>
<path d="M39.6682 33.2584C43.1961 33.201 46.0302 30.3164 45.9756 26.7873V26.7858C45.9174 23.2573 42.9944 20.4631 39.4666 20.5169L13.6022 20.9189H13.6011C10.0733 20.9763 7.24011 23.8609 7.29472 27.39L7.29474 27.3915C7.35297 30.92 10.2759 33.7141 13.8037 33.6604L39.6682 33.2584Z" fill="#030303" stroke="url(#paint2_linear_1775_401)" stroke-width="3"/>
<path d="M19.0674 26.8328C18.9022 27.6809 18.0789 28.2316 17.2335 28.0664C16.3855 27.9012 15.8348 27.0779 16 26.2325C16.1652 25.3845 16.9885 24.8338 17.8338 24.999C18.6819 25.1642 19.2326 25.9875 19.0674 26.8328Z" fill="#C7F431"/>
<path d="M36.999 26.5464C36.8338 27.3945 36.0105 27.9452 35.1652 27.78C34.3171 27.6148 33.7664 26.7915 33.9316 25.9462C34.0968 25.0981 34.9201 24.5474 35.7654 24.7126C36.6135 24.8778 37.1642 25.7011 36.999 26.5464Z" fill="#C7F431"/>
<path d="M29.178 4.16922C30.1296 3.21758 30.1296 1.67466 29.178 0.723007C28.2264 -0.228633 26.6834 -0.228633 25.7318 0.723007C24.7801 1.67466 24.7801 3.21758 25.7318 4.16922C26.6834 5.12087 28.2264 5.12087 29.178 4.16922Z" fill="#C7F431"/>
<path d="M23.561 26.1113C23.6766 26.125 23.6188 26.6702 23.9603 27.3972C24.1255 27.7579 24.4008 28.1516 24.7891 28.4875C25.1773 28.8235 25.6922 29.0795 26.2567 29.1401C26.8239 29.1842 27.3773 29.0245 27.8206 28.7656C28.2667 28.5068 28.6081 28.1681 28.8339 27.8432C29.302 27.1906 29.3433 26.6427 29.459 26.651C29.503 26.651 29.5526 26.7886 29.5526 27.0475C29.5526 27.3063 29.4782 27.6835 29.269 28.1021C29.0597 28.5206 28.6963 28.9722 28.1703 29.3218C27.6527 29.6743 26.9478 29.9138 26.1906 29.8505C25.4361 29.7734 24.7863 29.4127 24.3402 28.9722C23.8887 28.5316 23.6106 28.0222 23.4811 27.5734C23.349 27.1218 23.3435 26.7363 23.393 26.483C23.4398 26.2297 23.5114 26.1003 23.5555 26.1085L23.561 26.1113Z" fill="#C7F431"/>
<path d="M47.0834 33.2455C47.0586 33.2317 47.3753 32.7498 47.6782 31.8825C47.9921 31.0206 48.2646 29.7706 48.3941 28.3745C48.5345 26.9758 48.5125 25.7009 48.4767 24.7812C48.4546 24.3214 48.4326 23.9497 48.4133 23.6908C48.3941 23.4348 48.3886 23.2916 48.3996 23.2888C48.4106 23.2888 48.4326 23.4293 48.4684 23.6853C48.507 23.9414 48.5427 24.3131 48.5785 24.7757C48.6391 25.6981 48.6777 26.9813 48.5372 28.3883C48.4051 29.7953 48.1132 31.0537 47.7745 31.9183C47.6093 32.3506 47.4386 32.6893 47.3064 32.9123C47.1715 33.1326 47.0917 33.2537 47.0834 33.2482V33.2455Z" fill="#777777"/>
<path d="M6.16828 23.0411C6.16828 23.0411 6.14626 23.1843 6.08017 23.4349C6.04713 23.5588 6.00583 23.713 5.97003 23.8919C5.93148 24.0709 5.87917 24.2719 5.84613 24.5005C5.76077 24.952 5.69193 25.4972 5.65338 26.1057C5.62309 26.7143 5.62309 27.3834 5.68092 28.0828C5.747 28.7821 5.86265 29.4402 6.00032 30.035C6.14626 30.6242 6.30871 31.1501 6.47392 31.5797C6.54827 31.7972 6.63362 31.9872 6.70246 32.1579C6.76854 32.3286 6.83463 32.4718 6.89245 32.5875C6.99984 32.8215 7.05491 32.9537 7.04665 32.9592C7.03839 32.9647 6.9668 32.8408 6.84289 32.6122C6.77956 32.4994 6.70521 32.3589 6.63087 32.191C6.55377 32.023 6.46015 31.8358 6.3803 31.6182C6.20133 31.1887 6.02786 30.6628 5.87366 30.068C5.72773 29.4705 5.60382 28.8042 5.53774 28.0965C5.47716 27.3889 5.48267 26.7115 5.52121 26.0975C5.56802 25.4835 5.64788 24.9355 5.747 24.4812C5.7883 24.2527 5.84613 24.0516 5.89294 23.8727C5.93699 23.6937 5.9838 23.5423 6.02786 23.4183C6.11046 23.1733 6.16002 23.0384 6.16828 23.0411Z" fill="#777777"/>
<path opacity="0.5" d="M24.3542 9.5985C24.3542 9.5985 24.3322 9.604 24.2909 9.6095C24.2413 9.615 24.178 9.6205 24.1036 9.626C23.9384 9.6425 23.6961 9.648 23.385 9.6866C22.7627 9.7417 21.865 9.8656 20.7774 10.1189C19.6898 10.3695 18.4177 10.777 17.0795 11.3965C15.7413 12.0133 14.3453 12.8614 13.0291 13.9407C11.7212 15.0284 10.6225 16.2399 9.76345 17.4349C8.90161 18.6327 8.26004 19.8029 7.80572 20.8217C7.35139 21.8405 7.05952 22.6996 6.88605 23.2998C6.78968 23.5972 6.74012 23.834 6.69056 23.9937C6.66853 24.0653 6.65201 24.1259 6.63824 24.1727C6.62447 24.214 6.61896 24.2333 6.61621 24.2333C6.61621 24.2333 6.61621 24.2112 6.62447 24.1699C6.63549 24.1204 6.6465 24.0598 6.66302 23.9855C6.70157 23.8258 6.74562 23.5862 6.83098 23.2833C6.98793 22.6775 7.26603 21.8102 7.7121 20.7804C8.15541 19.7506 8.79147 18.5666 9.65606 17.3578C10.5179 16.149 11.6193 14.9265 12.9382 13.8278C14.2654 12.7402 15.6752 11.8921 17.0244 11.2754C18.3764 10.6586 19.6595 10.2566 20.7554 10.017C21.8513 9.7747 22.7544 9.6673 23.3794 9.6288C23.6906 9.6012 23.9357 9.604 24.1009 9.5957C24.1752 9.5957 24.2385 9.5957 24.2881 9.5957C24.3294 9.5957 24.3514 9.5957 24.3514 9.5985H24.3542Z" fill="#BDBDBD"/>
<path d="M7.06794 30.795C7.05142 30.8005 6.94403 30.5968 6.81737 30.2443C6.68796 29.8946 6.54753 29.3935 6.45942 28.8318C6.37131 28.2673 6.35479 27.7497 6.36855 27.3752C6.38232 27.0007 6.42087 26.7749 6.44014 26.7749C6.4842 26.7749 6.42362 27.6974 6.59985 28.8098C6.77056 29.9222 7.11199 30.7785 7.06794 30.795Z" fill="#C8C8C8"/>
<path d="M2.43633 29.3714C2.43633 29.3714 2.373 29.3273 2.28764 29.2227C2.19953 29.1181 2.08664 28.9584 1.9765 28.7409C1.75071 28.3141 1.55797 27.6367 1.65434 26.8905C1.75347 26.1443 2.11968 25.5413 2.44734 25.1861C2.61255 25.0071 2.76124 24.8805 2.87414 24.8034C2.98427 24.7263 3.05036 24.6905 3.05587 24.6987C3.07239 24.718 2.82457 24.8887 2.52444 25.2522C2.22431 25.6129 1.89114 26.1966 1.79752 26.907C1.7039 27.6174 1.87462 28.27 2.06736 28.694C2.26011 29.1236 2.45836 29.3521 2.43633 29.3687V29.3714Z" fill="#8F8F8F"/>
<path d="M27.6146 0.748851C27.6091 0.776381 27.364 0.685521 26.9675 0.732321C26.5821 0.773631 26.0258 0.996661 25.6954 1.5033C25.3733 2.01545 25.4008 2.61296 25.5247 2.98193C25.6459 3.36191 25.8303 3.54914 25.8083 3.56566C25.8028 3.57117 25.7505 3.53262 25.6762 3.44451C25.5991 3.3564 25.5054 3.21322 25.4283 3.01772C25.2714 2.63774 25.2191 1.99067 25.5743 1.42896C25.9377 0.872751 26.5463 0.652471 26.9593 0.635951C27.1685 0.624941 27.3393 0.649721 27.4494 0.682761C27.5623 0.715801 27.6174 0.746091 27.6146 0.751601V0.748851Z" fill="#5B7409"/>
<path d="M51.6108 26.0314C51.5805 26.0645 51.151 25.6542 50.5039 25.3458C49.8596 25.0292 49.2731 24.9466 49.2813 24.9025C49.2813 24.8667 49.8954 24.8887 50.5672 25.2164C51.2391 25.5386 51.6383 26.0094 51.6108 26.0314Z" fill="#8F8F8F"/>
<path d="M35.1646 21.1192C35.1646 21.1577 31.7833 21.1908 27.6145 21.1908C23.4457 21.1908 20.0645 21.1577 20.0645 21.1192C20.0645 21.0806 23.4457 21.0476 27.6145 21.0476C31.7833 21.0476 35.1646 21.0806 35.1646 21.1192Z" fill="#CFCFCF"/>
<path d="M22.2804 38.3368C22.2804 38.3368 22.2363 38.3478 22.1537 38.3588C22.0518 38.367 21.9307 38.3781 21.7847 38.3918C21.625 38.4056 21.4295 38.4194 21.201 38.4221C20.9725 38.4276 20.7136 38.4414 20.4273 38.4304C19.8518 38.4304 19.1689 38.3891 18.4117 38.3092C17.6573 38.2211 16.8312 38.0862 15.9749 37.8879C15.1213 37.6842 14.3228 37.4336 13.6069 37.1775C12.8937 36.9132 12.2659 36.6406 11.751 36.3873C11.4895 36.2661 11.2637 36.1395 11.0627 36.0321C10.8589 35.9274 10.6909 35.8283 10.5533 35.7457C10.4294 35.6686 10.3247 35.6053 10.2366 35.553C10.165 35.5089 10.1292 35.4814 10.132 35.4786C10.1347 35.4759 10.176 35.4924 10.2504 35.5282C10.3412 35.575 10.4486 35.6301 10.578 35.6962C10.7185 35.7733 10.8919 35.8641 11.0985 35.9605C11.3022 36.0596 11.5308 36.1808 11.7951 36.2937C12.3127 36.536 12.9433 36.7948 13.6537 37.0509C14.3668 37.3014 15.1626 37.5437 16.0107 37.7475C16.8588 37.9458 17.6793 38.0807 18.4282 38.177C19.1772 38.2652 19.8573 38.3147 20.43 38.3285C20.7164 38.345 20.9752 38.3367 21.201 38.3395C21.4295 38.3423 21.625 38.3395 21.7847 38.334C21.9307 38.334 22.0518 38.3312 22.1537 38.3285C22.2391 38.3285 22.2831 38.3312 22.2831 38.3368H22.2804Z" fill="#C8C8C8"/>
<path d="M14.2185 19.7277C14.4713 19.5574 14.6918 19.3393 14.929 19.1457C15.5003 18.6792 16.1784 18.3537 16.8909 18.2037C17.1153 18.156 17.3652 18.1124 17.5043 17.9258C17.57 17.8386 17.6013 17.7281 17.615 17.6186C17.666 17.1866 17.4328 16.7577 17.1045 16.4849C16.7762 16.2122 16.3666 16.0702 15.9589 15.9597C15.1671 15.7447 14.3361 15.6291 13.5277 15.763C12.7192 15.8978 11.9313 16.3034 11.4394 16.9808C11.2287 17.2698 11.0748 17.6084 11.0278 17.9664C10.9268 18.7431 11.3776 19.5442 12.0548 19.895C12.7319 20.2448 13.5845 20.1566 14.2185 19.7297V19.7277Z" fill="url(#paint3_linear_1775_401)"/>
<path d="M67 32.8436L69.9752 16.363C69.9908 16.3005 70.0298 16.2693 70.0923 16.2693H73.5711C73.6336 16.2693 73.6727 16.3005 73.6883 16.363L76.5463 32.8436C76.5541 32.9217 76.5229 32.9607 76.4526 32.9607H73.7937C73.7156 32.9607 73.6727 32.9217 73.6649 32.8436L73.4072 31.0866H70.1392L69.8815 32.8436C69.8737 32.9217 69.8346 32.9607 69.7643 32.9607H67.0937C67.0312 32.9607 67 32.9217 67 32.8436ZM71.697 21.7863L70.6194 28.5214H72.9269L71.943 21.7863L71.8024 20.896L71.697 21.7863Z" fill="black"/>
<path d="M83.0392 32.9607H80.3217C80.2437 32.9607 80.2046 32.9217 80.2046 32.8436L80.228 16.363C80.228 16.3005 80.2593 16.2693 80.3217 16.2693H83.0158C83.0783 16.2693 83.1095 16.3005 83.1095 16.363L83.1329 32.8436C83.1329 32.9217 83.1017 32.9607 83.0392 32.9607Z" fill="black"/>
<path d="M100.207 33.1951C99.3401 33.1951 98.5475 32.9764 97.8291 32.5391C97.1185 32.1019 96.5523 31.5162 96.1307 30.7822C95.7168 30.0403 95.5098 29.2165 95.5098 28.3107L95.5333 20.8259C95.5333 19.9357 95.7363 19.1313 96.1424 18.4129C96.5484 17.6867 97.1068 17.105 97.8174 16.6677C98.5358 16.2226 99.3323 16 100.207 16C101.097 16 101.889 16.2147 102.584 16.6442C103.287 17.0737 103.846 17.6555 104.259 18.3895C104.681 19.1157 104.892 19.9279 104.892 20.8259V21.9269C104.892 21.9894 104.861 22.0206 104.798 22.0206H102.104C102.042 22.0206 102.011 21.9894 102.011 21.9269V20.8259C102.011 20.2949 101.839 19.8381 101.495 19.4554C101.152 19.0728 100.722 18.8815 100.207 18.8815C99.6368 18.8815 99.1995 19.0767 98.895 19.4671C98.5904 19.8576 98.4382 20.3105 98.4382 20.8259V28.3107C98.4382 28.8963 98.61 29.3766 98.9536 29.7514C99.2971 30.1184 99.7149 30.3019 100.207 30.3019C100.722 30.3019 101.152 30.0989 101.495 29.6928C101.839 29.279 102.011 28.8182 102.011 28.3107V27.1979C102.011 27.1354 102.042 27.1042 102.104 27.1042H104.822C104.884 27.1042 104.915 27.1354 104.915 27.1979V28.3107C104.915 29.2087 104.705 30.0286 104.283 30.7704C103.853 31.5045 103.287 32.094 102.584 32.5391C101.882 32.9764 101.089 33.1951 100.207 33.1951Z" fill="black"/>
<path d="M111.631 32.9607H108.913C108.851 32.9607 108.82 32.9217 108.82 32.8436L108.843 16.363C108.843 16.3005 108.882 16.2693 108.96 16.2693H111.631C111.709 16.2693 111.748 16.3005 111.748 16.363L111.725 22.8873H115.321V16.363C115.321 16.3005 115.352 16.2693 115.414 16.2693H118.085C118.163 16.2693 118.202 16.3005 118.202 16.363L118.249 32.8436C118.249 32.9217 118.21 32.9607 118.132 32.9607H115.438C115.36 32.9607 115.321 32.9217 115.321 32.8436V25.7922H111.725V32.8436C111.725 32.9217 111.693 32.9607 111.631 32.9607Z" fill="black"/>
<path d="M121.556 32.8436L124.531 16.363C124.547 16.3005 124.586 16.2693 124.648 16.2693H128.127C128.189 16.2693 128.228 16.3005 128.244 16.363L131.102 32.8436C131.11 32.9217 131.079 32.9607 131.008 32.9607H128.349C128.271 32.9607 128.228 32.9217 128.221 32.8436L127.963 31.0866H124.695L124.437 32.8436C124.429 32.9217 124.39 32.9607 124.32 32.9607H121.649C121.587 32.9607 121.556 32.9217 121.556 32.8436ZM126.253 21.7863L125.175 28.5214H127.483L126.499 21.7863L126.358 20.896L126.253 21.7863Z" fill="black"/>
<path d="M138.427 32.9607H135.721C135.651 32.9607 135.615 32.9217 135.615 32.8436V19.1625H132.5C132.422 19.1625 132.383 19.1234 132.383 19.0454L132.406 16.363C132.406 16.3005 132.437 16.2693 132.5 16.2693H141.613C141.699 16.2693 141.741 16.3005 141.741 16.363V19.0454C141.741 19.1234 141.71 19.1625 141.648 19.1625H138.497L138.52 32.8436C138.52 32.9217 138.489 32.9607 138.427 32.9607Z" fill="black"/>
<path d="M149.464 32.9607H145.166C145.103 32.9607 145.072 32.9217 145.072 32.8436L145.119 16.363C145.119 16.3005 145.15 16.2693 145.212 16.2693H149.827C150.725 16.2693 151.541 16.488 152.275 16.9252C152.994 17.3625 153.56 17.9443 153.974 18.6705C154.388 19.3889 154.595 20.1698 154.595 21.0132C154.595 21.7004 154.439 22.3407 154.126 22.9342C153.814 23.5276 153.443 24.0079 153.013 24.3749C153.474 24.8356 153.833 25.3705 154.091 25.9796C154.349 26.5887 154.478 27.229 154.478 27.9006C154.478 28.8298 154.255 29.6771 153.81 30.4424C153.357 31.2076 152.752 31.8206 151.994 32.2814C151.237 32.7343 150.394 32.9607 149.464 32.9607ZM149.827 19.1156H148V22.8873H149.827C150.382 22.8873 150.831 22.6921 151.174 22.3016C151.518 21.9034 151.69 21.4739 151.69 21.0132C151.69 20.5056 151.506 20.0644 151.139 19.6896C150.772 19.3069 150.335 19.1156 149.827 19.1156ZM149.464 25.7922H148L147.977 30.0324H149.464C150.042 30.0324 150.538 29.8216 150.952 29.3999C151.366 28.9782 151.573 28.4784 151.573 27.9006C151.573 27.3227 151.366 26.8269 150.952 26.413C150.538 25.9991 150.042 25.7922 149.464 25.7922Z" fill="black"/>
<path d="M162.798 33.1951C161.947 33.1951 161.162 32.9764 160.443 32.5391C159.733 32.1019 159.159 31.5201 158.722 30.7939C158.292 30.0598 158.077 29.2555 158.077 28.3809L158.101 20.779C158.101 19.8888 158.315 19.0884 158.745 18.3778C159.167 17.6594 159.737 17.0854 160.455 16.6559C161.173 16.2186 161.954 16 162.798 16C163.672 16 164.457 16.2147 165.152 16.6442C165.855 17.0737 166.417 17.6516 166.839 18.3778C167.268 19.0962 167.483 19.8966 167.483 20.779L167.506 28.3809C167.506 29.2555 167.296 30.0559 166.874 30.7822C166.444 31.5162 165.874 32.1019 165.164 32.5391C164.453 32.9764 163.665 33.1951 162.798 33.1951ZM162.798 30.3019C163.282 30.3019 163.704 30.1067 164.063 29.7162C164.422 29.318 164.602 28.8729 164.602 28.3809L164.578 20.779C164.578 20.248 164.41 19.799 164.074 19.432C163.739 19.065 163.313 18.8815 162.798 18.8815C162.306 18.8815 161.884 19.0611 161.533 19.4203C161.181 19.7795 161.006 20.2324 161.006 20.779V28.3809C161.006 28.9041 161.181 29.357 161.533 29.7397C161.884 30.1145 162.306 30.3019 162.798 30.3019Z" fill="black"/>
<path d="M176.108 32.9607H173.402C173.332 32.9607 173.297 32.9217 173.297 32.8436V19.1625H170.181C170.103 19.1625 170.064 19.1234 170.064 19.0454L170.087 16.363C170.087 16.3005 170.118 16.2693 170.181 16.2693H179.294C179.38 16.2693 179.423 16.3005 179.423 16.363V19.0454C179.423 19.1234 179.391 19.1625 179.329 19.1625H176.178L176.201 32.8436C176.201 32.9217 176.17 32.9607 176.108 32.9607Z" fill="black"/>
<path d="M68.1406 32.8829L67.6486 32.794L67.6406 32.8381V32.8829H68.1406ZM71.1172 16.3946L70.6321 16.2733L70.6281 16.2894L70.6251 16.3057L71.1172 16.3946ZM74.832 16.3946L75.3247 16.3091L75.3215 16.291L75.3171 16.2733L74.832 16.3946ZM77.6914 32.8829L78.1889 32.8331L78.1871 32.8152L78.1841 32.7975L77.6914 32.8829ZM74.8086 32.8829L75.3061 32.8331L75.305 32.8217L75.3033 32.8103L74.8086 32.8829ZM74.5508 31.125L75.0455 31.0524L74.9828 30.625H74.5508V31.125ZM71.2812 31.125V30.625H70.8492L70.7865 31.0524L71.2812 31.125ZM71.0234 32.8829L70.5287 32.8103L70.5271 32.8217L70.5259 32.8331L71.0234 32.8829ZM72.8398 21.8203L73.3336 21.8993L73.3352 21.8892L73.3364 21.8792L72.8398 21.8203ZM71.7617 28.5586L71.268 28.4797L71.1754 29.0586H71.7617V28.5586ZM74.0703 28.5586V29.0586H74.6487L74.5651 28.4863L74.0703 28.5586ZM73.0859 21.8203L73.5807 21.748L73.5798 21.7423L73.0859 21.8203ZM72.9453 20.9298L73.4392 20.8517L72.4488 20.8709L72.9453 20.9298ZM68.6327 32.9716L71.6092 16.4834L70.6251 16.3057L67.6486 32.794L68.6327 32.9716ZM71.6023 16.5159C71.5912 16.5601 71.5584 16.6445 71.4706 16.7148C71.3812 16.7863 71.2877 16.8008 71.2344 16.8008V15.8008C71.1186 15.8008 70.9743 15.831 70.8459 15.9338C70.719 16.0353 70.6588 16.1666 70.6321 16.2733L71.6023 16.5159ZM71.2344 16.8008H74.7148V15.8008H71.2344V16.8008ZM74.7148 16.8008C74.6615 16.8008 74.568 16.7863 74.4787 16.7148C74.3909 16.6445 74.358 16.5601 74.347 16.5159L75.3171 16.2733C75.2904 16.1666 75.2302 16.0353 75.1034 15.9338C74.9749 15.831 74.8307 15.8008 74.7148 15.8008V16.8008ZM74.3394 16.48L77.1988 32.9683L78.1841 32.7975L75.3247 16.3091L74.3394 16.48ZM77.1939 32.9326C77.192 32.9132 77.1814 32.786 77.2834 32.6585C77.3968 32.5167 77.5457 32.5 77.5977 32.5V33.5C77.7199 33.5 77.9196 33.4639 78.0643 33.2831C78.1975 33.1164 78.1987 32.9306 78.1889 32.8331L77.1939 32.9326ZM77.5977 32.5H74.9375V33.5H77.5977V32.5ZM74.9375 32.5C74.9792 32.5 75.0846 32.5113 75.183 32.6007C75.281 32.6899 75.3021 32.793 75.3061 32.8331L74.3111 32.9326C74.3229 33.0508 74.3693 33.2125 74.5103 33.3407C74.6517 33.4692 74.8177 33.5 74.9375 33.5V32.5ZM75.3033 32.8103L75.0455 31.0524L74.0561 31.1977L74.3139 32.9554L75.3033 32.8103ZM74.5508 30.625H71.2812V31.625H74.5508V30.625ZM70.7865 31.0524L70.5287 32.8103L71.5181 32.9554L71.776 31.1977L70.7865 31.0524ZM70.5259 32.8331C70.5288 32.8047 70.5443 32.7076 70.6347 32.6171C70.7328 32.5191 70.8468 32.5 70.9062 32.5V33.5C71.036 33.5 71.2047 33.4614 71.3418 33.3243C71.4713 33.1948 71.5103 33.039 71.521 32.9326L70.5259 32.8331ZM70.9062 32.5H68.2344V33.5H70.9062V32.5ZM68.2344 32.5C68.3135 32.5 68.452 32.5303 68.5545 32.6585C68.6399 32.7653 68.6406 32.8686 68.6406 32.8829H67.6406C67.6406 32.9754 67.6569 33.1372 67.7736 33.2831C67.9074 33.4502 68.0928 33.5 68.2344 33.5V32.5ZM72.3461 21.7414L71.268 28.4797L72.2554 28.6376L73.3336 21.8993L72.3461 21.7414ZM71.7617 29.0586H74.0703V28.0586H71.7617V29.0586ZM74.5651 28.4863L73.5807 21.748L72.5912 21.8926L73.5756 28.6309L74.5651 28.4863ZM73.5798 21.7423L73.4392 20.8517L72.4514 21.0077L72.5921 21.8983L73.5798 21.7423ZM72.4488 20.8709L72.3433 21.7615L73.3364 21.8792L73.4418 20.9886L72.4488 20.8709ZM84.1873 32.5H81.4686V33.5H84.1873V32.5ZM81.4686 32.5C81.5066 32.5 81.6269 32.5098 81.7343 32.6171C81.8416 32.7245 81.8514 32.8449 81.8514 32.8829L80.8514 32.8821C80.8514 32.9982 80.8808 33.1779 81.0271 33.3243C81.1735 33.4706 81.3525 33.5 81.4686 33.5V32.5ZM81.8514 32.8829L81.8748 16.3953L80.8748 16.3939L80.8514 32.8821L81.8514 32.8829ZM81.8748 16.3953C81.8748 16.4412 81.863 16.5666 81.7518 16.6778C81.6406 16.789 81.5144 16.8008 81.4686 16.8008V15.8008C81.3603 15.8008 81.1872 15.8282 81.0447 15.9707C80.9023 16.1131 80.8748 16.2856 80.8748 16.3939L81.8748 16.3953ZM81.4686 16.8008H84.1639V15.8008H81.4686V16.8008ZM84.1639 16.8008C84.1181 16.8008 83.9919 16.789 83.8807 16.6778C83.7695 16.5666 83.7577 16.4405 83.7577 16.3946H84.7577C84.7577 16.2863 84.7302 16.1131 84.5878 15.9707C84.4453 15.8282 84.2722 15.8008 84.1639 15.8008V16.8008ZM83.7577 16.3946L83.7811 32.8835L84.7811 32.8829L84.7577 16.3946H83.7577ZM83.7811 32.8835C83.7811 32.8692 83.7818 32.7653 83.8672 32.6585C83.9697 32.5303 84.1082 32.5 84.1873 32.5V33.5C84.3289 33.5 84.5144 33.4502 84.6481 33.2831C84.7648 33.1372 84.7811 32.9754 84.7811 32.8829L83.7811 32.8835ZM98.9839 32.5781L98.7219 33.0041L98.7239 33.0052L98.9839 32.5781ZM97.2847 30.8204L96.848 31.0639L96.8511 31.0695L97.2847 30.8204ZM96.6636 28.3477L96.1636 28.3461V28.3477H96.6636ZM96.687 20.8594L97.187 20.861V20.8594H96.687ZM97.2964 18.4453L97.7317 18.6913L97.7328 18.6894L97.2964 18.4453ZM98.9722 16.6992L99.2342 17.125L99.2355 17.1243L98.9722 16.6992ZM103.742 16.6758L103.479 17.1012L103.481 17.1024L103.742 16.6758ZM105.417 18.4219L104.982 18.6675L104.985 18.6729L105.417 18.4219ZM100.109 29.7892L99.7403 30.1269L99.7439 30.1308L100.109 29.7892ZM102.652 29.7305L103.034 30.0536L103.037 30.0499L102.652 29.7305ZM105.441 30.8087L105.873 31.0611L105.876 31.0557L105.441 30.8087ZM103.742 32.5781L104.006 33.0028L104.009 33.0005L103.742 32.5781ZM101.363 32.7345C100.584 32.7345 99.8818 32.5394 99.2439 32.1511L98.7239 33.0052C99.5235 33.4919 100.407 33.7345 101.363 33.7345V32.7345ZM99.246 32.1524C98.6071 31.7593 98.0992 31.2345 97.7182 30.5714L96.8511 31.0695C97.3139 31.8751 97.9388 32.5222 98.7219 33.0041L99.246 32.1524ZM97.7213 30.5767C97.3516 29.9139 97.1636 29.1745 97.1636 28.3477H96.1636C96.1636 29.3333 96.3897 30.2423 96.848 31.0639L97.7213 30.5767ZM97.1636 28.3492L97.187 20.861L96.187 20.8578L96.1636 28.3461L97.1636 28.3492ZM97.187 20.8594C97.187 20.048 97.3712 19.3292 97.7317 18.6913L96.8611 18.1994C96.4091 18.9991 96.187 19.8895 96.187 20.8594H97.187ZM97.7328 18.6894C98.0973 18.0376 98.5958 17.518 99.2342 17.125L98.7101 16.2734C97.9267 16.7555 97.308 17.4 96.86 18.2013L97.7328 18.6894ZM99.2355 17.1243C99.8723 16.7297 100.577 16.5312 101.363 16.5312V15.5312C100.398 15.5312 99.5095 15.7782 98.7089 16.2743L99.2355 17.1243ZM101.363 16.5312C102.169 16.5312 102.87 16.7247 103.479 17.1012L104.005 16.2505C103.223 15.7677 102.338 15.5312 101.363 15.5312V16.5312ZM103.481 17.1024C104.11 17.4866 104.609 18.0057 104.982 18.6675L105.853 18.1763C105.398 17.3694 104.78 16.7244 104.002 16.2491L103.481 17.1024ZM104.985 18.6729C105.36 19.3179 105.55 20.0428 105.55 20.8594H106.55C106.55 19.8791 106.319 18.9789 105.85 18.1708L104.985 18.6729ZM105.55 20.8594V21.9609H106.55V20.8594H105.55ZM105.55 21.9609C105.55 21.9151 105.562 21.7889 105.673 21.6777C105.785 21.5665 105.911 21.5548 105.957 21.5548V22.5548C106.065 22.5548 106.238 22.5273 106.38 22.3848C106.523 22.2423 106.55 22.0693 106.55 21.9609H105.55ZM105.957 21.5548H103.261V22.5548H105.957V21.5548ZM103.261 21.5548C103.307 21.5548 103.433 21.5665 103.544 21.6777C103.656 21.7889 103.667 21.9151 103.667 21.9609H102.667C102.667 22.0693 102.695 22.2423 102.837 22.3848C102.98 22.5273 103.153 22.5548 103.261 22.5548V21.5548ZM103.667 21.9609V20.8594H102.667V21.9609H103.667ZM103.667 20.8594C103.667 20.2092 103.453 19.632 103.024 19.1542L102.28 19.8223C102.538 20.1102 102.667 20.447 102.667 20.8594H103.667ZM103.024 19.1542C102.585 18.6655 102.02 18.4142 101.363 18.4142V19.4142C101.737 19.4142 102.031 19.5454 102.28 19.8223L103.024 19.1542ZM101.363 18.4142C100.665 18.4142 100.071 18.661 99.6561 19.1925L100.445 19.8076C100.639 19.5578 100.92 19.4142 101.363 19.4142V18.4142ZM99.6561 19.1925C99.2799 19.6748 99.0933 20.2372 99.0933 20.8594H100.093C100.093 20.4503 100.211 20.1066 100.445 19.8076L99.6561 19.1925ZM99.0933 20.8594V28.3477H100.093V20.8594H99.0933ZM99.0933 28.3477C99.0933 29.0384 99.2993 29.6458 99.7403 30.1269L100.477 29.4513C100.231 29.1825 100.093 28.8288 100.093 28.3477H99.0933ZM99.7439 30.1308C100.18 30.5964 100.729 30.8399 101.363 30.8399V29.8398C101.012 29.8398 100.725 29.7161 100.474 29.4473L99.7439 30.1308ZM101.363 30.8399C102.031 30.8399 102.598 30.568 103.034 30.0536L102.27 29.4075C102.018 29.7056 101.726 29.8398 101.363 29.8398V30.8399ZM103.037 30.0499C103.45 29.5519 103.667 28.9794 103.667 28.3477H102.667C102.667 28.7315 102.541 29.081 102.267 29.4111L103.037 30.0499ZM103.667 28.3477V27.2344H102.667V28.3477H103.667ZM103.667 27.2344C103.667 27.2802 103.656 27.4064 103.544 27.5176C103.433 27.6288 103.307 27.6406 103.261 27.6406V26.6406C103.153 26.6406 102.98 26.668 102.837 26.8105C102.695 26.953 102.667 27.1261 102.667 27.2344H103.667ZM103.261 27.6406H105.98V26.6406H103.261V27.6406ZM105.98 27.6406C105.934 27.6406 105.808 27.6288 105.697 27.5176C105.586 27.4064 105.574 27.2802 105.574 27.2344H106.574C106.574 27.1261 106.546 26.953 106.404 26.8105C106.261 26.668 106.088 26.6406 105.98 26.6406V27.6406ZM105.574 27.2344V28.3477H106.574V27.2344H105.574ZM105.574 28.3477C105.574 29.1642 105.383 29.8987 105.006 30.5616L105.876 31.0557C106.343 30.2342 106.574 29.328 106.574 28.3477H105.574ZM105.009 30.5561C104.619 31.2231 104.108 31.7542 103.474 32.1558L104.009 33.0005C104.781 32.5115 105.404 31.8628 105.873 31.0611L105.009 30.5561ZM103.478 32.1536C102.859 32.5385 102.159 32.7345 101.363 32.7345V33.7345C102.333 33.7345 103.218 33.4929 104.006 33.0028L103.478 32.1536ZM112.91 16.3946L113.41 16.3963V16.3946H112.91ZM112.886 22.9219L112.386 22.9201L112.384 23.4219H112.886V22.9219ZM116.484 22.9219V23.4219H116.984V22.9219H116.484ZM119.367 16.3946H118.867V16.396L119.367 16.3946ZM119.413 32.8829H119.913V32.8815L119.413 32.8829ZM116.484 25.8281H116.984V25.3281H116.484V25.8281ZM112.886 25.8281V25.3281H112.386V25.8281H112.886ZM112.792 32.5H110.074V33.5H112.792V32.5ZM110.074 32.5C110.153 32.5 110.291 32.5303 110.394 32.6585C110.479 32.7653 110.48 32.8686 110.48 32.8829L109.48 32.8821C109.48 32.9746 109.496 33.1372 109.613 33.2831C109.747 33.4502 109.932 33.5 110.074 33.5V32.5ZM110.48 32.8829L110.503 16.3953L109.503 16.3939L109.48 32.8821L110.48 32.8829ZM110.503 16.3953C110.503 16.4744 110.473 16.6123 110.345 16.7148C110.238 16.8002 110.135 16.8008 110.12 16.8008V15.8008C110.028 15.8008 109.866 15.8171 109.72 15.9338C109.553 16.0675 109.503 16.2523 109.503 16.3939L110.503 16.3953ZM110.12 16.8008H112.792V15.8008H110.12V16.8008ZM112.792 16.8008C112.778 16.8008 112.675 16.8002 112.568 16.7148C112.44 16.6123 112.41 16.4737 112.41 16.3946H113.41C113.41 16.253 113.36 16.0675 113.193 15.9338C113.047 15.8171 112.885 15.8008 112.792 15.8008V16.8008ZM112.41 16.3927L112.386 22.9201L113.386 22.9237L113.41 16.3963L112.41 16.3927ZM112.886 23.4219H116.484V22.4219H112.886V23.4219ZM116.984 22.9219V16.3946H115.984V22.9219H116.984ZM116.984 16.3946C116.984 16.4405 116.972 16.5666 116.861 16.6778C116.75 16.789 116.623 16.8008 116.577 16.8008V15.8008C116.469 15.8008 116.296 15.8282 116.154 15.9707C116.011 16.1131 115.984 16.2863 115.984 16.3946H116.984ZM116.577 16.8008H119.249V15.8008H116.577V16.8008ZM119.249 16.8008C119.235 16.8008 119.132 16.8002 119.025 16.7148C118.897 16.6123 118.867 16.4737 118.867 16.3946H119.867C119.867 16.253 119.817 16.0675 119.65 15.9338C119.504 15.8171 119.342 15.8008 119.249 15.8008V16.8008ZM118.867 16.396L118.913 32.8843L119.913 32.8815L119.867 16.3932L118.867 16.396ZM118.913 32.8829C118.913 32.8449 118.923 32.7245 119.031 32.6171C119.138 32.5098 119.258 32.5 119.296 32.5V33.5C119.412 33.5 119.591 33.4706 119.738 33.3243C119.884 33.1779 119.913 32.999 119.913 32.8829H118.913ZM119.296 32.5H116.601V33.5H119.296V32.5ZM116.601 32.5C116.639 32.5 116.759 32.5098 116.867 32.6171C116.974 32.7245 116.984 32.8449 116.984 32.8829H115.984C115.984 32.999 116.013 33.1779 116.159 33.3243C116.306 33.4706 116.485 33.5 116.601 33.5V32.5ZM116.984 32.8829V25.8281H115.984V32.8829H116.984ZM116.484 25.3281H112.886V26.3281H116.484V25.3281ZM112.386 25.8281V32.8829H113.386V25.8281H112.386ZM112.386 32.8829C112.386 32.8686 112.387 32.7653 112.472 32.6585C112.575 32.5303 112.713 32.5 112.792 32.5V33.5C112.934 33.5 113.119 33.4502 113.253 33.2831C113.37 33.1372 113.386 32.9754 113.386 32.8829H112.386ZM122.722 32.8829L122.23 32.794L122.222 32.8381V32.8829H122.722ZM125.698 16.3946L125.213 16.2733L125.209 16.2894L125.206 16.3057L125.698 16.3946ZM129.413 16.3946L129.906 16.3091L129.903 16.291L129.898 16.2733L129.413 16.3946ZM132.273 32.8829L132.77 32.8331L132.768 32.8152L132.765 32.7975L132.273 32.8829ZM129.39 32.8829L129.887 32.8331L129.886 32.8217L129.885 32.8103L129.39 32.8829ZM129.132 31.125L129.627 31.0524L129.564 30.625H129.132V31.125ZM125.862 31.125V30.625H125.43L125.368 31.0524L125.862 31.125ZM125.605 32.8829L125.11 32.8103L125.108 32.8217L125.107 32.8331L125.605 32.8829ZM127.421 21.8203L127.915 21.8993L127.916 21.8892L127.918 21.8792L127.421 21.8203ZM126.343 28.5586L125.849 28.4797L125.757 29.0586H126.343V28.5586ZM128.652 28.5586V29.0586H129.23L129.146 28.4863L128.652 28.5586ZM127.667 21.8203L128.162 21.748L128.161 21.7423L127.667 21.8203ZM127.527 20.9298L128.02 20.8517L127.03 20.8709L127.527 20.9298ZM123.214 32.9716L126.19 16.4834L125.206 16.3057L122.23 32.794L123.214 32.9716ZM126.184 16.5159C126.172 16.5601 126.14 16.6445 126.052 16.7148C125.962 16.7863 125.869 16.8008 125.816 16.8008V15.8008C125.7 15.8008 125.556 15.831 125.427 15.9338C125.3 16.0353 125.24 16.1666 125.213 16.2733L126.184 16.5159ZM125.816 16.8008H129.296V15.8008H125.816V16.8008ZM129.296 16.8008C129.243 16.8008 129.149 16.7863 129.06 16.7148C128.972 16.6445 128.939 16.5601 128.928 16.5159L129.898 16.2733C129.872 16.1666 129.811 16.0353 129.685 15.9338C129.556 15.831 129.412 15.8008 129.296 15.8008V16.8008ZM128.921 16.48L131.78 32.9683L132.765 32.7975L129.906 16.3091L128.921 16.48ZM131.775 32.9326C131.773 32.9132 131.763 32.786 131.865 32.6585C131.978 32.5167 132.127 32.5 132.179 32.5V33.5C132.301 33.5 132.501 33.4639 132.646 33.2831C132.779 33.1164 132.78 32.9306 132.77 32.8331L131.775 32.9326ZM132.179 32.5H129.519V33.5H132.179V32.5ZM129.519 32.5C129.56 32.5 129.666 32.5113 129.764 32.6007C129.862 32.6899 129.883 32.793 129.887 32.8331L128.892 32.9326C128.904 33.0508 128.951 33.2125 129.092 33.3407C129.233 33.4692 129.399 33.5 129.519 33.5V32.5ZM129.885 32.8103L129.627 31.0524L128.637 31.1977L128.895 32.9554L129.885 32.8103ZM129.132 30.625H125.862V31.625H129.132V30.625ZM125.368 31.0524L125.11 32.8103L126.099 32.9554L126.357 31.1977L125.368 31.0524ZM125.107 32.8331C125.11 32.8047 125.126 32.7076 125.216 32.6171C125.314 32.5191 125.428 32.5 125.487 32.5V33.5C125.617 33.5 125.786 33.4614 125.923 33.3243C126.053 33.1948 126.092 33.039 126.102 32.9326L125.107 32.8331ZM125.487 32.5H122.816V33.5H125.487V32.5ZM122.816 32.5C122.895 32.5 123.033 32.5303 123.136 32.6585C123.221 32.7653 123.222 32.8686 123.222 32.8829H122.222C122.222 32.9754 122.238 33.1372 122.355 33.2831C122.489 33.4502 122.674 33.5 122.816 33.5V32.5ZM126.927 21.7414L125.849 28.4797L126.837 28.6376L127.915 21.8993L126.927 21.7414ZM126.343 29.0586H128.652V28.0586H126.343V29.0586ZM129.146 28.4863L128.162 21.748L127.172 21.8926L128.157 28.6309L129.146 28.4863ZM128.161 21.7423L128.02 20.8517L127.033 21.0077L127.173 21.8983L128.161 21.7423ZM127.03 20.8709L126.925 21.7615L127.918 21.8792L128.023 20.9886L127.03 20.8709ZM136.788 19.1953H137.288V18.6953H136.788V19.1953ZM133.554 19.0781L133.054 19.0738V19.0781H133.554ZM133.577 16.3946L134.077 16.3989V16.3946H133.577ZM139.671 19.1953V18.6953H139.17L139.171 19.1962L139.671 19.1953ZM139.601 32.5H136.894V33.5H139.601V32.5ZM136.894 32.5C136.95 32.5 137.08 32.5181 137.186 32.6362C137.283 32.7444 137.288 32.8571 137.288 32.8829H136.288C136.288 32.9868 136.31 33.158 136.443 33.3052C136.584 33.4624 136.767 33.5 136.894 33.5V32.5ZM137.288 32.8829V19.1953H136.288V32.8829H137.288ZM136.788 18.6953H133.671V19.6953H136.788V18.6953ZM133.671 18.6953C133.709 18.6953 133.829 18.7052 133.937 18.8125C134.044 18.9198 134.054 19.0401 134.054 19.0781H133.054C133.054 19.1943 133.083 19.3732 133.229 19.5196C133.376 19.6659 133.555 19.6953 133.671 19.6953V18.6953ZM134.054 19.0826L134.077 16.3989L133.077 16.3902L133.054 19.0738L134.054 19.0826ZM134.077 16.3946C134.077 16.4405 134.065 16.5666 133.954 16.6778C133.843 16.789 133.717 16.8008 133.671 16.8008V15.8008C133.563 15.8008 133.39 15.8282 133.247 15.9707C133.105 16.1131 133.077 16.2863 133.077 16.3946H134.077ZM133.671 16.8008H142.788V15.8008H133.671V16.8008ZM142.788 16.8008C142.785 16.8008 142.693 16.8029 142.591 16.7286C142.534 16.6875 142.486 16.6306 142.454 16.5618C142.424 16.4958 142.417 16.436 142.417 16.3946H143.417C143.417 16.2355 143.354 16.0471 143.179 15.92C143.034 15.8143 142.877 15.8008 142.788 15.8008V16.8008ZM142.417 16.3946V19.0781H143.417V16.3946H142.417ZM142.417 19.0781C142.417 19.0638 142.418 18.9606 142.503 18.8538C142.606 18.7257 142.744 18.6953 142.823 18.6953V19.6953C142.965 19.6953 143.15 19.6455 143.284 19.4784C143.401 19.3325 143.417 19.1706 143.417 19.0781H142.417ZM142.823 18.6953H139.671V19.6953H142.823V18.6953ZM139.171 19.1962L139.194 32.8838L140.194 32.8829L140.171 19.1945L139.171 19.1962ZM139.194 32.8838C139.194 32.8695 139.195 32.7653 139.281 32.6585C139.383 32.5303 139.522 32.5 139.601 32.5V33.5C139.742 33.5 139.928 33.4502 140.061 33.2831C140.178 33.1372 140.194 32.9754 140.194 32.8829L139.194 32.8838ZM146.249 32.8829L145.749 32.8815V32.8829H146.249ZM146.296 16.3946L146.796 16.396V16.3946H146.296ZM153.456 16.9571L153.716 16.5299L153.712 16.5275L153.456 16.9571ZM155.155 18.7031L154.721 18.9508L154.722 18.9527L155.155 18.7031ZM154.194 24.4102L153.869 24.0301L153.458 24.3813L153.841 24.7638L154.194 24.4102ZM154.991 30.4805L155.421 30.7351L155.423 30.7319L154.991 30.4805ZM153.175 32.3204L153.431 32.7495L153.435 32.7476L153.175 32.3204ZM149.179 19.1484V18.6484H148.679V19.1484H149.179ZM149.179 22.9219H148.679V23.4219H149.179V22.9219ZM152.354 22.3359L152.73 22.6663L152.733 22.6626L152.354 22.3359ZM152.319 19.7227L151.958 20.0688L151.962 20.0725L152.319 19.7227ZM149.179 25.8281V25.3281H148.681L148.679 25.8254L149.179 25.8281ZM149.155 30.0704L148.655 30.0676L148.652 30.5704H149.155V30.0704ZM150.643 32.5H146.343V33.5H150.643V32.5ZM146.343 32.5C146.422 32.5 146.56 32.5303 146.663 32.6585C146.748 32.7653 146.749 32.8686 146.749 32.8829H145.749C145.749 32.9754 145.765 33.1372 145.882 33.2831C146.016 33.4502 146.201 33.5 146.343 33.5V32.5ZM146.749 32.8843L146.796 16.396L145.796 16.3932L145.749 32.8815L146.749 32.8843ZM146.796 16.3946C146.796 16.4405 146.784 16.5666 146.673 16.6778C146.562 16.789 146.435 16.8008 146.39 16.8008V15.8008C146.281 15.8008 146.108 15.8282 145.966 15.9707C145.823 16.1131 145.796 16.2863 145.796 16.3946H146.796ZM146.39 16.8008H151.007V15.8008H146.39V16.8008ZM151.007 16.8008C151.82 16.8008 152.547 16.9977 153.2 17.3867L153.712 16.5275C152.896 16.0415 151.99 15.8008 151.007 15.8008V16.8008ZM153.196 17.3841C153.843 17.7778 154.349 18.2984 154.721 18.9508L155.59 18.4557C155.133 17.655 154.507 17.0112 153.716 16.5299L153.196 17.3841ZM154.722 18.9527C155.091 19.5942 155.276 20.2892 155.276 21.0469H156.276C156.276 20.1171 156.047 19.2497 155.588 18.4536L154.722 18.9527ZM155.276 21.0469C155.276 21.6553 155.139 22.2158 154.865 22.736L155.75 23.2016C156.101 22.5343 156.276 21.8134 156.276 21.0469H155.276ZM154.865 22.736C154.577 23.2839 154.243 23.7111 153.869 24.0301L154.519 24.7903C155.005 24.375 155.413 23.8412 155.75 23.2016L154.865 22.736ZM153.841 24.7638C154.255 25.1785 154.579 25.6595 154.812 26.2104L155.733 25.8209C155.45 25.1531 155.055 24.5639 154.548 24.0567L153.841 24.7638ZM154.812 26.2104C155.043 26.7572 155.159 27.3315 155.159 27.9375H156.159C156.159 27.1998 156.017 26.4929 155.733 25.8209L154.812 26.2104ZM155.159 27.9375C155.159 28.7834 154.958 29.5436 154.559 30.2291L155.423 30.7319C155.915 29.886 156.159 28.9509 156.159 27.9375H155.159ZM154.561 30.2258C154.149 30.921 153.602 31.4751 152.915 31.8932L153.435 32.7476C154.263 32.2439 154.927 31.5712 155.421 30.7351L154.561 30.2258ZM152.918 31.8913C152.242 32.2955 151.488 32.5 150.643 32.5V33.5C151.659 33.5 152.592 33.2515 153.431 32.7495L152.918 31.8913ZM151.007 18.6484H149.179V19.6484H151.007V18.6484ZM148.679 19.1484V22.9219H149.679V19.1484H148.679ZM149.179 23.4219H151.007V22.4219H149.179V23.4219ZM151.007 23.4219C151.694 23.4219 152.284 23.1726 152.73 22.6663L151.979 22.0056C151.737 22.2806 151.428 22.4219 151.007 22.4219V23.4219ZM152.733 22.6626C153.143 22.187 153.37 21.6446 153.37 21.0469H152.37C152.37 21.371 152.253 21.688 151.976 22.0093L152.733 22.6626ZM153.37 21.0469C153.37 20.4035 153.132 19.8379 152.676 19.3729L151.962 20.0725C152.241 20.3575 152.37 20.6747 152.37 21.0469H153.37ZM152.68 19.3765C152.223 18.9003 151.657 18.6484 151.007 18.6484V19.6484C151.372 19.6484 151.681 19.7793 151.958 20.0688L152.68 19.3765ZM150.643 25.3281H149.179V26.3281H150.643V25.3281ZM148.679 25.8254L148.655 30.0676L149.655 30.0732L149.679 25.8309L148.679 25.8254ZM149.155 30.5704H150.643V29.5703H149.155V30.5704ZM150.643 30.5704C151.359 30.5704 151.983 30.3031 152.489 29.7878L151.775 29.0873C151.452 29.4158 151.084 29.5703 150.643 29.5703V30.5704ZM152.489 29.7878C152.992 29.2748 153.253 28.6499 153.253 27.9375H152.253C152.253 28.3814 152.099 28.7565 151.775 29.0873L152.489 29.7878ZM153.253 27.9375C153.253 27.2249 152.992 26.6021 152.485 26.0957L151.778 26.8028C152.1 27.1244 152.253 27.4939 152.253 27.9375H153.253ZM152.485 26.0957C151.979 25.5892 151.356 25.3281 150.643 25.3281V26.3281C151.087 26.3281 151.457 26.4811 151.778 26.8028L152.485 26.0957ZM161.628 32.5781L161.366 33.0041L161.368 33.0052L161.628 32.5781ZM159.905 30.8321L159.473 31.0846L159.477 31.09L159.905 30.8321ZM159.26 28.418L158.76 28.4165V28.418H159.26ZM159.284 20.8125L159.784 20.814V20.8125H159.284ZM159.928 18.4102L160.356 18.6688L160.36 18.6633L159.928 18.4102ZM161.639 16.6875L161.896 17.1167L161.899 17.1146L161.639 16.6875ZM166.339 16.6758L166.076 17.1012L166.078 17.1024L166.339 16.6758ZM168.026 18.4102L167.594 18.6612L167.597 18.6667L168.026 18.4102ZM168.671 20.8125H168.171V20.814L168.671 20.8125ZM168.694 28.418H169.194V28.4165L168.694 28.418ZM168.061 30.8204L168.493 31.0728L168.494 31.0714L168.061 30.8204ZM165.249 29.754L165.617 30.0925L165.62 30.0888L165.249 29.754ZM165.788 28.418H166.288V28.4165L165.788 28.418ZM165.764 20.8125H165.264V20.814L165.764 20.8125ZM162.717 29.7773L162.349 30.1157L162.353 30.1194L162.717 29.7773ZM163.983 32.7345C163.222 32.7345 162.527 32.5403 161.888 32.1511L161.368 33.0052C162.166 33.491 163.041 33.7345 163.983 33.7345V32.7345ZM161.89 32.1524C161.248 31.7575 160.73 31.2335 160.333 30.5742L159.477 31.09C159.955 31.8838 160.585 32.524 161.366 33.0041L161.89 32.1524ZM160.337 30.5795C159.953 29.924 159.76 29.2069 159.76 28.418H158.76C158.76 29.3791 158.998 30.2714 159.473 31.0846L160.337 30.5795ZM159.76 28.4195L159.784 20.814L158.784 20.8111L158.76 28.4165L159.76 28.4195ZM159.784 20.8125C159.784 20.0062 159.977 19.2961 160.356 18.6688L159.501 18.1516C159.02 18.9462 158.784 19.8375 158.784 20.8125H159.784ZM160.36 18.6633C160.739 18.0173 161.249 17.5035 161.896 17.1167L161.383 16.2584C160.592 16.731 159.962 17.3656 159.497 18.1572L160.36 18.6633ZM161.899 17.1146C162.54 16.7249 163.231 16.5312 163.983 16.5312V15.5312C163.048 15.5312 162.177 15.7752 161.379 16.2605L161.899 17.1146ZM163.983 16.5312C164.772 16.5312 165.465 16.7238 166.076 17.1012L166.601 16.2505C165.822 15.7686 164.944 15.5312 163.983 15.5312V16.5312ZM166.078 17.1024C166.709 17.4879 167.213 18.0051 167.594 18.6612L168.458 18.1591C167.996 17.3621 167.375 16.723 166.599 16.2491L166.078 17.1024ZM167.597 18.6667C167.978 19.3036 168.171 20.0149 168.171 20.8125H169.171C169.171 19.8444 168.934 18.9543 168.455 18.1537L167.597 18.6667ZM168.171 20.814L168.194 28.4195L169.194 28.4165L169.171 20.8111L168.171 20.814ZM168.194 28.418C168.194 29.2086 168.005 29.9222 167.629 30.5692L168.494 31.0714C168.962 30.2653 169.194 29.3773 169.194 28.418H168.194ZM167.63 30.5678C167.241 31.2328 166.728 31.7587 166.088 32.1524L166.612 33.0041C167.395 32.5227 168.023 31.8766 168.493 31.0728L167.63 30.5678ZM166.088 32.1524C165.459 32.5395 164.762 32.7345 163.983 32.7345V33.7345C164.939 33.7345 165.819 33.492 166.612 33.0041L166.088 32.1524ZM163.983 30.8399C164.622 30.8399 165.173 30.5751 165.617 30.0925L164.881 29.4154C164.606 29.7141 164.313 29.8398 163.983 29.8398V30.8399ZM165.62 30.0888C166.054 29.6075 166.288 29.0454 166.288 28.418H165.288C165.288 28.7749 165.162 29.1036 164.877 29.4191L165.62 30.0888ZM166.288 28.4165L166.264 20.8111L165.264 20.814L165.288 28.4195L166.288 28.4165ZM166.264 20.8125C166.264 20.1655 166.056 19.5933 165.629 19.1273L164.892 19.8025C165.137 20.0709 165.264 20.397 165.264 20.8125H166.264ZM165.629 19.1273C165.195 18.6525 164.633 18.4142 163.983 18.4142V19.4142C164.364 19.4142 164.654 19.5429 164.892 19.8025L165.629 19.1273ZM163.983 18.4142C163.353 18.4142 162.803 18.6503 162.36 19.1035L163.075 19.8028C163.335 19.5372 163.629 19.4142 163.983 19.4142V18.4142ZM162.36 19.1035C161.909 19.5649 161.69 20.1475 161.69 20.8125H162.69C162.69 20.3837 162.823 20.0601 163.075 19.8028L162.36 19.1035ZM161.69 20.8125V28.418H162.69V20.8125H161.69ZM161.69 28.418C161.69 29.0657 161.912 29.64 162.349 30.1157L163.086 29.4391C162.82 29.1493 162.69 28.8171 162.69 28.418H161.69ZM162.353 30.1194C162.794 30.5902 163.346 30.8399 163.983 30.8399V29.8398C163.636 29.8398 163.344 29.7146 163.082 29.4354L162.353 30.1194ZM174.487 19.1953H174.987V18.6953H174.487V19.1953ZM171.253 19.0781L170.753 19.0738V19.0781H171.253ZM171.276 16.3946L171.776 16.3989V16.3946H171.276ZM177.37 19.1953V18.6953H176.869L176.87 19.1962L177.37 19.1953ZM177.299 32.5H174.592V33.5H177.299V32.5ZM174.592 32.5C174.649 32.5 174.779 32.5181 174.885 32.6362C174.982 32.7444 174.987 32.8571 174.987 32.8829H173.987C173.987 32.9868 174.009 33.158 174.142 33.3052C174.283 33.4624 174.466 33.5 174.592 33.5V32.5ZM174.987 32.8829V19.1953H173.987V32.8829H174.987ZM174.487 18.6953H171.37V19.6953H174.487V18.6953ZM171.37 18.6953C171.408 18.6953 171.528 18.7052 171.635 18.8125C171.743 18.9198 171.753 19.0401 171.753 19.0781H170.753C170.753 19.1943 170.782 19.3732 170.928 19.5196C171.075 19.6659 171.254 19.6953 171.37 19.6953V18.6953ZM171.752 19.0826L171.776 16.3989L170.776 16.3902L170.753 19.0738L171.752 19.0826ZM171.776 16.3946C171.776 16.4405 171.764 16.5666 171.653 16.6778C171.542 16.789 171.416 16.8008 171.37 16.8008V15.8008C171.261 15.8008 171.088 15.8282 170.946 15.9707C170.803 16.1131 170.776 16.2863 170.776 16.3946H171.776ZM171.37 16.8008H180.487V15.8008H171.37V16.8008ZM180.487 16.8008C180.484 16.8008 180.392 16.8029 180.289 16.7286C180.233 16.6875 180.185 16.6306 180.153 16.5618C180.123 16.4958 180.116 16.436 180.116 16.3946H181.116C181.116 16.2355 181.052 16.0471 180.878 15.92C180.732 15.8143 180.576 15.8008 180.487 15.8008V16.8008ZM180.116 16.3946V19.0781H181.116V16.3946H180.116ZM180.116 19.0781C180.116 19.0638 180.116 18.9606 180.202 18.8538C180.304 18.7257 180.443 18.6953 180.522 18.6953V19.6953C180.664 19.6953 180.849 19.6455 180.983 19.4784C181.099 19.3325 181.116 19.1706 181.116 19.0781H180.116ZM180.522 18.6953H177.37V19.6953H180.522V18.6953ZM176.87 19.1962L176.893 32.8838L177.893 32.8829L177.87 19.1945L176.87 19.1962ZM176.893 32.8838C176.893 32.8695 176.894 32.7653 176.979 32.6585C177.082 32.5303 177.22 32.5 177.299 32.5V33.5C177.441 33.5 177.626 33.4502 177.76 33.2831C177.877 33.1372 177.893 32.9754 177.893 32.8829L176.893 32.8838Z" fill="black"/>
<defs>
<linearGradient id="paint0_linear_1775_401" x1="27.449" y1="42.1833" x2="27.449" y2="39.9365" gradientUnits="userSpaceOnUse">
<stop stop-color="#D6D6D6"/>
<stop offset="1" stop-color="#EFEFEF"/>
</linearGradient>
<linearGradient id="paint1_linear_1775_401" x1="11.7593" y1="13.5029" x2="47.0039" y2="36.6322" gradientUnits="userSpaceOnUse">
<stop stop-color="#F0F0F0"/>
<stop offset="0.304048" stop-color="#EDEDED"/>
<stop offset="1" stop-color="#D3D3D3"/>
</linearGradient>
<linearGradient id="paint2_linear_1775_401" x1="44.3586" y1="30.2992" x2="8.83858" y2="22.5895" gradientUnits="userSpaceOnUse">
<stop stop-color="#F4F4F4"/>
<stop offset="1" stop-color="#C7C7C7"/>
</linearGradient>
<linearGradient id="paint3_linear_1775_401" x1="16.9337" y1="15.2927" x2="12.3904" y2="19.2853" gradientUnits="userSpaceOnUse">
<stop stop-color="#E4E4E4"/>
<stop offset="0.489583" stop-color="#E4E4E4" stop-opacity="0.65625"/>
<stop offset="1" stop-color="#E4E4E4" stop-opacity="0"/>
</linearGradient>
</defs>
</svg>
