<svg width="38" height="38" viewBox="0 0 38 38" fill="none" xmlns="http://www.w3.org/2000/svg">
<path d="M28.166 13.4999V15.7182C28.1908 16.0351 28.1467 16.3536 28.0366 16.6518C27.9265 16.95 27.7531 17.2208 27.5284 17.4455C27.3036 17.6703 27.0328 17.8437 26.7346 17.9538C26.4364 18.0638 26.1179 18.108 25.801 18.0832H22.666V11.6757C22.6682 11.1861 22.8643 10.7173 23.2113 10.372C23.5584 10.0267 24.0281 9.83294 24.5177 9.83319C25.4873 9.83683 26.416 10.2249 27.0999 10.9123C27.7838 11.5996 28.1672 12.5302 28.166 13.4999Z" fill="black"/>
<path opacity="0.4" d="M9.83398 14.4165V27.2499C9.83398 27.4201 9.88139 27.587 9.97089 27.7318C10.0604 27.8766 10.1884 27.9936 10.3407 28.0697C10.493 28.1459 10.6634 28.1781 10.833 28.1628C11.0025 28.1475 11.1645 28.0853 11.3007 27.9832L12.8682 26.8099C13.0469 26.6763 13.2679 26.6121 13.4903 26.6289C13.7128 26.6458 13.9216 26.7426 14.0782 26.9015L15.5998 28.4324C15.7729 28.6041 16.0068 28.7005 16.2507 28.7005C16.4945 28.7005 16.7284 28.6041 16.9015 28.4324L18.4415 26.8924C18.5966 26.7369 18.8028 26.6429 19.0219 26.6277C19.2409 26.6125 19.4581 26.6772 19.6332 26.8099L21.2007 27.9832C21.3368 28.0853 21.4988 28.1475 21.6683 28.1628C21.8379 28.1781 22.0083 28.1459 22.1606 28.0697C22.3129 27.9936 22.4409 27.8766 22.5304 27.7318C22.6199 27.587 22.6673 27.4201 22.6673 27.2499V11.6665C22.6688 11.1807 22.8624 10.7153 23.2059 10.3718C23.5494 10.0283 24.0149 9.83464 24.5007 9.83319H13.5007C10.7507 9.83319 9.83398 11.474 9.83398 13.4999V14.4165Z" fill="black"/>
<path d="M19 20.9375H13.5C13.318 20.9363 13.1439 20.8635 13.0152 20.7348C12.8865 20.6061 12.8137 20.432 12.8125 20.25C12.8137 20.068 12.8865 19.8939 13.0152 19.7652C13.1439 19.6365 13.318 19.5637 13.5 19.5625H19C19.182 19.5637 19.3561 19.6365 19.4848 19.7652C19.6135 19.8939 19.6863 20.068 19.6875 20.25C19.6863 20.432 19.6135 20.6061 19.4848 20.7348C19.3561 20.8635 19.182 20.9363 19 20.9375Z" fill="black"/>
<path d="M18.3125 24.6042H14.1875C14.0055 24.603 13.8314 24.5302 13.7027 24.4016C13.574 24.2729 13.5012 24.0987 13.5 23.9167C13.5012 23.7348 13.574 23.5606 13.7027 23.4319C13.8314 23.3033 14.0055 23.2304 14.1875 23.2292H18.3125C18.4945 23.2304 18.6686 23.3033 18.7973 23.4319C18.926 23.5606 18.9988 23.7348 19 23.9167C18.9988 24.0987 18.926 24.2729 18.7973 24.4016C18.6686 24.5302 18.4945 24.603 18.3125 24.6042Z" fill="black"/>
<path d="M16 12C14.3457 12 13 13.3457 13 15C13 16.6543 14.3457 18 16 18C17.6543 18 19 16.6543 19 15C19 13.3457 17.6543 12 16 12ZM16 17.5C14.6215 17.5 13.5 16.3785 13.5 15C13.5 13.6215 14.6215 12.5 16 12.5C17.3785 12.5 18.5 13.6215 18.5 15C18.5 16.3785 17.3785 17.5 16 17.5ZM17 15.5C17 15.9135 16.6635 16.25 16.25 16.25V16.5C16.25 16.6382 16.1382 16.75 16 16.75C15.8618 16.75 15.75 16.6382 15.75 16.5V16.25H15.683C15.4162 16.25 15.1672 16.1065 15.0335 15.8753C14.9642 15.7555 15.0052 15.6028 15.1245 15.5338C15.2443 15.464 15.3973 15.5055 15.466 15.6247C15.5108 15.7023 15.5938 15.75 15.6827 15.75H16.2497C16.3877 15.75 16.4997 15.638 16.4997 15.5C16.4997 15.4055 16.432 15.3255 16.3387 15.31L15.5785 15.1832C15.243 15.1275 14.9998 14.84 14.9998 14.5C14.9998 14.0865 15.3362 13.75 15.7497 13.75V13.5C15.7497 13.362 15.8615 13.25 15.9997 13.25C16.138 13.25 16.2497 13.362 16.2497 13.5V13.75H16.3168C16.5835 13.75 16.8325 13.8937 16.9662 14.125C17.0355 14.2445 16.9945 14.3972 16.8753 14.4665C16.7553 14.5358 16.6025 14.4948 16.5338 14.3753C16.489 14.298 16.406 14.2503 16.317 14.2503H15.75C15.612 14.2503 15.5 14.3625 15.5 14.5003C15.5 14.5948 15.5677 14.6747 15.661 14.6902L16.4213 14.817C16.7568 14.8727 17 15.16 17 15.5Z" fill="black"/>
<rect x="0.5" y="0.5" width="37" height="37" rx="9.5" stroke="url(#paint0_linear_424_1311)"/>
<defs>
<linearGradient id="paint0_linear_424_1311" x1="3.09857" y1="2.03892" x2="38" y2="38" gradientUnits="userSpaceOnUse">
<stop stop-color="#C7F431" stop-opacity="0.46"/>
<stop offset="1" stop-color="#C7F431" stop-opacity="0"/>
</linearGradient>
</defs>
</svg>
