<svg width="38" height="38" viewBox="0 0 38 38" fill="none" xmlns="http://www.w3.org/2000/svg">
<path opacity="0.4" d="M14.1698 26.0582C14.3306 25.8697 14.5327 25.7207 14.7603 25.623C14.988 25.5252 15.2352 25.4813 15.4826 25.4946C15.73 25.5079 15.971 25.5781 16.1869 25.6997C16.4028 25.8213 16.5877 25.991 16.7273 26.1957L17.6532 27.4332C17.7972 27.6588 17.9957 27.8445 18.2304 27.9731C18.4651 28.1017 18.7284 28.1692 18.9961 28.1692C19.2637 28.1692 19.527 28.1017 19.7618 27.9731C19.9965 27.8445 20.195 27.6588 20.339 27.4332L21.2648 26.1957C21.4044 25.991 21.5894 25.8213 21.8053 25.6997C22.0211 25.5781 22.2622 25.5079 22.5096 25.4946C22.757 25.4813 23.0041 25.5252 23.2318 25.623C23.4595 25.7207 23.6616 25.8697 23.8223 26.0582C25.454 27.7999 26.7831 27.2224 26.7831 24.784V14.4532C26.7923 10.759 25.9306 9.83319 22.4657 9.83319H15.5357C12.0707 9.83319 11.209 10.759 11.209 14.4532V24.7749C11.209 27.2224 12.5473 27.7907 14.1698 26.0582Z" fill="black"/>
<path d="M22.6673 15.1043H15.334C15.152 15.1031 14.9778 15.0303 14.8492 14.9016C14.7205 14.7729 14.6477 14.5988 14.6465 14.4168C14.6477 14.2348 14.7205 14.0607 14.8492 13.932C14.9778 13.8033 15.152 13.7305 15.334 13.7293H22.6673C22.8493 13.7305 23.0235 13.8033 23.1521 13.932C23.2808 14.0607 23.3536 14.2348 23.3548 14.4168C23.3536 14.5988 23.2808 14.7729 23.1521 14.9016C23.0235 15.0303 22.8493 15.1031 22.6673 15.1043Z" fill="black"/>
<path d="M21.75 18.7707H16.25C16.068 18.7695 15.8939 18.6967 15.7652 18.568C15.6365 18.4393 15.5637 18.2652 15.5625 18.0832C15.5637 17.9012 15.6365 17.7271 15.7652 17.5984C15.8939 17.4697 16.068 17.3969 16.25 17.3957H21.75C21.932 17.3969 22.1061 17.4697 22.2348 17.5984C22.3635 17.7271 22.4363 17.9012 22.4375 18.0832C22.4363 18.2652 22.3635 18.4393 22.2348 18.568C22.1061 18.6967 21.932 18.7695 21.75 18.7707Z" fill="black"/>
<rect x="0.5" y="0.5" width="37" height="37" rx="9.5" stroke="url(#paint0_linear_1214_386)"/>
<defs>
<linearGradient id="paint0_linear_1214_386" x1="3.09857" y1="2.03892" x2="38" y2="38" gradientUnits="userSpaceOnUse">
<stop stop-color="#C7F431" stop-opacity="0.46"/>
<stop offset="1" stop-color="#C7F431" stop-opacity="0"/>
</linearGradient>
</defs>
</svg>
