<svg width="38" height="38" viewBox="0 0 38 38" fill="none" xmlns="http://www.w3.org/2000/svg">
<rect x="0.5" y="0.5" width="37" height="37" rx="9.5" stroke="url(#paint0_linear_1214_387)"/>
<g clip-path="url(#clip0_1214_387)">
<path d="M8.16602 19.9533V18.0467C8.16773 17.5013 8.38514 16.9787 8.77078 16.5931C9.15642 16.2074 9.67897 15.99 10.2243 15.9883C12.1852 15.9883 12.9868 14.6017 12.001 12.9008C11.7303 12.428 11.6582 11.8671 11.8003 11.3412C11.9425 10.8152 12.2873 10.3671 12.7593 10.095L14.6335 9.02249C15.0474 8.7817 15.5399 8.7149 16.0029 8.83676C16.466 8.95861 16.8618 9.25917 17.1035 9.67249L17.2227 9.87832C18.1977 11.5792 19.801 11.5792 20.7868 9.87832L20.906 9.67249C21.1477 9.25917 21.5436 8.95861 22.0066 8.83676C22.4697 8.7149 22.9621 8.7817 23.376 9.02249L25.2502 10.095C25.7222 10.3671 26.0671 10.8152 26.2092 11.3412C26.3514 11.8671 26.2792 12.428 26.0085 12.9008C25.0227 14.6017 25.8243 15.9883 27.7852 15.9883C28.3306 15.99 28.8531 16.2074 29.2387 16.5931C29.6244 16.9787 29.8418 17.5013 29.8435 18.0467V19.9533C29.8418 20.4987 29.6244 21.0212 29.2387 21.4069C28.8531 21.7925 28.3306 22.0099 27.7852 22.0117C25.8243 22.0117 25.0227 23.3983 26.0085 25.0992C26.2792 25.572 26.3514 26.1328 26.2092 26.6588C26.0671 27.1847 25.7222 27.6329 25.2502 27.905L23.376 28.9775C22.9621 29.2183 22.4697 29.2851 22.0066 29.1632C21.5436 29.0414 21.1477 28.7408 20.906 28.3275L20.7868 28.1217C19.8118 26.4208 18.2085 26.4208 17.2227 28.1217L17.1035 28.3275C16.8618 28.7408 16.466 29.0414 16.0029 29.1632C15.5399 29.2851 15.0474 29.2183 14.6335 28.9775L12.7593 27.905C12.2873 27.6329 11.9425 27.1847 11.8003 26.6588C11.6582 26.1328 11.7303 25.572 12.001 25.0992C12.9868 23.3983 12.1852 22.0117 10.2243 22.0117C9.67897 22.0099 9.15642 21.7925 8.77078 21.4069C8.38514 21.0212 8.16773 20.4987 8.16602 19.9533Z" fill="#83867B"/>
<path d="M22.5202 19C22.5202 19.6964 22.3137 20.3771 21.9268 20.9561C21.5399 21.5351 20.9901 21.9864 20.3467 22.2528C19.7034 22.5193 18.9954 22.5891 18.3125 22.4532C17.6295 22.3173 17.0021 21.982 16.5097 21.4896C16.0173 20.9972 15.682 20.3699 15.5462 19.6869C15.4103 19.0039 15.48 18.296 15.7465 17.6527C16.013 17.0093 16.4643 16.4594 17.0433 16.0726C17.6223 15.6857 18.303 15.4792 18.9994 15.4792C19.9331 15.4792 20.8287 15.8501 21.489 16.5104C22.1492 17.1707 22.5202 18.0662 22.5202 19Z" fill="black"/>
</g>
<defs>
<linearGradient id="paint0_linear_1214_387" x1="3.09857" y1="2.03892" x2="38" y2="38" gradientUnits="userSpaceOnUse">
<stop stop-color="#C7F431" stop-opacity="0.46"/>
<stop offset="1" stop-color="#C7F431" stop-opacity="0"/>
</linearGradient>
<clipPath id="clip0_1214_387">
<rect width="26" height="26" fill="white" transform="translate(6 6)"/>
</clipPath>
</defs>
</svg>
