<svg width="38" height="38" viewBox="0 0 38 38" fill="none" xmlns="http://www.w3.org/2000/svg">
<rect x="0.5" y="0.5" width="37" height="37" rx="9.5" stroke="url(#paint0_linear_1214_385)"/>
<path d="M28.166 13.4999V15.7182C28.1908 16.0351 28.1467 16.3536 28.0366 16.6518C27.9265 16.95 27.7531 17.2208 27.5284 17.4455C27.3036 17.6703 27.0328 17.8437 26.7346 17.9538C26.4364 18.0638 26.1179 18.108 25.801 18.0832H22.666V11.6757C22.6682 11.1861 22.8643 10.7173 23.2113 10.372C23.5584 10.0267 24.0281 9.83294 24.5177 9.83319C25.4873 9.83683 26.416 10.2249 27.0999 10.9123C27.7838 11.5996 28.1672 12.5302 28.166 13.4999Z" fill="black"/>
<path opacity="0.4" d="M9.83398 14.4165V27.2499C9.83398 27.4201 9.88139 27.587 9.97089 27.7318C10.0604 27.8766 10.1884 27.9936 10.3407 28.0697C10.493 28.1459 10.6634 28.1781 10.833 28.1628C11.0025 28.1475 11.1645 28.0853 11.3007 27.9832L12.8682 26.8099C13.0469 26.6763 13.2679 26.6121 13.4903 26.6289C13.7128 26.6458 13.9216 26.7426 14.0782 26.9015L15.5998 28.4324C15.7729 28.6041 16.0068 28.7005 16.2507 28.7005C16.4945 28.7005 16.7284 28.6041 16.9015 28.4324L18.4415 26.8924C18.5966 26.7369 18.8028 26.6429 19.0219 26.6277C19.2409 26.6125 19.4581 26.6772 19.6332 26.8099L21.2007 27.9832C21.3368 28.0853 21.4988 28.1475 21.6683 28.1628C21.8379 28.1781 22.0083 28.1459 22.1606 28.0697C22.3129 27.9936 22.4409 27.8766 22.5304 27.7318C22.6199 27.587 22.6673 27.4201 22.6673 27.2499V11.6665C22.6688 11.1807 22.8624 10.7153 23.2059 10.3718C23.5494 10.0283 24.0149 9.83464 24.5007 9.83319H13.5007C10.7507 9.83319 9.83398 11.474 9.83398 13.4999V14.4165Z" fill="black"/>
<path d="M19 16.9375H13.5C13.318 16.9363 13.1439 16.8635 13.0152 16.7348C12.8865 16.6061 12.8137 16.432 12.8125 16.25C12.8137 16.068 12.8865 15.8939 13.0152 15.7652C13.1439 15.6365 13.318 15.5637 13.5 15.5625H19C19.182 15.5637 19.3561 15.6365 19.4848 15.7652C19.6135 15.8939 19.6863 16.068 19.6875 16.25C19.6863 16.432 19.6135 16.6061 19.4848 16.7348C19.3561 16.8635 19.182 16.9363 19 16.9375Z" fill="black"/>
<path d="M18.3125 20.6043H14.1875C14.0055 20.6031 13.8314 20.5303 13.7027 20.4016C13.574 20.2729 13.5012 20.0988 13.5 19.9168C13.5012 19.7348 13.574 19.5607 13.7027 19.432C13.8314 19.3033 14.0055 19.2305 14.1875 19.2293H18.3125C18.4945 19.2305 18.6686 19.3033 18.7973 19.432C18.926 19.5607 18.9988 19.7348 19 19.9168C18.9988 20.0988 18.926 20.2729 18.7973 20.4016C18.6686 20.5303 18.4945 20.6031 18.3125 20.6043Z" fill="black"/>
<defs>
<linearGradient id="paint0_linear_1214_385" x1="3.09857" y1="2.03892" x2="38" y2="38" gradientUnits="userSpaceOnUse">
<stop stop-color="#C7F431" stop-opacity="0.46"/>
<stop offset="1" stop-color="#C7F431" stop-opacity="0"/>
</linearGradient>
</defs>
</svg>
