<svg width="16" height="23" viewBox="0 0 16 23" fill="none" xmlns="http://www.w3.org/2000/svg">
<path d="M7.8827 0.000165313C6.48784 0.00508726 5.1508 0.5581 4.15999 1.53992C3.16918 2.52174 2.604 3.85368 2.58636 5.24844C2.56873 6.64321 3.10004 7.98901 4.06571 8.99557C5.03138 10.0021 6.35401 10.5888 7.7483 10.629C7.83005 10.6177 7.91295 10.6177 7.9947 10.629H8.0731C9.47308 10.5898 10.8011 9.99977 11.7684 8.98701C12.7358 7.97424 13.2643 6.62062 13.2393 5.22032C13.2142 3.82001 12.6375 2.48619 11.6344 1.50872C10.6314 0.531251 9.28319 -0.0108728 7.8827 0.000165313Z" fill="black"/>
<path d="M13.5744 13.6073C11.8548 12.5847 9.89112 12.0449 7.8904 12.0449C5.88968 12.0449 3.92602 12.5847 2.2064 13.6073C1.56511 13.9773 1.02702 14.5024 0.641508 15.1345C0.255997 15.7666 0.0354127 16.4854 0 17.2249C0.034579 17.9603 0.253809 18.6751 0.637463 19.3035C1.02112 19.9318 1.55684 20.4534 2.1952 20.8201C3.8981 21.8879 5.87514 22.4367 7.8848 22.3993C9.89446 22.4367 11.8715 21.8879 13.5744 20.8201C14.2137 20.4489 14.7497 19.9232 15.1332 19.2912C15.5168 18.6592 15.7356 17.941 15.7696 17.2025C15.7327 16.4677 15.5125 15.7538 15.1291 15.1258C14.7457 14.4979 14.2112 13.9758 13.5744 13.6073Z" fill="black"/>
</svg>
