<svg width="56" height="60" viewBox="0 0 56 60" fill="none" xmlns="http://www.w3.org/2000/svg">
<path d="M44.6045 0H11.3955C5.10192 0 0 5.14379 0 11.489V44.511C0 50.8562 5.10192 56 11.3955 56H44.6045C50.8981 56 56 50.8562 56 44.511V11.489C56 5.14379 50.8981 0 44.6045 0Z" fill="#C082FF"/>
<path d="M21.4079 42.2298H35.3802C36.292 42.2298 37.0312 41.4906 37.0312 40.5787V40.3383C37.0312 39.4265 36.292 38.6873 35.3802 38.6873H21.4079C20.496 38.6873 19.7568 39.4265 19.7568 40.3383V40.5787C19.7568 41.4906 20.496 42.2298 21.4079 42.2298Z" fill="url(#paint0_linear_618_316)"/>
<path d="M27.7947 16.0351H29.001V9.93626H27.7947V16.0351Z" fill="#F0F0F0"/>
<path d="M46.8458 34.1884C48.7505 33.7357 49.9275 31.8247 49.4748 29.9201C49.0221 28.0154 47.1111 26.8384 45.2065 27.2911C43.3018 27.7438 42.1248 29.6548 42.5775 31.5594C43.0302 33.4641 44.9412 34.6411 46.8458 34.1884Z" fill="#F0F0F0"/>
<mask id="mask0_618_316" style="mask-type:alpha" maskUnits="userSpaceOnUse" x="42" y="27" width="8" height="8">
<path d="M46.8458 34.1884C48.7505 33.7357 49.9275 31.8247 49.4748 29.9201C49.0221 28.0154 47.1111 26.8384 45.2065 27.2911C43.3018 27.7438 42.1248 29.6548 42.5775 31.5594C43.0302 33.4641 44.9412 34.6411 46.8458 34.1884Z" fill="#F0F0F0"/>
</mask>
<g mask="url(#mask0_618_316)">
<path d="M47.3547 31.0564C47.9768 28.5491 45.365 29.8722 45.3744 27.1798L42.5646 33.4909L47.9675 39.4903C54.0078 37.0472 48.0796 38.0683 48.9655 34.9629C49.8514 31.8576 46.838 33.1391 47.3547 31.0564Z" fill="#CFCFCF"/>
</g>
<path d="M11.0252 33.9603C12.9344 33.5273 14.131 31.6285 13.698 29.7193C13.2649 27.8101 11.3661 26.6134 9.45692 27.0465C7.54772 27.4796 6.35106 29.3783 6.78412 31.2875C7.21718 33.1968 9.11596 34.3934 11.0252 33.9603Z" fill="#E8E8E8"/>
<mask id="mask1_618_316" style="mask-type:alpha" maskUnits="userSpaceOnUse" x="6" y="26" width="8" height="9">
<path d="M11.0252 33.9604C12.9344 33.5273 14.131 31.6286 13.698 29.7194C13.2649 27.8102 11.3661 26.6135 9.45692 27.0466C7.54772 27.4796 6.35106 29.3784 6.78412 31.2876C7.21718 33.1968 9.11596 34.3935 11.0252 33.9604Z" fill="#F0F0F0"/>
</mask>
<g mask="url(#mask1_618_316)">
<path d="M8.71715 30.8498C8.44672 28.2807 10.8512 29.9513 11.2131 27.2833L13.1259 33.9216L6.94739 39.1186C1.30162 35.866 7.03239 37.6948 6.58312 34.4969C6.13385 31.2991 8.94179 32.9839 8.71715 30.8498Z" fill="#CFCFCF"/>
</g>
<path d="M27.7167 14.712C27.7167 14.712 13.3041 14.539 11.0218 27.022C8.73952 39.5049 20.9282 39.7385 24.4347 39.9744C26.0252 40.0822 29.4261 40.0935 32.4273 40.0396C39.0719 39.925 43.7646 38.6378 45.364 32.4739C45.5504 31.755 45.6762 31.016 45.7234 30.2657C46.1457 23.5109 41.5721 14.3773 27.7189 14.7098L27.7167 14.712Z" fill="url(#paint1_linear_618_316)"/>
<path d="M38.3669 35.2249L38.3679 35.2249C41.3964 35.1757 43.8315 32.6988 43.7846 29.6652L43.7845 29.6637C43.7345 26.6307 41.2224 24.2316 38.1939 24.2777L38.1935 24.2777L17.0931 24.6057L17.0921 24.6057C14.0636 24.6549 11.6285 27.1318 11.6755 30.1654L11.6755 30.1669C11.7255 33.1999 14.2376 35.599 17.2661 35.5529L17.2665 35.5529L38.3669 35.2249Z" fill="#030303" stroke="url(#paint2_linear_618_316)" stroke-width="3"/>
<path d="M21.5556 29.7064C21.4208 30.3983 20.7492 30.8475 20.0595 30.7127C19.3677 30.578 18.9184 29.9063 19.0532 29.2167C19.188 28.5248 19.8596 28.0755 20.5492 28.2103C21.2411 28.3451 21.6904 29.0168 21.5556 29.7064Z" fill="#C7F431"/>
<path d="M36.1845 29.4728C36.0497 30.1647 35.3781 30.6139 34.6884 30.4792C33.9966 30.3444 33.5473 29.6727 33.6821 28.9831C33.8169 28.2912 34.4885 27.8419 35.1782 27.9767C35.87 28.1115 36.3193 28.7832 36.1845 29.4728Z" fill="#C7F431"/>
<path d="M29.8041 11.2172C30.5805 10.4409 30.5805 9.18212 29.8041 8.40575C29.0278 7.62938 27.769 7.62938 26.9927 8.40575C26.2163 9.18212 26.2163 10.4409 26.9927 11.2172C27.769 11.9936 29.0278 11.9936 29.8041 11.2172Z" fill="#C7F431"/>
<path d="M25.222 29.1178C25.3164 29.1291 25.2692 29.5739 25.5477 30.1669C25.6825 30.4612 25.9072 30.7824 26.2239 31.0564C26.5406 31.3305 26.9607 31.5394 27.4212 31.5888C27.884 31.6248 28.3355 31.4945 28.6971 31.2833C29.061 31.0722 29.3396 30.7959 29.5238 30.5308C29.9057 29.9984 29.9394 29.5514 30.0337 29.5581C30.0696 29.5581 30.1101 29.6704 30.1101 29.8816C30.1101 30.0928 30.0494 30.4005 29.8787 30.742C29.708 31.0834 29.4115 31.4518 28.9824 31.7371C28.5601 32.0246 27.985 32.2201 27.3673 32.1684C26.7518 32.1055 26.2217 31.8112 25.8577 31.4518C25.4893 31.0924 25.2625 30.6768 25.1569 30.3107C25.0491 29.9423 25.0446 29.6278 25.085 29.4211C25.1232 29.2144 25.1816 29.1089 25.2175 29.1156L25.222 29.1178Z" fill="#C7F431"/>
<path d="M44.4113 34.9381C44.3911 34.9269 44.6494 34.5338 44.8965 33.8262C45.1526 33.1231 45.375 32.1032 45.4805 30.9643C45.5951 29.8232 45.5771 28.7831 45.5479 28.0329C45.53 27.6577 45.512 27.3545 45.4963 27.1433C45.4805 26.9344 45.476 26.8176 45.485 26.8153C45.494 26.8153 45.512 26.9299 45.5412 27.1388C45.5726 27.3477 45.6018 27.651 45.631 28.0284C45.6805 28.7809 45.7119 29.8277 45.5973 30.9756C45.4895 32.1235 45.2514 33.15 44.9751 33.8554C44.8403 34.2081 44.7011 34.4844 44.5932 34.6663C44.4832 34.846 44.418 34.9449 44.4113 34.9404V34.9381Z" fill="#777777"/>
<path d="M11.033 26.6131C11.033 26.6131 11.015 26.7299 10.9611 26.9344C10.9342 27.0354 10.9005 27.1612 10.8713 27.3073C10.8398 27.4533 10.7972 27.6172 10.7702 27.8037C10.7006 28.1721 10.6444 28.6169 10.613 29.1133C10.5882 29.6098 10.5882 30.1556 10.6354 30.7262C10.6893 31.2968 10.7837 31.8336 10.896 32.3189C11.015 32.7996 11.1476 33.2286 11.2824 33.5791C11.343 33.7565 11.4127 33.9115 11.4688 34.0508C11.5227 34.1901 11.5766 34.3069 11.6238 34.4012C11.7114 34.5922 11.7563 34.7 11.7496 34.7045C11.7429 34.709 11.6845 34.6079 11.5834 34.4214C11.5317 34.3293 11.4711 34.2148 11.4104 34.0777C11.3475 33.9407 11.2711 33.788 11.206 33.6105C11.06 33.2601 10.9185 32.831 10.7927 32.3458C10.6736 31.8584 10.5725 31.3147 10.5186 30.7374C10.4692 30.1601 10.4737 29.6075 10.5051 29.1066C10.5433 28.6056 10.6085 28.1586 10.6893 27.788C10.723 27.6015 10.7702 27.4375 10.8084 27.2915C10.8443 27.1455 10.8825 27.022 10.9185 26.9209C10.9858 26.721 11.0263 26.6109 11.033 26.6131Z" fill="#777777"/>
<path opacity="0.5" d="M25.8694 15.6465C25.8694 15.6465 25.8514 15.651 25.8177 15.6555C25.7773 15.66 25.7256 15.6644 25.665 15.6689C25.5302 15.6824 25.3325 15.6869 25.0787 15.7184C24.571 15.7633 23.8387 15.8644 22.9514 16.071C22.0641 16.2754 21.0263 16.6079 19.9346 17.1133C18.8428 17.6165 17.7039 18.3084 16.6302 19.189C15.5632 20.0763 14.6669 21.0647 13.966 22.0396C13.2629 23.0167 12.7395 23.9714 12.3689 24.8026C11.9982 25.6337 11.7601 26.3346 11.6186 26.8243C11.54 27.0669 11.4995 27.2601 11.4591 27.3904C11.4411 27.4488 11.4276 27.4982 11.4164 27.5364C11.4052 27.5701 11.4007 27.5858 11.3984 27.5858C11.3984 27.5858 11.3984 27.5678 11.4052 27.5341C11.4142 27.4937 11.4231 27.4443 11.4366 27.3836C11.4681 27.2533 11.504 27.0579 11.5737 26.8108C11.7017 26.3166 11.9286 25.609 12.2925 24.7689C12.6541 23.9288 13.1731 22.9628 13.8784 21.9767C14.5815 20.9905 15.4801 19.9932 16.5561 19.0969C17.6388 18.2096 18.7889 17.5177 19.8896 17.0145C20.9926 16.5113 22.0394 16.1833 22.9334 15.9879C23.8275 15.7902 24.5643 15.7026 25.0742 15.6712C25.328 15.6487 25.528 15.651 25.6627 15.6442C25.7234 15.6442 25.7751 15.6442 25.8155 15.6442C25.8492 15.6442 25.8672 15.6442 25.8672 15.6465H25.8694Z" fill="#BDBDBD"/>
<path d="M11.7665 32.9389C11.753 32.9434 11.6654 32.7771 11.562 32.4896C11.4565 32.2043 11.3419 31.7955 11.27 31.3372C11.1981 30.8767 11.1847 30.4544 11.1959 30.1489C11.2071 29.8434 11.2386 29.6592 11.2543 29.6592C11.2902 29.6592 11.2408 30.4117 11.3846 31.3193C11.5239 32.2268 11.8024 32.9254 11.7665 32.9389Z" fill="#C8C8C8"/>
<path d="M7.98781 31.7775C7.98781 31.7775 7.93615 31.7416 7.86651 31.6562C7.79463 31.5708 7.70253 31.4406 7.61267 31.2631C7.42847 30.9149 7.27123 30.3623 7.34985 29.7535C7.43072 29.1448 7.72948 28.6528 7.9968 28.3631C8.13158 28.217 8.25288 28.1137 8.34498 28.0508C8.43484 27.9879 8.48875 27.9587 8.49324 27.9655C8.50672 27.9812 8.30455 28.1205 8.0597 28.417C7.81484 28.7112 7.54304 29.1875 7.46666 29.767C7.39028 30.3466 7.52956 30.879 7.6868 31.2249C7.84405 31.5753 8.00578 31.7618 7.98781 31.7753V31.7775Z" fill="#8F8F8F"/>
<path d="M28.5286 8.42678C28.5241 8.44925 28.3242 8.37512 28.0007 8.41331C27.6862 8.447 27.2324 8.62895 26.9629 9.04228C26.7 9.4601 26.7225 9.94756 26.8236 10.2486C26.9224 10.5586 27.0729 10.7113 27.055 10.7248C27.0505 10.7293 27.0078 10.6978 26.9471 10.626C26.8842 10.5541 26.8079 10.4373 26.745 10.2778C26.6169 9.96778 26.5742 9.43989 26.864 8.98163C27.1605 8.52787 27.657 8.34816 27.9939 8.33468C28.1647 8.3257 28.3039 8.34591 28.3938 8.37287C28.4859 8.39983 28.5308 8.42454 28.5286 8.42903V8.42678Z" fill="#5B7409"/>
<path d="M48.1056 29.0527C48.0808 29.0796 47.7304 28.7449 47.2025 28.4933C46.6769 28.235 46.1984 28.1676 46.2051 28.1317C46.2051 28.1025 46.7061 28.1205 47.2542 28.3878C47.8023 28.6506 48.128 29.0347 48.1056 29.0527Z" fill="#8F8F8F"/>
<path d="M34.6881 25.0452C34.6881 25.0767 31.9296 25.1036 28.5286 25.1036C25.1277 25.1036 22.3691 25.0767 22.3691 25.0452C22.3691 25.0138 25.1277 24.9868 28.5286 24.9868C31.9296 24.9868 34.6881 25.0138 34.6881 25.0452Z" fill="#CFCFCF"/>
<path d="M24.1766 39.0917C24.1766 39.0917 24.1407 39.1006 24.0733 39.1096C23.9902 39.1164 23.8913 39.1253 23.7723 39.1366C23.642 39.1478 23.4825 39.159 23.2961 39.1613C23.1096 39.1658 22.8985 39.177 22.6648 39.168C22.1954 39.168 21.6383 39.1343 21.0205 39.0692C20.405 38.9973 19.7311 38.8872 19.0325 38.7255C18.3361 38.5593 17.6847 38.3549 17.1006 38.1459C16.5188 37.9303 16.0067 37.7079 15.5866 37.5012C15.3732 37.4024 15.189 37.2991 15.025 37.2115C14.8588 37.1261 14.7218 37.0452 14.6094 36.9778C14.5084 36.9149 14.423 36.8633 14.3511 36.8206C14.2927 36.7847 14.2635 36.7622 14.2657 36.7599C14.268 36.7577 14.3017 36.7712 14.3623 36.8004C14.4365 36.8386 14.5241 36.8835 14.6297 36.9374C14.7442 37.0003 14.8857 37.0744 15.0542 37.1531C15.2204 37.2339 15.4069 37.3328 15.6225 37.4249C16.0449 37.6225 16.5593 37.8337 17.1388 38.0426C17.7206 38.247 18.3698 38.4447 19.0617 38.6109C19.7536 38.7727 20.423 38.8827 21.034 38.9614C21.645 39.0332 22.1998 39.0737 22.6671 39.0849C22.9007 39.0984 23.1119 39.0917 23.2961 39.0939C23.4825 39.0961 23.642 39.0939 23.7723 39.0894C23.8913 39.0894 23.9902 39.0872 24.0733 39.0849C24.1429 39.0849 24.1789 39.0872 24.1789 39.0917H24.1766Z" fill="#C8C8C8"/>
<path d="M17.5999 23.9101C17.8062 23.7711 17.9861 23.5932 18.1795 23.4352C18.6456 23.0547 19.1989 22.7892 19.7801 22.6667C19.9631 22.6279 20.167 22.5923 20.2805 22.4401C20.3341 22.3689 20.3597 22.2788 20.3709 22.1894C20.4124 21.837 20.2222 21.4871 19.9544 21.2646C19.6865 21.042 19.3524 20.9262 19.0198 20.836C18.3738 20.6607 17.6959 20.5664 17.0363 20.6756C16.3767 20.7856 15.734 21.1165 15.3326 21.6691C15.1608 21.9048 15.0352 22.1811 14.9969 22.4732C14.9145 23.1068 15.2823 23.7603 15.8347 24.0466C16.3871 24.332 17.0827 24.26 17.5999 23.9117V23.9101Z" fill="url(#paint3_linear_618_316)"/>
<g filter="url(#filter0_f_618_316)">
<ellipse cx="28.3722" cy="47.4024" rx="9.77161" ry="1.9094" fill="white" fill-opacity="0.05"/>
</g>
<defs>
<filter id="filter0_f_618_316" x="8.60059" y="35.493" width="39.543" height="23.8188" filterUnits="userSpaceOnUse" color-interpolation-filters="sRGB">
<feFlood flood-opacity="0" result="BackgroundImageFix"/>
<feBlend mode="normal" in="SourceGraphic" in2="BackgroundImageFix" result="shape"/>
<feGaussianBlur stdDeviation="5" result="effect1_foregroundBlur_618_316"/>
</filter>
<linearGradient id="paint0_linear_618_316" x1="28.394" y1="42.2298" x2="28.394" y2="40.3968" gradientUnits="userSpaceOnUse">
<stop stop-color="#D6D6D6"/>
<stop offset="1" stop-color="#EFEFEF"/>
</linearGradient>
<linearGradient id="paint1_linear_618_316" x1="15.5931" y1="18.8318" x2="44.3464" y2="37.7011" gradientUnits="userSpaceOnUse">
<stop stop-color="#F0F0F0"/>
<stop offset="0.304048" stop-color="#EDEDED"/>
<stop offset="1" stop-color="#D3D3D3"/>
</linearGradient>
<linearGradient id="paint2_linear_618_316" x1="42.1891" y1="32.5345" x2="13.2112" y2="26.2448" gradientUnits="userSpaceOnUse">
<stop stop-color="#F4F4F4"/>
<stop offset="1" stop-color="#C7C7C7"/>
</linearGradient>
<linearGradient id="paint3_linear_618_316" x1="19.815" y1="20.292" x2="16.1085" y2="23.5492" gradientUnits="userSpaceOnUse">
<stop stop-color="#E4E4E4"/>
<stop offset="0.489583" stop-color="#E4E4E4" stop-opacity="0.65625"/>
<stop offset="1" stop-color="#E4E4E4" stop-opacity="0"/>
</linearGradient>
</defs>
</svg>
