<svg width="38" height="38" viewBox="0 0 38 38" fill="none" xmlns="http://www.w3.org/2000/svg">
<rect x="0.5" y="0.5" width="37" height="37" rx="9.5" stroke="url(#paint0_linear_403_1803)"/>
<path opacity="0.4" d="M23.585 18.2503C23.5223 20.0122 22.7633 21.6774 21.4744 22.8803C20.1855 24.0833 18.472 24.7258 16.71 24.6669L15.8575 25.6936L15.3533 26.2986C15.2538 26.418 15.1255 26.5101 14.9806 26.5663C14.8357 26.6225 14.6789 26.6409 14.5249 26.6198C14.3709 26.5987 14.2248 26.5388 14.1003 26.4458C13.9758 26.3527 13.8771 26.2295 13.8133 26.0878L12.585 23.3836C11.7463 22.8134 11.0582 22.0487 10.5793 21.1548C10.1004 20.2609 9.84503 19.2643 9.83496 18.2503C9.89759 16.4883 10.6566 14.8232 11.9455 13.6202C13.2344 12.4173 14.9479 11.7747 16.71 11.8336C17.9934 11.8129 19.2571 12.1512 20.3585 12.8105C21.4599 13.4697 22.3551 14.4235 22.9433 15.5644C23.3659 16.3966 23.5858 17.3169 23.585 18.2503Z" fill="white"/>
<path d="M28.1683 21.7881C28.1582 22.8022 27.9028 23.7987 27.4239 24.6927C26.945 25.5866 26.2569 26.3513 25.4183 26.9215L24.1899 29.6256C24.1261 29.7674 24.0274 29.8906 23.9029 29.9836C23.7784 30.0767 23.6323 30.1366 23.4783 30.1577C23.3243 30.1787 23.1675 30.1603 23.0226 30.1041C22.8777 30.048 22.7494 29.9558 22.6499 29.8365L21.2933 28.2048C20.2575 28.2166 19.2321 27.9973 18.2917 27.5628C17.3514 27.1283 16.5198 26.4896 15.8574 25.6931L16.7099 24.6665C18.472 24.7254 20.1855 24.0828 21.4744 22.8799C22.7633 21.6769 23.5223 20.0117 23.5849 18.2498C23.5858 17.3165 23.3659 16.3961 22.9433 15.564C24.39 15.857 25.6945 16.6322 26.6436 17.7628C27.5927 18.8934 28.1302 20.3125 28.1683 21.7881Z" fill="white"/>
<path d="M19.0033 18.9375H14.4199C14.238 18.9363 14.0638 18.8635 13.9351 18.7348C13.8064 18.6061 13.7336 18.432 13.7324 18.25C13.7336 18.068 13.8064 17.8939 13.9351 17.7652C14.0638 17.6365 14.238 17.5637 14.4199 17.5625H19.0033C19.1852 17.5637 19.3594 17.6365 19.4881 17.7652C19.6167 17.8939 19.6896 18.068 19.6908 18.25C19.6896 18.432 19.6167 18.6061 19.4881 18.7348C19.3594 18.8635 19.1852 18.9363 19.0033 18.9375Z" fill="white"/>
<defs>
<linearGradient id="paint0_linear_403_1803" x1="3.09857" y1="2.03892" x2="38" y2="38" gradientUnits="userSpaceOnUse">
<stop stop-color="#C7F431" stop-opacity="0.46"/>
<stop offset="1" stop-color="#C7F431" stop-opacity="0"/>
</linearGradient>
</defs>
</svg>
