<svg width="25" height="24" viewBox="0 0 25 24" fill="none" xmlns="http://www.w3.org/2000/svg">
<path d="M13.9892 16.4385L13.9962 1.0002C13.9962 0.734974 13.8908 0.480618 13.7033 0.293077C13.5158 0.105537 13.2614 0.000177383 12.9962 0.000177383C12.731 0.000177383 12.4766 0.105537 12.2891 0.293077C12.1015 0.480618 11.9962 0.734974 11.9962 1.0002L11.9892 16.4215L9.0771 13.5084C8.88957 13.321 8.63525 13.2156 8.37009 13.2156C8.10492 13.2156 7.8506 13.321 7.66307 13.5084C7.4756 13.696 7.37028 13.9503 7.37028 14.2155C7.37028 14.4806 7.4756 14.7349 7.66307 14.9225L10.8741 18.1375C11.1527 18.4163 11.4835 18.6375 11.8477 18.7884C12.2118 18.9392 12.602 19.0169 12.9962 19.0169C13.3903 19.0169 13.7806 18.9392 14.1447 18.7884C14.5088 18.6375 14.8396 18.4163 15.1182 18.1375L18.3293 14.9255C18.5168 14.7379 18.6221 14.4836 18.6221 14.2185C18.6221 13.9533 18.5168 13.699 18.3293 13.5114C18.1417 13.324 17.8874 13.2186 17.6223 13.2186C17.3571 13.2186 17.1028 13.324 16.9153 13.5114L13.9892 16.4385Z" fill="#B9B9B9"/>
<path d="M22.9965 17.0009V21.001C22.9965 21.2662 22.8912 21.5205 22.7036 21.7081C22.5161 21.8956 22.2617 22.001 21.9965 22.001H3.99615C3.73093 22.001 3.47657 21.8956 3.28903 21.7081C3.10149 21.5205 2.99613 21.2662 2.99613 21.001V17.0009C2.99613 16.7357 2.89077 16.4813 2.70323 16.2938C2.51569 16.1062 2.26133 16.0009 1.99611 16.0009C1.73089 16.0009 1.47653 16.1062 1.28899 16.2938C1.10145 16.4813 0.996094 16.7357 0.996094 17.0009L0.996094 21.001C0.996094 21.7966 1.31217 22.5597 1.87479 23.1223C2.43741 23.6849 3.20049 24.001 3.99615 24.001H21.9965C22.7922 24.001 23.5552 23.6849 24.1179 23.1223C24.6805 22.5597 24.9966 21.7966 24.9966 21.001V17.0009C24.9966 16.7357 24.8912 16.4813 24.7037 16.2938C24.5161 16.1062 24.2618 16.0009 23.9965 16.0009C23.7313 16.0009 23.477 16.1062 23.2894 16.2938C23.1019 16.4813 22.9965 16.7357 22.9965 17.0009Z" fill="#B9B9B9"/>
</svg>
