<svg width="38" height="38" viewBox="0 0 38 38" fill="none" xmlns="http://www.w3.org/2000/svg">
<rect x="0.5" y="0.5" width="37" height="37" rx="9.5" stroke="url(#paint0_linear_403_1805)"/>
<path opacity="0.4" d="M28.1683 18.9999C28.1683 20.8129 27.6307 22.5851 26.6234 24.0926C25.6162 25.6 24.1846 26.775 22.5096 27.4688C20.8346 28.1626 18.9915 28.3441 17.2133 27.9904C15.4351 27.6367 13.8018 26.7637 12.5198 25.4817C11.2378 24.1997 10.3648 22.5663 10.0111 20.7882C9.6574 19.01 9.83893 17.1669 10.5327 15.4919C11.2265 13.8169 12.4015 12.3853 13.9089 11.3781C15.4164 10.3708 17.1886 9.83319 19.0016 9.83319C21.4328 9.83319 23.7644 10.799 25.4834 12.518C27.2025 14.2371 28.1683 16.5687 28.1683 18.9999Z" fill="white"/>
<path d="M20.8006 19.0162L20.8007 19.0161C21.3207 18.5985 21.5739 17.9753 21.5739 17.1655C21.5739 16.4376 21.347 15.8584 20.8836 15.4418C20.43 15.0198 19.824 14.8136 19.077 14.8136C18.5593 14.8136 18.0981 14.9088 17.6959 15.1022C17.2933 15.2957 16.9808 15.5722 16.7619 15.9318C16.5432 16.2911 16.4352 16.7034 16.4352 17.1655V17.2655H16.5352H17.5162H17.6162V17.1655C17.6162 16.766 17.7447 16.4518 17.9969 16.213C18.2573 15.9735 18.6028 15.8497 19.0435 15.8497C19.4619 15.8497 19.7798 15.9696 20.0096 16.1995L20.0096 16.1995L20.0107 16.2005C20.2474 16.4305 20.3705 16.748 20.3705 17.1655C20.3705 17.7913 20.1742 18.1922 19.8071 18.4058L19.8071 18.4058L19.8064 18.4062C19.426 18.6316 18.9034 18.749 18.2297 18.749H17.7838H17.6838V18.849V20.8557V20.9557H17.7838H18.7425H18.8425V20.8557V19.6376C19.6581 19.6091 20.3142 19.4053 20.8006 19.0162ZM18.9875 21.8925V21.7925H18.8875H17.6611H17.5611V21.8925V23.0853V23.1853H17.6611H18.8875H18.9875V23.0853V21.8925Z" fill="white" stroke="white" stroke-width="0.2"/>
<defs>
<linearGradient id="paint0_linear_403_1805" x1="3.09857" y1="2.03892" x2="38" y2="38" gradientUnits="userSpaceOnUse">
<stop stop-color="#C7F431" stop-opacity="0.46"/>
<stop offset="1" stop-color="#C7F431" stop-opacity="0"/>
</linearGradient>
</defs>
</svg>
