<svg width="38" height="38" viewBox="0 0 38 38" fill="none" xmlns="http://www.w3.org/2000/svg">
<path opacity="0.4" d="M16.2498 14.6001V23.391C16.198 24.0305 16.2858 24.6736 16.5069 25.2759C16.728 25.8782 17.0772 26.4253 17.5305 26.8794C17.9837 27.3335 18.5302 27.6838 19.132 27.9061C19.7339 28.1284 20.3769 28.2173 21.0165 28.1668H23.3906C24.0295 28.2176 24.6718 28.1292 25.2732 27.9076C25.8746 27.6861 26.4207 27.3366 26.8739 26.8834C27.3271 26.4302 27.6766 25.8841 27.8981 25.2827C28.1197 24.6813 28.2081 24.039 28.1573 23.4001V14.6001C28.21 13.9616 28.1232 13.3193 27.9029 12.7176C27.6826 12.116 27.3341 11.5695 26.8815 11.116C26.4288 10.6625 25.883 10.3129 25.2818 10.0915C24.6806 9.87 24.0384 9.78196 23.3998 9.83346H21.0165C20.3776 9.78263 19.7353 9.87106 19.1339 10.0926C18.5325 10.3142 17.9864 10.6636 17.5332 11.1168C17.08 11.57 16.7305 12.1162 16.509 12.7175C16.2874 13.3189 16.199 13.9612 16.2498 14.6001Z" fill="white"/>
<path d="M19.3958 15.4431L22.4666 18.5139C22.5945 18.6433 22.6662 18.8179 22.6662 18.9998C22.6662 19.1817 22.5945 19.3562 22.4666 19.4856L19.3958 22.5564C19.2655 22.6779 19.0931 22.744 18.915 22.7409C18.7369 22.7377 18.5669 22.6656 18.441 22.5396C18.315 22.4136 18.2429 22.2437 18.2397 22.0656C18.2366 21.8875 18.3027 21.7151 18.4241 21.5848L20.3216 19.6873H10.5225C10.3401 19.6873 10.1653 19.6148 10.0363 19.4859C9.90739 19.357 9.83496 19.1821 9.83496 18.9998C9.83496 18.8174 9.90739 18.6426 10.0363 18.5136C10.1653 18.3847 10.3401 18.3123 10.5225 18.3123H20.3216L18.4241 16.4148C18.3602 16.3511 18.3094 16.2754 18.2748 16.192C18.2401 16.1086 18.2223 16.0192 18.2223 15.9289C18.2223 15.8387 18.2401 15.7493 18.2748 15.6659C18.3094 15.5825 18.3602 15.5068 18.4241 15.4431C18.4871 15.3779 18.5626 15.326 18.6461 15.2906C18.7295 15.2552 18.8193 15.237 18.91 15.237C19.0006 15.237 19.0904 15.2552 19.1738 15.2906C19.2573 15.326 19.3328 15.3779 19.3958 15.4431Z" fill="white"/>
<rect x="0.5" y="0.5" width="37" height="37" rx="9.5" stroke="url(#paint0_linear_618_313)"/>
<defs>
<linearGradient id="paint0_linear_618_313" x1="3.09857" y1="2.03892" x2="38" y2="38" gradientUnits="userSpaceOnUse">
<stop stop-color="#C7F431" stop-opacity="0.46"/>
<stop offset="1" stop-color="#C7F431" stop-opacity="0"/>
</linearGradient>
</defs>
</svg>
