<svg width="181" height="62" viewBox="0 0 181 62" fill="none" xmlns="http://www.w3.org/2000/svg">
<path d="M18.8856 43.1833H36.0123C37.13 43.1833 38.0361 42.2773 38.0361 41.1595V40.8649C38.0361 39.7472 37.13 38.8411 36.0123 38.8411H18.8856C17.7679 38.8411 16.8618 39.7472 16.8618 40.8649V41.1595C16.8618 42.2773 17.7679 43.1833 18.8856 43.1833Z" fill="url(#paint0_linear_618_314)"/>
<path d="M26.7138 11.0749H28.1924V3.59917H26.7138V11.0749Z" fill="#F0F0F0"/>
<path d="M50.0668 33.3266C52.4014 32.7717 53.8442 30.4293 53.2893 28.0946C52.7344 25.76 50.392 24.3172 48.0573 24.8721C45.7227 25.427 44.2799 27.7694 44.8348 30.1041C45.3897 32.4387 47.7321 33.8815 50.0668 33.3266Z" fill="#F0F0F0"/>
<mask id="mask0_618_314" style="mask-type:alpha" maskUnits="userSpaceOnUse" x="44" y="24" width="10" height="10">
<path d="M50.0668 33.3266C52.4014 32.7717 53.8442 30.4293 53.2893 28.0946C52.7344 25.76 50.392 24.3172 48.0573 24.8721C45.7227 25.427 44.2799 27.7694 44.8348 30.1041C45.3897 32.4387 47.7321 33.8815 50.0668 33.3266Z" fill="#F0F0F0"/>
</mask>
<g mask="url(#mask0_618_314)">
<path d="M50.6904 29.4875C51.4529 26.4142 48.2514 28.036 48.263 24.7357L44.8188 32.4717L51.4414 39.8254C58.8454 36.8308 51.5789 38.0824 52.6648 34.276C53.7507 30.4696 50.057 32.0404 50.6904 29.4875Z" fill="#CFCFCF"/>
</g>
<path d="M6.15967 33.047C8.4999 32.5162 9.96671 30.1887 9.43588 27.8485C8.90505 25.5083 6.5776 24.0415 4.23736 24.5723C1.89713 25.1031 0.430322 27.4306 0.96115 29.7708C1.49198 32.111 3.81943 33.5779 6.15967 33.047Z" fill="#E8E8E8"/>
<mask id="mask1_618_314" style="mask-type:alpha" maskUnits="userSpaceOnUse" x="0" y="24" width="10" height="10">
<path d="M6.15967 33.0471C8.4999 32.5163 9.96671 30.1888 9.43588 27.8486C8.90505 25.5083 6.5776 24.0415 4.23736 24.5724C1.89713 25.1032 0.430322 27.4306 0.96115 29.7709C1.49198 32.1111 3.81943 33.5779 6.15967 33.0471Z" fill="#F0F0F0"/>
</mask>
<g mask="url(#mask1_618_314)">
<path d="M3.3309 29.2342C2.99942 26.0851 5.94672 28.1329 6.39028 24.8625L8.73492 32.9995L1.16159 39.3698C-5.75878 35.3829 1.26579 37.6245 0.715088 33.7047C0.16439 29.7849 3.60625 31.8501 3.3309 29.2342Z" fill="#CFCFCF"/>
</g>
<path d="M26.6198 9.45314C26.6198 9.45314 8.95346 9.24112 6.15591 24.5423C3.35837 39.8434 18.2988 40.1298 22.597 40.4189C24.5465 40.551 28.7152 40.5648 32.3939 40.4987C40.5387 40.3583 46.2908 38.7806 48.2512 31.225C48.4798 30.3439 48.634 29.438 48.6918 28.5183C49.2095 20.2386 43.6034 9.04287 26.6226 9.45039L26.6198 9.45314Z" fill="url(#paint1_linear_618_314)"/>
<path d="M39.6682 34.2585L39.6692 34.2585C43.1971 34.2011 46.0302 31.3165 45.9756 27.7874L45.9756 27.7859C45.9174 24.2574 42.9944 21.4632 39.4666 21.517L39.4662 21.517L13.6022 21.919L13.6011 21.919C10.0733 21.9764 7.24011 24.861 7.29472 28.3901L7.29474 28.3916C7.35297 31.9201 10.2759 34.7142 13.8037 34.6605L13.8042 34.6605L39.6682 34.2585Z" fill="#030303" stroke="url(#paint2_linear_618_314)" stroke-width="3"/>
<path d="M19.0674 27.8327C18.9022 28.6808 18.0789 29.2315 17.2335 29.0663C16.3855 28.9011 15.8348 28.0778 16 27.2324C16.1652 26.3844 16.9885 25.8337 17.8338 25.9989C18.6819 26.1641 19.2326 26.9874 19.0674 27.8327Z" fill="#C7F431"/>
<path d="M36.999 27.5463C36.8338 28.3944 36.0105 28.9451 35.1652 28.7799C34.3171 28.6147 33.7664 27.7914 33.9316 26.9461C34.0968 26.098 34.9201 25.5473 35.7654 25.7125C36.6135 25.8777 37.1642 26.701 36.999 27.5463Z" fill="#C7F431"/>
<path d="M29.1781 5.16933C30.1297 4.21769 30.1297 2.67477 29.1781 1.72312C28.2265 0.77148 26.6835 0.77148 25.7319 1.72312C24.7802 2.67477 24.7802 4.21769 25.7319 5.16933C26.6835 6.12098 28.2265 6.12098 29.1781 5.16933Z" fill="#C7F431"/>
<path d="M23.561 27.1113C23.6766 27.125 23.6188 27.6702 23.9603 28.3972C24.1255 28.7579 24.4008 29.1516 24.7891 29.4875C25.1773 29.8235 25.6922 30.0795 26.2567 30.1401C26.8239 30.1842 27.3773 30.0245 27.8206 29.7656C28.2667 29.5068 28.6081 29.1681 28.8339 28.8432C29.302 28.1906 29.3433 27.6427 29.459 27.651C29.503 27.651 29.5526 27.7886 29.5526 28.0475C29.5526 28.3063 29.4782 28.6835 29.269 29.1021C29.0597 29.5206 28.6963 29.9722 28.1703 30.3218C27.6527 30.6743 26.9478 30.9138 26.1906 30.8505C25.4361 30.7734 24.7863 30.4127 24.3402 29.9722C23.8887 29.5316 23.6106 29.0222 23.4811 28.5734C23.349 28.1218 23.3435 27.7363 23.393 27.483C23.4398 27.2297 23.5114 27.1003 23.5555 27.1085L23.561 27.1113Z" fill="#C7F431"/>
<path d="M47.0834 34.2456C47.0586 34.2318 47.3753 33.7499 47.6782 32.8826C47.9921 32.0207 48.2646 30.7707 48.3941 29.3746C48.5345 27.9759 48.5125 26.701 48.4767 25.7813C48.4546 25.3215 48.4326 24.9498 48.4133 24.6909C48.3941 24.4349 48.3886 24.2917 48.3996 24.2889C48.4106 24.2889 48.4326 24.4294 48.4684 24.6854C48.507 24.9415 48.5427 25.3132 48.5785 25.7758C48.6391 26.6982 48.6777 27.9814 48.5372 29.3884C48.4051 30.7954 48.1132 32.0538 47.7745 32.9184C47.6093 33.3507 47.4386 33.6894 47.3064 33.9124C47.1715 34.1327 47.0917 34.2538 47.0834 34.2483V34.2456Z" fill="#777777"/>
<path d="M6.16828 24.0411C6.16828 24.0411 6.14626 24.1843 6.08017 24.4349C6.04713 24.5588 6.00583 24.713 5.97003 24.8919C5.93148 25.0709 5.87917 25.2719 5.84613 25.5005C5.76077 25.952 5.69193 26.4972 5.65338 27.1057C5.62309 27.7143 5.62309 28.3834 5.68092 29.0828C5.747 29.7821 5.86265 30.4402 6.00032 31.035C6.14626 31.6242 6.30871 32.1501 6.47392 32.5797C6.54827 32.7972 6.63362 32.9872 6.70246 33.1579C6.76854 33.3286 6.83463 33.4718 6.89245 33.5875C6.99984 33.8215 7.05491 33.9537 7.04665 33.9592C7.03839 33.9647 6.9668 33.8408 6.84289 33.6122C6.77956 33.4994 6.70521 33.3589 6.63087 33.191C6.55377 33.023 6.46015 32.8358 6.3803 32.6182C6.20133 32.1887 6.02786 31.6628 5.87366 31.068C5.72773 30.4705 5.60382 29.8042 5.53774 29.0965C5.47716 28.3889 5.48267 27.7115 5.52121 27.0975C5.56802 26.4835 5.64788 25.9355 5.747 25.4812C5.7883 25.2527 5.84613 25.0516 5.89294 24.8727C5.93699 24.6937 5.9838 24.5423 6.02786 24.4183C6.11046 24.1733 6.16002 24.0384 6.16828 24.0411Z" fill="#777777"/>
<path opacity="0.5" d="M24.3542 10.5986C24.3542 10.5986 24.3322 10.6041 24.2909 10.6096C24.2413 10.6151 24.178 10.6206 24.1036 10.6261C23.9384 10.6426 23.6961 10.6481 23.385 10.6867C22.7627 10.7418 21.865 10.8657 20.7774 11.119C19.6898 11.3696 18.4177 11.7771 17.0795 12.3966C15.7413 13.0134 14.3453 13.8615 13.0291 14.9408C11.7212 16.0285 10.6225 17.24 9.76345 18.435C8.90161 19.6328 8.26004 20.803 7.80572 21.8218C7.35139 22.8406 7.05952 23.6997 6.88605 24.2999C6.78968 24.5973 6.74012 24.8341 6.69056 24.9938C6.66853 25.0654 6.65201 25.126 6.63824 25.1728C6.62447 25.2141 6.61896 25.2334 6.61621 25.2334C6.61621 25.2334 6.61621 25.2113 6.62447 25.17C6.63549 25.1205 6.6465 25.0599 6.66302 24.9856C6.70157 24.8259 6.74562 24.5863 6.83098 24.2834C6.98793 23.6776 7.26603 22.8103 7.7121 21.7805C8.15541 20.7507 8.79147 19.5667 9.65606 18.3579C10.5179 17.1491 11.6193 15.9266 12.9382 14.8279C14.2654 13.7403 15.6752 12.8922 17.0244 12.2755C18.3764 11.6587 19.6595 11.2567 20.7554 11.0171C21.8513 10.7748 22.7544 10.6674 23.3794 10.6289C23.6906 10.6013 23.9357 10.6041 24.1009 10.5958C24.1752 10.5958 24.2385 10.5958 24.2881 10.5958C24.3294 10.5958 24.3514 10.5958 24.3514 10.5986H24.3542Z" fill="#BDBDBD"/>
<path d="M7.06794 31.7949C7.05142 31.8004 6.94403 31.5967 6.81737 31.2442C6.68796 30.8945 6.54753 30.3934 6.45942 29.8317C6.37131 29.2672 6.35479 28.7496 6.36855 28.3751C6.38232 28.0006 6.42087 27.7748 6.44014 27.7748C6.4842 27.7748 6.42362 28.6973 6.59985 29.8097C6.77056 30.9221 7.11199 31.7784 7.06794 31.7949Z" fill="#C8C8C8"/>
<path d="M2.43633 30.3714C2.43633 30.3714 2.373 30.3273 2.28764 30.2227C2.19953 30.1181 2.08664 29.9584 1.9765 29.7409C1.75071 29.3141 1.55797 28.6367 1.65434 27.8905C1.75347 27.1443 2.11968 26.5413 2.44734 26.1861C2.61255 26.0071 2.76124 25.8805 2.87414 25.8034C2.98427 25.7263 3.05036 25.6905 3.05587 25.6987C3.07239 25.718 2.82457 25.8887 2.52444 26.2522C2.22431 26.6129 1.89114 27.1966 1.79752 27.907C1.7039 28.6174 1.87462 29.27 2.06736 29.694C2.26011 30.1236 2.45836 30.3521 2.43633 30.3687V30.3714Z" fill="#8F8F8F"/>
<path d="M27.6146 1.74885C27.6091 1.77638 27.364 1.68552 26.9675 1.73232C26.5821 1.77363 26.0258 1.99666 25.6954 2.5033C25.3733 3.01545 25.4008 3.61296 25.5247 3.98193C25.6459 4.36191 25.8303 4.54914 25.8083 4.56566C25.8028 4.57117 25.7505 4.53262 25.6762 4.44451C25.5991 4.3564 25.5054 4.21322 25.4283 4.01772C25.2714 3.63774 25.2191 2.99067 25.5743 2.42896C25.9377 1.87275 26.5463 1.65247 26.9593 1.63595C27.1685 1.62494 27.3393 1.64972 27.4494 1.68276C27.5623 1.7158 27.6174 1.74609 27.6146 1.7516V1.74885Z" fill="#5B7409"/>
<path d="M51.6108 27.0314C51.5805 27.0645 51.151 26.6542 50.5039 26.3458C49.8596 26.0292 49.2731 25.9466 49.2813 25.9025C49.2813 25.8667 49.8954 25.8887 50.5672 26.2164C51.2391 26.5386 51.6383 27.0094 51.6108 27.0314Z" fill="#8F8F8F"/>
<path d="M35.1646 22.1192C35.1646 22.1577 31.7833 22.1908 27.6145 22.1908C23.4457 22.1908 20.0645 22.1577 20.0645 22.1192C20.0645 22.0806 23.4457 22.0476 27.6145 22.0476C31.7833 22.0476 35.1646 22.0806 35.1646 22.1192Z" fill="#CFCFCF"/>
<path d="M22.2804 39.3368C22.2804 39.3368 22.2363 39.3478 22.1537 39.3588C22.0518 39.367 21.9307 39.3781 21.7847 39.3918C21.625 39.4056 21.4295 39.4194 21.201 39.4221C20.9725 39.4276 20.7136 39.4414 20.4273 39.4304C19.8518 39.4304 19.1689 39.3891 18.4117 39.3092C17.6573 39.2211 16.8312 39.0862 15.9749 38.8879C15.1213 38.6842 14.3228 38.4336 13.6069 38.1775C12.8937 37.9132 12.2659 37.6406 11.751 37.3873C11.4895 37.2661 11.2637 37.1395 11.0627 37.0321C10.8589 36.9274 10.6909 36.8283 10.5533 36.7457C10.4294 36.6686 10.3247 36.6053 10.2366 36.553C10.165 36.5089 10.1292 36.4814 10.132 36.4786C10.1347 36.4759 10.176 36.4924 10.2504 36.5282C10.3412 36.575 10.4486 36.6301 10.578 36.6962C10.7185 36.7733 10.8919 36.8641 11.0985 36.9605C11.3022 37.0596 11.5308 37.1808 11.7951 37.2937C12.3127 37.536 12.9433 37.7948 13.6537 38.0509C14.3668 38.3014 15.1626 38.5437 16.0107 38.7475C16.8588 38.9458 17.6793 39.0807 18.4282 39.177C19.1772 39.2652 19.8573 39.3147 20.43 39.3285C20.7164 39.345 20.9752 39.3367 21.201 39.3395C21.4295 39.3423 21.625 39.3395 21.7847 39.334C21.9307 39.334 22.0518 39.3312 22.1537 39.3285C22.2391 39.3285 22.2831 39.3312 22.2831 39.3368H22.2804Z" fill="#C8C8C8"/>
<path d="M14.2185 20.7278C14.4713 20.5575 14.6918 20.3394 14.929 20.1458C15.5003 19.6793 16.1784 19.3538 16.8909 19.2038C17.1153 19.1561 17.3652 19.1125 17.5043 18.9259C17.57 18.8387 17.6013 18.7282 17.615 18.6187C17.666 18.1867 17.4328 17.7578 17.1045 17.485C16.7762 17.2123 16.3666 17.0703 15.9589 16.9598C15.1671 16.7448 14.3361 16.6292 13.5277 16.7631C12.7192 16.8979 11.9313 17.3035 11.4394 17.9809C11.2287 18.2699 11.0748 18.6085 11.0278 18.9665C10.9268 19.7432 11.3776 20.5443 12.0548 20.8951C12.7319 21.2449 13.5845 21.1567 14.2185 20.7298V20.7278Z" fill="url(#paint3_linear_618_314)"/>
<g filter="url(#filter0_f_618_314)">
<ellipse cx="27.422" cy="49.2622" rx="11.9777" ry="2.34047" fill="white" fill-opacity="0.05"/>
</g>
<path d="M67 33.8437L69.9752 17.3631C69.9908 17.3006 70.0298 17.2694 70.0923 17.2694H73.5711C73.6336 17.2694 73.6727 17.3006 73.6883 17.3631L76.5463 33.8437C76.5541 33.9218 76.5229 33.9608 76.4526 33.9608H73.7937C73.7156 33.9608 73.6727 33.9218 73.6649 33.8437L73.4072 32.0867H70.1392L69.8815 33.8437C69.8737 33.9218 69.8346 33.9608 69.7643 33.9608H67.0937C67.0312 33.9608 67 33.9218 67 33.8437ZM71.697 22.7864L70.6194 29.5215H72.9269L71.943 22.7864L71.8024 21.8961L71.697 22.7864Z" fill="white"/>
<path d="M83.0392 33.9608H80.3217C80.2437 33.9608 80.2046 33.9218 80.2046 33.8437L80.228 17.3631C80.228 17.3006 80.2593 17.2694 80.3217 17.2694H83.0158C83.0783 17.2694 83.1095 17.3006 83.1095 17.3631L83.1329 33.8437C83.1329 33.9218 83.1017 33.9608 83.0392 33.9608Z" fill="white"/>
<path d="M100.207 34.1951C99.3399 34.1951 98.5473 33.9764 97.8289 33.5391C97.1183 33.1019 96.5521 32.5162 96.1305 31.7822C95.7166 31.0403 95.5096 30.2165 95.5096 29.3107L95.5331 21.8259C95.5331 20.9357 95.7361 20.1313 96.1422 19.4129C96.5482 18.6867 97.1066 18.105 97.8172 17.6677C98.5356 17.2226 99.3321 17 100.207 17C101.097 17 101.889 17.2147 102.584 17.6442C103.287 18.0737 103.846 18.6555 104.259 19.3895C104.681 20.1157 104.892 20.9279 104.892 21.8259V22.9269C104.892 22.9894 104.861 23.0206 104.798 23.0206H102.104C102.042 23.0206 102.011 22.9894 102.011 22.9269V21.8259C102.011 21.2949 101.839 20.8381 101.495 20.4554C101.152 20.0728 100.722 19.8815 100.207 19.8815C99.6366 19.8815 99.1993 20.0767 98.8948 20.4671C98.5902 20.8576 98.438 21.3105 98.438 21.8259V29.3107C98.438 29.8963 98.6098 30.3766 98.9534 30.7514C99.2969 31.1184 99.7147 31.3019 100.207 31.3019C100.722 31.3019 101.152 31.0989 101.495 30.6928C101.839 30.279 102.011 29.8182 102.011 29.3107V28.1979C102.011 28.1354 102.042 28.1042 102.104 28.1042H104.822C104.884 28.1042 104.915 28.1354 104.915 28.1979V29.3107C104.915 30.2087 104.705 31.0286 104.283 31.7704C103.853 32.5045 103.287 33.094 102.584 33.5391C101.882 33.9764 101.089 34.1951 100.207 34.1951Z" fill="white"/>
<path d="M111.631 33.9608H108.913C108.851 33.9608 108.82 33.9218 108.82 33.8437L108.843 17.3631C108.843 17.3006 108.882 17.2694 108.96 17.2694H111.631C111.709 17.2694 111.748 17.3006 111.748 17.3631L111.725 23.8874H115.321V17.3631C115.321 17.3006 115.352 17.2694 115.414 17.2694H118.085C118.163 17.2694 118.202 17.3006 118.202 17.3631L118.249 33.8437C118.249 33.9218 118.21 33.9608 118.132 33.9608H115.438C115.36 33.9608 115.321 33.9218 115.321 33.8437V26.7923H111.725V33.8437C111.725 33.9218 111.693 33.9608 111.631 33.9608Z" fill="white"/>
<path d="M121.556 33.8437L124.531 17.3631C124.547 17.3006 124.586 17.2694 124.648 17.2694H128.127C128.189 17.2694 128.228 17.3006 128.244 17.3631L131.102 33.8437C131.11 33.9218 131.079 33.9608 131.008 33.9608H128.349C128.271 33.9608 128.228 33.9218 128.221 33.8437L127.963 32.0867H124.695L124.437 33.8437C124.429 33.9218 124.39 33.9608 124.32 33.9608H121.649C121.587 33.9608 121.556 33.9218 121.556 33.8437ZM126.253 22.7864L125.175 29.5215H127.483L126.499 22.7864L126.358 21.8961L126.253 22.7864Z" fill="white"/>
<path d="M138.427 33.9608H135.721C135.651 33.9608 135.615 33.9218 135.615 33.8437V20.1626H132.5C132.422 20.1626 132.383 20.1235 132.383 20.0455L132.406 17.3631C132.406 17.3006 132.437 17.2694 132.5 17.2694H141.613C141.699 17.2694 141.741 17.3006 141.741 17.3631V20.0455C141.741 20.1235 141.71 20.1626 141.648 20.1626H138.497L138.52 33.8437C138.52 33.9218 138.489 33.9608 138.427 33.9608Z" fill="white"/>
<path d="M149.464 33.9608H145.166C145.103 33.9608 145.072 33.9218 145.072 33.8437L145.119 17.3631C145.119 17.3006 145.15 17.2694 145.212 17.2694H149.827C150.725 17.2694 151.541 17.4881 152.275 17.9253C152.994 18.3626 153.56 18.9444 153.974 19.6706C154.388 20.389 154.595 21.1699 154.595 22.0133C154.595 22.7005 154.439 23.3408 154.126 23.9343C153.814 24.5277 153.443 25.008 153.013 25.375C153.474 25.8357 153.833 26.3706 154.091 26.9797C154.349 27.5888 154.478 28.2291 154.478 28.9007C154.478 29.8299 154.255 30.6772 153.81 31.4425C153.357 32.2077 152.752 32.8207 151.994 33.2815C151.237 33.7344 150.394 33.9608 149.464 33.9608ZM149.827 20.1157H148V23.8874H149.827C150.382 23.8874 150.831 23.6922 151.174 23.3017C151.518 22.9035 151.69 22.474 151.69 22.0133C151.69 21.5057 151.506 21.0645 151.139 20.6897C150.772 20.307 150.335 20.1157 149.827 20.1157ZM149.464 26.7923H148L147.977 31.0325H149.464C150.042 31.0325 150.538 30.8217 150.952 30.4C151.366 29.9783 151.573 29.4785 151.573 28.9007C151.573 28.3228 151.366 27.827 150.952 27.4131C150.538 26.9992 150.042 26.7923 149.464 26.7923Z" fill="white"/>
<path d="M162.798 34.1951C161.947 34.1951 161.162 33.9764 160.443 33.5391C159.733 33.1019 159.159 32.5201 158.722 31.7939C158.292 31.0598 158.077 30.2555 158.077 29.3809L158.101 21.779C158.101 20.8888 158.315 20.0884 158.745 19.3778C159.167 18.6594 159.737 18.0854 160.455 17.6559C161.173 17.2186 161.954 17 162.798 17C163.672 17 164.457 17.2147 165.152 17.6442C165.855 18.0737 166.417 18.6516 166.839 19.3778C167.268 20.0962 167.483 20.8966 167.483 21.779L167.506 29.3809C167.506 30.2555 167.296 31.0559 166.874 31.7822C166.444 32.5162 165.874 33.1019 165.164 33.5391C164.453 33.9764 163.665 34.1951 162.798 34.1951ZM162.798 31.3019C163.282 31.3019 163.704 31.1067 164.063 30.7162C164.422 30.318 164.602 29.8729 164.602 29.3809L164.578 21.779C164.578 21.248 164.41 20.799 164.074 20.432C163.739 20.065 163.313 19.8815 162.798 19.8815C162.306 19.8815 161.884 20.0611 161.533 20.4203C161.181 20.7795 161.006 21.2324 161.006 21.779V29.3809C161.006 29.9041 161.181 30.357 161.533 30.7397C161.884 31.1145 162.306 31.3019 162.798 31.3019Z" fill="white"/>
<path d="M176.108 33.9608H173.402C173.332 33.9608 173.297 33.9218 173.297 33.8437V20.1626H170.181C170.103 20.1626 170.064 20.1235 170.064 20.0455L170.087 17.3631C170.087 17.3006 170.118 17.2694 170.181 17.2694H179.294C179.38 17.2694 179.423 17.3006 179.423 17.3631V20.0455C179.423 20.1235 179.391 20.1626 179.329 20.1626H176.178L176.201 33.8437C176.201 33.9218 176.17 33.9608 176.108 33.9608Z" fill="white"/>
<path d="M68.1406 34.8828L67.6486 34.794L67.6406 34.838V34.8828H68.1406ZM71.1172 18.3945L70.6321 18.2733L70.6281 18.2894L70.6251 18.3057L71.1172 18.3945ZM74.832 18.3945L75.3247 18.3091L75.3215 18.291L75.3171 18.2733L74.832 18.3945ZM77.6914 34.8828L78.1889 34.8331L78.1871 34.8151L78.1841 34.7974L77.6914 34.8828ZM74.8086 34.8828L75.3061 34.8331L75.305 34.8216L75.3033 34.8103L74.8086 34.8828ZM74.5508 33.125L75.0455 33.0524L74.9828 32.625H74.5508V33.125ZM71.2812 33.125V32.625H70.8492L70.7865 33.0524L71.2812 33.125ZM71.0234 34.8828L70.5287 34.8103L70.5271 34.8216L70.5259 34.8331L71.0234 34.8828ZM72.8398 23.8203L73.3336 23.8993L73.3352 23.8892L73.3364 23.8791L72.8398 23.8203ZM71.7617 30.5586L71.268 30.4796L71.1754 31.0586H71.7617V30.5586ZM74.0703 30.5586V31.0586H74.6487L74.5651 30.4863L74.0703 30.5586ZM73.0859 23.8203L73.5807 23.748L73.5798 23.7423L73.0859 23.8203ZM72.9453 22.9297L73.4392 22.8517L72.4488 22.8709L72.9453 22.9297ZM68.6327 34.9716L71.6092 18.4834L70.6251 18.3057L67.6486 34.794L68.6327 34.9716ZM71.6023 18.5158C71.5912 18.56 71.5584 18.6444 71.4706 18.7147C71.3812 18.7862 71.2877 18.8008 71.2344 18.8008V17.8008C71.1186 17.8008 70.9743 17.831 70.8459 17.9338C70.719 18.0353 70.6588 18.1666 70.6321 18.2733L71.6023 18.5158ZM71.2344 18.8008H74.7148V17.8008H71.2344V18.8008ZM74.7148 18.8008C74.6615 18.8008 74.568 18.7862 74.4787 18.7147C74.3909 18.6444 74.358 18.56 74.347 18.5158L75.3171 18.2733C75.2904 18.1666 75.2302 18.0353 75.1034 17.9338C74.9749 17.831 74.8307 17.8008 74.7148 17.8008V18.8008ZM74.3394 18.48L77.1988 34.9682L78.1841 34.7974L75.3247 18.3091L74.3394 18.48ZM77.1939 34.9326C77.192 34.9132 77.1814 34.7859 77.2834 34.6584C77.3968 34.5166 77.5457 34.5 77.5977 34.5V35.5C77.7199 35.5 77.9196 35.4639 78.0643 35.2831C78.1975 35.1164 78.1987 34.9306 78.1889 34.8331L77.1939 34.9326ZM77.5977 34.5H74.9375V35.5H77.5977V34.5ZM74.9375 34.5C74.9792 34.5 75.0846 34.5113 75.183 34.6007C75.281 34.6899 75.3021 34.793 75.3061 34.8331L74.3111 34.9326C74.3229 35.0508 74.3693 35.2125 74.5103 35.3407C74.6517 35.4692 74.8177 35.5 74.9375 35.5V34.5ZM75.3033 34.8103L75.0455 33.0524L74.0561 33.1976L74.3139 34.9554L75.3033 34.8103ZM74.5508 32.625H71.2812V33.625H74.5508V32.625ZM70.7865 33.0524L70.5287 34.8103L71.5181 34.9554L71.776 33.1976L70.7865 33.0524ZM70.5259 34.8331C70.5288 34.8047 70.5443 34.7076 70.6347 34.6171C70.7328 34.5191 70.8468 34.5 70.9062 34.5V35.5C71.036 35.5 71.2047 35.4614 71.3418 35.3243C71.4713 35.1948 71.5103 35.039 71.521 34.9326L70.5259 34.8331ZM70.9062 34.5H68.2344V35.5H70.9062V34.5ZM68.2344 34.5C68.3135 34.5 68.452 34.5302 68.5545 34.6584C68.6399 34.7652 68.6406 34.8685 68.6406 34.8828H67.6406C67.6406 34.9753 67.6569 35.1372 67.7736 35.2831C67.9074 35.4502 68.0928 35.5 68.2344 35.5V34.5ZM72.3461 23.7413L71.268 30.4796L72.2554 30.6376L73.3336 23.8993L72.3461 23.7413ZM71.7617 31.0586H74.0703V30.0586H71.7617V31.0586ZM74.5651 30.4863L73.5807 23.748L72.5912 23.8926L73.5756 30.6309L74.5651 30.4863ZM73.5798 23.7423L73.4392 22.8517L72.4514 23.0077L72.5921 23.8983L73.5798 23.7423ZM72.4488 22.8709L72.3433 23.7615L73.3364 23.8791L73.4418 22.9885L72.4488 22.8709ZM81.3514 34.8828L80.8514 34.8821V34.8828H81.3514ZM81.3748 18.3945L81.8748 18.3952V18.3945H81.3748ZM84.2577 18.3945H83.7577L83.7577 18.3952L84.2577 18.3945ZM84.2811 34.8828H84.7811V34.8821L84.2811 34.8828ZM84.1873 34.5H81.4686V35.5H84.1873V34.5ZM81.4686 34.5C81.5066 34.5 81.6269 34.5098 81.7343 34.6171C81.8416 34.7245 81.8514 34.8448 81.8514 34.8828H80.8514C80.8514 34.9989 80.8808 35.1779 81.0271 35.3243C81.1735 35.4706 81.3525 35.5 81.4686 35.5V34.5ZM81.8514 34.8835L81.8748 18.3952L80.8748 18.3938L80.8514 34.8821L81.8514 34.8835ZM81.8748 18.3945C81.8748 18.4404 81.863 18.5666 81.7518 18.6778C81.6406 18.789 81.5144 18.8008 81.4686 18.8008V17.8008C81.3603 17.8008 81.1872 17.8282 81.0447 17.9707C80.9023 18.1131 80.8748 18.2862 80.8748 18.3945H81.8748ZM81.4686 18.8008H84.1639V17.8008H81.4686V18.8008ZM84.1639 18.8008C84.1181 18.8008 83.9919 18.789 83.8807 18.6778C83.7695 18.5666 83.7577 18.4404 83.7577 18.3945H84.7577C84.7577 18.2862 84.7302 18.1131 84.5878 17.9707C84.4453 17.8282 84.2722 17.8008 84.1639 17.8008V18.8008ZM83.7577 18.3952L83.7811 34.8835L84.7811 34.8821L84.7577 18.3938L83.7577 18.3952ZM83.7811 34.8828C83.7811 34.8685 83.7818 34.7652 83.8672 34.6584C83.9697 34.5302 84.1082 34.5 84.1873 34.5V35.5C84.3289 35.5 84.5144 35.4502 84.6481 35.2831C84.7648 35.1372 84.7811 34.9753 84.7811 34.8828H83.7811ZM98.9839 34.5781L98.7219 35.004L98.7239 35.0052L98.9839 34.5781ZM97.2847 32.8203L96.848 33.0639L96.8511 33.0694L97.2847 32.8203ZM96.6636 30.3477L96.1636 30.3461V30.3477H96.6636ZM96.687 22.8594L97.187 22.8609V22.8594H96.687ZM97.2964 20.4453L97.7317 20.6913L97.7328 20.6893L97.2964 20.4453ZM98.9722 18.6992L99.2342 19.125L99.2355 19.1243L98.9722 18.6992ZM103.742 18.6758L103.479 19.1011L103.481 19.1024L103.742 18.6758ZM105.417 20.4219L104.982 20.6675L104.985 20.6729L105.417 20.4219ZM100.109 31.7891L99.7403 32.1269L99.7439 32.1308L100.109 31.7891ZM102.652 31.7305L103.034 32.0535L103.037 32.0498L102.652 31.7305ZM105.441 32.8086L105.873 33.0611L105.876 33.0557L105.441 32.8086ZM103.742 34.5781L104.006 35.0027L104.009 35.0005L103.742 34.5781ZM101.363 34.7344C100.584 34.7344 99.8818 34.5393 99.2439 34.151L98.7239 35.0052C99.5235 35.4919 100.407 35.7344 101.363 35.7344V34.7344ZM99.246 34.1523C98.6071 33.7592 98.0992 33.2344 97.7182 32.5713L96.8511 33.0694C97.3139 33.875 97.9388 34.5221 98.7219 35.004L99.246 34.1523ZM97.7213 32.5767C97.3516 31.9139 97.1636 31.1745 97.1636 30.3477H96.1636C96.1636 31.3333 96.3897 32.2423 96.848 33.0639L97.7213 32.5767ZM97.1636 30.3492L97.187 22.8609L96.187 22.8578L96.1636 30.3461L97.1636 30.3492ZM97.187 22.8594C97.187 22.048 97.3712 21.3292 97.7317 20.6913L96.8611 20.1993C96.4091 20.999 96.187 21.8895 96.187 22.8594H97.187ZM97.7328 20.6893C98.0973 20.0375 98.5958 19.518 99.2342 19.125L98.7101 18.2734C97.9267 18.7555 97.308 19.4 96.86 20.2013L97.7328 20.6893ZM99.2355 19.1243C99.8723 18.7297 100.577 18.5312 101.363 18.5312V17.5312C100.398 17.5312 99.5095 17.7781 98.7089 18.2742L99.2355 19.1243ZM101.363 18.5312C102.169 18.5312 102.87 18.7246 103.479 19.1011L104.005 18.2504C103.223 17.7676 102.338 17.5312 101.363 17.5312V18.5312ZM103.481 19.1024C104.11 19.4866 104.609 20.0056 104.982 20.6674L105.853 20.1763C105.398 19.3694 104.78 18.7244 104.002 18.2491L103.481 19.1024ZM104.985 20.6729C105.36 21.3179 105.55 22.0428 105.55 22.8594H106.55C106.55 21.8791 106.319 20.9789 105.85 20.1708L104.985 20.6729ZM105.55 22.8594V23.9609H106.55V22.8594H105.55ZM105.55 23.9609C105.55 23.9151 105.562 23.7889 105.673 23.6777C105.785 23.5665 105.911 23.5547 105.957 23.5547V24.5547C106.065 24.5547 106.238 24.5273 106.38 24.3848C106.523 24.2423 106.55 24.0693 106.55 23.9609H105.55ZM105.957 23.5547H103.261V24.5547H105.957V23.5547ZM103.261 23.5547C103.307 23.5547 103.433 23.5665 103.544 23.6777C103.656 23.7889 103.667 23.9151 103.667 23.9609H102.667C102.667 24.0693 102.695 24.2423 102.837 24.3848C102.98 24.5273 103.153 24.5547 103.261 24.5547V23.5547ZM103.667 23.9609V22.8594H102.667V23.9609H103.667ZM103.667 22.8594C103.667 22.2092 103.453 21.632 103.024 21.1542L102.28 21.8223C102.538 22.1102 102.667 22.447 102.667 22.8594H103.667ZM103.024 21.1542C102.585 20.6655 102.02 20.4141 101.363 20.4141V21.4141C101.737 21.4141 102.031 21.5454 102.28 21.8223L103.024 21.1542ZM101.363 20.4141C100.665 20.4141 100.071 20.661 99.6561 21.1925L100.445 21.8075C100.639 21.5577 100.92 21.4141 101.363 21.4141V20.4141ZM99.6561 21.1925C99.2799 21.6748 99.0933 22.2372 99.0933 22.8594H100.093C100.093 22.4503 100.211 22.1065 100.445 21.8075L99.6561 21.1925ZM99.0933 22.8594V30.3477H100.093V22.8594H99.0933ZM99.0933 30.3477C99.0933 31.0384 99.2993 31.6458 99.7403 32.1269L100.477 31.4512C100.231 31.1824 100.093 30.8288 100.093 30.3477H99.0933ZM99.7439 32.1308C100.18 32.5964 100.729 32.8398 101.363 32.8398V31.8398C101.012 31.8398 100.725 31.7161 100.474 31.4473L99.7439 32.1308ZM101.363 32.8398C102.031 32.8398 102.598 32.5678 103.034 32.0534L102.27 31.4075C102.018 31.7056 101.726 31.8398 101.363 31.8398V32.8398ZM103.037 32.0498C103.45 31.5518 103.667 30.9794 103.667 30.3477H102.667C102.667 30.7315 102.541 31.081 102.267 31.4111L103.037 32.0498ZM103.667 30.3477V29.2344H102.667V30.3477H103.667ZM103.667 29.2344C103.667 29.2802 103.656 29.4064 103.544 29.5176C103.433 29.6288 103.307 29.6406 103.261 29.6406V28.6406C103.153 28.6406 102.98 28.668 102.837 28.8105C102.695 28.953 102.667 29.1261 102.667 29.2344H103.667ZM103.261 29.6406H105.98V28.6406H103.261V29.6406ZM105.98 29.6406C105.934 29.6406 105.808 29.6288 105.697 29.5176C105.586 29.4064 105.574 29.2802 105.574 29.2344H106.574C106.574 29.1261 106.546 28.953 106.404 28.8105C106.261 28.668 106.088 28.6406 105.98 28.6406V29.6406ZM105.574 29.2344V30.3477H106.574V29.2344H105.574ZM105.574 30.3477C105.574 31.1642 105.383 31.8986 105.006 32.5615L105.876 33.0557C106.343 32.2342 106.574 31.328 106.574 30.3477H105.574ZM105.009 32.5561C104.619 33.2231 104.108 33.7541 103.474 34.1557L104.009 35.0005C104.781 34.5115 105.403 33.8628 105.872 33.0611L105.009 32.5561ZM103.478 34.1536C102.859 34.5385 102.159 34.7344 101.363 34.7344V35.7344C102.333 35.7344 103.218 35.4928 104.006 35.0027L103.478 34.1536ZM109.98 34.8828L109.48 34.8821V34.8828H109.98ZM110.003 18.3945L110.503 18.3952V18.3945H110.003ZM112.91 18.3945L113.41 18.3963V18.3945H112.91ZM112.886 24.9219L112.386 24.9201L112.384 25.4219H112.886V24.9219ZM116.484 24.9219V25.4219H116.984V24.9219H116.484ZM119.367 18.3945H118.867L118.867 18.396L119.367 18.3945ZM119.413 34.8828H119.913L119.913 34.8814L119.413 34.8828ZM116.484 27.8281H116.984V27.3281H116.484V27.8281ZM112.886 27.8281V27.3281H112.386V27.8281H112.886ZM112.792 34.5H110.074V35.5H112.792V34.5ZM110.074 34.5C110.153 34.5 110.291 34.5302 110.394 34.6584C110.479 34.7652 110.48 34.8685 110.48 34.8828H109.48C109.48 34.9753 109.496 35.1372 109.613 35.2831C109.747 35.4502 109.932 35.5 110.074 35.5V34.5ZM110.48 34.8835L110.503 18.3952L109.503 18.3938L109.48 34.8821L110.48 34.8835ZM110.503 18.3945C110.503 18.4736 110.473 18.6122 110.345 18.7147C110.238 18.8001 110.135 18.8008 110.12 18.8008V17.8008C110.028 17.8008 109.866 17.8171 109.72 17.9338C109.553 18.0675 109.503 18.2529 109.503 18.3945H110.503ZM110.12 18.8008H112.792V17.8008H110.12V18.8008ZM112.792 18.8008C112.778 18.8008 112.675 18.8001 112.568 18.7147C112.44 18.6122 112.41 18.4736 112.41 18.3945H113.41C113.41 18.2529 113.36 18.0675 113.193 17.9338C113.047 17.8171 112.885 17.8008 112.792 17.8008V18.8008ZM112.41 18.3927L112.386 24.9201L113.386 24.9237L113.41 18.3963L112.41 18.3927ZM112.886 25.4219H116.484V24.4219H112.886V25.4219ZM116.984 24.9219V18.3945H115.984V24.9219H116.984ZM116.984 18.3945C116.984 18.4404 116.972 18.5666 116.861 18.6778C116.75 18.789 116.623 18.8008 116.577 18.8008V17.8008C116.469 17.8008 116.296 17.8282 116.154 17.9707C116.011 18.1131 115.984 18.2862 115.984 18.3945H116.984ZM116.577 18.8008H119.249V17.8008H116.577V18.8008ZM119.249 18.8008C119.235 18.8008 119.132 18.8001 119.025 18.7147C118.897 18.6122 118.867 18.4736 118.867 18.3945H119.867C119.867 18.2529 119.817 18.0675 119.65 17.9338C119.504 17.8171 119.342 17.8008 119.249 17.8008V18.8008ZM118.867 18.396L118.913 34.8842L119.913 34.8814L119.867 18.3931L118.867 18.396ZM118.913 34.8828C118.913 34.8448 118.923 34.7245 119.031 34.6171C119.138 34.5098 119.258 34.5 119.296 34.5V35.5C119.412 35.5 119.591 35.4706 119.738 35.3243C119.884 35.1779 119.913 34.9989 119.913 34.8828H118.913ZM119.296 34.5H116.601V35.5H119.296V34.5ZM116.601 34.5C116.639 34.5 116.759 34.5098 116.867 34.6171C116.974 34.7245 116.984 34.8448 116.984 34.8828H115.984C115.984 34.9989 116.013 35.1779 116.159 35.3243C116.306 35.4706 116.485 35.5 116.601 35.5V34.5ZM116.984 34.8828V27.8281H115.984V34.8828H116.984ZM116.484 27.3281H112.886V28.3281H116.484V27.3281ZM112.386 27.8281V34.8828H113.386V27.8281H112.386ZM112.386 34.8828C112.386 34.8685 112.387 34.7652 112.472 34.6584C112.575 34.5302 112.713 34.5 112.792 34.5V35.5C112.934 35.5 113.119 35.4502 113.253 35.2831C113.37 35.1372 113.386 34.9753 113.386 34.8828H112.386ZM122.722 34.8828L122.23 34.794L122.222 34.838V34.8828H122.722ZM125.698 18.3945L125.213 18.2733L125.209 18.2894L125.206 18.3057L125.698 18.3945ZM129.413 18.3945L129.906 18.3091L129.903 18.291L129.898 18.2733L129.413 18.3945ZM132.273 34.8828L132.77 34.8331L132.768 34.8151L132.765 34.7974L132.273 34.8828ZM129.39 34.8828L129.887 34.8331L129.886 34.8216L129.885 34.8103L129.39 34.8828ZM129.132 33.125L129.627 33.0524L129.564 32.625H129.132V33.125ZM125.862 33.125V32.625H125.43L125.368 33.0524L125.862 33.125ZM125.605 34.8828L125.11 34.8103L125.108 34.8216L125.107 34.8331L125.605 34.8828ZM127.421 23.8203L127.915 23.8993L127.916 23.8892L127.918 23.8791L127.421 23.8203ZM126.343 30.5586L125.849 30.4796L125.757 31.0586H126.343V30.5586ZM128.652 30.5586V31.0586H129.23L129.146 30.4863L128.652 30.5586ZM127.667 23.8203L128.162 23.748L128.161 23.7423L127.667 23.8203ZM127.527 22.9297L128.02 22.8517L127.03 22.8709L127.527 22.9297ZM123.214 34.9716L126.19 18.4834L125.206 18.3057L122.23 34.794L123.214 34.9716ZM126.184 18.5158C126.172 18.56 126.14 18.6444 126.052 18.7147C125.962 18.7862 125.869 18.8008 125.816 18.8008V17.8008C125.7 17.8008 125.556 17.831 125.427 17.9338C125.3 18.0353 125.24 18.1666 125.213 18.2733L126.184 18.5158ZM125.816 18.8008H129.296V17.8008H125.816V18.8008ZM129.296 18.8008C129.243 18.8008 129.149 18.7862 129.06 18.7147C128.972 18.6444 128.939 18.56 128.928 18.5158L129.898 18.2733C129.872 18.1666 129.811 18.0353 129.685 17.9338C129.556 17.831 129.412 17.8008 129.296 17.8008V18.8008ZM128.921 18.48L131.78 34.9682L132.765 34.7974L129.906 18.3091L128.921 18.48ZM131.775 34.9326C131.773 34.9132 131.763 34.7859 131.865 34.6584C131.978 34.5166 132.127 34.5 132.179 34.5V35.5C132.301 35.5 132.501 35.4639 132.646 35.2831C132.779 35.1164 132.78 34.9306 132.77 34.8331L131.775 34.9326ZM132.179 34.5H129.519V35.5H132.179V34.5ZM129.519 34.5C129.56 34.5 129.666 34.5113 129.764 34.6007C129.862 34.6899 129.883 34.793 129.887 34.8331L128.892 34.9326C128.904 35.0508 128.951 35.2125 129.092 35.3407C129.233 35.4692 129.399 35.5 129.519 35.5V34.5ZM129.885 34.8103L129.627 33.0524L128.637 33.1976L128.895 34.9554L129.885 34.8103ZM129.132 32.625H125.862V33.625H129.132V32.625ZM125.368 33.0524L125.11 34.8103L126.099 34.9554L126.357 33.1976L125.368 33.0524ZM125.107 34.8331C125.11 34.8047 125.126 34.7076 125.216 34.6171C125.314 34.5191 125.428 34.5 125.487 34.5V35.5C125.617 35.5 125.786 35.4614 125.923 35.3243C126.053 35.1948 126.092 35.039 126.102 34.9326L125.107 34.8331ZM125.487 34.5H122.816V35.5H125.487V34.5ZM122.816 34.5C122.895 34.5 123.033 34.5302 123.136 34.6584C123.221 34.7652 123.222 34.8685 123.222 34.8828H122.222C122.222 34.9753 122.238 35.1372 122.355 35.2831C122.489 35.4502 122.674 35.5 122.816 35.5V34.5ZM126.927 23.7413L125.849 30.4796L126.837 30.6376L127.915 23.8993L126.927 23.7413ZM126.343 31.0586H128.652V30.0586H126.343V31.0586ZM129.146 30.4863L128.162 23.748L127.172 23.8926L128.157 30.6309L129.146 30.4863ZM128.161 23.7423L128.02 22.8517L127.033 23.0077L127.173 23.8983L128.161 23.7423ZM127.03 22.8709L126.925 23.7615L127.918 23.8791L128.023 22.9885L127.03 22.8709ZM136.788 21.1953H137.288V20.6953H136.788V21.1953ZM133.554 21.0781L133.054 21.0738V21.0781H133.554ZM133.577 18.3945L134.077 18.3989V18.3945H133.577ZM139.671 21.1953V20.6953H139.17L139.171 21.1962L139.671 21.1953ZM139.694 34.8828H140.194V34.882L139.694 34.8828ZM139.601 34.5H136.894V35.5H139.601V34.5ZM136.894 34.5C136.95 34.5 137.08 34.5181 137.186 34.6362C137.283 34.7444 137.288 34.857 137.288 34.8828H136.288C136.288 34.9867 136.31 35.158 136.443 35.3052C136.584 35.4624 136.767 35.5 136.894 35.5V34.5ZM137.288 34.8828V21.1953H136.288V34.8828H137.288ZM136.788 20.6953H133.671V21.6953H136.788V20.6953ZM133.671 20.6953C133.709 20.6953 133.829 20.7052 133.937 20.8125C134.044 20.9198 134.054 21.0401 134.054 21.0781H133.054C133.054 21.1943 133.083 21.3732 133.229 21.5196C133.376 21.6659 133.555 21.6953 133.671 21.6953V20.6953ZM134.054 21.0825L134.077 18.3989L133.077 18.3902L133.054 21.0738L134.054 21.0825ZM134.077 18.3945C134.077 18.4404 134.065 18.5666 133.954 18.6778C133.843 18.789 133.717 18.8008 133.671 18.8008V17.8008C133.563 17.8008 133.39 17.8282 133.247 17.9707C133.105 18.1131 133.077 18.2862 133.077 18.3945H134.077ZM133.671 18.8008H142.788V17.8008H133.671V18.8008ZM142.788 18.8008C142.785 18.8008 142.693 18.8029 142.591 18.7286C142.534 18.6875 142.486 18.6306 142.454 18.5618C142.424 18.4958 142.417 18.4359 142.417 18.3945H143.417C143.417 18.2354 143.354 18.047 143.179 17.9199C143.034 17.8142 142.877 17.8008 142.788 17.8008V18.8008ZM142.417 18.3945V21.0781H143.417V18.3945H142.417ZM142.417 21.0781C142.417 21.0638 142.418 20.9605 142.503 20.8537C142.606 20.7256 142.744 20.6953 142.823 20.6953V21.6953C142.965 21.6953 143.15 21.6455 143.284 21.4784C143.401 21.3325 143.417 21.1706 143.417 21.0781H142.417ZM142.823 20.6953H139.671V21.6953H142.823V20.6953ZM139.171 21.1962L139.194 34.8837L140.194 34.882L140.171 21.1945L139.171 21.1962ZM139.194 34.8828C139.194 34.8685 139.195 34.7652 139.281 34.6584C139.383 34.5302 139.522 34.5 139.601 34.5V35.5C139.742 35.5 139.928 35.4502 140.061 35.2831C140.178 35.1372 140.194 34.9753 140.194 34.8828H139.194ZM146.249 34.8828L145.749 34.8814V34.8828H146.249ZM146.296 18.3945L146.796 18.396V18.3945H146.296ZM153.456 18.957L153.716 18.5299L153.712 18.5275L153.456 18.957ZM155.155 20.7031L154.721 20.9507L154.722 20.9527L155.155 20.7031ZM154.194 26.4102L153.869 26.03L153.458 26.3813L153.841 26.7637L154.194 26.4102ZM154.991 32.4805L155.421 32.7351L155.423 32.7319L154.991 32.4805ZM153.175 34.3203L153.431 34.7495L153.435 34.7475L153.175 34.3203ZM149.179 21.1484V20.6484H148.679V21.1484H149.179ZM149.179 24.9219H148.679V25.4219H149.179V24.9219ZM152.354 24.3359L152.73 24.6663L152.733 24.6626L152.354 24.3359ZM152.319 21.7227L151.958 22.0688L151.962 22.0725L152.319 21.7227ZM149.179 27.8281V27.3281H148.681L148.679 27.8254L149.179 27.8281ZM149.155 32.0703L148.655 32.0676L148.652 32.5703H149.155V32.0703ZM150.643 34.5H146.343V35.5H150.643V34.5ZM146.343 34.5C146.422 34.5 146.56 34.5302 146.663 34.6584C146.748 34.7652 146.749 34.8685 146.749 34.8828H145.749C145.749 34.9753 145.765 35.1372 145.882 35.2831C146.016 35.4502 146.201 35.5 146.343 35.5V34.5ZM146.749 34.8842L146.796 18.396L145.796 18.3931L145.749 34.8814L146.749 34.8842ZM146.796 18.3945C146.796 18.4404 146.784 18.5666 146.673 18.6778C146.562 18.789 146.435 18.8008 146.39 18.8008V17.8008C146.281 17.8008 146.108 17.8282 145.966 17.9707C145.823 18.1131 145.796 18.2862 145.796 18.3945H146.796ZM146.39 18.8008H151.007V17.8008H146.39V18.8008ZM151.007 18.8008C151.82 18.8008 152.547 18.9976 153.2 19.3866L153.712 18.5275C152.896 18.0415 151.99 17.8008 151.007 17.8008V18.8008ZM153.196 19.3841C153.843 19.7778 154.349 20.2983 154.721 20.9507L155.59 20.4556C155.133 19.6549 154.507 19.0112 153.716 18.5299L153.196 19.3841ZM154.722 20.9527C155.091 21.5942 155.276 22.2892 155.276 23.0469H156.276C156.276 22.1171 156.047 21.2496 155.588 20.4535L154.722 20.9527ZM155.276 23.0469C155.276 23.6553 155.139 24.2157 154.865 24.7359L155.75 25.2016C156.101 24.5343 156.276 23.8134 156.276 23.0469H155.276ZM154.865 24.7359C154.577 25.2838 154.243 25.711 153.869 26.03L154.519 26.7903C155.005 26.375 155.413 25.8412 155.75 25.2016L154.865 24.7359ZM153.841 26.7637C154.255 27.1784 154.579 27.6595 154.812 28.2104L155.733 27.8208C155.45 27.153 155.055 26.5638 154.548 26.0566L153.841 26.7637ZM154.812 28.2104C155.043 28.7572 155.159 29.3315 155.159 29.9375H156.159C156.159 29.1998 156.017 28.4928 155.733 27.8208L154.812 28.2104ZM155.159 29.9375C155.159 30.7834 154.958 31.5436 154.559 32.2291L155.423 32.7319C155.915 31.886 156.159 30.9509 156.159 29.9375H155.159ZM154.561 32.2258C154.149 32.921 153.602 33.475 152.915 33.8931L153.435 34.7475C154.263 34.2438 154.927 33.5712 155.421 32.7351L154.561 32.2258ZM152.918 33.8912C152.242 34.2954 151.488 34.5 150.643 34.5V35.5C151.659 35.5 152.592 35.2514 153.431 34.7494L152.918 33.8912ZM151.007 20.6484H149.179V21.6484H151.007V20.6484ZM148.679 21.1484V24.9219H149.679V21.1484H148.679ZM149.179 25.4219H151.007V24.4219H149.179V25.4219ZM151.007 25.4219C151.694 25.4219 152.284 25.1726 152.73 24.6663L151.979 24.0056C151.737 24.2806 151.428 24.4219 151.007 24.4219V25.4219ZM152.733 24.6626C153.143 24.187 153.37 23.6446 153.37 23.0469H152.37C152.37 23.371 152.253 23.688 151.976 24.0093L152.733 24.6626ZM153.37 23.0469C153.37 22.4035 153.132 21.8378 152.676 21.3728L151.962 22.0725C152.241 22.3575 152.37 22.6747 152.37 23.0469H153.37ZM152.68 21.3765C152.223 20.9003 151.657 20.6484 151.007 20.6484V21.6484C151.372 21.6484 151.681 21.7793 151.958 22.0688L152.68 21.3765ZM150.643 27.3281H149.179V28.3281H150.643V27.3281ZM148.679 27.8254L148.655 32.0676L149.655 32.0731L149.679 27.8309L148.679 27.8254ZM149.155 32.5703H150.643V31.5703H149.155V32.5703ZM150.643 32.5703C151.359 32.5703 151.983 32.303 152.489 31.7877L151.775 31.0873C151.452 31.4158 151.084 31.5703 150.643 31.5703V32.5703ZM152.489 31.7877C152.992 31.2747 153.253 30.6499 153.253 29.9375H152.253C152.253 30.3814 152.099 30.7565 151.775 31.0873L152.489 31.7877ZM153.253 29.9375C153.253 29.2249 152.992 28.6021 152.485 28.0957L151.778 28.8028C152.1 29.1244 152.253 29.4939 152.253 29.9375H153.253ZM152.485 28.0957C151.979 27.5892 151.356 27.3281 150.643 27.3281V28.3281C151.087 28.3281 151.457 28.4811 151.778 28.8028L152.485 28.0957ZM161.628 34.5781L161.366 35.004L161.368 35.0052L161.628 34.5781ZM159.905 32.832L159.473 33.0846L159.477 33.09L159.905 32.832ZM159.26 30.418L158.76 30.4164V30.418H159.26ZM159.284 22.8125L159.784 22.814V22.8125H159.284ZM159.928 20.4102L160.356 20.6688L160.36 20.6633L159.928 20.4102ZM161.639 18.6875L161.896 19.1167L161.899 19.1146L161.639 18.6875ZM166.339 18.6758L166.076 19.1011L166.078 19.1024L166.339 18.6758ZM168.026 20.4102L167.594 20.6612L167.597 20.6667L168.026 20.4102ZM168.671 22.8125H168.171V22.814L168.671 22.8125ZM168.694 30.418H169.194V30.4164L168.694 30.418ZM168.061 32.8203L168.493 33.0728L168.494 33.0714L168.061 32.8203ZM165.249 31.7539L165.617 32.0925L165.62 32.0888L165.249 31.7539ZM165.788 30.418H166.288V30.4164L165.788 30.418ZM165.764 22.8125H165.264V22.814L165.764 22.8125ZM162.717 31.7773L162.349 32.1156L162.353 32.1193L162.717 31.7773ZM163.983 34.7344C163.222 34.7344 162.527 34.5402 161.888 34.151L161.368 35.0052C162.166 35.491 163.041 35.7344 163.983 35.7344V34.7344ZM161.89 34.1523C161.248 33.7574 160.73 33.2334 160.333 32.5741L159.477 33.09C159.955 33.8838 160.585 34.5239 161.366 35.004L161.89 34.1523ZM160.337 32.5795C159.953 31.924 159.76 31.2069 159.76 30.418H158.76C158.76 31.3791 158.998 32.2713 159.473 33.0845L160.337 32.5795ZM159.76 30.4195L159.784 22.814L158.784 22.811L158.76 30.4164L159.76 30.4195ZM159.784 22.8125C159.784 22.0062 159.977 21.2961 160.356 20.6688L159.501 20.1515C159.02 20.9461 158.784 21.8375 158.784 22.8125H159.784ZM160.36 20.6633C160.739 20.0173 161.249 19.5035 161.896 19.1167L161.383 18.2583C160.592 18.7309 159.962 19.3655 159.497 20.1571L160.36 20.6633ZM161.899 19.1146C162.54 18.7249 163.231 18.5312 163.983 18.5312V17.5312C163.048 17.5312 162.177 17.7751 161.379 18.2604L161.899 19.1146ZM163.983 18.5312C164.772 18.5312 165.465 18.7237 166.076 19.1011L166.601 18.2504C165.822 17.7685 164.944 17.5312 163.983 17.5312V18.5312ZM166.078 19.1024C166.709 19.4879 167.213 20.0051 167.594 20.6612L168.458 20.1591C167.996 19.3621 167.375 18.723 166.599 18.2491L166.078 19.1024ZM167.597 20.6667C167.978 21.3036 168.171 22.0149 168.171 22.8125H169.171C169.171 21.8444 168.934 20.9542 168.455 20.1536L167.597 20.6667ZM168.171 22.814L168.194 30.4195L169.194 30.4164L169.171 22.811L168.171 22.814ZM168.194 30.418C168.194 31.2086 168.005 31.9222 167.629 32.5692L168.494 33.0714C168.962 32.2653 169.194 31.3773 169.194 30.418H168.194ZM167.63 32.5678C167.241 33.2328 166.728 33.7586 166.088 34.1523L166.612 35.004C167.395 34.5226 168.023 33.8766 168.493 33.0728L167.63 32.5678ZM166.088 34.1523C165.459 34.5394 164.762 34.7344 163.983 34.7344V35.7344C164.939 35.7344 165.819 35.4919 166.612 35.004L166.088 34.1523ZM163.983 32.8398C164.622 32.8398 165.173 32.575 165.617 32.0924L164.881 31.4154C164.606 31.7141 164.313 31.8398 163.983 31.8398V32.8398ZM165.62 32.0888C166.054 31.6075 166.288 31.0454 166.288 30.418H165.288C165.288 30.7749 165.162 31.1035 164.877 31.419L165.62 32.0888ZM166.288 30.4164L166.264 22.811L165.264 22.814L165.288 30.4195L166.288 30.4164ZM166.264 22.8125C166.264 22.1655 166.056 21.5933 165.629 21.1273L164.892 21.8024C165.137 22.0708 165.264 22.397 165.264 22.8125H166.264ZM165.629 21.1273C165.195 20.6525 164.633 20.4141 163.983 20.4141V21.4141C164.364 21.4141 164.654 21.5428 164.892 21.8024L165.629 21.1273ZM163.983 20.4141C163.353 20.4141 162.803 20.6503 162.36 21.1035L163.075 21.8028C163.335 21.5372 163.629 21.4141 163.983 21.4141V20.4141ZM162.36 21.1035C161.909 21.5649 161.69 22.1475 161.69 22.8125H162.69C162.69 22.3837 162.823 22.0601 163.075 21.8028L162.36 21.1035ZM161.69 22.8125V30.418H162.69V22.8125H161.69ZM161.69 30.418C161.69 31.0657 161.912 31.6398 162.349 32.1155L163.086 31.4391C162.82 31.1493 162.69 30.8171 162.69 30.418H161.69ZM162.353 32.1193C162.794 32.5901 163.346 32.8398 163.983 32.8398V31.8398C163.636 31.8398 163.344 31.7146 163.082 31.4354L162.353 32.1193ZM174.487 21.1953H174.987V20.6953H174.487V21.1953ZM171.253 21.0781L170.753 21.0738V21.0781H171.253ZM171.276 18.3945L171.776 18.3989V18.3945H171.276ZM177.37 21.1953V20.6953H176.869L176.87 21.1962L177.37 21.1953ZM177.393 34.8828H177.893V34.882L177.393 34.8828ZM177.299 34.5H174.592V35.5H177.299V34.5ZM174.592 34.5C174.649 34.5 174.779 34.5181 174.885 34.6362C174.982 34.7444 174.987 34.857 174.987 34.8828H173.987C173.987 34.9867 174.009 35.158 174.142 35.3052C174.283 35.4624 174.466 35.5 174.592 35.5V34.5ZM174.987 34.8828V21.1953H173.987V34.8828H174.987ZM174.487 20.6953H171.37V21.6953H174.487V20.6953ZM171.37 20.6953C171.408 20.6953 171.528 20.7052 171.635 20.8125C171.743 20.9198 171.753 21.0401 171.753 21.0781H170.753C170.753 21.1943 170.782 21.3732 170.928 21.5196C171.075 21.6659 171.254 21.6953 171.37 21.6953V20.6953ZM171.752 21.0825L171.776 18.3989L170.776 18.3902L170.753 21.0738L171.752 21.0825ZM171.776 18.3945C171.776 18.4404 171.764 18.5666 171.653 18.6778C171.542 18.789 171.416 18.8008 171.37 18.8008V17.8008C171.261 17.8008 171.088 17.8282 170.946 17.9707C170.803 18.1131 170.776 18.2862 170.776 18.3945H171.776ZM171.37 18.8008H180.487V17.8008H171.37V18.8008ZM180.487 18.8008C180.484 18.8008 180.392 18.8029 180.289 18.7286C180.233 18.6875 180.185 18.6306 180.153 18.5618C180.123 18.4958 180.116 18.4359 180.116 18.3945H181.116C181.116 18.2354 181.052 18.047 180.878 17.9199C180.732 17.8142 180.576 17.8008 180.487 17.8008V18.8008ZM180.116 18.3945V21.0781H181.116V18.3945H180.116ZM180.116 21.0781C180.116 21.0638 180.116 20.9605 180.202 20.8537C180.304 20.7256 180.443 20.6953 180.522 20.6953V21.6953C180.664 21.6953 180.849 21.6455 180.983 21.4784C181.099 21.3325 181.116 21.1706 181.116 21.0781H180.116ZM180.522 20.6953H177.37V21.6953H180.522V20.6953ZM176.87 21.1962L176.893 34.8837L177.893 34.882L177.87 21.1945L176.87 21.1962ZM176.893 34.8828C176.893 34.8685 176.894 34.7652 176.979 34.6584C177.082 34.5302 177.22 34.5 177.299 34.5V35.5C177.441 35.5 177.626 35.4502 177.76 35.2831C177.877 35.1372 177.893 34.9753 177.893 34.8828H176.893Z" fill="white"/>
<defs>
<filter id="filter0_f_618_314" x="5.44434" y="36.9217" width="43.9551" height="24.6809" filterUnits="userSpaceOnUse" color-interpolation-filters="sRGB">
<feFlood flood-opacity="0" result="BackgroundImageFix"/>
<feBlend mode="normal" in="SourceGraphic" in2="BackgroundImageFix" result="shape"/>
<feGaussianBlur stdDeviation="5" result="effect1_foregroundBlur_618_314"/>
</filter>
<linearGradient id="paint0_linear_618_314" x1="27.449" y1="43.1833" x2="27.449" y2="40.9365" gradientUnits="userSpaceOnUse">
<stop stop-color="#D6D6D6"/>
<stop offset="1" stop-color="#EFEFEF"/>
</linearGradient>
<linearGradient id="paint1_linear_618_314" x1="11.7593" y1="14.503" x2="47.0039" y2="37.6323" gradientUnits="userSpaceOnUse">
<stop stop-color="#F0F0F0"/>
<stop offset="0.304048" stop-color="#EDEDED"/>
<stop offset="1" stop-color="#D3D3D3"/>
</linearGradient>
<linearGradient id="paint2_linear_618_314" x1="44.3586" y1="31.2993" x2="8.83858" y2="23.5896" gradientUnits="userSpaceOnUse">
<stop stop-color="#F4F4F4"/>
<stop offset="1" stop-color="#C7C7C7"/>
</linearGradient>
<linearGradient id="paint3_linear_618_314" x1="16.9337" y1="16.2928" x2="12.3904" y2="20.2854" gradientUnits="userSpaceOnUse">
<stop stop-color="#E4E4E4"/>
<stop offset="0.489583" stop-color="#E4E4E4" stop-opacity="0.65625"/>
<stop offset="1" stop-color="#E4E4E4" stop-opacity="0"/>
</linearGradient>
</defs>
</svg>
