<svg width="26" height="26" viewBox="0 0 26 26" fill="none" xmlns="http://www.w3.org/2000/svg">
<path opacity="0.4" d="M18.418 9.75033C18.344 11.8326 17.4469 13.8005 15.9237 15.2222C14.4004 16.6439 12.3754 17.4033 10.293 17.3337L9.28547 18.547L8.68964 19.262C8.57201 19.4031 8.42045 19.5119 8.24919 19.5783C8.07793 19.6447 7.8926 19.6665 7.71061 19.6416C7.52863 19.6167 7.35596 19.5459 7.20885 19.4359C7.06174 19.3259 6.94501 19.1803 6.86964 19.0128L5.41797 15.817C4.42686 15.1431 3.61359 14.2394 3.04763 13.1829C2.48168 12.1265 2.17987 10.9488 2.16797 9.75033C2.24198 7.66803 3.13902 5.70013 4.66226 4.27844C6.1855 2.85675 8.21052 2.09739 10.293 2.16699C11.8098 2.14252 13.3032 2.54237 14.6048 3.32144C15.9065 4.10051 16.9645 5.2278 17.6596 6.57616C18.1591 7.55964 18.419 8.64728 18.418 9.75033Z" fill="white"/>
<path d="M23.8353 13.9315C23.8234 15.1299 23.5216 16.3076 22.9556 17.3641C22.3897 18.4205 21.5764 19.3243 20.5853 19.9981L19.1336 23.194C19.0583 23.3615 18.9415 23.507 18.7944 23.617C18.6473 23.727 18.4746 23.7978 18.2927 23.8227C18.1107 23.8476 17.9253 23.8259 17.7541 23.7595C17.5828 23.6931 17.4313 23.5842 17.3136 23.4431L15.7103 21.5148C14.4862 21.5287 13.2743 21.2695 12.163 20.756C11.0517 20.2426 10.0689 19.4877 9.28613 18.5465L10.2936 17.3331C12.3761 17.4027 14.4011 16.6434 15.9243 15.2217C17.4476 13.8 18.3446 11.8321 18.4186 9.74979C18.4196 8.64675 18.1598 7.5591 17.6603 6.57562C19.3701 6.92199 20.9118 7.83812 22.0335 9.17425C23.1551 10.5104 23.7903 12.1875 23.8353 13.9315Z" fill="white"/>
<path d="M13.0046 10.5625H7.58789C7.37284 10.5611 7.167 10.475 7.01494 10.323C6.86287 10.1709 6.77681 9.96505 6.77539 9.75C6.77681 9.53495 6.86287 9.32911 7.01494 9.17704C7.167 9.02498 7.37284 8.93892 7.58789 8.9375H13.0046C13.2196 8.93892 13.4254 9.02498 13.5775 9.17704C13.7296 9.32911 13.8156 9.53495 13.8171 9.75C13.8156 9.96505 13.7296 10.1709 13.5775 10.323C13.4254 10.475 13.2196 10.5611 13.0046 10.5625Z" fill="white"/>
</svg>
