<svg width="38" height="38" viewBox="0 0 38 38" fill="none" xmlns="http://www.w3.org/2000/svg">
<path opacity="0.4" d="M14.1708 26.0582C14.3316 25.8697 14.5336 25.7207 14.7613 25.623C14.989 25.5252 15.2361 25.4813 15.4835 25.4946C15.731 25.5079 15.972 25.5781 16.1878 25.6997C16.4037 25.8213 16.5887 25.991 16.7283 26.1957L17.6541 27.4332C17.7981 27.6588 17.9966 27.8445 18.2314 27.9731C18.4661 28.1017 18.7294 28.1692 18.997 28.1692C19.2647 28.1692 19.528 28.1017 19.7627 27.9731C19.9974 27.8445 20.196 27.6588 20.34 27.4332L21.2658 26.1957C21.4054 25.991 21.5904 25.8213 21.8062 25.6997C22.0221 25.5781 22.2631 25.5079 22.5105 25.4946C22.758 25.4813 23.0051 25.5252 23.2328 25.623C23.4605 25.7207 23.6625 25.8697 23.8233 26.0582C25.455 27.7999 26.7841 27.2224 26.7841 24.784V14.4532C26.7933 10.759 25.9316 9.83319 22.4666 9.83319H15.5366C12.0716 9.83319 11.21 10.759 11.21 14.4532V24.7749C11.21 27.2224 12.5483 27.7907 14.1708 26.0582Z" fill="white"/>
<path d="M22.6683 15.1043H15.335C15.153 15.1031 14.9788 15.0303 14.8502 14.9016C14.7215 14.7729 14.6487 14.5988 14.6475 14.4168C14.6487 14.2348 14.7215 14.0607 14.8502 13.932C14.9788 13.8033 15.153 13.7305 15.335 13.7293H22.6683C22.8503 13.7305 23.0244 13.8033 23.1531 13.932C23.2818 14.0607 23.3546 14.2348 23.3558 14.4168C23.3546 14.5988 23.2818 14.7729 23.1531 14.9016C23.0244 15.0303 22.8503 15.1031 22.6683 15.1043Z" fill="white"/>
<path d="M21.75 18.7707H16.25C16.068 18.7695 15.8939 18.6967 15.7652 18.568C15.6365 18.4393 15.5637 18.2652 15.5625 18.0832C15.5637 17.9012 15.6365 17.7271 15.7652 17.5984C15.8939 17.4697 16.068 17.3969 16.25 17.3957H21.75C21.932 17.3969 22.1061 17.4697 22.2348 17.5984C22.3635 17.7271 22.4363 17.9012 22.4375 18.0832C22.4363 18.2652 22.3635 18.4393 22.2348 18.568C22.1061 18.6967 21.932 18.7695 21.75 18.7707Z" fill="white"/>
<rect x="0.5" y="0.5" width="37" height="37" rx="9.5" stroke="url(#paint0_linear_403_1807)"/>
<defs>
<linearGradient id="paint0_linear_403_1807" x1="3.09857" y1="2.03892" x2="38" y2="38" gradientUnits="userSpaceOnUse">
<stop stop-color="#C7F431" stop-opacity="0.46"/>
<stop offset="1" stop-color="#C7F431" stop-opacity="0"/>
</linearGradient>
</defs>
</svg>
