<svg width="38" height="38" viewBox="0 0 38 38" fill="none" xmlns="http://www.w3.org/2000/svg">
<rect x="0.5" y="0.5" width="37" height="37" rx="9.5" stroke="url(#paint0_linear_618_312)"/>
<g clip-path="url(#clip0_618_312)">
<path d="M8.16699 19.9533V18.0467C8.16871 17.5013 8.38612 16.9787 8.77176 16.5931C9.1574 16.2074 9.67995 15.99 10.2253 15.9883C12.1862 15.9883 12.9878 14.6017 12.002 12.9008C11.7313 12.428 11.6591 11.8671 11.8013 11.3412C11.9434 10.8152 12.2883 10.3671 12.7603 10.095L14.6345 9.02249C15.0484 8.7817 15.5408 8.7149 16.0039 8.83676C16.4669 8.95861 16.8628 9.25917 17.1045 9.67249L17.2237 9.87832C18.1987 11.5792 19.802 11.5792 20.7878 9.87832L20.907 9.67249C21.1487 9.25917 21.5445 8.95861 22.0076 8.83676C22.4706 8.7149 22.9631 8.7817 23.377 9.02249L25.2512 10.095C25.7232 10.3671 26.068 10.8152 26.2102 11.3412C26.3523 11.8671 26.2802 12.428 26.0095 12.9008C25.0237 14.6017 25.8253 15.9883 27.7862 15.9883C28.3315 15.99 28.8541 16.2074 29.2397 16.5931C29.6254 16.9787 29.8428 17.5013 29.8445 18.0467V19.9533C29.8428 20.4987 29.6254 21.0212 29.2397 21.4069C28.8541 21.7925 28.3315 22.0099 27.7862 22.0117C25.8253 22.0117 25.0237 23.3983 26.0095 25.0992C26.2802 25.572 26.3523 26.1328 26.2102 26.6588C26.068 27.1847 25.7232 27.6329 25.2512 27.905L23.377 28.9775C22.9631 29.2183 22.4706 29.2851 22.0076 29.1632C21.5445 29.0414 21.1487 28.7408 20.907 28.3275L20.7878 28.1217C19.8128 26.4208 18.2095 26.4208 17.2237 28.1217L17.1045 28.3275C16.8628 28.7408 16.4669 29.0414 16.0039 29.1632C15.5408 29.2851 15.0484 29.2183 14.6345 28.9775L12.7603 27.905C12.2883 27.6329 11.9434 27.1847 11.8013 26.6588C11.6591 26.1328 11.7313 25.572 12.002 25.0992C12.9878 23.3983 12.1862 22.0117 10.2253 22.0117C9.67995 22.0099 9.1574 21.7925 8.77176 21.4069C8.38612 21.0212 8.16871 20.4987 8.16699 19.9533Z" fill="#83867B"/>
<path d="M22.5212 19C22.5212 19.6963 22.3147 20.3771 21.9278 20.9561C21.5409 21.5351 20.991 21.9863 20.3477 22.2528C19.7043 22.5193 18.9964 22.589 18.3134 22.4532C17.6305 22.3173 17.0031 21.982 16.5107 21.4896C16.0183 20.9972 15.683 20.3698 15.5471 19.6869C15.4113 19.0039 15.481 18.296 15.7475 17.6526C16.014 17.0093 16.4653 16.4594 17.0443 16.0725C17.6233 15.6856 18.304 15.4792 19.0003 15.4792C19.9341 15.4792 20.8296 15.8501 21.4899 16.5104C22.1502 17.1707 22.5212 18.0662 22.5212 19Z" fill="white"/>
</g>
<defs>
<linearGradient id="paint0_linear_618_312" x1="3.09857" y1="2.03892" x2="38" y2="38" gradientUnits="userSpaceOnUse">
<stop stop-color="#C7F431" stop-opacity="0.46"/>
<stop offset="1" stop-color="#C7F431" stop-opacity="0"/>
</linearGradient>
<clipPath id="clip0_618_312">
<rect width="26" height="26" fill="white" transform="translate(6 6)"/>
</clipPath>
</defs>
</svg>
